G75*
G70*
%OFA0B0*%
%FSLAX24Y24*%
%IPPOS*%
%LPD*%
%AMOC8*
5,1,8,0,0,1.08239X$1,22.5*
%
%ADD10C,0.0160*%
%ADD11OC8,0.0560*%
%ADD12OC8,0.0277*%
%ADD13C,0.0120*%
D10*
X000187Y000189D02*
X000187Y019189D01*
X032937Y019189D01*
X032937Y000189D01*
X000187Y000189D01*
D11*
X001062Y017564D03*
X002062Y017564D03*
X003062Y017564D03*
X004062Y017564D03*
X005062Y017564D03*
X006062Y017564D03*
X007062Y017564D03*
X008062Y017564D03*
X009062Y017564D03*
X010062Y017564D03*
X011062Y017564D03*
X012062Y017564D03*
X013062Y017564D03*
X014062Y017564D03*
X015062Y017564D03*
X016062Y017564D03*
X017062Y017564D03*
X018062Y017564D03*
X019062Y017564D03*
X020062Y017564D03*
X021062Y017564D03*
X022062Y017564D03*
X023062Y017564D03*
X024062Y017564D03*
X025062Y017564D03*
X026062Y017564D03*
X027062Y017564D03*
X028062Y017564D03*
X029062Y017564D03*
X030062Y017564D03*
X031062Y017564D03*
X032062Y017564D03*
X032062Y018564D03*
X031062Y018564D03*
X030062Y018564D03*
X029062Y018564D03*
X028062Y018564D03*
X027062Y018564D03*
X026062Y018564D03*
X025062Y018564D03*
X024062Y018564D03*
X023062Y018564D03*
X022062Y018564D03*
X021062Y018564D03*
X020062Y018564D03*
X019062Y018564D03*
X018062Y018564D03*
X017062Y018564D03*
X016062Y018564D03*
X015062Y018564D03*
X014062Y018564D03*
X013062Y018564D03*
X012062Y018564D03*
X011062Y018564D03*
X010062Y018564D03*
X009062Y018564D03*
X008062Y018564D03*
X007062Y018564D03*
X006062Y018564D03*
X005062Y018564D03*
X004062Y018564D03*
X003062Y018564D03*
X002062Y018564D03*
X001062Y018564D03*
D12*
X001187Y016314D03*
X002187Y016314D03*
X003187Y016314D03*
X004187Y016314D03*
X005187Y016314D03*
X006187Y016314D03*
X007187Y016314D03*
X008187Y016314D03*
X009187Y016314D03*
X010187Y016314D03*
X011187Y016314D03*
X012187Y016314D03*
X013187Y016314D03*
X014187Y016314D03*
X015187Y016314D03*
X016187Y016314D03*
X017187Y016314D03*
X018187Y016314D03*
X019187Y016314D03*
X020187Y016314D03*
X021187Y016314D03*
X022187Y016314D03*
X023187Y016314D03*
X024187Y016314D03*
X025187Y016314D03*
X026187Y016314D03*
X027187Y016314D03*
X028187Y016314D03*
X029187Y016314D03*
X030187Y016314D03*
X031187Y016314D03*
X031812Y016189D03*
X032187Y016314D03*
X032187Y015314D03*
X031187Y015314D03*
X030812Y015189D03*
X030187Y015314D03*
X029187Y015314D03*
X028187Y015314D03*
X027187Y015314D03*
X026187Y015314D03*
X025187Y015314D03*
X024187Y015314D03*
X023187Y015314D03*
X022187Y015314D03*
X021187Y015314D03*
X020187Y015314D03*
X019187Y015314D03*
X018187Y015314D03*
X017187Y015314D03*
X016187Y015314D03*
X015187Y015314D03*
X014187Y015314D03*
X013187Y015314D03*
X012187Y015314D03*
X011187Y015314D03*
X010187Y015314D03*
X009187Y015314D03*
X008187Y015314D03*
X007187Y015314D03*
X006187Y015314D03*
X005187Y015314D03*
X004187Y015314D03*
X003187Y015314D03*
X002187Y015314D03*
X001812Y015189D03*
X001187Y015314D03*
X001187Y014314D03*
X002187Y014314D03*
X002812Y014189D03*
X003187Y014314D03*
X004187Y014314D03*
X005187Y014314D03*
X006187Y014314D03*
X007187Y014314D03*
X008187Y014314D03*
X009187Y014314D03*
X010187Y014314D03*
X011187Y014314D03*
X012187Y014314D03*
X013187Y014314D03*
X014187Y014314D03*
X015187Y014314D03*
X016187Y014314D03*
X017187Y014314D03*
X018187Y014314D03*
X019187Y014314D03*
X020187Y014314D03*
X021187Y014314D03*
X022187Y014314D03*
X023187Y014314D03*
X024187Y014314D03*
X025187Y014314D03*
X026187Y014314D03*
X027187Y014314D03*
X028187Y014314D03*
X029187Y014314D03*
X029812Y014189D03*
X030187Y014314D03*
X031187Y014314D03*
X032187Y014314D03*
X032187Y013314D03*
X031187Y013314D03*
X030187Y013314D03*
X029187Y013314D03*
X028812Y013189D03*
X028187Y013314D03*
X027187Y013314D03*
X026187Y013314D03*
X025187Y013314D03*
X024187Y013314D03*
X023187Y013314D03*
X022187Y013314D03*
X021187Y013314D03*
X020187Y013314D03*
X019187Y013314D03*
X018187Y013314D03*
X017187Y013314D03*
X016187Y013314D03*
X015187Y013314D03*
X014187Y013314D03*
X013187Y013314D03*
X012187Y013314D03*
X011187Y013314D03*
X010187Y013314D03*
X009187Y013314D03*
X008187Y013314D03*
X007187Y013314D03*
X006187Y013314D03*
X005187Y013314D03*
X004187Y013314D03*
X003812Y013189D03*
X003187Y013314D03*
X002187Y013314D03*
X001187Y013314D03*
X001187Y012314D03*
X002187Y012314D03*
X003187Y012314D03*
X004187Y012314D03*
X004812Y012189D03*
X005187Y012314D03*
X006187Y012314D03*
X007187Y012314D03*
X008187Y012314D03*
X009187Y012314D03*
X010187Y012314D03*
X011187Y012314D03*
X012187Y012314D03*
X013187Y012314D03*
X014187Y012314D03*
X015187Y012314D03*
X016187Y012314D03*
X017187Y012314D03*
X018187Y012314D03*
X019187Y012314D03*
X020187Y012314D03*
X021187Y012314D03*
X022187Y012314D03*
X023187Y012314D03*
X024187Y012314D03*
X025187Y012314D03*
X026187Y012314D03*
X027187Y012314D03*
X027812Y012189D03*
X028187Y012314D03*
X029187Y012314D03*
X030187Y012314D03*
X031187Y012314D03*
X032187Y012314D03*
X032187Y011314D03*
X031187Y011314D03*
X030187Y011314D03*
X029187Y011314D03*
X028187Y011314D03*
X027187Y011314D03*
X026812Y011189D03*
X026187Y011314D03*
X025187Y011314D03*
X024187Y011314D03*
X023187Y011314D03*
X022187Y011314D03*
X021187Y011314D03*
X020187Y011314D03*
X019187Y011314D03*
X018187Y011314D03*
X017187Y011314D03*
X016187Y011314D03*
X015187Y011314D03*
X014187Y011314D03*
X013187Y011314D03*
X012187Y011314D03*
X011187Y011314D03*
X010187Y011314D03*
X009187Y011314D03*
X008187Y011314D03*
X007187Y011314D03*
X006187Y011314D03*
X005812Y011189D03*
X005187Y011314D03*
X004187Y011314D03*
X003187Y011314D03*
X002187Y011314D03*
X001187Y011314D03*
X001187Y010314D03*
X002187Y010314D03*
X003187Y010314D03*
X004187Y010314D03*
X005187Y010314D03*
X006187Y010314D03*
X006812Y010189D03*
X007187Y010314D03*
X008187Y010314D03*
X009187Y010314D03*
X010187Y010314D03*
X011187Y010314D03*
X012187Y010314D03*
X013187Y010314D03*
X014187Y010314D03*
X015187Y010314D03*
X016187Y010314D03*
X017187Y010314D03*
X018187Y010314D03*
X019187Y010314D03*
X020187Y010314D03*
X021187Y010314D03*
X022187Y010314D03*
X023187Y010314D03*
X024187Y010314D03*
X025187Y010314D03*
X025812Y010189D03*
X026187Y010314D03*
X027187Y010314D03*
X028187Y010314D03*
X029187Y010314D03*
X030187Y010314D03*
X031187Y010314D03*
X032187Y010314D03*
X032187Y009314D03*
X031187Y009314D03*
X030187Y009314D03*
X029187Y009314D03*
X028187Y009314D03*
X027187Y009314D03*
X026187Y009314D03*
X025187Y009314D03*
X024812Y009189D03*
X024187Y009314D03*
X023187Y009314D03*
X022187Y009314D03*
X021187Y009314D03*
X020187Y009314D03*
X019187Y009314D03*
X018187Y009314D03*
X017187Y009314D03*
X016187Y009314D03*
X015187Y009314D03*
X014187Y009314D03*
X013187Y009314D03*
X012187Y009314D03*
X011187Y009314D03*
X010187Y009314D03*
X009187Y009314D03*
X008187Y009314D03*
X007812Y009189D03*
X007187Y009314D03*
X006187Y009314D03*
X005187Y009314D03*
X004187Y009314D03*
X003187Y009314D03*
X002187Y009314D03*
X001187Y009314D03*
X001187Y008314D03*
X002187Y008314D03*
X003187Y008314D03*
X004187Y008314D03*
X005187Y008314D03*
X006187Y008314D03*
X007187Y008314D03*
X008187Y008314D03*
X008812Y008189D03*
X009187Y008314D03*
X010187Y008314D03*
X011187Y008314D03*
X012187Y008314D03*
X013187Y008314D03*
X014187Y008314D03*
X015187Y008314D03*
X016187Y008314D03*
X017187Y008314D03*
X018187Y008314D03*
X019187Y008314D03*
X020187Y008314D03*
X021187Y008314D03*
X022187Y008314D03*
X023187Y008314D03*
X023812Y008189D03*
X024187Y008314D03*
X025187Y008314D03*
X026187Y008314D03*
X027187Y008314D03*
X028187Y008314D03*
X029187Y008314D03*
X030187Y008314D03*
X031187Y008314D03*
X032187Y008314D03*
X032187Y007314D03*
X031187Y007314D03*
X030187Y007314D03*
X029187Y007314D03*
X028187Y007314D03*
X027187Y007314D03*
X026187Y007314D03*
X025187Y007314D03*
X024187Y007314D03*
X023187Y007314D03*
X022812Y007189D03*
X022187Y007314D03*
X021187Y007314D03*
X020187Y007314D03*
X019187Y007314D03*
X018187Y007314D03*
X017187Y007314D03*
X016187Y007314D03*
X015187Y007314D03*
X014187Y007314D03*
X013187Y007314D03*
X012187Y007314D03*
X011187Y007314D03*
X010187Y007314D03*
X009812Y007189D03*
X009187Y007314D03*
X008187Y007314D03*
X007187Y007314D03*
X006187Y007314D03*
X005187Y007314D03*
X004187Y007314D03*
X003187Y007314D03*
X002187Y007314D03*
X001187Y007314D03*
X001187Y006314D03*
X002187Y006314D03*
X003187Y006314D03*
X004187Y006314D03*
X005187Y006314D03*
X006187Y006314D03*
X007187Y006314D03*
X008187Y006314D03*
X009187Y006314D03*
X010187Y006314D03*
X010812Y006189D03*
X011187Y006314D03*
X012187Y006314D03*
X013187Y006314D03*
X014187Y006314D03*
X015187Y006314D03*
X016187Y006314D03*
X017187Y006314D03*
X018187Y006314D03*
X019187Y006314D03*
X020187Y006314D03*
X021187Y006314D03*
X021812Y006189D03*
X022187Y006314D03*
X023187Y006314D03*
X024187Y006314D03*
X025187Y006314D03*
X026187Y006314D03*
X027187Y006314D03*
X028187Y006314D03*
X029187Y006314D03*
X030187Y006314D03*
X031187Y006314D03*
X032187Y006314D03*
X032187Y005314D03*
X031187Y005314D03*
X030187Y005314D03*
X029187Y005314D03*
X028187Y005314D03*
X027187Y005314D03*
X026187Y005314D03*
X025187Y005314D03*
X024187Y005314D03*
X023187Y005314D03*
X022187Y005314D03*
X021187Y005314D03*
X020812Y005189D03*
X020187Y005314D03*
X019187Y005314D03*
X018187Y005314D03*
X017187Y005314D03*
X016187Y005314D03*
X015187Y005314D03*
X014187Y005314D03*
X013187Y005314D03*
X012187Y005314D03*
X011812Y005189D03*
X011187Y005314D03*
X010187Y005314D03*
X009187Y005314D03*
X008187Y005314D03*
X007187Y005314D03*
X006187Y005314D03*
X005187Y005314D03*
X004187Y005314D03*
X003187Y005314D03*
X002187Y005314D03*
X001187Y005314D03*
X001187Y004314D03*
X002187Y004314D03*
X003187Y004314D03*
X004187Y004314D03*
X005187Y004314D03*
X006187Y004314D03*
X007187Y004314D03*
X008187Y004314D03*
X009187Y004314D03*
X010187Y004314D03*
X011187Y004314D03*
X012187Y004314D03*
X012812Y004189D03*
X013187Y004314D03*
X014187Y004314D03*
X015187Y004314D03*
X016187Y004314D03*
X017187Y004314D03*
X018187Y004314D03*
X019187Y004314D03*
X019812Y004189D03*
X020187Y004314D03*
X021187Y004314D03*
X022187Y004314D03*
X023187Y004314D03*
X024187Y004314D03*
X025187Y004314D03*
X026187Y004314D03*
X027187Y004314D03*
X028187Y004314D03*
X029187Y004314D03*
X030187Y004314D03*
X031187Y004314D03*
X032187Y004314D03*
X032187Y003314D03*
X031187Y003314D03*
X030187Y003314D03*
X029187Y003314D03*
X028187Y003314D03*
X027187Y003314D03*
X026187Y003314D03*
X025187Y003314D03*
X024187Y003314D03*
X023187Y003314D03*
X022187Y003314D03*
X021187Y003314D03*
X020187Y003314D03*
X019187Y003314D03*
X018812Y003189D03*
X018187Y003314D03*
X017187Y003314D03*
X016187Y003314D03*
X015187Y003314D03*
X014187Y003314D03*
X013812Y003189D03*
X013187Y003314D03*
X012187Y003314D03*
X011187Y003314D03*
X010187Y003314D03*
X009187Y003314D03*
X008187Y003314D03*
X007187Y003314D03*
X006187Y003314D03*
X005187Y003314D03*
X004187Y003314D03*
X003187Y003314D03*
X002187Y003314D03*
X001187Y003314D03*
X001187Y002314D03*
X002187Y002314D03*
X003187Y002314D03*
X004187Y002314D03*
X005187Y002314D03*
X006187Y002314D03*
X007187Y002314D03*
X008187Y002314D03*
X009187Y002314D03*
X010187Y002314D03*
X011187Y002314D03*
X012187Y002314D03*
X013187Y002314D03*
X014187Y002314D03*
X015187Y002314D03*
X016187Y002314D03*
X017187Y002314D03*
X017812Y002189D03*
X018187Y002314D03*
X019187Y002314D03*
X020187Y002314D03*
X021187Y002314D03*
X022187Y002314D03*
X023187Y002314D03*
X024187Y002314D03*
X025187Y002314D03*
X026187Y002314D03*
X027187Y002314D03*
X028187Y002314D03*
X029187Y002314D03*
X030187Y002314D03*
X031187Y002314D03*
X032187Y002314D03*
X032187Y001314D03*
X031187Y001314D03*
X030187Y001314D03*
X029187Y001314D03*
X028187Y001314D03*
X027187Y001314D03*
X026187Y001314D03*
X025187Y001314D03*
X024187Y001314D03*
X023187Y001314D03*
X022187Y001314D03*
X021187Y001314D03*
X020187Y001314D03*
X019187Y001314D03*
X018187Y001314D03*
X017187Y001314D03*
X016812Y001189D03*
X016187Y001314D03*
X015187Y001314D03*
X014187Y001314D03*
X013187Y001314D03*
X012187Y001314D03*
X011187Y001314D03*
X010187Y001314D03*
X009187Y001314D03*
X008187Y001314D03*
X007187Y001314D03*
X006187Y001314D03*
X005187Y001314D03*
X004187Y001314D03*
X003187Y001314D03*
X002187Y001314D03*
X001187Y001314D03*
D13*
X001187Y002314D01*
X001187Y003314D01*
X001187Y004314D01*
X001187Y005314D01*
X001187Y006314D01*
X001187Y007314D01*
X001187Y008314D01*
X001187Y009314D01*
X001187Y010314D01*
X001187Y011314D01*
X001187Y012314D01*
X001187Y013314D01*
X001187Y014314D01*
X001187Y015314D01*
X001187Y016314D01*
X002187Y016314D02*
X002187Y015314D01*
X002187Y014314D01*
X002187Y013314D01*
X002187Y012314D01*
X002187Y011314D01*
X002187Y010314D01*
X002187Y009314D01*
X002187Y008314D01*
X002187Y007314D01*
X002187Y006314D01*
X002187Y005314D01*
X002187Y004314D01*
X002187Y003314D01*
X002187Y002314D01*
X002187Y001314D01*
X003187Y001314D02*
X003187Y002314D01*
X003187Y003314D01*
X003187Y004314D01*
X003187Y005314D01*
X003187Y006314D01*
X003187Y007314D01*
X003187Y008314D01*
X003187Y009314D01*
X003187Y010314D01*
X003187Y011314D01*
X003187Y012314D01*
X003187Y013314D01*
X003187Y014314D01*
X003187Y015314D01*
X003187Y016314D01*
X004187Y016314D02*
X004187Y015314D01*
X004187Y014314D01*
X004187Y013314D01*
X004187Y012314D01*
X004187Y011314D01*
X004187Y010314D01*
X004187Y009314D01*
X004187Y008314D01*
X004187Y007314D01*
X004187Y006314D01*
X004187Y005314D01*
X004187Y004314D01*
X004187Y003314D01*
X004187Y002314D01*
X004187Y001314D01*
X005187Y001314D02*
X005187Y002314D01*
X005187Y003314D01*
X005187Y004314D01*
X005187Y005314D01*
X005187Y006314D01*
X005187Y007314D01*
X005187Y008314D01*
X005187Y009314D01*
X005187Y010314D01*
X005187Y011314D01*
X005187Y012314D01*
X005187Y013314D01*
X005187Y014314D01*
X005187Y015314D01*
X005187Y016314D01*
X006187Y016314D02*
X006187Y015314D01*
X006187Y014314D01*
X006187Y013314D01*
X006187Y012314D01*
X006187Y011314D01*
X006187Y010314D01*
X006187Y009314D01*
X006187Y008314D01*
X006187Y007314D01*
X006187Y006314D01*
X006187Y005314D01*
X006187Y004314D01*
X006187Y003314D01*
X006187Y002314D01*
X006187Y001314D01*
X007187Y001314D02*
X007187Y002314D01*
X007187Y003314D01*
X007187Y004314D01*
X007187Y005314D01*
X007187Y006314D01*
X007187Y007314D01*
X007187Y008314D01*
X007187Y009314D01*
X007187Y010314D01*
X007187Y011314D01*
X007187Y012314D01*
X007187Y013314D01*
X007187Y014314D01*
X007187Y015314D01*
X007187Y016314D01*
X008187Y016314D02*
X008187Y015314D01*
X008187Y014314D01*
X008187Y013314D01*
X008187Y012314D01*
X008187Y011314D01*
X008187Y010314D01*
X008187Y009314D01*
X008187Y008314D01*
X008187Y007314D01*
X008187Y006314D01*
X008187Y005314D01*
X008187Y004314D01*
X008187Y003314D01*
X008187Y002314D01*
X008187Y001314D01*
X009187Y001314D02*
X009187Y002314D01*
X009187Y003314D01*
X009187Y004314D01*
X009187Y005314D01*
X009187Y006314D01*
X009187Y007314D01*
X009187Y008314D01*
X009187Y009314D01*
X009187Y010314D01*
X009187Y011314D01*
X009187Y012314D01*
X009187Y013314D01*
X009187Y014314D01*
X009187Y015314D01*
X009187Y016314D01*
X010187Y016314D02*
X010187Y015314D01*
X010187Y014314D01*
X010187Y013314D01*
X010187Y012314D01*
X010187Y011314D01*
X010187Y010314D01*
X010187Y009314D01*
X010187Y008314D01*
X010187Y007314D01*
X010187Y006314D01*
X010187Y005314D01*
X010187Y004314D01*
X010187Y003314D01*
X010187Y002314D01*
X010187Y001314D01*
X011187Y001314D02*
X011187Y002314D01*
X011187Y003314D01*
X011187Y004314D01*
X011187Y005314D01*
X011187Y006314D01*
X011187Y007314D01*
X011187Y008314D01*
X011187Y009314D01*
X011187Y010314D01*
X011187Y011314D01*
X011187Y012314D01*
X011187Y013314D01*
X011187Y014314D01*
X011187Y015314D01*
X011187Y016314D01*
X012187Y016314D02*
X012187Y015314D01*
X012187Y014314D01*
X012187Y013314D01*
X012187Y012314D01*
X012187Y011314D01*
X012187Y010314D01*
X012187Y009314D01*
X012187Y008314D01*
X012187Y007314D01*
X012187Y006314D01*
X012187Y005314D01*
X012187Y004314D01*
X012187Y003314D01*
X012187Y002314D01*
X012187Y001314D01*
X013187Y001314D02*
X013187Y002314D01*
X013187Y003314D01*
X013187Y004314D01*
X013187Y005314D01*
X013187Y006314D01*
X013187Y007314D01*
X013187Y008314D01*
X013187Y009314D01*
X013187Y010314D01*
X013187Y011314D01*
X013187Y012314D01*
X013187Y013314D01*
X013187Y014314D01*
X013187Y015314D01*
X013187Y016314D01*
X014187Y016314D02*
X014187Y015314D01*
X014187Y014314D01*
X014187Y013314D01*
X014187Y012314D01*
X014187Y011314D01*
X014187Y010314D01*
X014187Y009314D01*
X014187Y008314D01*
X014187Y007314D01*
X014187Y006314D01*
X014187Y005314D01*
X014187Y004314D01*
X014187Y003314D01*
X014187Y002314D01*
X014187Y001314D01*
X015187Y001314D02*
X015187Y002314D01*
X015187Y003314D01*
X015187Y004314D01*
X015187Y005314D01*
X015187Y006314D01*
X015187Y007314D01*
X015187Y008314D01*
X015187Y009314D01*
X015187Y010314D01*
X015187Y011314D01*
X015187Y012314D01*
X015187Y013314D01*
X015187Y014314D01*
X015187Y015314D01*
X015187Y016314D01*
X016187Y016314D02*
X016187Y015314D01*
X016187Y014314D01*
X016187Y013314D01*
X016187Y012314D01*
X016187Y011314D01*
X016187Y010314D01*
X016187Y009314D01*
X016187Y008314D01*
X016187Y007314D01*
X016187Y006314D01*
X016187Y005314D01*
X016187Y004314D01*
X016187Y003314D01*
X016187Y002314D01*
X016187Y001314D01*
X016812Y001189D02*
X016812Y017314D01*
X017062Y017564D01*
X016062Y017564D01*
X015312Y018064D02*
X017562Y018064D01*
X018062Y017564D01*
X017812Y017314D01*
X017812Y002189D01*
X018187Y002314D02*
X018187Y001314D01*
X017187Y001314D02*
X017187Y002314D01*
X017187Y003314D01*
X017187Y004314D01*
X017187Y005314D01*
X017187Y006314D01*
X017187Y007314D01*
X017187Y008314D01*
X017187Y009314D01*
X017187Y010314D01*
X017187Y011314D01*
X017187Y012314D01*
X017187Y013314D01*
X017187Y014314D01*
X017187Y015314D01*
X017187Y016314D01*
X018187Y016314D02*
X018187Y015314D01*
X018187Y014314D01*
X018187Y013314D01*
X018187Y012314D01*
X018187Y011314D01*
X018187Y010314D01*
X018187Y009314D01*
X018187Y008314D01*
X018187Y007314D01*
X018187Y006314D01*
X018187Y005314D01*
X018187Y004314D01*
X018187Y003314D01*
X018187Y002314D01*
X019187Y002314D02*
X019187Y001314D01*
X020187Y001314D02*
X020187Y002314D01*
X020187Y003314D01*
X020187Y004314D01*
X020187Y005314D01*
X020187Y006314D01*
X020187Y007314D01*
X020187Y008314D01*
X020187Y009314D01*
X020187Y010314D01*
X020187Y011314D01*
X020187Y012314D01*
X020187Y013314D01*
X020187Y014314D01*
X020187Y015314D01*
X020187Y016314D01*
X019187Y016314D02*
X019187Y015314D01*
X019187Y014314D01*
X019187Y013314D01*
X019187Y012314D01*
X019187Y011314D01*
X019187Y010314D01*
X019187Y009314D01*
X019187Y008314D01*
X019187Y007314D01*
X019187Y006314D01*
X019187Y005314D01*
X019187Y004314D01*
X019187Y003314D01*
X019187Y002314D01*
X018812Y003189D02*
X018812Y017314D01*
X019062Y017564D01*
X019812Y017314D02*
X019812Y004189D01*
X021187Y004314D02*
X021187Y003314D01*
X021187Y002314D01*
X021187Y001314D01*
X022187Y001314D02*
X022187Y002314D01*
X022187Y003314D01*
X022187Y004314D01*
X022187Y005314D01*
X022187Y006314D01*
X022187Y007314D01*
X022187Y008314D01*
X022187Y009314D01*
X022187Y010314D01*
X022187Y011314D01*
X022187Y012314D01*
X022187Y013314D01*
X022187Y014314D01*
X022187Y015314D01*
X022187Y016314D01*
X021187Y016314D02*
X021187Y015314D01*
X021187Y014314D01*
X021187Y013314D01*
X021187Y012314D01*
X021187Y011314D01*
X021187Y010314D01*
X021187Y009314D01*
X021187Y008314D01*
X021187Y007314D01*
X021187Y006314D01*
X021187Y005314D01*
X021187Y004314D01*
X020812Y005189D02*
X020812Y017314D01*
X021062Y017564D01*
X021812Y017314D02*
X021812Y006189D01*
X023187Y006314D02*
X023187Y005314D01*
X023187Y004314D01*
X023187Y003314D01*
X023187Y002314D01*
X023187Y001314D01*
X024187Y001314D02*
X024187Y002314D01*
X024187Y003314D01*
X024187Y004314D01*
X024187Y005314D01*
X024187Y006314D01*
X024187Y007314D01*
X024187Y008314D01*
X024187Y009314D01*
X024187Y010314D01*
X024187Y011314D01*
X024187Y012314D01*
X024187Y013314D01*
X024187Y014314D01*
X024187Y015314D01*
X024187Y016314D01*
X023187Y016314D02*
X023187Y015314D01*
X023187Y014314D01*
X023187Y013314D01*
X023187Y012314D01*
X023187Y011314D01*
X023187Y010314D01*
X023187Y009314D01*
X023187Y008314D01*
X023187Y007314D01*
X023187Y006314D01*
X022812Y007189D02*
X022812Y017314D01*
X023062Y017564D01*
X023812Y017314D02*
X024062Y017564D01*
X023812Y017314D02*
X023812Y008189D01*
X025187Y008314D02*
X025187Y007314D01*
X025187Y006314D01*
X025187Y005314D01*
X025187Y004314D01*
X025187Y003314D01*
X025187Y002314D01*
X025187Y001314D01*
X026187Y001314D02*
X026187Y002314D01*
X026187Y003314D01*
X026187Y004314D01*
X026187Y005314D01*
X026187Y006314D01*
X026187Y007314D01*
X026187Y008314D01*
X026187Y009314D01*
X026187Y010314D01*
X026187Y011314D01*
X026187Y012314D01*
X026187Y013314D01*
X026187Y014314D01*
X026187Y015314D01*
X026187Y016314D01*
X025187Y016314D02*
X025187Y015314D01*
X025187Y014314D01*
X025187Y013314D01*
X025187Y012314D01*
X025187Y011314D01*
X025187Y010314D01*
X025187Y009314D01*
X025187Y008314D01*
X024812Y009189D02*
X024812Y017314D01*
X025062Y017564D01*
X025812Y017314D02*
X026062Y017564D01*
X025812Y017314D02*
X025812Y010189D01*
X027187Y010314D02*
X027187Y009314D01*
X027187Y008314D01*
X027187Y007314D01*
X027187Y006314D01*
X027187Y005314D01*
X027187Y004314D01*
X027187Y003314D01*
X027187Y002314D01*
X027187Y001314D01*
X028187Y001314D02*
X028187Y002314D01*
X028187Y003314D01*
X028187Y004314D01*
X028187Y005314D01*
X028187Y006314D01*
X028187Y007314D01*
X028187Y008314D01*
X028187Y009314D01*
X028187Y010314D01*
X028187Y011314D01*
X028187Y012314D01*
X028187Y013314D01*
X028187Y014314D01*
X028187Y015314D01*
X028187Y016314D01*
X027187Y016314D02*
X027187Y015314D01*
X027187Y014314D01*
X027187Y013314D01*
X027187Y012314D01*
X027187Y011314D01*
X027187Y010314D01*
X026812Y011189D02*
X026812Y017314D01*
X027062Y017564D01*
X027812Y017314D02*
X028062Y017564D01*
X027812Y017314D02*
X027812Y012189D01*
X029187Y012314D02*
X029187Y011314D01*
X029187Y010314D01*
X029187Y009314D01*
X029187Y008314D01*
X029187Y007314D01*
X029187Y006314D01*
X029187Y005314D01*
X029187Y004314D01*
X029187Y003314D01*
X029187Y002314D01*
X029187Y001314D01*
X030187Y001314D02*
X030187Y002314D01*
X030187Y003314D01*
X030187Y004314D01*
X030187Y005314D01*
X030187Y006314D01*
X030187Y007314D01*
X030187Y008314D01*
X030187Y009314D01*
X030187Y010314D01*
X030187Y011314D01*
X030187Y012314D01*
X030187Y013314D01*
X030187Y014314D01*
X030187Y015314D01*
X030187Y016314D01*
X029187Y016314D02*
X029187Y015314D01*
X029187Y014314D01*
X029187Y013314D01*
X029187Y012314D01*
X028812Y013189D02*
X028812Y017314D01*
X029062Y017564D01*
X029812Y017314D02*
X030062Y017564D01*
X029812Y017314D02*
X029812Y014189D01*
X031187Y014314D02*
X031187Y013314D01*
X031187Y012314D01*
X031187Y011314D01*
X031187Y010314D01*
X031187Y009314D01*
X031187Y008314D01*
X031187Y007314D01*
X031187Y006314D01*
X031187Y005314D01*
X031187Y004314D01*
X031187Y003314D01*
X031187Y002314D01*
X031187Y001314D01*
X032187Y001314D02*
X032187Y002314D01*
X032187Y003314D01*
X032187Y004314D01*
X032187Y005314D01*
X032187Y006314D01*
X032187Y007314D01*
X032187Y008314D01*
X032187Y009314D01*
X032187Y010314D01*
X032187Y011314D01*
X032187Y012314D01*
X032187Y013314D01*
X032187Y014314D01*
X032187Y015314D01*
X032187Y016314D01*
X031812Y016189D02*
X031812Y017314D01*
X032062Y017564D01*
X031062Y017564D02*
X030812Y017314D01*
X030812Y015189D01*
X031187Y015314D02*
X031187Y014314D01*
X031187Y015314D02*
X031187Y016314D01*
X022062Y017564D02*
X021812Y017314D01*
X020062Y017564D02*
X019812Y017314D01*
X015312Y018064D02*
X015062Y017814D01*
X015062Y017564D01*
X014062Y017564D02*
X013812Y017314D01*
X013812Y003189D01*
X012812Y004189D02*
X012812Y017314D01*
X013062Y017564D01*
X012062Y017564D02*
X011812Y017314D01*
X011812Y005189D01*
X010812Y006189D02*
X010812Y017314D01*
X011062Y017564D01*
X010062Y017564D02*
X009812Y017314D01*
X009812Y007189D01*
X008812Y008189D02*
X008812Y017314D01*
X009062Y017564D01*
X008062Y017564D02*
X007812Y017314D01*
X007812Y009189D01*
X006812Y010189D02*
X006812Y017314D01*
X007062Y017564D01*
X006062Y017564D02*
X005812Y017314D01*
X005812Y011189D01*
X004812Y012189D02*
X004812Y017314D01*
X005062Y017564D01*
X004062Y017564D02*
X003812Y017314D01*
X003812Y013189D01*
X002812Y014189D02*
X002812Y017314D01*
X003062Y017564D01*
X002062Y017564D02*
X001812Y017314D01*
X001812Y015189D01*
M02*
