G75*
G70*
%OFA0B0*%
%FSLAX24Y24*%
%IPPOS*%
%LPD*%
%AMOC8*
5,1,8,0,0,1.08239X$1,22.5*
%
%ADD10C,0.0160*%
%ADD11OC8,0.0600*%
D10*
X000187Y000189D02*
X000187Y019189D01*
X032937Y019189D01*
X032937Y000189D01*
X000187Y000189D01*
D11*
X001062Y017564D03*
X002062Y017564D03*
X003062Y017564D03*
X004062Y017564D03*
X005062Y017564D03*
X006062Y017564D03*
X007062Y017564D03*
X008062Y017564D03*
X009062Y017564D03*
X010062Y017564D03*
X011062Y017564D03*
X012062Y017564D03*
X013062Y017564D03*
X014062Y017564D03*
X015062Y017564D03*
X016062Y017564D03*
X017062Y017564D03*
X018062Y017564D03*
X019062Y017564D03*
X020062Y017564D03*
X021062Y017564D03*
X022062Y017564D03*
X023062Y017564D03*
X024062Y017564D03*
X025062Y017564D03*
X026062Y017564D03*
X027062Y017564D03*
X028062Y017564D03*
X029062Y017564D03*
X030062Y017564D03*
X031062Y017564D03*
X032062Y017564D03*
X032062Y018564D03*
X031062Y018564D03*
X030062Y018564D03*
X029062Y018564D03*
X028062Y018564D03*
X027062Y018564D03*
X026062Y018564D03*
X025062Y018564D03*
X024062Y018564D03*
X023062Y018564D03*
X022062Y018564D03*
X021062Y018564D03*
X020062Y018564D03*
X019062Y018564D03*
X018062Y018564D03*
X017062Y018564D03*
X016062Y018564D03*
X015062Y018564D03*
X014062Y018564D03*
X013062Y018564D03*
X012062Y018564D03*
X011062Y018564D03*
X010062Y018564D03*
X009062Y018564D03*
X008062Y018564D03*
X007062Y018564D03*
X006062Y018564D03*
X005062Y018564D03*
X004062Y018564D03*
X003062Y018564D03*
X002062Y018564D03*
X001062Y018564D03*
M02*
