%
M48
M72
T01C0.0157
T02C0.0360
%
T01
X-1000Y15125
X-1000Y14125
X-1000Y13125
X-1000Y12125
X-1000Y11125
X-1000Y10125
X-1000Y9125
X-1000Y8125
X-1000Y7125
X-1000Y6125
X-1000Y5125
X-1000Y4125
X-1000Y3125
X-1000Y2125
X-1000Y1125
X-1000Y125
X0Y15125
X0Y14125
X0Y13125
X0Y12125
X0Y11125
X0Y10125
X0Y9125
X0Y8125
X0Y7125
X0Y6125
X0Y5125
X0Y4125
X0Y3125
X0Y2125
X0Y1125
X0Y125
X1000Y15125
X1000Y14125
X1000Y13125
X1000Y12125
X1000Y11125
X1000Y10125
X1000Y9125
X1000Y8125
X1000Y7125
X1000Y6125
X1000Y5125
X1000Y4125
X1000Y3125
X1000Y2125
X1000Y1125
X1000Y125
X2000Y15125
X2000Y14125
X2000Y13125
X2000Y12125
X2000Y11125
X2000Y10125
X2000Y9125
X2000Y8125
X2000Y7125
X2000Y6125
X2000Y5125
X2000Y4125
X2000Y3125
X2000Y2125
X2000Y1125
X2000Y125
X3000Y15125
X3000Y14125
X3000Y13125
X3000Y12125
X3000Y11125
X3000Y10125
X3000Y9125
X3000Y8125
X3000Y7125
X3000Y6125
X3000Y5125
X3000Y4125
X3000Y3125
X3000Y2125
X3000Y1125
X3000Y125
X4000Y15125
X4000Y14125
X4000Y13125
X4000Y12125
X4000Y11125
X4000Y10125
X4000Y9125
X4000Y8125
X4000Y7125
X4000Y6125
X4000Y5125
X4000Y4125
X4000Y3125
X4000Y2125
X4000Y1125
X4000Y125
X5000Y15125
X5000Y14125
X5000Y13125
X5000Y12125
X5000Y11125
X5000Y10125
X5000Y9125
X5000Y8125
X5000Y7125
X5000Y6125
X5000Y5125
X5000Y4125
X5000Y3125
X5000Y2125
X5000Y1125
X5000Y125
X6000Y15125
X6000Y14125
X6000Y13125
X6000Y12125
X6000Y11125
X6000Y10125
X6000Y9125
X6000Y8125
X6000Y7125
X6000Y6125
X6000Y5125
X6000Y4125
X6000Y3125
X6000Y2125
X6000Y1125
X6000Y125
X7000Y15125
X7000Y14125
X7000Y13125
X7000Y12125
X7000Y11125
X7000Y10125
X7000Y9125
X7000Y8125
X7000Y7125
X7000Y6125
X7000Y5125
X7000Y4125
X7000Y3125
X7000Y2125
X7000Y1125
X7000Y125
X8000Y15125
X8000Y14125
X8000Y13125
X8000Y12125
X8000Y11125
X8000Y10125
X8000Y9125
X8000Y8125
X8000Y7125
X8000Y6125
X8000Y5125
X8000Y4125
X8000Y3125
X8000Y2125
X8000Y1125
X8000Y125
X9000Y15125
X9000Y14125
X9000Y13125
X9000Y12125
X9000Y11125
X9000Y10125
X9000Y9125
X9000Y8125
X9000Y7125
X9000Y6125
X9000Y5125
X9000Y4125
X9000Y3125
X9000Y2125
X9000Y1125
X9000Y125
X10000Y15125
X10000Y14125
X10000Y13125
X10000Y12125
X10000Y11125
X10000Y10125
X10000Y9125
X10000Y8125
X10000Y7125
X10000Y6125
X10000Y5125
X10000Y4125
X10000Y3125
X10000Y2125
X10000Y1125
X10000Y125
X11000Y15125
X11000Y14125
X11000Y13125
X11000Y12125
X11000Y11125
X11000Y10125
X11000Y9125
X11000Y8125
X11000Y7125
X11000Y6125
X11000Y5125
X11000Y4125
X11000Y3125
X11000Y2125
X11000Y1125
X11000Y125
X12000Y15125
X12000Y14125
X12000Y13125
X12000Y12125
X12000Y11125
X12000Y10125
X12000Y9125
X12000Y8125
X12000Y7125
X12000Y6125
X12000Y5125
X12000Y4125
X12000Y3125
X12000Y2125
X12000Y1125
X12000Y125
X13000Y15125
X13000Y14125
X13000Y13125
X13000Y12125
X13000Y11125
X13000Y10125
X13000Y9125
X13000Y8125
X13000Y7125
X13000Y6125
X13000Y5125
X13000Y4125
X13000Y3125
X13000Y2125
X13000Y1125
X13000Y125
X14625Y0
X15625Y1000
X11625Y2000
X16625Y2000
X9625Y4000
X18625Y4000
X7625Y6000
X20625Y6000
X5625Y8000
X22625Y8000
X4625Y9000
X23625Y9000
X2625Y11000
X25625Y11000
X-375Y14000
X28625Y14000
X1625Y12000
X26625Y12000
X14000Y15125
X14000Y14125
X14000Y13125
X14000Y12125
X14000Y11125
X14000Y10125
X14000Y9125
X14000Y8125
X14000Y7125
X14000Y6125
X14000Y5125
X14000Y4125
X14000Y3125
X14000Y2125
X14000Y1125
X14000Y125
X6625Y7000
X21625Y7000
X3625Y10000
X24625Y10000
X625Y13000
X27625Y13000
X29625Y15000
X10625Y3000
X17625Y3000
X8625Y5000
X19625Y5000
X15000Y15125
X15000Y14125
X15000Y13125
X15000Y12125
X15000Y11125
X15000Y10125
X15000Y9125
X15000Y8125
X15000Y7125
X15000Y6125
X15000Y5125
X15000Y4125
X15000Y3125
X15000Y2125
X15000Y1125
X15000Y125
X16000Y15125
X16000Y14125
X16000Y13125
X16000Y12125
X16000Y11125
X16000Y10125
X16000Y9125
X16000Y8125
X16000Y7125
X16000Y6125
X16000Y5125
X16000Y4125
X16000Y3125
X16000Y2125
X16000Y1125
X16000Y125
X17000Y15125
X17000Y14125
X17000Y13125
X17000Y12125
X17000Y11125
X17000Y10125
X17000Y9125
X17000Y8125
X17000Y7125
X17000Y6125
X17000Y5125
X17000Y4125
X17000Y3125
X17000Y2125
X17000Y1125
X17000Y125
X18000Y15125
X18000Y14125
X18000Y13125
X18000Y12125
X18000Y11125
X18000Y10125
X18000Y9125
X18000Y8125
X18000Y7125
X18000Y6125
X18000Y5125
X18000Y4125
X18000Y3125
X18000Y2125
X18000Y1125
X18000Y125
X19000Y15125
X19000Y14125
X19000Y13125
X19000Y12125
X19000Y11125
X19000Y10125
X19000Y9125
X19000Y8125
X19000Y7125
X19000Y6125
X19000Y5125
X19000Y4125
X19000Y3125
X19000Y2125
X19000Y1125
X19000Y125
X20000Y15125
X20000Y14125
X20000Y13125
X20000Y12125
X20000Y11125
X20000Y10125
X20000Y9125
X20000Y8125
X20000Y7125
X20000Y6125
X20000Y5125
X20000Y4125
X20000Y3125
X20000Y2125
X20000Y1125
X20000Y125
X21000Y15125
X21000Y14125
X21000Y13125
X21000Y12125
X21000Y11125
X21000Y10125
X21000Y9125
X21000Y8125
X21000Y7125
X21000Y6125
X21000Y5125
X21000Y4125
X21000Y3125
X21000Y2125
X21000Y1125
X21000Y125
X22000Y15125
X22000Y14125
X22000Y13125
X22000Y12125
X22000Y11125
X22000Y10125
X22000Y9125
X22000Y8125
X22000Y7125
X22000Y6125
X22000Y5125
X22000Y4125
X22000Y3125
X22000Y2125
X22000Y1125
X22000Y125
X23000Y15125
X23000Y14125
X23000Y13125
X23000Y12125
X23000Y11125
X23000Y10125
X23000Y9125
X23000Y8125
X23000Y7125
X23000Y6125
X23000Y5125
X23000Y4125
X23000Y3125
X23000Y2125
X23000Y1125
X23000Y125
X24000Y15125
X24000Y14125
X24000Y13125
X24000Y12125
X24000Y11125
X24000Y10125
X24000Y9125
X24000Y8125
X24000Y7125
X24000Y6125
X24000Y5125
X24000Y4125
X24000Y3125
X24000Y2125
X24000Y1125
X24000Y125
X25000Y15125
X25000Y14125
X25000Y13125
X25000Y12125
X25000Y11125
X25000Y10125
X25000Y9125
X25000Y8125
X25000Y7125
X25000Y6125
X25000Y5125
X25000Y4125
X25000Y3125
X25000Y2125
X25000Y1125
X25000Y125
X26000Y15125
X26000Y14125
X26000Y13125
X26000Y12125
X26000Y11125
X26000Y10125
X26000Y9125
X26000Y8125
X26000Y7125
X26000Y6125
X26000Y5125
X26000Y4125
X26000Y3125
X26000Y2125
X26000Y1125
X26000Y125
X27000Y15125
X27000Y14125
X27000Y13125
X27000Y12125
X27000Y11125
X27000Y10125
X27000Y9125
X27000Y8125
X27000Y7125
X27000Y6125
X27000Y5125
X27000Y4125
X27000Y3125
X27000Y2125
X27000Y1125
X27000Y125
X28000Y15125
X28000Y14125
X28000Y13125
X28000Y12125
X28000Y11125
X28000Y10125
X28000Y9125
X28000Y8125
X28000Y7125
X28000Y6125
X28000Y5125
X28000Y4125
X28000Y3125
X28000Y2125
X28000Y1125
X28000Y125
X29000Y15125
X29000Y14125
X29000Y13125
X29000Y12125
X29000Y11125
X29000Y10125
X29000Y9125
X29000Y8125
X29000Y7125
X29000Y6125
X29000Y5125
X29000Y4125
X29000Y3125
X29000Y2125
X29000Y1125
X29000Y125
X30000Y15125
X30000Y14125
X30000Y13125
X30000Y12125
X30000Y11125
X30000Y10125
X30000Y9125
X30000Y8125
X30000Y7125
X30000Y6125
X30000Y5125
X30000Y4125
X30000Y3125
X30000Y2125
X30000Y1125
X30000Y125
T02
X-1125Y16375
X-1125Y17375
X-125Y16375
X-125Y17375
X875Y16375
X875Y17375
X1875Y16375
X1875Y17375
X2875Y16375
X2875Y17375
X3875Y16375
X3875Y17375
X4875Y16375
X4875Y17375
X5875Y16375
X5875Y17375
X6875Y16375
X6875Y17375
X7875Y16375
X7875Y17375
X8875Y16375
X8875Y17375
X9875Y16375
X9875Y17375
X10875Y16375
X10875Y17375
X11875Y16375
X11875Y17375
X12875Y17375
X12875Y16375
X13875Y16375
X13875Y17375
X14875Y17375
X14875Y16375
X15875Y16375
X15875Y17375
X16875Y17375
X16875Y16375
X17875Y16375
X17875Y17375
X18875Y16375
X18875Y17375
X19875Y16375
X19875Y17375
X20875Y16375
X20875Y17375
X21875Y16375
X21875Y17375
X22875Y16375
X22875Y17375
X23875Y16375
X23875Y17375
X24875Y16375
X24875Y17375
X25875Y16375
X25875Y17375
X26875Y16375
X26875Y17375
X27875Y16375
X27875Y17375
X28875Y16375
X28875Y17375
X29875Y16375
X29875Y17375
M30
