G75*
G70*
%OFA0B0*%
%FSLAX24Y24*%
%IPPOS*%
%LPD*%
%AMOC8*
5,1,8,0,0,1.08239X$1,22.5*
%
%ADD10C,0.0160*%
%ADD11R,0.0059X0.0118*%
%ADD12R,0.0118X0.0118*%
D10*
X000187Y000189D02*
X000187Y019189D01*
X032937Y019189D01*
X032937Y000189D01*
X000187Y000189D01*
D11*
G36*
X001208Y001042D02*
X001249Y001001D01*
X001166Y000918D01*
X001125Y000959D01*
X001208Y001042D01*
G37*
G36*
X000874Y001377D02*
X000915Y001336D01*
X000832Y001253D01*
X000791Y001294D01*
X000874Y001377D01*
G37*
G36*
X001208Y002042D02*
X001249Y002001D01*
X001166Y001918D01*
X001125Y001959D01*
X001208Y002042D01*
G37*
G36*
X000874Y002377D02*
X000915Y002336D01*
X000832Y002253D01*
X000791Y002294D01*
X000874Y002377D01*
G37*
G36*
X001208Y003042D02*
X001249Y003001D01*
X001166Y002918D01*
X001125Y002959D01*
X001208Y003042D01*
G37*
G36*
X000874Y003377D02*
X000915Y003336D01*
X000832Y003253D01*
X000791Y003294D01*
X000874Y003377D01*
G37*
G36*
X001208Y004042D02*
X001249Y004001D01*
X001166Y003918D01*
X001125Y003959D01*
X001208Y004042D01*
G37*
G36*
X000874Y004377D02*
X000915Y004336D01*
X000832Y004253D01*
X000791Y004294D01*
X000874Y004377D01*
G37*
G36*
X001208Y005042D02*
X001249Y005001D01*
X001166Y004918D01*
X001125Y004959D01*
X001208Y005042D01*
G37*
G36*
X000874Y005377D02*
X000915Y005336D01*
X000832Y005253D01*
X000791Y005294D01*
X000874Y005377D01*
G37*
G36*
X001208Y006042D02*
X001249Y006001D01*
X001166Y005918D01*
X001125Y005959D01*
X001208Y006042D01*
G37*
G36*
X000874Y006377D02*
X000915Y006336D01*
X000832Y006253D01*
X000791Y006294D01*
X000874Y006377D01*
G37*
G36*
X001874Y006377D02*
X001915Y006336D01*
X001832Y006253D01*
X001791Y006294D01*
X001874Y006377D01*
G37*
G36*
X002208Y006042D02*
X002249Y006001D01*
X002166Y005918D01*
X002125Y005959D01*
X002208Y006042D01*
G37*
G36*
X002874Y006377D02*
X002915Y006336D01*
X002832Y006253D01*
X002791Y006294D01*
X002874Y006377D01*
G37*
G36*
X003208Y006042D02*
X003249Y006001D01*
X003166Y005918D01*
X003125Y005959D01*
X003208Y006042D01*
G37*
G36*
X003874Y006377D02*
X003915Y006336D01*
X003832Y006253D01*
X003791Y006294D01*
X003874Y006377D01*
G37*
G36*
X004208Y006042D02*
X004249Y006001D01*
X004166Y005918D01*
X004125Y005959D01*
X004208Y006042D01*
G37*
G36*
X004874Y006377D02*
X004915Y006336D01*
X004832Y006253D01*
X004791Y006294D01*
X004874Y006377D01*
G37*
G36*
X005208Y006042D02*
X005249Y006001D01*
X005166Y005918D01*
X005125Y005959D01*
X005208Y006042D01*
G37*
G36*
X005874Y006377D02*
X005915Y006336D01*
X005832Y006253D01*
X005791Y006294D01*
X005874Y006377D01*
G37*
G36*
X006208Y006042D02*
X006249Y006001D01*
X006166Y005918D01*
X006125Y005959D01*
X006208Y006042D01*
G37*
G36*
X006874Y006377D02*
X006915Y006336D01*
X006832Y006253D01*
X006791Y006294D01*
X006874Y006377D01*
G37*
G36*
X007208Y006042D02*
X007249Y006001D01*
X007166Y005918D01*
X007125Y005959D01*
X007208Y006042D01*
G37*
G36*
X007874Y006377D02*
X007915Y006336D01*
X007832Y006253D01*
X007791Y006294D01*
X007874Y006377D01*
G37*
G36*
X008208Y006042D02*
X008249Y006001D01*
X008166Y005918D01*
X008125Y005959D01*
X008208Y006042D01*
G37*
G36*
X008874Y006377D02*
X008915Y006336D01*
X008832Y006253D01*
X008791Y006294D01*
X008874Y006377D01*
G37*
G36*
X009208Y006042D02*
X009249Y006001D01*
X009166Y005918D01*
X009125Y005959D01*
X009208Y006042D01*
G37*
G36*
X009874Y006377D02*
X009915Y006336D01*
X009832Y006253D01*
X009791Y006294D01*
X009874Y006377D01*
G37*
G36*
X010208Y006042D02*
X010249Y006001D01*
X010166Y005918D01*
X010125Y005959D01*
X010208Y006042D01*
G37*
G36*
X010874Y006377D02*
X010915Y006336D01*
X010832Y006253D01*
X010791Y006294D01*
X010874Y006377D01*
G37*
G36*
X011208Y006042D02*
X011249Y006001D01*
X011166Y005918D01*
X011125Y005959D01*
X011208Y006042D01*
G37*
G36*
X011874Y006377D02*
X011915Y006336D01*
X011832Y006253D01*
X011791Y006294D01*
X011874Y006377D01*
G37*
G36*
X012208Y006042D02*
X012249Y006001D01*
X012166Y005918D01*
X012125Y005959D01*
X012208Y006042D01*
G37*
G36*
X012874Y006377D02*
X012915Y006336D01*
X012832Y006253D01*
X012791Y006294D01*
X012874Y006377D01*
G37*
G36*
X013208Y006042D02*
X013249Y006001D01*
X013166Y005918D01*
X013125Y005959D01*
X013208Y006042D01*
G37*
G36*
X013874Y006377D02*
X013915Y006336D01*
X013832Y006253D01*
X013791Y006294D01*
X013874Y006377D01*
G37*
G36*
X014208Y006042D02*
X014249Y006001D01*
X014166Y005918D01*
X014125Y005959D01*
X014208Y006042D01*
G37*
G36*
X014874Y006377D02*
X014915Y006336D01*
X014832Y006253D01*
X014791Y006294D01*
X014874Y006377D01*
G37*
G36*
X015208Y006042D02*
X015249Y006001D01*
X015166Y005918D01*
X015125Y005959D01*
X015208Y006042D01*
G37*
G36*
X015874Y006377D02*
X015915Y006336D01*
X015832Y006253D01*
X015791Y006294D01*
X015874Y006377D01*
G37*
G36*
X016208Y006042D02*
X016249Y006001D01*
X016166Y005918D01*
X016125Y005959D01*
X016208Y006042D01*
G37*
G36*
X016874Y006377D02*
X016915Y006336D01*
X016832Y006253D01*
X016791Y006294D01*
X016874Y006377D01*
G37*
G36*
X017208Y006042D02*
X017249Y006001D01*
X017166Y005918D01*
X017125Y005959D01*
X017208Y006042D01*
G37*
G36*
X017874Y006377D02*
X017915Y006336D01*
X017832Y006253D01*
X017791Y006294D01*
X017874Y006377D01*
G37*
G36*
X018208Y006042D02*
X018249Y006001D01*
X018166Y005918D01*
X018125Y005959D01*
X018208Y006042D01*
G37*
G36*
X018874Y006377D02*
X018915Y006336D01*
X018832Y006253D01*
X018791Y006294D01*
X018874Y006377D01*
G37*
G36*
X019208Y006042D02*
X019249Y006001D01*
X019166Y005918D01*
X019125Y005959D01*
X019208Y006042D01*
G37*
G36*
X019874Y006377D02*
X019915Y006336D01*
X019832Y006253D01*
X019791Y006294D01*
X019874Y006377D01*
G37*
G36*
X020208Y006042D02*
X020249Y006001D01*
X020166Y005918D01*
X020125Y005959D01*
X020208Y006042D01*
G37*
G36*
X020874Y006377D02*
X020915Y006336D01*
X020832Y006253D01*
X020791Y006294D01*
X020874Y006377D01*
G37*
G36*
X021208Y006042D02*
X021249Y006001D01*
X021166Y005918D01*
X021125Y005959D01*
X021208Y006042D01*
G37*
G36*
X021874Y006377D02*
X021915Y006336D01*
X021832Y006253D01*
X021791Y006294D01*
X021874Y006377D01*
G37*
G36*
X022208Y006042D02*
X022249Y006001D01*
X022166Y005918D01*
X022125Y005959D01*
X022208Y006042D01*
G37*
G36*
X022874Y006377D02*
X022915Y006336D01*
X022832Y006253D01*
X022791Y006294D01*
X022874Y006377D01*
G37*
G36*
X023208Y006042D02*
X023249Y006001D01*
X023166Y005918D01*
X023125Y005959D01*
X023208Y006042D01*
G37*
G36*
X023874Y006377D02*
X023915Y006336D01*
X023832Y006253D01*
X023791Y006294D01*
X023874Y006377D01*
G37*
G36*
X024208Y006042D02*
X024249Y006001D01*
X024166Y005918D01*
X024125Y005959D01*
X024208Y006042D01*
G37*
G36*
X024874Y006377D02*
X024915Y006336D01*
X024832Y006253D01*
X024791Y006294D01*
X024874Y006377D01*
G37*
G36*
X025208Y006042D02*
X025249Y006001D01*
X025166Y005918D01*
X025125Y005959D01*
X025208Y006042D01*
G37*
G36*
X025874Y006377D02*
X025915Y006336D01*
X025832Y006253D01*
X025791Y006294D01*
X025874Y006377D01*
G37*
G36*
X026208Y006042D02*
X026249Y006001D01*
X026166Y005918D01*
X026125Y005959D01*
X026208Y006042D01*
G37*
G36*
X026874Y006377D02*
X026915Y006336D01*
X026832Y006253D01*
X026791Y006294D01*
X026874Y006377D01*
G37*
G36*
X027208Y006042D02*
X027249Y006001D01*
X027166Y005918D01*
X027125Y005959D01*
X027208Y006042D01*
G37*
G36*
X027874Y006377D02*
X027915Y006336D01*
X027832Y006253D01*
X027791Y006294D01*
X027874Y006377D01*
G37*
G36*
X028208Y006042D02*
X028249Y006001D01*
X028166Y005918D01*
X028125Y005959D01*
X028208Y006042D01*
G37*
G36*
X028874Y006377D02*
X028915Y006336D01*
X028832Y006253D01*
X028791Y006294D01*
X028874Y006377D01*
G37*
G36*
X029208Y006042D02*
X029249Y006001D01*
X029166Y005918D01*
X029125Y005959D01*
X029208Y006042D01*
G37*
G36*
X029874Y006377D02*
X029915Y006336D01*
X029832Y006253D01*
X029791Y006294D01*
X029874Y006377D01*
G37*
G36*
X030208Y006042D02*
X030249Y006001D01*
X030166Y005918D01*
X030125Y005959D01*
X030208Y006042D01*
G37*
G36*
X030874Y006377D02*
X030915Y006336D01*
X030832Y006253D01*
X030791Y006294D01*
X030874Y006377D01*
G37*
G36*
X031208Y006042D02*
X031249Y006001D01*
X031166Y005918D01*
X031125Y005959D01*
X031208Y006042D01*
G37*
G36*
X031874Y006377D02*
X031915Y006336D01*
X031832Y006253D01*
X031791Y006294D01*
X031874Y006377D01*
G37*
G36*
X032208Y006042D02*
X032249Y006001D01*
X032166Y005918D01*
X032125Y005959D01*
X032208Y006042D01*
G37*
G36*
X031874Y005377D02*
X031915Y005336D01*
X031832Y005253D01*
X031791Y005294D01*
X031874Y005377D01*
G37*
G36*
X032208Y005042D02*
X032249Y005001D01*
X032166Y004918D01*
X032125Y004959D01*
X032208Y005042D01*
G37*
G36*
X031208Y005042D02*
X031249Y005001D01*
X031166Y004918D01*
X031125Y004959D01*
X031208Y005042D01*
G37*
G36*
X030874Y005377D02*
X030915Y005336D01*
X030832Y005253D01*
X030791Y005294D01*
X030874Y005377D01*
G37*
G36*
X030208Y005042D02*
X030249Y005001D01*
X030166Y004918D01*
X030125Y004959D01*
X030208Y005042D01*
G37*
G36*
X029874Y005377D02*
X029915Y005336D01*
X029832Y005253D01*
X029791Y005294D01*
X029874Y005377D01*
G37*
G36*
X029208Y005042D02*
X029249Y005001D01*
X029166Y004918D01*
X029125Y004959D01*
X029208Y005042D01*
G37*
G36*
X028874Y005377D02*
X028915Y005336D01*
X028832Y005253D01*
X028791Y005294D01*
X028874Y005377D01*
G37*
G36*
X028208Y005042D02*
X028249Y005001D01*
X028166Y004918D01*
X028125Y004959D01*
X028208Y005042D01*
G37*
G36*
X027874Y005377D02*
X027915Y005336D01*
X027832Y005253D01*
X027791Y005294D01*
X027874Y005377D01*
G37*
G36*
X027208Y005042D02*
X027249Y005001D01*
X027166Y004918D01*
X027125Y004959D01*
X027208Y005042D01*
G37*
G36*
X026874Y005377D02*
X026915Y005336D01*
X026832Y005253D01*
X026791Y005294D01*
X026874Y005377D01*
G37*
G36*
X026208Y005042D02*
X026249Y005001D01*
X026166Y004918D01*
X026125Y004959D01*
X026208Y005042D01*
G37*
G36*
X025874Y005377D02*
X025915Y005336D01*
X025832Y005253D01*
X025791Y005294D01*
X025874Y005377D01*
G37*
G36*
X025208Y005042D02*
X025249Y005001D01*
X025166Y004918D01*
X025125Y004959D01*
X025208Y005042D01*
G37*
G36*
X024874Y005377D02*
X024915Y005336D01*
X024832Y005253D01*
X024791Y005294D01*
X024874Y005377D01*
G37*
G36*
X024208Y005042D02*
X024249Y005001D01*
X024166Y004918D01*
X024125Y004959D01*
X024208Y005042D01*
G37*
G36*
X023874Y005377D02*
X023915Y005336D01*
X023832Y005253D01*
X023791Y005294D01*
X023874Y005377D01*
G37*
G36*
X023208Y005042D02*
X023249Y005001D01*
X023166Y004918D01*
X023125Y004959D01*
X023208Y005042D01*
G37*
G36*
X022874Y005377D02*
X022915Y005336D01*
X022832Y005253D01*
X022791Y005294D01*
X022874Y005377D01*
G37*
G36*
X022208Y005042D02*
X022249Y005001D01*
X022166Y004918D01*
X022125Y004959D01*
X022208Y005042D01*
G37*
G36*
X021874Y005377D02*
X021915Y005336D01*
X021832Y005253D01*
X021791Y005294D01*
X021874Y005377D01*
G37*
G36*
X021208Y005042D02*
X021249Y005001D01*
X021166Y004918D01*
X021125Y004959D01*
X021208Y005042D01*
G37*
G36*
X020874Y005377D02*
X020915Y005336D01*
X020832Y005253D01*
X020791Y005294D01*
X020874Y005377D01*
G37*
G36*
X020208Y005042D02*
X020249Y005001D01*
X020166Y004918D01*
X020125Y004959D01*
X020208Y005042D01*
G37*
G36*
X019874Y005377D02*
X019915Y005336D01*
X019832Y005253D01*
X019791Y005294D01*
X019874Y005377D01*
G37*
G36*
X019208Y005042D02*
X019249Y005001D01*
X019166Y004918D01*
X019125Y004959D01*
X019208Y005042D01*
G37*
G36*
X018874Y005377D02*
X018915Y005336D01*
X018832Y005253D01*
X018791Y005294D01*
X018874Y005377D01*
G37*
G36*
X018208Y005042D02*
X018249Y005001D01*
X018166Y004918D01*
X018125Y004959D01*
X018208Y005042D01*
G37*
G36*
X017874Y005377D02*
X017915Y005336D01*
X017832Y005253D01*
X017791Y005294D01*
X017874Y005377D01*
G37*
G36*
X017208Y005042D02*
X017249Y005001D01*
X017166Y004918D01*
X017125Y004959D01*
X017208Y005042D01*
G37*
G36*
X016874Y005377D02*
X016915Y005336D01*
X016832Y005253D01*
X016791Y005294D01*
X016874Y005377D01*
G37*
G36*
X016208Y005042D02*
X016249Y005001D01*
X016166Y004918D01*
X016125Y004959D01*
X016208Y005042D01*
G37*
G36*
X015874Y005377D02*
X015915Y005336D01*
X015832Y005253D01*
X015791Y005294D01*
X015874Y005377D01*
G37*
G36*
X015208Y005042D02*
X015249Y005001D01*
X015166Y004918D01*
X015125Y004959D01*
X015208Y005042D01*
G37*
G36*
X014874Y005377D02*
X014915Y005336D01*
X014832Y005253D01*
X014791Y005294D01*
X014874Y005377D01*
G37*
G36*
X014208Y005042D02*
X014249Y005001D01*
X014166Y004918D01*
X014125Y004959D01*
X014208Y005042D01*
G37*
G36*
X013874Y005377D02*
X013915Y005336D01*
X013832Y005253D01*
X013791Y005294D01*
X013874Y005377D01*
G37*
G36*
X013208Y005042D02*
X013249Y005001D01*
X013166Y004918D01*
X013125Y004959D01*
X013208Y005042D01*
G37*
G36*
X012874Y005377D02*
X012915Y005336D01*
X012832Y005253D01*
X012791Y005294D01*
X012874Y005377D01*
G37*
G36*
X012208Y005042D02*
X012249Y005001D01*
X012166Y004918D01*
X012125Y004959D01*
X012208Y005042D01*
G37*
G36*
X011874Y005377D02*
X011915Y005336D01*
X011832Y005253D01*
X011791Y005294D01*
X011874Y005377D01*
G37*
G36*
X011208Y005042D02*
X011249Y005001D01*
X011166Y004918D01*
X011125Y004959D01*
X011208Y005042D01*
G37*
G36*
X010874Y005377D02*
X010915Y005336D01*
X010832Y005253D01*
X010791Y005294D01*
X010874Y005377D01*
G37*
G36*
X010208Y005042D02*
X010249Y005001D01*
X010166Y004918D01*
X010125Y004959D01*
X010208Y005042D01*
G37*
G36*
X009874Y005377D02*
X009915Y005336D01*
X009832Y005253D01*
X009791Y005294D01*
X009874Y005377D01*
G37*
G36*
X009208Y005042D02*
X009249Y005001D01*
X009166Y004918D01*
X009125Y004959D01*
X009208Y005042D01*
G37*
G36*
X008874Y005377D02*
X008915Y005336D01*
X008832Y005253D01*
X008791Y005294D01*
X008874Y005377D01*
G37*
G36*
X008208Y005042D02*
X008249Y005001D01*
X008166Y004918D01*
X008125Y004959D01*
X008208Y005042D01*
G37*
G36*
X007874Y005377D02*
X007915Y005336D01*
X007832Y005253D01*
X007791Y005294D01*
X007874Y005377D01*
G37*
G36*
X007208Y005042D02*
X007249Y005001D01*
X007166Y004918D01*
X007125Y004959D01*
X007208Y005042D01*
G37*
G36*
X006874Y005377D02*
X006915Y005336D01*
X006832Y005253D01*
X006791Y005294D01*
X006874Y005377D01*
G37*
G36*
X006208Y005042D02*
X006249Y005001D01*
X006166Y004918D01*
X006125Y004959D01*
X006208Y005042D01*
G37*
G36*
X005874Y005377D02*
X005915Y005336D01*
X005832Y005253D01*
X005791Y005294D01*
X005874Y005377D01*
G37*
G36*
X005208Y005042D02*
X005249Y005001D01*
X005166Y004918D01*
X005125Y004959D01*
X005208Y005042D01*
G37*
G36*
X004874Y005377D02*
X004915Y005336D01*
X004832Y005253D01*
X004791Y005294D01*
X004874Y005377D01*
G37*
G36*
X004208Y005042D02*
X004249Y005001D01*
X004166Y004918D01*
X004125Y004959D01*
X004208Y005042D01*
G37*
G36*
X003874Y005377D02*
X003915Y005336D01*
X003832Y005253D01*
X003791Y005294D01*
X003874Y005377D01*
G37*
G36*
X003208Y005042D02*
X003249Y005001D01*
X003166Y004918D01*
X003125Y004959D01*
X003208Y005042D01*
G37*
G36*
X002874Y005377D02*
X002915Y005336D01*
X002832Y005253D01*
X002791Y005294D01*
X002874Y005377D01*
G37*
G36*
X002208Y005042D02*
X002249Y005001D01*
X002166Y004918D01*
X002125Y004959D01*
X002208Y005042D01*
G37*
G36*
X001874Y005377D02*
X001915Y005336D01*
X001832Y005253D01*
X001791Y005294D01*
X001874Y005377D01*
G37*
G36*
X001874Y004377D02*
X001915Y004336D01*
X001832Y004253D01*
X001791Y004294D01*
X001874Y004377D01*
G37*
G36*
X002208Y004042D02*
X002249Y004001D01*
X002166Y003918D01*
X002125Y003959D01*
X002208Y004042D01*
G37*
G36*
X002874Y004377D02*
X002915Y004336D01*
X002832Y004253D01*
X002791Y004294D01*
X002874Y004377D01*
G37*
G36*
X003208Y004042D02*
X003249Y004001D01*
X003166Y003918D01*
X003125Y003959D01*
X003208Y004042D01*
G37*
G36*
X003874Y004377D02*
X003915Y004336D01*
X003832Y004253D01*
X003791Y004294D01*
X003874Y004377D01*
G37*
G36*
X004208Y004042D02*
X004249Y004001D01*
X004166Y003918D01*
X004125Y003959D01*
X004208Y004042D01*
G37*
G36*
X004874Y004377D02*
X004915Y004336D01*
X004832Y004253D01*
X004791Y004294D01*
X004874Y004377D01*
G37*
G36*
X005208Y004042D02*
X005249Y004001D01*
X005166Y003918D01*
X005125Y003959D01*
X005208Y004042D01*
G37*
G36*
X005874Y004377D02*
X005915Y004336D01*
X005832Y004253D01*
X005791Y004294D01*
X005874Y004377D01*
G37*
G36*
X006208Y004042D02*
X006249Y004001D01*
X006166Y003918D01*
X006125Y003959D01*
X006208Y004042D01*
G37*
G36*
X006874Y004377D02*
X006915Y004336D01*
X006832Y004253D01*
X006791Y004294D01*
X006874Y004377D01*
G37*
G36*
X007208Y004042D02*
X007249Y004001D01*
X007166Y003918D01*
X007125Y003959D01*
X007208Y004042D01*
G37*
G36*
X007874Y004377D02*
X007915Y004336D01*
X007832Y004253D01*
X007791Y004294D01*
X007874Y004377D01*
G37*
G36*
X008208Y004042D02*
X008249Y004001D01*
X008166Y003918D01*
X008125Y003959D01*
X008208Y004042D01*
G37*
G36*
X008874Y004377D02*
X008915Y004336D01*
X008832Y004253D01*
X008791Y004294D01*
X008874Y004377D01*
G37*
G36*
X009208Y004042D02*
X009249Y004001D01*
X009166Y003918D01*
X009125Y003959D01*
X009208Y004042D01*
G37*
G36*
X009874Y004377D02*
X009915Y004336D01*
X009832Y004253D01*
X009791Y004294D01*
X009874Y004377D01*
G37*
G36*
X010208Y004042D02*
X010249Y004001D01*
X010166Y003918D01*
X010125Y003959D01*
X010208Y004042D01*
G37*
G36*
X010874Y004377D02*
X010915Y004336D01*
X010832Y004253D01*
X010791Y004294D01*
X010874Y004377D01*
G37*
G36*
X011208Y004042D02*
X011249Y004001D01*
X011166Y003918D01*
X011125Y003959D01*
X011208Y004042D01*
G37*
G36*
X011874Y004377D02*
X011915Y004336D01*
X011832Y004253D01*
X011791Y004294D01*
X011874Y004377D01*
G37*
G36*
X012208Y004042D02*
X012249Y004001D01*
X012166Y003918D01*
X012125Y003959D01*
X012208Y004042D01*
G37*
G36*
X012874Y004377D02*
X012915Y004336D01*
X012832Y004253D01*
X012791Y004294D01*
X012874Y004377D01*
G37*
G36*
X013208Y004042D02*
X013249Y004001D01*
X013166Y003918D01*
X013125Y003959D01*
X013208Y004042D01*
G37*
G36*
X013874Y004377D02*
X013915Y004336D01*
X013832Y004253D01*
X013791Y004294D01*
X013874Y004377D01*
G37*
G36*
X014208Y004042D02*
X014249Y004001D01*
X014166Y003918D01*
X014125Y003959D01*
X014208Y004042D01*
G37*
G36*
X014874Y004377D02*
X014915Y004336D01*
X014832Y004253D01*
X014791Y004294D01*
X014874Y004377D01*
G37*
G36*
X015208Y004042D02*
X015249Y004001D01*
X015166Y003918D01*
X015125Y003959D01*
X015208Y004042D01*
G37*
G36*
X015874Y004377D02*
X015915Y004336D01*
X015832Y004253D01*
X015791Y004294D01*
X015874Y004377D01*
G37*
G36*
X016208Y004042D02*
X016249Y004001D01*
X016166Y003918D01*
X016125Y003959D01*
X016208Y004042D01*
G37*
G36*
X016874Y004377D02*
X016915Y004336D01*
X016832Y004253D01*
X016791Y004294D01*
X016874Y004377D01*
G37*
G36*
X017208Y004042D02*
X017249Y004001D01*
X017166Y003918D01*
X017125Y003959D01*
X017208Y004042D01*
G37*
G36*
X017874Y004377D02*
X017915Y004336D01*
X017832Y004253D01*
X017791Y004294D01*
X017874Y004377D01*
G37*
G36*
X018208Y004042D02*
X018249Y004001D01*
X018166Y003918D01*
X018125Y003959D01*
X018208Y004042D01*
G37*
G36*
X018874Y004377D02*
X018915Y004336D01*
X018832Y004253D01*
X018791Y004294D01*
X018874Y004377D01*
G37*
G36*
X019208Y004042D02*
X019249Y004001D01*
X019166Y003918D01*
X019125Y003959D01*
X019208Y004042D01*
G37*
G36*
X019874Y004377D02*
X019915Y004336D01*
X019832Y004253D01*
X019791Y004294D01*
X019874Y004377D01*
G37*
G36*
X020208Y004042D02*
X020249Y004001D01*
X020166Y003918D01*
X020125Y003959D01*
X020208Y004042D01*
G37*
G36*
X020874Y004377D02*
X020915Y004336D01*
X020832Y004253D01*
X020791Y004294D01*
X020874Y004377D01*
G37*
G36*
X021208Y004042D02*
X021249Y004001D01*
X021166Y003918D01*
X021125Y003959D01*
X021208Y004042D01*
G37*
G36*
X021874Y004377D02*
X021915Y004336D01*
X021832Y004253D01*
X021791Y004294D01*
X021874Y004377D01*
G37*
G36*
X022208Y004042D02*
X022249Y004001D01*
X022166Y003918D01*
X022125Y003959D01*
X022208Y004042D01*
G37*
G36*
X022874Y004377D02*
X022915Y004336D01*
X022832Y004253D01*
X022791Y004294D01*
X022874Y004377D01*
G37*
G36*
X023208Y004042D02*
X023249Y004001D01*
X023166Y003918D01*
X023125Y003959D01*
X023208Y004042D01*
G37*
G36*
X023874Y004377D02*
X023915Y004336D01*
X023832Y004253D01*
X023791Y004294D01*
X023874Y004377D01*
G37*
G36*
X024208Y004042D02*
X024249Y004001D01*
X024166Y003918D01*
X024125Y003959D01*
X024208Y004042D01*
G37*
G36*
X024874Y004377D02*
X024915Y004336D01*
X024832Y004253D01*
X024791Y004294D01*
X024874Y004377D01*
G37*
G36*
X025208Y004042D02*
X025249Y004001D01*
X025166Y003918D01*
X025125Y003959D01*
X025208Y004042D01*
G37*
G36*
X025874Y004377D02*
X025915Y004336D01*
X025832Y004253D01*
X025791Y004294D01*
X025874Y004377D01*
G37*
G36*
X026208Y004042D02*
X026249Y004001D01*
X026166Y003918D01*
X026125Y003959D01*
X026208Y004042D01*
G37*
G36*
X026874Y004377D02*
X026915Y004336D01*
X026832Y004253D01*
X026791Y004294D01*
X026874Y004377D01*
G37*
G36*
X027208Y004042D02*
X027249Y004001D01*
X027166Y003918D01*
X027125Y003959D01*
X027208Y004042D01*
G37*
G36*
X027874Y004377D02*
X027915Y004336D01*
X027832Y004253D01*
X027791Y004294D01*
X027874Y004377D01*
G37*
G36*
X028208Y004042D02*
X028249Y004001D01*
X028166Y003918D01*
X028125Y003959D01*
X028208Y004042D01*
G37*
G36*
X028874Y004377D02*
X028915Y004336D01*
X028832Y004253D01*
X028791Y004294D01*
X028874Y004377D01*
G37*
G36*
X029208Y004042D02*
X029249Y004001D01*
X029166Y003918D01*
X029125Y003959D01*
X029208Y004042D01*
G37*
G36*
X029874Y004377D02*
X029915Y004336D01*
X029832Y004253D01*
X029791Y004294D01*
X029874Y004377D01*
G37*
G36*
X030208Y004042D02*
X030249Y004001D01*
X030166Y003918D01*
X030125Y003959D01*
X030208Y004042D01*
G37*
G36*
X030874Y004377D02*
X030915Y004336D01*
X030832Y004253D01*
X030791Y004294D01*
X030874Y004377D01*
G37*
G36*
X031208Y004042D02*
X031249Y004001D01*
X031166Y003918D01*
X031125Y003959D01*
X031208Y004042D01*
G37*
G36*
X031874Y004377D02*
X031915Y004336D01*
X031832Y004253D01*
X031791Y004294D01*
X031874Y004377D01*
G37*
G36*
X032208Y004042D02*
X032249Y004001D01*
X032166Y003918D01*
X032125Y003959D01*
X032208Y004042D01*
G37*
G36*
X031874Y003377D02*
X031915Y003336D01*
X031832Y003253D01*
X031791Y003294D01*
X031874Y003377D01*
G37*
G36*
X032208Y003042D02*
X032249Y003001D01*
X032166Y002918D01*
X032125Y002959D01*
X032208Y003042D01*
G37*
G36*
X031208Y003042D02*
X031249Y003001D01*
X031166Y002918D01*
X031125Y002959D01*
X031208Y003042D01*
G37*
G36*
X030874Y003377D02*
X030915Y003336D01*
X030832Y003253D01*
X030791Y003294D01*
X030874Y003377D01*
G37*
G36*
X030208Y003042D02*
X030249Y003001D01*
X030166Y002918D01*
X030125Y002959D01*
X030208Y003042D01*
G37*
G36*
X029874Y003377D02*
X029915Y003336D01*
X029832Y003253D01*
X029791Y003294D01*
X029874Y003377D01*
G37*
G36*
X029208Y003042D02*
X029249Y003001D01*
X029166Y002918D01*
X029125Y002959D01*
X029208Y003042D01*
G37*
G36*
X028874Y003377D02*
X028915Y003336D01*
X028832Y003253D01*
X028791Y003294D01*
X028874Y003377D01*
G37*
G36*
X028208Y003042D02*
X028249Y003001D01*
X028166Y002918D01*
X028125Y002959D01*
X028208Y003042D01*
G37*
G36*
X027874Y003377D02*
X027915Y003336D01*
X027832Y003253D01*
X027791Y003294D01*
X027874Y003377D01*
G37*
G36*
X027208Y003042D02*
X027249Y003001D01*
X027166Y002918D01*
X027125Y002959D01*
X027208Y003042D01*
G37*
G36*
X026874Y003377D02*
X026915Y003336D01*
X026832Y003253D01*
X026791Y003294D01*
X026874Y003377D01*
G37*
G36*
X026208Y003042D02*
X026249Y003001D01*
X026166Y002918D01*
X026125Y002959D01*
X026208Y003042D01*
G37*
G36*
X025874Y003377D02*
X025915Y003336D01*
X025832Y003253D01*
X025791Y003294D01*
X025874Y003377D01*
G37*
G36*
X025208Y003042D02*
X025249Y003001D01*
X025166Y002918D01*
X025125Y002959D01*
X025208Y003042D01*
G37*
G36*
X024874Y003377D02*
X024915Y003336D01*
X024832Y003253D01*
X024791Y003294D01*
X024874Y003377D01*
G37*
G36*
X024208Y003042D02*
X024249Y003001D01*
X024166Y002918D01*
X024125Y002959D01*
X024208Y003042D01*
G37*
G36*
X023874Y003377D02*
X023915Y003336D01*
X023832Y003253D01*
X023791Y003294D01*
X023874Y003377D01*
G37*
G36*
X023208Y003042D02*
X023249Y003001D01*
X023166Y002918D01*
X023125Y002959D01*
X023208Y003042D01*
G37*
G36*
X022874Y003377D02*
X022915Y003336D01*
X022832Y003253D01*
X022791Y003294D01*
X022874Y003377D01*
G37*
G36*
X022208Y003042D02*
X022249Y003001D01*
X022166Y002918D01*
X022125Y002959D01*
X022208Y003042D01*
G37*
G36*
X021874Y003377D02*
X021915Y003336D01*
X021832Y003253D01*
X021791Y003294D01*
X021874Y003377D01*
G37*
G36*
X021208Y003042D02*
X021249Y003001D01*
X021166Y002918D01*
X021125Y002959D01*
X021208Y003042D01*
G37*
G36*
X020874Y003377D02*
X020915Y003336D01*
X020832Y003253D01*
X020791Y003294D01*
X020874Y003377D01*
G37*
G36*
X020208Y003042D02*
X020249Y003001D01*
X020166Y002918D01*
X020125Y002959D01*
X020208Y003042D01*
G37*
G36*
X019874Y003377D02*
X019915Y003336D01*
X019832Y003253D01*
X019791Y003294D01*
X019874Y003377D01*
G37*
G36*
X019208Y003042D02*
X019249Y003001D01*
X019166Y002918D01*
X019125Y002959D01*
X019208Y003042D01*
G37*
G36*
X018874Y003377D02*
X018915Y003336D01*
X018832Y003253D01*
X018791Y003294D01*
X018874Y003377D01*
G37*
G36*
X018208Y003042D02*
X018249Y003001D01*
X018166Y002918D01*
X018125Y002959D01*
X018208Y003042D01*
G37*
G36*
X017874Y003377D02*
X017915Y003336D01*
X017832Y003253D01*
X017791Y003294D01*
X017874Y003377D01*
G37*
G36*
X017208Y003042D02*
X017249Y003001D01*
X017166Y002918D01*
X017125Y002959D01*
X017208Y003042D01*
G37*
G36*
X016874Y003377D02*
X016915Y003336D01*
X016832Y003253D01*
X016791Y003294D01*
X016874Y003377D01*
G37*
G36*
X016208Y003042D02*
X016249Y003001D01*
X016166Y002918D01*
X016125Y002959D01*
X016208Y003042D01*
G37*
G36*
X015874Y003377D02*
X015915Y003336D01*
X015832Y003253D01*
X015791Y003294D01*
X015874Y003377D01*
G37*
G36*
X015208Y003042D02*
X015249Y003001D01*
X015166Y002918D01*
X015125Y002959D01*
X015208Y003042D01*
G37*
G36*
X014874Y003377D02*
X014915Y003336D01*
X014832Y003253D01*
X014791Y003294D01*
X014874Y003377D01*
G37*
G36*
X014208Y003042D02*
X014249Y003001D01*
X014166Y002918D01*
X014125Y002959D01*
X014208Y003042D01*
G37*
G36*
X013874Y003377D02*
X013915Y003336D01*
X013832Y003253D01*
X013791Y003294D01*
X013874Y003377D01*
G37*
G36*
X013208Y003042D02*
X013249Y003001D01*
X013166Y002918D01*
X013125Y002959D01*
X013208Y003042D01*
G37*
G36*
X012874Y003377D02*
X012915Y003336D01*
X012832Y003253D01*
X012791Y003294D01*
X012874Y003377D01*
G37*
G36*
X012208Y003042D02*
X012249Y003001D01*
X012166Y002918D01*
X012125Y002959D01*
X012208Y003042D01*
G37*
G36*
X011874Y003377D02*
X011915Y003336D01*
X011832Y003253D01*
X011791Y003294D01*
X011874Y003377D01*
G37*
G36*
X011208Y003042D02*
X011249Y003001D01*
X011166Y002918D01*
X011125Y002959D01*
X011208Y003042D01*
G37*
G36*
X010874Y003377D02*
X010915Y003336D01*
X010832Y003253D01*
X010791Y003294D01*
X010874Y003377D01*
G37*
G36*
X010208Y003042D02*
X010249Y003001D01*
X010166Y002918D01*
X010125Y002959D01*
X010208Y003042D01*
G37*
G36*
X009874Y003377D02*
X009915Y003336D01*
X009832Y003253D01*
X009791Y003294D01*
X009874Y003377D01*
G37*
G36*
X009208Y003042D02*
X009249Y003001D01*
X009166Y002918D01*
X009125Y002959D01*
X009208Y003042D01*
G37*
G36*
X008874Y003377D02*
X008915Y003336D01*
X008832Y003253D01*
X008791Y003294D01*
X008874Y003377D01*
G37*
G36*
X008208Y003042D02*
X008249Y003001D01*
X008166Y002918D01*
X008125Y002959D01*
X008208Y003042D01*
G37*
G36*
X007874Y003377D02*
X007915Y003336D01*
X007832Y003253D01*
X007791Y003294D01*
X007874Y003377D01*
G37*
G36*
X007208Y003042D02*
X007249Y003001D01*
X007166Y002918D01*
X007125Y002959D01*
X007208Y003042D01*
G37*
G36*
X006874Y003377D02*
X006915Y003336D01*
X006832Y003253D01*
X006791Y003294D01*
X006874Y003377D01*
G37*
G36*
X006208Y003042D02*
X006249Y003001D01*
X006166Y002918D01*
X006125Y002959D01*
X006208Y003042D01*
G37*
G36*
X005874Y003377D02*
X005915Y003336D01*
X005832Y003253D01*
X005791Y003294D01*
X005874Y003377D01*
G37*
G36*
X005208Y003042D02*
X005249Y003001D01*
X005166Y002918D01*
X005125Y002959D01*
X005208Y003042D01*
G37*
G36*
X004874Y003377D02*
X004915Y003336D01*
X004832Y003253D01*
X004791Y003294D01*
X004874Y003377D01*
G37*
G36*
X004208Y003042D02*
X004249Y003001D01*
X004166Y002918D01*
X004125Y002959D01*
X004208Y003042D01*
G37*
G36*
X003874Y003377D02*
X003915Y003336D01*
X003832Y003253D01*
X003791Y003294D01*
X003874Y003377D01*
G37*
G36*
X003208Y003042D02*
X003249Y003001D01*
X003166Y002918D01*
X003125Y002959D01*
X003208Y003042D01*
G37*
G36*
X002874Y003377D02*
X002915Y003336D01*
X002832Y003253D01*
X002791Y003294D01*
X002874Y003377D01*
G37*
G36*
X002208Y003042D02*
X002249Y003001D01*
X002166Y002918D01*
X002125Y002959D01*
X002208Y003042D01*
G37*
G36*
X001874Y003377D02*
X001915Y003336D01*
X001832Y003253D01*
X001791Y003294D01*
X001874Y003377D01*
G37*
G36*
X001874Y002377D02*
X001915Y002336D01*
X001832Y002253D01*
X001791Y002294D01*
X001874Y002377D01*
G37*
G36*
X002208Y002042D02*
X002249Y002001D01*
X002166Y001918D01*
X002125Y001959D01*
X002208Y002042D01*
G37*
G36*
X002874Y002377D02*
X002915Y002336D01*
X002832Y002253D01*
X002791Y002294D01*
X002874Y002377D01*
G37*
G36*
X003208Y002042D02*
X003249Y002001D01*
X003166Y001918D01*
X003125Y001959D01*
X003208Y002042D01*
G37*
G36*
X003874Y002377D02*
X003915Y002336D01*
X003832Y002253D01*
X003791Y002294D01*
X003874Y002377D01*
G37*
G36*
X004208Y002042D02*
X004249Y002001D01*
X004166Y001918D01*
X004125Y001959D01*
X004208Y002042D01*
G37*
G36*
X004874Y002377D02*
X004915Y002336D01*
X004832Y002253D01*
X004791Y002294D01*
X004874Y002377D01*
G37*
G36*
X005208Y002042D02*
X005249Y002001D01*
X005166Y001918D01*
X005125Y001959D01*
X005208Y002042D01*
G37*
G36*
X005874Y002377D02*
X005915Y002336D01*
X005832Y002253D01*
X005791Y002294D01*
X005874Y002377D01*
G37*
G36*
X006208Y002042D02*
X006249Y002001D01*
X006166Y001918D01*
X006125Y001959D01*
X006208Y002042D01*
G37*
G36*
X006874Y002377D02*
X006915Y002336D01*
X006832Y002253D01*
X006791Y002294D01*
X006874Y002377D01*
G37*
G36*
X007208Y002042D02*
X007249Y002001D01*
X007166Y001918D01*
X007125Y001959D01*
X007208Y002042D01*
G37*
G36*
X007874Y002377D02*
X007915Y002336D01*
X007832Y002253D01*
X007791Y002294D01*
X007874Y002377D01*
G37*
G36*
X008208Y002042D02*
X008249Y002001D01*
X008166Y001918D01*
X008125Y001959D01*
X008208Y002042D01*
G37*
G36*
X008874Y002377D02*
X008915Y002336D01*
X008832Y002253D01*
X008791Y002294D01*
X008874Y002377D01*
G37*
G36*
X009208Y002042D02*
X009249Y002001D01*
X009166Y001918D01*
X009125Y001959D01*
X009208Y002042D01*
G37*
G36*
X009874Y002377D02*
X009915Y002336D01*
X009832Y002253D01*
X009791Y002294D01*
X009874Y002377D01*
G37*
G36*
X010208Y002042D02*
X010249Y002001D01*
X010166Y001918D01*
X010125Y001959D01*
X010208Y002042D01*
G37*
G36*
X010874Y002377D02*
X010915Y002336D01*
X010832Y002253D01*
X010791Y002294D01*
X010874Y002377D01*
G37*
G36*
X011208Y002042D02*
X011249Y002001D01*
X011166Y001918D01*
X011125Y001959D01*
X011208Y002042D01*
G37*
G36*
X011874Y002377D02*
X011915Y002336D01*
X011832Y002253D01*
X011791Y002294D01*
X011874Y002377D01*
G37*
G36*
X012208Y002042D02*
X012249Y002001D01*
X012166Y001918D01*
X012125Y001959D01*
X012208Y002042D01*
G37*
G36*
X012874Y002377D02*
X012915Y002336D01*
X012832Y002253D01*
X012791Y002294D01*
X012874Y002377D01*
G37*
G36*
X013208Y002042D02*
X013249Y002001D01*
X013166Y001918D01*
X013125Y001959D01*
X013208Y002042D01*
G37*
G36*
X013874Y002377D02*
X013915Y002336D01*
X013832Y002253D01*
X013791Y002294D01*
X013874Y002377D01*
G37*
G36*
X014208Y002042D02*
X014249Y002001D01*
X014166Y001918D01*
X014125Y001959D01*
X014208Y002042D01*
G37*
G36*
X014874Y002377D02*
X014915Y002336D01*
X014832Y002253D01*
X014791Y002294D01*
X014874Y002377D01*
G37*
G36*
X015208Y002042D02*
X015249Y002001D01*
X015166Y001918D01*
X015125Y001959D01*
X015208Y002042D01*
G37*
G36*
X015874Y002377D02*
X015915Y002336D01*
X015832Y002253D01*
X015791Y002294D01*
X015874Y002377D01*
G37*
G36*
X016208Y002042D02*
X016249Y002001D01*
X016166Y001918D01*
X016125Y001959D01*
X016208Y002042D01*
G37*
G36*
X016874Y002377D02*
X016915Y002336D01*
X016832Y002253D01*
X016791Y002294D01*
X016874Y002377D01*
G37*
G36*
X017208Y002042D02*
X017249Y002001D01*
X017166Y001918D01*
X017125Y001959D01*
X017208Y002042D01*
G37*
G36*
X017874Y002377D02*
X017915Y002336D01*
X017832Y002253D01*
X017791Y002294D01*
X017874Y002377D01*
G37*
G36*
X018208Y002042D02*
X018249Y002001D01*
X018166Y001918D01*
X018125Y001959D01*
X018208Y002042D01*
G37*
G36*
X018874Y002377D02*
X018915Y002336D01*
X018832Y002253D01*
X018791Y002294D01*
X018874Y002377D01*
G37*
G36*
X019208Y002042D02*
X019249Y002001D01*
X019166Y001918D01*
X019125Y001959D01*
X019208Y002042D01*
G37*
G36*
X019874Y002377D02*
X019915Y002336D01*
X019832Y002253D01*
X019791Y002294D01*
X019874Y002377D01*
G37*
G36*
X020208Y002042D02*
X020249Y002001D01*
X020166Y001918D01*
X020125Y001959D01*
X020208Y002042D01*
G37*
G36*
X020874Y002377D02*
X020915Y002336D01*
X020832Y002253D01*
X020791Y002294D01*
X020874Y002377D01*
G37*
G36*
X021208Y002042D02*
X021249Y002001D01*
X021166Y001918D01*
X021125Y001959D01*
X021208Y002042D01*
G37*
G36*
X021874Y002377D02*
X021915Y002336D01*
X021832Y002253D01*
X021791Y002294D01*
X021874Y002377D01*
G37*
G36*
X022208Y002042D02*
X022249Y002001D01*
X022166Y001918D01*
X022125Y001959D01*
X022208Y002042D01*
G37*
G36*
X022874Y002377D02*
X022915Y002336D01*
X022832Y002253D01*
X022791Y002294D01*
X022874Y002377D01*
G37*
G36*
X023208Y002042D02*
X023249Y002001D01*
X023166Y001918D01*
X023125Y001959D01*
X023208Y002042D01*
G37*
G36*
X023874Y002377D02*
X023915Y002336D01*
X023832Y002253D01*
X023791Y002294D01*
X023874Y002377D01*
G37*
G36*
X024208Y002042D02*
X024249Y002001D01*
X024166Y001918D01*
X024125Y001959D01*
X024208Y002042D01*
G37*
G36*
X024874Y002377D02*
X024915Y002336D01*
X024832Y002253D01*
X024791Y002294D01*
X024874Y002377D01*
G37*
G36*
X025208Y002042D02*
X025249Y002001D01*
X025166Y001918D01*
X025125Y001959D01*
X025208Y002042D01*
G37*
G36*
X025874Y002377D02*
X025915Y002336D01*
X025832Y002253D01*
X025791Y002294D01*
X025874Y002377D01*
G37*
G36*
X026208Y002042D02*
X026249Y002001D01*
X026166Y001918D01*
X026125Y001959D01*
X026208Y002042D01*
G37*
G36*
X026874Y002377D02*
X026915Y002336D01*
X026832Y002253D01*
X026791Y002294D01*
X026874Y002377D01*
G37*
G36*
X027208Y002042D02*
X027249Y002001D01*
X027166Y001918D01*
X027125Y001959D01*
X027208Y002042D01*
G37*
G36*
X027874Y002377D02*
X027915Y002336D01*
X027832Y002253D01*
X027791Y002294D01*
X027874Y002377D01*
G37*
G36*
X028208Y002042D02*
X028249Y002001D01*
X028166Y001918D01*
X028125Y001959D01*
X028208Y002042D01*
G37*
G36*
X028874Y002377D02*
X028915Y002336D01*
X028832Y002253D01*
X028791Y002294D01*
X028874Y002377D01*
G37*
G36*
X029208Y002042D02*
X029249Y002001D01*
X029166Y001918D01*
X029125Y001959D01*
X029208Y002042D01*
G37*
G36*
X029874Y002377D02*
X029915Y002336D01*
X029832Y002253D01*
X029791Y002294D01*
X029874Y002377D01*
G37*
G36*
X030208Y002042D02*
X030249Y002001D01*
X030166Y001918D01*
X030125Y001959D01*
X030208Y002042D01*
G37*
G36*
X030874Y002377D02*
X030915Y002336D01*
X030832Y002253D01*
X030791Y002294D01*
X030874Y002377D01*
G37*
G36*
X031208Y002042D02*
X031249Y002001D01*
X031166Y001918D01*
X031125Y001959D01*
X031208Y002042D01*
G37*
G36*
X031874Y002377D02*
X031915Y002336D01*
X031832Y002253D01*
X031791Y002294D01*
X031874Y002377D01*
G37*
G36*
X032208Y002042D02*
X032249Y002001D01*
X032166Y001918D01*
X032125Y001959D01*
X032208Y002042D01*
G37*
G36*
X031874Y001377D02*
X031915Y001336D01*
X031832Y001253D01*
X031791Y001294D01*
X031874Y001377D01*
G37*
G36*
X032208Y001042D02*
X032249Y001001D01*
X032166Y000918D01*
X032125Y000959D01*
X032208Y001042D01*
G37*
G36*
X031208Y001042D02*
X031249Y001001D01*
X031166Y000918D01*
X031125Y000959D01*
X031208Y001042D01*
G37*
G36*
X030874Y001377D02*
X030915Y001336D01*
X030832Y001253D01*
X030791Y001294D01*
X030874Y001377D01*
G37*
G36*
X030208Y001042D02*
X030249Y001001D01*
X030166Y000918D01*
X030125Y000959D01*
X030208Y001042D01*
G37*
G36*
X029874Y001377D02*
X029915Y001336D01*
X029832Y001253D01*
X029791Y001294D01*
X029874Y001377D01*
G37*
G36*
X029208Y001042D02*
X029249Y001001D01*
X029166Y000918D01*
X029125Y000959D01*
X029208Y001042D01*
G37*
G36*
X028874Y001377D02*
X028915Y001336D01*
X028832Y001253D01*
X028791Y001294D01*
X028874Y001377D01*
G37*
G36*
X028208Y001042D02*
X028249Y001001D01*
X028166Y000918D01*
X028125Y000959D01*
X028208Y001042D01*
G37*
G36*
X027874Y001377D02*
X027915Y001336D01*
X027832Y001253D01*
X027791Y001294D01*
X027874Y001377D01*
G37*
G36*
X027208Y001042D02*
X027249Y001001D01*
X027166Y000918D01*
X027125Y000959D01*
X027208Y001042D01*
G37*
G36*
X026874Y001377D02*
X026915Y001336D01*
X026832Y001253D01*
X026791Y001294D01*
X026874Y001377D01*
G37*
G36*
X026208Y001042D02*
X026249Y001001D01*
X026166Y000918D01*
X026125Y000959D01*
X026208Y001042D01*
G37*
G36*
X025874Y001377D02*
X025915Y001336D01*
X025832Y001253D01*
X025791Y001294D01*
X025874Y001377D01*
G37*
G36*
X025208Y001042D02*
X025249Y001001D01*
X025166Y000918D01*
X025125Y000959D01*
X025208Y001042D01*
G37*
G36*
X024874Y001377D02*
X024915Y001336D01*
X024832Y001253D01*
X024791Y001294D01*
X024874Y001377D01*
G37*
G36*
X024208Y001042D02*
X024249Y001001D01*
X024166Y000918D01*
X024125Y000959D01*
X024208Y001042D01*
G37*
G36*
X023874Y001377D02*
X023915Y001336D01*
X023832Y001253D01*
X023791Y001294D01*
X023874Y001377D01*
G37*
G36*
X023208Y001042D02*
X023249Y001001D01*
X023166Y000918D01*
X023125Y000959D01*
X023208Y001042D01*
G37*
G36*
X022874Y001377D02*
X022915Y001336D01*
X022832Y001253D01*
X022791Y001294D01*
X022874Y001377D01*
G37*
G36*
X022208Y001042D02*
X022249Y001001D01*
X022166Y000918D01*
X022125Y000959D01*
X022208Y001042D01*
G37*
G36*
X021874Y001377D02*
X021915Y001336D01*
X021832Y001253D01*
X021791Y001294D01*
X021874Y001377D01*
G37*
G36*
X021208Y001042D02*
X021249Y001001D01*
X021166Y000918D01*
X021125Y000959D01*
X021208Y001042D01*
G37*
G36*
X020874Y001377D02*
X020915Y001336D01*
X020832Y001253D01*
X020791Y001294D01*
X020874Y001377D01*
G37*
G36*
X020208Y001042D02*
X020249Y001001D01*
X020166Y000918D01*
X020125Y000959D01*
X020208Y001042D01*
G37*
G36*
X019874Y001377D02*
X019915Y001336D01*
X019832Y001253D01*
X019791Y001294D01*
X019874Y001377D01*
G37*
G36*
X019208Y001042D02*
X019249Y001001D01*
X019166Y000918D01*
X019125Y000959D01*
X019208Y001042D01*
G37*
G36*
X018874Y001377D02*
X018915Y001336D01*
X018832Y001253D01*
X018791Y001294D01*
X018874Y001377D01*
G37*
G36*
X018208Y001042D02*
X018249Y001001D01*
X018166Y000918D01*
X018125Y000959D01*
X018208Y001042D01*
G37*
G36*
X017874Y001377D02*
X017915Y001336D01*
X017832Y001253D01*
X017791Y001294D01*
X017874Y001377D01*
G37*
G36*
X017208Y001042D02*
X017249Y001001D01*
X017166Y000918D01*
X017125Y000959D01*
X017208Y001042D01*
G37*
G36*
X016874Y001377D02*
X016915Y001336D01*
X016832Y001253D01*
X016791Y001294D01*
X016874Y001377D01*
G37*
G36*
X016208Y001042D02*
X016249Y001001D01*
X016166Y000918D01*
X016125Y000959D01*
X016208Y001042D01*
G37*
G36*
X015874Y001377D02*
X015915Y001336D01*
X015832Y001253D01*
X015791Y001294D01*
X015874Y001377D01*
G37*
G36*
X015208Y001042D02*
X015249Y001001D01*
X015166Y000918D01*
X015125Y000959D01*
X015208Y001042D01*
G37*
G36*
X014874Y001377D02*
X014915Y001336D01*
X014832Y001253D01*
X014791Y001294D01*
X014874Y001377D01*
G37*
G36*
X014208Y001042D02*
X014249Y001001D01*
X014166Y000918D01*
X014125Y000959D01*
X014208Y001042D01*
G37*
G36*
X013874Y001377D02*
X013915Y001336D01*
X013832Y001253D01*
X013791Y001294D01*
X013874Y001377D01*
G37*
G36*
X013208Y001042D02*
X013249Y001001D01*
X013166Y000918D01*
X013125Y000959D01*
X013208Y001042D01*
G37*
G36*
X012874Y001377D02*
X012915Y001336D01*
X012832Y001253D01*
X012791Y001294D01*
X012874Y001377D01*
G37*
G36*
X012208Y001042D02*
X012249Y001001D01*
X012166Y000918D01*
X012125Y000959D01*
X012208Y001042D01*
G37*
G36*
X011874Y001377D02*
X011915Y001336D01*
X011832Y001253D01*
X011791Y001294D01*
X011874Y001377D01*
G37*
G36*
X011208Y001042D02*
X011249Y001001D01*
X011166Y000918D01*
X011125Y000959D01*
X011208Y001042D01*
G37*
G36*
X010874Y001377D02*
X010915Y001336D01*
X010832Y001253D01*
X010791Y001294D01*
X010874Y001377D01*
G37*
G36*
X010208Y001042D02*
X010249Y001001D01*
X010166Y000918D01*
X010125Y000959D01*
X010208Y001042D01*
G37*
G36*
X009874Y001377D02*
X009915Y001336D01*
X009832Y001253D01*
X009791Y001294D01*
X009874Y001377D01*
G37*
G36*
X009208Y001042D02*
X009249Y001001D01*
X009166Y000918D01*
X009125Y000959D01*
X009208Y001042D01*
G37*
G36*
X008874Y001377D02*
X008915Y001336D01*
X008832Y001253D01*
X008791Y001294D01*
X008874Y001377D01*
G37*
G36*
X008208Y001042D02*
X008249Y001001D01*
X008166Y000918D01*
X008125Y000959D01*
X008208Y001042D01*
G37*
G36*
X007874Y001377D02*
X007915Y001336D01*
X007832Y001253D01*
X007791Y001294D01*
X007874Y001377D01*
G37*
G36*
X007208Y001042D02*
X007249Y001001D01*
X007166Y000918D01*
X007125Y000959D01*
X007208Y001042D01*
G37*
G36*
X006874Y001377D02*
X006915Y001336D01*
X006832Y001253D01*
X006791Y001294D01*
X006874Y001377D01*
G37*
G36*
X006208Y001042D02*
X006249Y001001D01*
X006166Y000918D01*
X006125Y000959D01*
X006208Y001042D01*
G37*
G36*
X005874Y001377D02*
X005915Y001336D01*
X005832Y001253D01*
X005791Y001294D01*
X005874Y001377D01*
G37*
G36*
X005208Y001042D02*
X005249Y001001D01*
X005166Y000918D01*
X005125Y000959D01*
X005208Y001042D01*
G37*
G36*
X004874Y001377D02*
X004915Y001336D01*
X004832Y001253D01*
X004791Y001294D01*
X004874Y001377D01*
G37*
G36*
X004208Y001042D02*
X004249Y001001D01*
X004166Y000918D01*
X004125Y000959D01*
X004208Y001042D01*
G37*
G36*
X003874Y001377D02*
X003915Y001336D01*
X003832Y001253D01*
X003791Y001294D01*
X003874Y001377D01*
G37*
G36*
X003208Y001042D02*
X003249Y001001D01*
X003166Y000918D01*
X003125Y000959D01*
X003208Y001042D01*
G37*
G36*
X002874Y001377D02*
X002915Y001336D01*
X002832Y001253D01*
X002791Y001294D01*
X002874Y001377D01*
G37*
G36*
X002208Y001042D02*
X002249Y001001D01*
X002166Y000918D01*
X002125Y000959D01*
X002208Y001042D01*
G37*
G36*
X001874Y001377D02*
X001915Y001336D01*
X001832Y001253D01*
X001791Y001294D01*
X001874Y001377D01*
G37*
G36*
X002208Y007042D02*
X002249Y007001D01*
X002166Y006918D01*
X002125Y006959D01*
X002208Y007042D01*
G37*
G36*
X001874Y007377D02*
X001915Y007336D01*
X001832Y007253D01*
X001791Y007294D01*
X001874Y007377D01*
G37*
G36*
X001208Y007042D02*
X001249Y007001D01*
X001166Y006918D01*
X001125Y006959D01*
X001208Y007042D01*
G37*
G36*
X000874Y007377D02*
X000915Y007336D01*
X000832Y007253D01*
X000791Y007294D01*
X000874Y007377D01*
G37*
G36*
X001208Y008042D02*
X001249Y008001D01*
X001166Y007918D01*
X001125Y007959D01*
X001208Y008042D01*
G37*
G36*
X000874Y008377D02*
X000915Y008336D01*
X000832Y008253D01*
X000791Y008294D01*
X000874Y008377D01*
G37*
G36*
X001208Y009042D02*
X001249Y009001D01*
X001166Y008918D01*
X001125Y008959D01*
X001208Y009042D01*
G37*
G36*
X000874Y009377D02*
X000915Y009336D01*
X000832Y009253D01*
X000791Y009294D01*
X000874Y009377D01*
G37*
G36*
X001208Y010042D02*
X001249Y010001D01*
X001166Y009918D01*
X001125Y009959D01*
X001208Y010042D01*
G37*
G36*
X000874Y010377D02*
X000915Y010336D01*
X000832Y010253D01*
X000791Y010294D01*
X000874Y010377D01*
G37*
G36*
X001208Y011042D02*
X001249Y011001D01*
X001166Y010918D01*
X001125Y010959D01*
X001208Y011042D01*
G37*
G36*
X000874Y011377D02*
X000915Y011336D01*
X000832Y011253D01*
X000791Y011294D01*
X000874Y011377D01*
G37*
G36*
X001208Y012042D02*
X001249Y012001D01*
X001166Y011918D01*
X001125Y011959D01*
X001208Y012042D01*
G37*
G36*
X000874Y012377D02*
X000915Y012336D01*
X000832Y012253D01*
X000791Y012294D01*
X000874Y012377D01*
G37*
G36*
X001874Y012377D02*
X001915Y012336D01*
X001832Y012253D01*
X001791Y012294D01*
X001874Y012377D01*
G37*
G36*
X002208Y012042D02*
X002249Y012001D01*
X002166Y011918D01*
X002125Y011959D01*
X002208Y012042D01*
G37*
G36*
X002874Y012377D02*
X002915Y012336D01*
X002832Y012253D01*
X002791Y012294D01*
X002874Y012377D01*
G37*
G36*
X003208Y012042D02*
X003249Y012001D01*
X003166Y011918D01*
X003125Y011959D01*
X003208Y012042D01*
G37*
G36*
X003874Y012377D02*
X003915Y012336D01*
X003832Y012253D01*
X003791Y012294D01*
X003874Y012377D01*
G37*
G36*
X004208Y012042D02*
X004249Y012001D01*
X004166Y011918D01*
X004125Y011959D01*
X004208Y012042D01*
G37*
G36*
X004874Y012377D02*
X004915Y012336D01*
X004832Y012253D01*
X004791Y012294D01*
X004874Y012377D01*
G37*
G36*
X005208Y012042D02*
X005249Y012001D01*
X005166Y011918D01*
X005125Y011959D01*
X005208Y012042D01*
G37*
G36*
X005874Y012377D02*
X005915Y012336D01*
X005832Y012253D01*
X005791Y012294D01*
X005874Y012377D01*
G37*
G36*
X006208Y012042D02*
X006249Y012001D01*
X006166Y011918D01*
X006125Y011959D01*
X006208Y012042D01*
G37*
G36*
X006874Y012377D02*
X006915Y012336D01*
X006832Y012253D01*
X006791Y012294D01*
X006874Y012377D01*
G37*
G36*
X007208Y012042D02*
X007249Y012001D01*
X007166Y011918D01*
X007125Y011959D01*
X007208Y012042D01*
G37*
G36*
X007874Y012377D02*
X007915Y012336D01*
X007832Y012253D01*
X007791Y012294D01*
X007874Y012377D01*
G37*
G36*
X008208Y012042D02*
X008249Y012001D01*
X008166Y011918D01*
X008125Y011959D01*
X008208Y012042D01*
G37*
G36*
X008874Y012377D02*
X008915Y012336D01*
X008832Y012253D01*
X008791Y012294D01*
X008874Y012377D01*
G37*
G36*
X009208Y012042D02*
X009249Y012001D01*
X009166Y011918D01*
X009125Y011959D01*
X009208Y012042D01*
G37*
G36*
X009874Y012377D02*
X009915Y012336D01*
X009832Y012253D01*
X009791Y012294D01*
X009874Y012377D01*
G37*
G36*
X010208Y012042D02*
X010249Y012001D01*
X010166Y011918D01*
X010125Y011959D01*
X010208Y012042D01*
G37*
G36*
X010874Y012377D02*
X010915Y012336D01*
X010832Y012253D01*
X010791Y012294D01*
X010874Y012377D01*
G37*
G36*
X011208Y012042D02*
X011249Y012001D01*
X011166Y011918D01*
X011125Y011959D01*
X011208Y012042D01*
G37*
G36*
X011874Y012377D02*
X011915Y012336D01*
X011832Y012253D01*
X011791Y012294D01*
X011874Y012377D01*
G37*
G36*
X012208Y012042D02*
X012249Y012001D01*
X012166Y011918D01*
X012125Y011959D01*
X012208Y012042D01*
G37*
G36*
X012874Y012377D02*
X012915Y012336D01*
X012832Y012253D01*
X012791Y012294D01*
X012874Y012377D01*
G37*
G36*
X013208Y012042D02*
X013249Y012001D01*
X013166Y011918D01*
X013125Y011959D01*
X013208Y012042D01*
G37*
G36*
X013874Y012377D02*
X013915Y012336D01*
X013832Y012253D01*
X013791Y012294D01*
X013874Y012377D01*
G37*
G36*
X014208Y012042D02*
X014249Y012001D01*
X014166Y011918D01*
X014125Y011959D01*
X014208Y012042D01*
G37*
G36*
X014874Y012377D02*
X014915Y012336D01*
X014832Y012253D01*
X014791Y012294D01*
X014874Y012377D01*
G37*
G36*
X015208Y012042D02*
X015249Y012001D01*
X015166Y011918D01*
X015125Y011959D01*
X015208Y012042D01*
G37*
G36*
X015874Y012377D02*
X015915Y012336D01*
X015832Y012253D01*
X015791Y012294D01*
X015874Y012377D01*
G37*
G36*
X016208Y012042D02*
X016249Y012001D01*
X016166Y011918D01*
X016125Y011959D01*
X016208Y012042D01*
G37*
G36*
X016874Y012377D02*
X016915Y012336D01*
X016832Y012253D01*
X016791Y012294D01*
X016874Y012377D01*
G37*
G36*
X017208Y012042D02*
X017249Y012001D01*
X017166Y011918D01*
X017125Y011959D01*
X017208Y012042D01*
G37*
G36*
X017874Y012377D02*
X017915Y012336D01*
X017832Y012253D01*
X017791Y012294D01*
X017874Y012377D01*
G37*
G36*
X018208Y012042D02*
X018249Y012001D01*
X018166Y011918D01*
X018125Y011959D01*
X018208Y012042D01*
G37*
G36*
X018874Y012377D02*
X018915Y012336D01*
X018832Y012253D01*
X018791Y012294D01*
X018874Y012377D01*
G37*
G36*
X019208Y012042D02*
X019249Y012001D01*
X019166Y011918D01*
X019125Y011959D01*
X019208Y012042D01*
G37*
G36*
X019874Y012377D02*
X019915Y012336D01*
X019832Y012253D01*
X019791Y012294D01*
X019874Y012377D01*
G37*
G36*
X020208Y012042D02*
X020249Y012001D01*
X020166Y011918D01*
X020125Y011959D01*
X020208Y012042D01*
G37*
G36*
X020874Y012377D02*
X020915Y012336D01*
X020832Y012253D01*
X020791Y012294D01*
X020874Y012377D01*
G37*
G36*
X021208Y012042D02*
X021249Y012001D01*
X021166Y011918D01*
X021125Y011959D01*
X021208Y012042D01*
G37*
G36*
X021874Y012377D02*
X021915Y012336D01*
X021832Y012253D01*
X021791Y012294D01*
X021874Y012377D01*
G37*
G36*
X022208Y012042D02*
X022249Y012001D01*
X022166Y011918D01*
X022125Y011959D01*
X022208Y012042D01*
G37*
G36*
X022874Y012377D02*
X022915Y012336D01*
X022832Y012253D01*
X022791Y012294D01*
X022874Y012377D01*
G37*
G36*
X023208Y012042D02*
X023249Y012001D01*
X023166Y011918D01*
X023125Y011959D01*
X023208Y012042D01*
G37*
G36*
X023874Y012377D02*
X023915Y012336D01*
X023832Y012253D01*
X023791Y012294D01*
X023874Y012377D01*
G37*
G36*
X024208Y012042D02*
X024249Y012001D01*
X024166Y011918D01*
X024125Y011959D01*
X024208Y012042D01*
G37*
G36*
X024874Y012377D02*
X024915Y012336D01*
X024832Y012253D01*
X024791Y012294D01*
X024874Y012377D01*
G37*
G36*
X025208Y012042D02*
X025249Y012001D01*
X025166Y011918D01*
X025125Y011959D01*
X025208Y012042D01*
G37*
G36*
X025874Y012377D02*
X025915Y012336D01*
X025832Y012253D01*
X025791Y012294D01*
X025874Y012377D01*
G37*
G36*
X026208Y012042D02*
X026249Y012001D01*
X026166Y011918D01*
X026125Y011959D01*
X026208Y012042D01*
G37*
G36*
X026874Y012377D02*
X026915Y012336D01*
X026832Y012253D01*
X026791Y012294D01*
X026874Y012377D01*
G37*
G36*
X027208Y012042D02*
X027249Y012001D01*
X027166Y011918D01*
X027125Y011959D01*
X027208Y012042D01*
G37*
G36*
X027874Y012377D02*
X027915Y012336D01*
X027832Y012253D01*
X027791Y012294D01*
X027874Y012377D01*
G37*
G36*
X028208Y012042D02*
X028249Y012001D01*
X028166Y011918D01*
X028125Y011959D01*
X028208Y012042D01*
G37*
G36*
X028874Y012377D02*
X028915Y012336D01*
X028832Y012253D01*
X028791Y012294D01*
X028874Y012377D01*
G37*
G36*
X029208Y012042D02*
X029249Y012001D01*
X029166Y011918D01*
X029125Y011959D01*
X029208Y012042D01*
G37*
G36*
X029874Y012377D02*
X029915Y012336D01*
X029832Y012253D01*
X029791Y012294D01*
X029874Y012377D01*
G37*
G36*
X030208Y012042D02*
X030249Y012001D01*
X030166Y011918D01*
X030125Y011959D01*
X030208Y012042D01*
G37*
G36*
X030874Y012377D02*
X030915Y012336D01*
X030832Y012253D01*
X030791Y012294D01*
X030874Y012377D01*
G37*
G36*
X031208Y012042D02*
X031249Y012001D01*
X031166Y011918D01*
X031125Y011959D01*
X031208Y012042D01*
G37*
G36*
X031874Y012377D02*
X031915Y012336D01*
X031832Y012253D01*
X031791Y012294D01*
X031874Y012377D01*
G37*
G36*
X032208Y012042D02*
X032249Y012001D01*
X032166Y011918D01*
X032125Y011959D01*
X032208Y012042D01*
G37*
G36*
X031874Y011377D02*
X031915Y011336D01*
X031832Y011253D01*
X031791Y011294D01*
X031874Y011377D01*
G37*
G36*
X032208Y011042D02*
X032249Y011001D01*
X032166Y010918D01*
X032125Y010959D01*
X032208Y011042D01*
G37*
G36*
X031208Y011042D02*
X031249Y011001D01*
X031166Y010918D01*
X031125Y010959D01*
X031208Y011042D01*
G37*
G36*
X030874Y011377D02*
X030915Y011336D01*
X030832Y011253D01*
X030791Y011294D01*
X030874Y011377D01*
G37*
G36*
X030208Y011042D02*
X030249Y011001D01*
X030166Y010918D01*
X030125Y010959D01*
X030208Y011042D01*
G37*
G36*
X029874Y011377D02*
X029915Y011336D01*
X029832Y011253D01*
X029791Y011294D01*
X029874Y011377D01*
G37*
G36*
X029208Y011042D02*
X029249Y011001D01*
X029166Y010918D01*
X029125Y010959D01*
X029208Y011042D01*
G37*
G36*
X028874Y011377D02*
X028915Y011336D01*
X028832Y011253D01*
X028791Y011294D01*
X028874Y011377D01*
G37*
G36*
X028208Y011042D02*
X028249Y011001D01*
X028166Y010918D01*
X028125Y010959D01*
X028208Y011042D01*
G37*
G36*
X027874Y011377D02*
X027915Y011336D01*
X027832Y011253D01*
X027791Y011294D01*
X027874Y011377D01*
G37*
G36*
X027208Y011042D02*
X027249Y011001D01*
X027166Y010918D01*
X027125Y010959D01*
X027208Y011042D01*
G37*
G36*
X026874Y011377D02*
X026915Y011336D01*
X026832Y011253D01*
X026791Y011294D01*
X026874Y011377D01*
G37*
G36*
X026208Y011042D02*
X026249Y011001D01*
X026166Y010918D01*
X026125Y010959D01*
X026208Y011042D01*
G37*
G36*
X025874Y011377D02*
X025915Y011336D01*
X025832Y011253D01*
X025791Y011294D01*
X025874Y011377D01*
G37*
G36*
X025208Y011042D02*
X025249Y011001D01*
X025166Y010918D01*
X025125Y010959D01*
X025208Y011042D01*
G37*
G36*
X024874Y011377D02*
X024915Y011336D01*
X024832Y011253D01*
X024791Y011294D01*
X024874Y011377D01*
G37*
G36*
X024208Y011042D02*
X024249Y011001D01*
X024166Y010918D01*
X024125Y010959D01*
X024208Y011042D01*
G37*
G36*
X023874Y011377D02*
X023915Y011336D01*
X023832Y011253D01*
X023791Y011294D01*
X023874Y011377D01*
G37*
G36*
X023208Y011042D02*
X023249Y011001D01*
X023166Y010918D01*
X023125Y010959D01*
X023208Y011042D01*
G37*
G36*
X022874Y011377D02*
X022915Y011336D01*
X022832Y011253D01*
X022791Y011294D01*
X022874Y011377D01*
G37*
G36*
X022208Y011042D02*
X022249Y011001D01*
X022166Y010918D01*
X022125Y010959D01*
X022208Y011042D01*
G37*
G36*
X021874Y011377D02*
X021915Y011336D01*
X021832Y011253D01*
X021791Y011294D01*
X021874Y011377D01*
G37*
G36*
X021208Y011042D02*
X021249Y011001D01*
X021166Y010918D01*
X021125Y010959D01*
X021208Y011042D01*
G37*
G36*
X020874Y011377D02*
X020915Y011336D01*
X020832Y011253D01*
X020791Y011294D01*
X020874Y011377D01*
G37*
G36*
X020208Y011042D02*
X020249Y011001D01*
X020166Y010918D01*
X020125Y010959D01*
X020208Y011042D01*
G37*
G36*
X019874Y011377D02*
X019915Y011336D01*
X019832Y011253D01*
X019791Y011294D01*
X019874Y011377D01*
G37*
G36*
X019208Y011042D02*
X019249Y011001D01*
X019166Y010918D01*
X019125Y010959D01*
X019208Y011042D01*
G37*
G36*
X018874Y011377D02*
X018915Y011336D01*
X018832Y011253D01*
X018791Y011294D01*
X018874Y011377D01*
G37*
G36*
X018208Y011042D02*
X018249Y011001D01*
X018166Y010918D01*
X018125Y010959D01*
X018208Y011042D01*
G37*
G36*
X017874Y011377D02*
X017915Y011336D01*
X017832Y011253D01*
X017791Y011294D01*
X017874Y011377D01*
G37*
G36*
X017208Y011042D02*
X017249Y011001D01*
X017166Y010918D01*
X017125Y010959D01*
X017208Y011042D01*
G37*
G36*
X016874Y011377D02*
X016915Y011336D01*
X016832Y011253D01*
X016791Y011294D01*
X016874Y011377D01*
G37*
G36*
X016208Y011042D02*
X016249Y011001D01*
X016166Y010918D01*
X016125Y010959D01*
X016208Y011042D01*
G37*
G36*
X015874Y011377D02*
X015915Y011336D01*
X015832Y011253D01*
X015791Y011294D01*
X015874Y011377D01*
G37*
G36*
X015208Y011042D02*
X015249Y011001D01*
X015166Y010918D01*
X015125Y010959D01*
X015208Y011042D01*
G37*
G36*
X014874Y011377D02*
X014915Y011336D01*
X014832Y011253D01*
X014791Y011294D01*
X014874Y011377D01*
G37*
G36*
X014208Y011042D02*
X014249Y011001D01*
X014166Y010918D01*
X014125Y010959D01*
X014208Y011042D01*
G37*
G36*
X013874Y011377D02*
X013915Y011336D01*
X013832Y011253D01*
X013791Y011294D01*
X013874Y011377D01*
G37*
G36*
X013208Y011042D02*
X013249Y011001D01*
X013166Y010918D01*
X013125Y010959D01*
X013208Y011042D01*
G37*
G36*
X012874Y011377D02*
X012915Y011336D01*
X012832Y011253D01*
X012791Y011294D01*
X012874Y011377D01*
G37*
G36*
X012208Y011042D02*
X012249Y011001D01*
X012166Y010918D01*
X012125Y010959D01*
X012208Y011042D01*
G37*
G36*
X011874Y011377D02*
X011915Y011336D01*
X011832Y011253D01*
X011791Y011294D01*
X011874Y011377D01*
G37*
G36*
X011208Y011042D02*
X011249Y011001D01*
X011166Y010918D01*
X011125Y010959D01*
X011208Y011042D01*
G37*
G36*
X010874Y011377D02*
X010915Y011336D01*
X010832Y011253D01*
X010791Y011294D01*
X010874Y011377D01*
G37*
G36*
X010208Y011042D02*
X010249Y011001D01*
X010166Y010918D01*
X010125Y010959D01*
X010208Y011042D01*
G37*
G36*
X009874Y011377D02*
X009915Y011336D01*
X009832Y011253D01*
X009791Y011294D01*
X009874Y011377D01*
G37*
G36*
X009208Y011042D02*
X009249Y011001D01*
X009166Y010918D01*
X009125Y010959D01*
X009208Y011042D01*
G37*
G36*
X008874Y011377D02*
X008915Y011336D01*
X008832Y011253D01*
X008791Y011294D01*
X008874Y011377D01*
G37*
G36*
X008208Y011042D02*
X008249Y011001D01*
X008166Y010918D01*
X008125Y010959D01*
X008208Y011042D01*
G37*
G36*
X007874Y011377D02*
X007915Y011336D01*
X007832Y011253D01*
X007791Y011294D01*
X007874Y011377D01*
G37*
G36*
X007208Y011042D02*
X007249Y011001D01*
X007166Y010918D01*
X007125Y010959D01*
X007208Y011042D01*
G37*
G36*
X006874Y011377D02*
X006915Y011336D01*
X006832Y011253D01*
X006791Y011294D01*
X006874Y011377D01*
G37*
G36*
X006208Y011042D02*
X006249Y011001D01*
X006166Y010918D01*
X006125Y010959D01*
X006208Y011042D01*
G37*
G36*
X005874Y011377D02*
X005915Y011336D01*
X005832Y011253D01*
X005791Y011294D01*
X005874Y011377D01*
G37*
G36*
X005208Y011042D02*
X005249Y011001D01*
X005166Y010918D01*
X005125Y010959D01*
X005208Y011042D01*
G37*
G36*
X004874Y011377D02*
X004915Y011336D01*
X004832Y011253D01*
X004791Y011294D01*
X004874Y011377D01*
G37*
G36*
X004208Y011042D02*
X004249Y011001D01*
X004166Y010918D01*
X004125Y010959D01*
X004208Y011042D01*
G37*
G36*
X003874Y011377D02*
X003915Y011336D01*
X003832Y011253D01*
X003791Y011294D01*
X003874Y011377D01*
G37*
G36*
X003208Y011042D02*
X003249Y011001D01*
X003166Y010918D01*
X003125Y010959D01*
X003208Y011042D01*
G37*
G36*
X002874Y011377D02*
X002915Y011336D01*
X002832Y011253D01*
X002791Y011294D01*
X002874Y011377D01*
G37*
G36*
X002208Y011042D02*
X002249Y011001D01*
X002166Y010918D01*
X002125Y010959D01*
X002208Y011042D01*
G37*
G36*
X001874Y011377D02*
X001915Y011336D01*
X001832Y011253D01*
X001791Y011294D01*
X001874Y011377D01*
G37*
G36*
X001874Y010377D02*
X001915Y010336D01*
X001832Y010253D01*
X001791Y010294D01*
X001874Y010377D01*
G37*
G36*
X002208Y010042D02*
X002249Y010001D01*
X002166Y009918D01*
X002125Y009959D01*
X002208Y010042D01*
G37*
G36*
X002874Y010377D02*
X002915Y010336D01*
X002832Y010253D01*
X002791Y010294D01*
X002874Y010377D01*
G37*
G36*
X003208Y010042D02*
X003249Y010001D01*
X003166Y009918D01*
X003125Y009959D01*
X003208Y010042D01*
G37*
G36*
X003874Y010377D02*
X003915Y010336D01*
X003832Y010253D01*
X003791Y010294D01*
X003874Y010377D01*
G37*
G36*
X004208Y010042D02*
X004249Y010001D01*
X004166Y009918D01*
X004125Y009959D01*
X004208Y010042D01*
G37*
G36*
X004874Y010377D02*
X004915Y010336D01*
X004832Y010253D01*
X004791Y010294D01*
X004874Y010377D01*
G37*
G36*
X005208Y010042D02*
X005249Y010001D01*
X005166Y009918D01*
X005125Y009959D01*
X005208Y010042D01*
G37*
G36*
X005874Y010377D02*
X005915Y010336D01*
X005832Y010253D01*
X005791Y010294D01*
X005874Y010377D01*
G37*
G36*
X006208Y010042D02*
X006249Y010001D01*
X006166Y009918D01*
X006125Y009959D01*
X006208Y010042D01*
G37*
G36*
X006874Y010377D02*
X006915Y010336D01*
X006832Y010253D01*
X006791Y010294D01*
X006874Y010377D01*
G37*
G36*
X007208Y010042D02*
X007249Y010001D01*
X007166Y009918D01*
X007125Y009959D01*
X007208Y010042D01*
G37*
G36*
X007874Y010377D02*
X007915Y010336D01*
X007832Y010253D01*
X007791Y010294D01*
X007874Y010377D01*
G37*
G36*
X008208Y010042D02*
X008249Y010001D01*
X008166Y009918D01*
X008125Y009959D01*
X008208Y010042D01*
G37*
G36*
X008874Y010377D02*
X008915Y010336D01*
X008832Y010253D01*
X008791Y010294D01*
X008874Y010377D01*
G37*
G36*
X009208Y010042D02*
X009249Y010001D01*
X009166Y009918D01*
X009125Y009959D01*
X009208Y010042D01*
G37*
G36*
X009874Y010377D02*
X009915Y010336D01*
X009832Y010253D01*
X009791Y010294D01*
X009874Y010377D01*
G37*
G36*
X010208Y010042D02*
X010249Y010001D01*
X010166Y009918D01*
X010125Y009959D01*
X010208Y010042D01*
G37*
G36*
X010874Y010377D02*
X010915Y010336D01*
X010832Y010253D01*
X010791Y010294D01*
X010874Y010377D01*
G37*
G36*
X011208Y010042D02*
X011249Y010001D01*
X011166Y009918D01*
X011125Y009959D01*
X011208Y010042D01*
G37*
G36*
X011874Y010377D02*
X011915Y010336D01*
X011832Y010253D01*
X011791Y010294D01*
X011874Y010377D01*
G37*
G36*
X012208Y010042D02*
X012249Y010001D01*
X012166Y009918D01*
X012125Y009959D01*
X012208Y010042D01*
G37*
G36*
X012874Y010377D02*
X012915Y010336D01*
X012832Y010253D01*
X012791Y010294D01*
X012874Y010377D01*
G37*
G36*
X013208Y010042D02*
X013249Y010001D01*
X013166Y009918D01*
X013125Y009959D01*
X013208Y010042D01*
G37*
G36*
X013874Y010377D02*
X013915Y010336D01*
X013832Y010253D01*
X013791Y010294D01*
X013874Y010377D01*
G37*
G36*
X014208Y010042D02*
X014249Y010001D01*
X014166Y009918D01*
X014125Y009959D01*
X014208Y010042D01*
G37*
G36*
X014874Y010377D02*
X014915Y010336D01*
X014832Y010253D01*
X014791Y010294D01*
X014874Y010377D01*
G37*
G36*
X015208Y010042D02*
X015249Y010001D01*
X015166Y009918D01*
X015125Y009959D01*
X015208Y010042D01*
G37*
G36*
X015874Y010377D02*
X015915Y010336D01*
X015832Y010253D01*
X015791Y010294D01*
X015874Y010377D01*
G37*
G36*
X016208Y010042D02*
X016249Y010001D01*
X016166Y009918D01*
X016125Y009959D01*
X016208Y010042D01*
G37*
G36*
X016874Y010377D02*
X016915Y010336D01*
X016832Y010253D01*
X016791Y010294D01*
X016874Y010377D01*
G37*
G36*
X017208Y010042D02*
X017249Y010001D01*
X017166Y009918D01*
X017125Y009959D01*
X017208Y010042D01*
G37*
G36*
X017874Y010377D02*
X017915Y010336D01*
X017832Y010253D01*
X017791Y010294D01*
X017874Y010377D01*
G37*
G36*
X018208Y010042D02*
X018249Y010001D01*
X018166Y009918D01*
X018125Y009959D01*
X018208Y010042D01*
G37*
G36*
X018874Y010377D02*
X018915Y010336D01*
X018832Y010253D01*
X018791Y010294D01*
X018874Y010377D01*
G37*
G36*
X019208Y010042D02*
X019249Y010001D01*
X019166Y009918D01*
X019125Y009959D01*
X019208Y010042D01*
G37*
G36*
X019874Y010377D02*
X019915Y010336D01*
X019832Y010253D01*
X019791Y010294D01*
X019874Y010377D01*
G37*
G36*
X020208Y010042D02*
X020249Y010001D01*
X020166Y009918D01*
X020125Y009959D01*
X020208Y010042D01*
G37*
G36*
X020874Y010377D02*
X020915Y010336D01*
X020832Y010253D01*
X020791Y010294D01*
X020874Y010377D01*
G37*
G36*
X021208Y010042D02*
X021249Y010001D01*
X021166Y009918D01*
X021125Y009959D01*
X021208Y010042D01*
G37*
G36*
X021874Y010377D02*
X021915Y010336D01*
X021832Y010253D01*
X021791Y010294D01*
X021874Y010377D01*
G37*
G36*
X022208Y010042D02*
X022249Y010001D01*
X022166Y009918D01*
X022125Y009959D01*
X022208Y010042D01*
G37*
G36*
X022874Y010377D02*
X022915Y010336D01*
X022832Y010253D01*
X022791Y010294D01*
X022874Y010377D01*
G37*
G36*
X023208Y010042D02*
X023249Y010001D01*
X023166Y009918D01*
X023125Y009959D01*
X023208Y010042D01*
G37*
G36*
X023874Y010377D02*
X023915Y010336D01*
X023832Y010253D01*
X023791Y010294D01*
X023874Y010377D01*
G37*
G36*
X024208Y010042D02*
X024249Y010001D01*
X024166Y009918D01*
X024125Y009959D01*
X024208Y010042D01*
G37*
G36*
X024874Y010377D02*
X024915Y010336D01*
X024832Y010253D01*
X024791Y010294D01*
X024874Y010377D01*
G37*
G36*
X025208Y010042D02*
X025249Y010001D01*
X025166Y009918D01*
X025125Y009959D01*
X025208Y010042D01*
G37*
G36*
X025874Y010377D02*
X025915Y010336D01*
X025832Y010253D01*
X025791Y010294D01*
X025874Y010377D01*
G37*
G36*
X026208Y010042D02*
X026249Y010001D01*
X026166Y009918D01*
X026125Y009959D01*
X026208Y010042D01*
G37*
G36*
X026874Y010377D02*
X026915Y010336D01*
X026832Y010253D01*
X026791Y010294D01*
X026874Y010377D01*
G37*
G36*
X027208Y010042D02*
X027249Y010001D01*
X027166Y009918D01*
X027125Y009959D01*
X027208Y010042D01*
G37*
G36*
X027874Y010377D02*
X027915Y010336D01*
X027832Y010253D01*
X027791Y010294D01*
X027874Y010377D01*
G37*
G36*
X028208Y010042D02*
X028249Y010001D01*
X028166Y009918D01*
X028125Y009959D01*
X028208Y010042D01*
G37*
G36*
X028874Y010377D02*
X028915Y010336D01*
X028832Y010253D01*
X028791Y010294D01*
X028874Y010377D01*
G37*
G36*
X029208Y010042D02*
X029249Y010001D01*
X029166Y009918D01*
X029125Y009959D01*
X029208Y010042D01*
G37*
G36*
X029874Y010377D02*
X029915Y010336D01*
X029832Y010253D01*
X029791Y010294D01*
X029874Y010377D01*
G37*
G36*
X030208Y010042D02*
X030249Y010001D01*
X030166Y009918D01*
X030125Y009959D01*
X030208Y010042D01*
G37*
G36*
X030874Y010377D02*
X030915Y010336D01*
X030832Y010253D01*
X030791Y010294D01*
X030874Y010377D01*
G37*
G36*
X031208Y010042D02*
X031249Y010001D01*
X031166Y009918D01*
X031125Y009959D01*
X031208Y010042D01*
G37*
G36*
X031874Y010377D02*
X031915Y010336D01*
X031832Y010253D01*
X031791Y010294D01*
X031874Y010377D01*
G37*
G36*
X032208Y010042D02*
X032249Y010001D01*
X032166Y009918D01*
X032125Y009959D01*
X032208Y010042D01*
G37*
G36*
X031874Y009377D02*
X031915Y009336D01*
X031832Y009253D01*
X031791Y009294D01*
X031874Y009377D01*
G37*
G36*
X032208Y009042D02*
X032249Y009001D01*
X032166Y008918D01*
X032125Y008959D01*
X032208Y009042D01*
G37*
G36*
X031208Y009042D02*
X031249Y009001D01*
X031166Y008918D01*
X031125Y008959D01*
X031208Y009042D01*
G37*
G36*
X030874Y009377D02*
X030915Y009336D01*
X030832Y009253D01*
X030791Y009294D01*
X030874Y009377D01*
G37*
G36*
X030208Y009042D02*
X030249Y009001D01*
X030166Y008918D01*
X030125Y008959D01*
X030208Y009042D01*
G37*
G36*
X029874Y009377D02*
X029915Y009336D01*
X029832Y009253D01*
X029791Y009294D01*
X029874Y009377D01*
G37*
G36*
X029208Y009042D02*
X029249Y009001D01*
X029166Y008918D01*
X029125Y008959D01*
X029208Y009042D01*
G37*
G36*
X028874Y009377D02*
X028915Y009336D01*
X028832Y009253D01*
X028791Y009294D01*
X028874Y009377D01*
G37*
G36*
X028208Y009042D02*
X028249Y009001D01*
X028166Y008918D01*
X028125Y008959D01*
X028208Y009042D01*
G37*
G36*
X027874Y009377D02*
X027915Y009336D01*
X027832Y009253D01*
X027791Y009294D01*
X027874Y009377D01*
G37*
G36*
X027208Y009042D02*
X027249Y009001D01*
X027166Y008918D01*
X027125Y008959D01*
X027208Y009042D01*
G37*
G36*
X026874Y009377D02*
X026915Y009336D01*
X026832Y009253D01*
X026791Y009294D01*
X026874Y009377D01*
G37*
G36*
X026208Y009042D02*
X026249Y009001D01*
X026166Y008918D01*
X026125Y008959D01*
X026208Y009042D01*
G37*
G36*
X025874Y009377D02*
X025915Y009336D01*
X025832Y009253D01*
X025791Y009294D01*
X025874Y009377D01*
G37*
G36*
X025208Y009042D02*
X025249Y009001D01*
X025166Y008918D01*
X025125Y008959D01*
X025208Y009042D01*
G37*
G36*
X024874Y009377D02*
X024915Y009336D01*
X024832Y009253D01*
X024791Y009294D01*
X024874Y009377D01*
G37*
G36*
X024208Y009042D02*
X024249Y009001D01*
X024166Y008918D01*
X024125Y008959D01*
X024208Y009042D01*
G37*
G36*
X023874Y009377D02*
X023915Y009336D01*
X023832Y009253D01*
X023791Y009294D01*
X023874Y009377D01*
G37*
G36*
X023208Y009042D02*
X023249Y009001D01*
X023166Y008918D01*
X023125Y008959D01*
X023208Y009042D01*
G37*
G36*
X022874Y009377D02*
X022915Y009336D01*
X022832Y009253D01*
X022791Y009294D01*
X022874Y009377D01*
G37*
G36*
X022208Y009042D02*
X022249Y009001D01*
X022166Y008918D01*
X022125Y008959D01*
X022208Y009042D01*
G37*
G36*
X021874Y009377D02*
X021915Y009336D01*
X021832Y009253D01*
X021791Y009294D01*
X021874Y009377D01*
G37*
G36*
X021208Y009042D02*
X021249Y009001D01*
X021166Y008918D01*
X021125Y008959D01*
X021208Y009042D01*
G37*
G36*
X020874Y009377D02*
X020915Y009336D01*
X020832Y009253D01*
X020791Y009294D01*
X020874Y009377D01*
G37*
G36*
X020208Y009042D02*
X020249Y009001D01*
X020166Y008918D01*
X020125Y008959D01*
X020208Y009042D01*
G37*
G36*
X019874Y009377D02*
X019915Y009336D01*
X019832Y009253D01*
X019791Y009294D01*
X019874Y009377D01*
G37*
G36*
X019208Y009042D02*
X019249Y009001D01*
X019166Y008918D01*
X019125Y008959D01*
X019208Y009042D01*
G37*
G36*
X018874Y009377D02*
X018915Y009336D01*
X018832Y009253D01*
X018791Y009294D01*
X018874Y009377D01*
G37*
G36*
X018208Y009042D02*
X018249Y009001D01*
X018166Y008918D01*
X018125Y008959D01*
X018208Y009042D01*
G37*
G36*
X017874Y009377D02*
X017915Y009336D01*
X017832Y009253D01*
X017791Y009294D01*
X017874Y009377D01*
G37*
G36*
X017208Y009042D02*
X017249Y009001D01*
X017166Y008918D01*
X017125Y008959D01*
X017208Y009042D01*
G37*
G36*
X016874Y009377D02*
X016915Y009336D01*
X016832Y009253D01*
X016791Y009294D01*
X016874Y009377D01*
G37*
G36*
X016208Y009042D02*
X016249Y009001D01*
X016166Y008918D01*
X016125Y008959D01*
X016208Y009042D01*
G37*
G36*
X015874Y009377D02*
X015915Y009336D01*
X015832Y009253D01*
X015791Y009294D01*
X015874Y009377D01*
G37*
G36*
X015208Y009042D02*
X015249Y009001D01*
X015166Y008918D01*
X015125Y008959D01*
X015208Y009042D01*
G37*
G36*
X014874Y009377D02*
X014915Y009336D01*
X014832Y009253D01*
X014791Y009294D01*
X014874Y009377D01*
G37*
G36*
X014208Y009042D02*
X014249Y009001D01*
X014166Y008918D01*
X014125Y008959D01*
X014208Y009042D01*
G37*
G36*
X013874Y009377D02*
X013915Y009336D01*
X013832Y009253D01*
X013791Y009294D01*
X013874Y009377D01*
G37*
G36*
X013208Y009042D02*
X013249Y009001D01*
X013166Y008918D01*
X013125Y008959D01*
X013208Y009042D01*
G37*
G36*
X012874Y009377D02*
X012915Y009336D01*
X012832Y009253D01*
X012791Y009294D01*
X012874Y009377D01*
G37*
G36*
X012208Y009042D02*
X012249Y009001D01*
X012166Y008918D01*
X012125Y008959D01*
X012208Y009042D01*
G37*
G36*
X011874Y009377D02*
X011915Y009336D01*
X011832Y009253D01*
X011791Y009294D01*
X011874Y009377D01*
G37*
G36*
X011208Y009042D02*
X011249Y009001D01*
X011166Y008918D01*
X011125Y008959D01*
X011208Y009042D01*
G37*
G36*
X010874Y009377D02*
X010915Y009336D01*
X010832Y009253D01*
X010791Y009294D01*
X010874Y009377D01*
G37*
G36*
X010208Y009042D02*
X010249Y009001D01*
X010166Y008918D01*
X010125Y008959D01*
X010208Y009042D01*
G37*
G36*
X009874Y009377D02*
X009915Y009336D01*
X009832Y009253D01*
X009791Y009294D01*
X009874Y009377D01*
G37*
G36*
X009208Y009042D02*
X009249Y009001D01*
X009166Y008918D01*
X009125Y008959D01*
X009208Y009042D01*
G37*
G36*
X008874Y009377D02*
X008915Y009336D01*
X008832Y009253D01*
X008791Y009294D01*
X008874Y009377D01*
G37*
G36*
X008208Y009042D02*
X008249Y009001D01*
X008166Y008918D01*
X008125Y008959D01*
X008208Y009042D01*
G37*
G36*
X007874Y009377D02*
X007915Y009336D01*
X007832Y009253D01*
X007791Y009294D01*
X007874Y009377D01*
G37*
G36*
X007208Y009042D02*
X007249Y009001D01*
X007166Y008918D01*
X007125Y008959D01*
X007208Y009042D01*
G37*
G36*
X006874Y009377D02*
X006915Y009336D01*
X006832Y009253D01*
X006791Y009294D01*
X006874Y009377D01*
G37*
G36*
X006208Y009042D02*
X006249Y009001D01*
X006166Y008918D01*
X006125Y008959D01*
X006208Y009042D01*
G37*
G36*
X005874Y009377D02*
X005915Y009336D01*
X005832Y009253D01*
X005791Y009294D01*
X005874Y009377D01*
G37*
G36*
X005208Y009042D02*
X005249Y009001D01*
X005166Y008918D01*
X005125Y008959D01*
X005208Y009042D01*
G37*
G36*
X004874Y009377D02*
X004915Y009336D01*
X004832Y009253D01*
X004791Y009294D01*
X004874Y009377D01*
G37*
G36*
X004208Y009042D02*
X004249Y009001D01*
X004166Y008918D01*
X004125Y008959D01*
X004208Y009042D01*
G37*
G36*
X003874Y009377D02*
X003915Y009336D01*
X003832Y009253D01*
X003791Y009294D01*
X003874Y009377D01*
G37*
G36*
X003208Y009042D02*
X003249Y009001D01*
X003166Y008918D01*
X003125Y008959D01*
X003208Y009042D01*
G37*
G36*
X002874Y009377D02*
X002915Y009336D01*
X002832Y009253D01*
X002791Y009294D01*
X002874Y009377D01*
G37*
G36*
X002208Y009042D02*
X002249Y009001D01*
X002166Y008918D01*
X002125Y008959D01*
X002208Y009042D01*
G37*
G36*
X001874Y009377D02*
X001915Y009336D01*
X001832Y009253D01*
X001791Y009294D01*
X001874Y009377D01*
G37*
G36*
X001874Y008377D02*
X001915Y008336D01*
X001832Y008253D01*
X001791Y008294D01*
X001874Y008377D01*
G37*
G36*
X002208Y008042D02*
X002249Y008001D01*
X002166Y007918D01*
X002125Y007959D01*
X002208Y008042D01*
G37*
G36*
X002874Y008377D02*
X002915Y008336D01*
X002832Y008253D01*
X002791Y008294D01*
X002874Y008377D01*
G37*
G36*
X003208Y008042D02*
X003249Y008001D01*
X003166Y007918D01*
X003125Y007959D01*
X003208Y008042D01*
G37*
G36*
X003874Y008377D02*
X003915Y008336D01*
X003832Y008253D01*
X003791Y008294D01*
X003874Y008377D01*
G37*
G36*
X004208Y008042D02*
X004249Y008001D01*
X004166Y007918D01*
X004125Y007959D01*
X004208Y008042D01*
G37*
G36*
X004874Y008377D02*
X004915Y008336D01*
X004832Y008253D01*
X004791Y008294D01*
X004874Y008377D01*
G37*
G36*
X005208Y008042D02*
X005249Y008001D01*
X005166Y007918D01*
X005125Y007959D01*
X005208Y008042D01*
G37*
G36*
X005874Y008377D02*
X005915Y008336D01*
X005832Y008253D01*
X005791Y008294D01*
X005874Y008377D01*
G37*
G36*
X006208Y008042D02*
X006249Y008001D01*
X006166Y007918D01*
X006125Y007959D01*
X006208Y008042D01*
G37*
G36*
X006874Y008377D02*
X006915Y008336D01*
X006832Y008253D01*
X006791Y008294D01*
X006874Y008377D01*
G37*
G36*
X007208Y008042D02*
X007249Y008001D01*
X007166Y007918D01*
X007125Y007959D01*
X007208Y008042D01*
G37*
G36*
X007874Y008377D02*
X007915Y008336D01*
X007832Y008253D01*
X007791Y008294D01*
X007874Y008377D01*
G37*
G36*
X008208Y008042D02*
X008249Y008001D01*
X008166Y007918D01*
X008125Y007959D01*
X008208Y008042D01*
G37*
G36*
X008874Y008377D02*
X008915Y008336D01*
X008832Y008253D01*
X008791Y008294D01*
X008874Y008377D01*
G37*
G36*
X009208Y008042D02*
X009249Y008001D01*
X009166Y007918D01*
X009125Y007959D01*
X009208Y008042D01*
G37*
G36*
X009874Y008377D02*
X009915Y008336D01*
X009832Y008253D01*
X009791Y008294D01*
X009874Y008377D01*
G37*
G36*
X010208Y008042D02*
X010249Y008001D01*
X010166Y007918D01*
X010125Y007959D01*
X010208Y008042D01*
G37*
G36*
X010874Y008377D02*
X010915Y008336D01*
X010832Y008253D01*
X010791Y008294D01*
X010874Y008377D01*
G37*
G36*
X011208Y008042D02*
X011249Y008001D01*
X011166Y007918D01*
X011125Y007959D01*
X011208Y008042D01*
G37*
G36*
X011874Y008377D02*
X011915Y008336D01*
X011832Y008253D01*
X011791Y008294D01*
X011874Y008377D01*
G37*
G36*
X012208Y008042D02*
X012249Y008001D01*
X012166Y007918D01*
X012125Y007959D01*
X012208Y008042D01*
G37*
G36*
X012874Y008377D02*
X012915Y008336D01*
X012832Y008253D01*
X012791Y008294D01*
X012874Y008377D01*
G37*
G36*
X013208Y008042D02*
X013249Y008001D01*
X013166Y007918D01*
X013125Y007959D01*
X013208Y008042D01*
G37*
G36*
X013874Y008377D02*
X013915Y008336D01*
X013832Y008253D01*
X013791Y008294D01*
X013874Y008377D01*
G37*
G36*
X014208Y008042D02*
X014249Y008001D01*
X014166Y007918D01*
X014125Y007959D01*
X014208Y008042D01*
G37*
G36*
X014874Y008377D02*
X014915Y008336D01*
X014832Y008253D01*
X014791Y008294D01*
X014874Y008377D01*
G37*
G36*
X015208Y008042D02*
X015249Y008001D01*
X015166Y007918D01*
X015125Y007959D01*
X015208Y008042D01*
G37*
G36*
X015874Y008377D02*
X015915Y008336D01*
X015832Y008253D01*
X015791Y008294D01*
X015874Y008377D01*
G37*
G36*
X016208Y008042D02*
X016249Y008001D01*
X016166Y007918D01*
X016125Y007959D01*
X016208Y008042D01*
G37*
G36*
X016874Y008377D02*
X016915Y008336D01*
X016832Y008253D01*
X016791Y008294D01*
X016874Y008377D01*
G37*
G36*
X017208Y008042D02*
X017249Y008001D01*
X017166Y007918D01*
X017125Y007959D01*
X017208Y008042D01*
G37*
G36*
X017874Y008377D02*
X017915Y008336D01*
X017832Y008253D01*
X017791Y008294D01*
X017874Y008377D01*
G37*
G36*
X018208Y008042D02*
X018249Y008001D01*
X018166Y007918D01*
X018125Y007959D01*
X018208Y008042D01*
G37*
G36*
X018874Y008377D02*
X018915Y008336D01*
X018832Y008253D01*
X018791Y008294D01*
X018874Y008377D01*
G37*
G36*
X019208Y008042D02*
X019249Y008001D01*
X019166Y007918D01*
X019125Y007959D01*
X019208Y008042D01*
G37*
G36*
X019874Y008377D02*
X019915Y008336D01*
X019832Y008253D01*
X019791Y008294D01*
X019874Y008377D01*
G37*
G36*
X020208Y008042D02*
X020249Y008001D01*
X020166Y007918D01*
X020125Y007959D01*
X020208Y008042D01*
G37*
G36*
X020874Y008377D02*
X020915Y008336D01*
X020832Y008253D01*
X020791Y008294D01*
X020874Y008377D01*
G37*
G36*
X021208Y008042D02*
X021249Y008001D01*
X021166Y007918D01*
X021125Y007959D01*
X021208Y008042D01*
G37*
G36*
X021874Y008377D02*
X021915Y008336D01*
X021832Y008253D01*
X021791Y008294D01*
X021874Y008377D01*
G37*
G36*
X022208Y008042D02*
X022249Y008001D01*
X022166Y007918D01*
X022125Y007959D01*
X022208Y008042D01*
G37*
G36*
X022874Y008377D02*
X022915Y008336D01*
X022832Y008253D01*
X022791Y008294D01*
X022874Y008377D01*
G37*
G36*
X023208Y008042D02*
X023249Y008001D01*
X023166Y007918D01*
X023125Y007959D01*
X023208Y008042D01*
G37*
G36*
X023874Y008377D02*
X023915Y008336D01*
X023832Y008253D01*
X023791Y008294D01*
X023874Y008377D01*
G37*
G36*
X024208Y008042D02*
X024249Y008001D01*
X024166Y007918D01*
X024125Y007959D01*
X024208Y008042D01*
G37*
G36*
X024874Y008377D02*
X024915Y008336D01*
X024832Y008253D01*
X024791Y008294D01*
X024874Y008377D01*
G37*
G36*
X025208Y008042D02*
X025249Y008001D01*
X025166Y007918D01*
X025125Y007959D01*
X025208Y008042D01*
G37*
G36*
X025874Y008377D02*
X025915Y008336D01*
X025832Y008253D01*
X025791Y008294D01*
X025874Y008377D01*
G37*
G36*
X026208Y008042D02*
X026249Y008001D01*
X026166Y007918D01*
X026125Y007959D01*
X026208Y008042D01*
G37*
G36*
X026874Y008377D02*
X026915Y008336D01*
X026832Y008253D01*
X026791Y008294D01*
X026874Y008377D01*
G37*
G36*
X027208Y008042D02*
X027249Y008001D01*
X027166Y007918D01*
X027125Y007959D01*
X027208Y008042D01*
G37*
G36*
X027874Y008377D02*
X027915Y008336D01*
X027832Y008253D01*
X027791Y008294D01*
X027874Y008377D01*
G37*
G36*
X028208Y008042D02*
X028249Y008001D01*
X028166Y007918D01*
X028125Y007959D01*
X028208Y008042D01*
G37*
G36*
X028874Y008377D02*
X028915Y008336D01*
X028832Y008253D01*
X028791Y008294D01*
X028874Y008377D01*
G37*
G36*
X029208Y008042D02*
X029249Y008001D01*
X029166Y007918D01*
X029125Y007959D01*
X029208Y008042D01*
G37*
G36*
X029874Y008377D02*
X029915Y008336D01*
X029832Y008253D01*
X029791Y008294D01*
X029874Y008377D01*
G37*
G36*
X030208Y008042D02*
X030249Y008001D01*
X030166Y007918D01*
X030125Y007959D01*
X030208Y008042D01*
G37*
G36*
X030874Y008377D02*
X030915Y008336D01*
X030832Y008253D01*
X030791Y008294D01*
X030874Y008377D01*
G37*
G36*
X031208Y008042D02*
X031249Y008001D01*
X031166Y007918D01*
X031125Y007959D01*
X031208Y008042D01*
G37*
G36*
X031874Y008377D02*
X031915Y008336D01*
X031832Y008253D01*
X031791Y008294D01*
X031874Y008377D01*
G37*
G36*
X032208Y008042D02*
X032249Y008001D01*
X032166Y007918D01*
X032125Y007959D01*
X032208Y008042D01*
G37*
G36*
X031874Y007377D02*
X031915Y007336D01*
X031832Y007253D01*
X031791Y007294D01*
X031874Y007377D01*
G37*
G36*
X032208Y007042D02*
X032249Y007001D01*
X032166Y006918D01*
X032125Y006959D01*
X032208Y007042D01*
G37*
G36*
X031208Y007042D02*
X031249Y007001D01*
X031166Y006918D01*
X031125Y006959D01*
X031208Y007042D01*
G37*
G36*
X030874Y007377D02*
X030915Y007336D01*
X030832Y007253D01*
X030791Y007294D01*
X030874Y007377D01*
G37*
G36*
X030208Y007042D02*
X030249Y007001D01*
X030166Y006918D01*
X030125Y006959D01*
X030208Y007042D01*
G37*
G36*
X029874Y007377D02*
X029915Y007336D01*
X029832Y007253D01*
X029791Y007294D01*
X029874Y007377D01*
G37*
G36*
X029208Y007042D02*
X029249Y007001D01*
X029166Y006918D01*
X029125Y006959D01*
X029208Y007042D01*
G37*
G36*
X028874Y007377D02*
X028915Y007336D01*
X028832Y007253D01*
X028791Y007294D01*
X028874Y007377D01*
G37*
G36*
X028208Y007042D02*
X028249Y007001D01*
X028166Y006918D01*
X028125Y006959D01*
X028208Y007042D01*
G37*
G36*
X027874Y007377D02*
X027915Y007336D01*
X027832Y007253D01*
X027791Y007294D01*
X027874Y007377D01*
G37*
G36*
X027208Y007042D02*
X027249Y007001D01*
X027166Y006918D01*
X027125Y006959D01*
X027208Y007042D01*
G37*
G36*
X026874Y007377D02*
X026915Y007336D01*
X026832Y007253D01*
X026791Y007294D01*
X026874Y007377D01*
G37*
G36*
X026208Y007042D02*
X026249Y007001D01*
X026166Y006918D01*
X026125Y006959D01*
X026208Y007042D01*
G37*
G36*
X025874Y007377D02*
X025915Y007336D01*
X025832Y007253D01*
X025791Y007294D01*
X025874Y007377D01*
G37*
G36*
X025208Y007042D02*
X025249Y007001D01*
X025166Y006918D01*
X025125Y006959D01*
X025208Y007042D01*
G37*
G36*
X024874Y007377D02*
X024915Y007336D01*
X024832Y007253D01*
X024791Y007294D01*
X024874Y007377D01*
G37*
G36*
X024208Y007042D02*
X024249Y007001D01*
X024166Y006918D01*
X024125Y006959D01*
X024208Y007042D01*
G37*
G36*
X023874Y007377D02*
X023915Y007336D01*
X023832Y007253D01*
X023791Y007294D01*
X023874Y007377D01*
G37*
G36*
X023208Y007042D02*
X023249Y007001D01*
X023166Y006918D01*
X023125Y006959D01*
X023208Y007042D01*
G37*
G36*
X022874Y007377D02*
X022915Y007336D01*
X022832Y007253D01*
X022791Y007294D01*
X022874Y007377D01*
G37*
G36*
X022208Y007042D02*
X022249Y007001D01*
X022166Y006918D01*
X022125Y006959D01*
X022208Y007042D01*
G37*
G36*
X021874Y007377D02*
X021915Y007336D01*
X021832Y007253D01*
X021791Y007294D01*
X021874Y007377D01*
G37*
G36*
X021208Y007042D02*
X021249Y007001D01*
X021166Y006918D01*
X021125Y006959D01*
X021208Y007042D01*
G37*
G36*
X020874Y007377D02*
X020915Y007336D01*
X020832Y007253D01*
X020791Y007294D01*
X020874Y007377D01*
G37*
G36*
X020208Y007042D02*
X020249Y007001D01*
X020166Y006918D01*
X020125Y006959D01*
X020208Y007042D01*
G37*
G36*
X019874Y007377D02*
X019915Y007336D01*
X019832Y007253D01*
X019791Y007294D01*
X019874Y007377D01*
G37*
G36*
X019208Y007042D02*
X019249Y007001D01*
X019166Y006918D01*
X019125Y006959D01*
X019208Y007042D01*
G37*
G36*
X018874Y007377D02*
X018915Y007336D01*
X018832Y007253D01*
X018791Y007294D01*
X018874Y007377D01*
G37*
G36*
X018208Y007042D02*
X018249Y007001D01*
X018166Y006918D01*
X018125Y006959D01*
X018208Y007042D01*
G37*
G36*
X017874Y007377D02*
X017915Y007336D01*
X017832Y007253D01*
X017791Y007294D01*
X017874Y007377D01*
G37*
G36*
X017208Y007042D02*
X017249Y007001D01*
X017166Y006918D01*
X017125Y006959D01*
X017208Y007042D01*
G37*
G36*
X016874Y007377D02*
X016915Y007336D01*
X016832Y007253D01*
X016791Y007294D01*
X016874Y007377D01*
G37*
G36*
X016208Y007042D02*
X016249Y007001D01*
X016166Y006918D01*
X016125Y006959D01*
X016208Y007042D01*
G37*
G36*
X015874Y007377D02*
X015915Y007336D01*
X015832Y007253D01*
X015791Y007294D01*
X015874Y007377D01*
G37*
G36*
X015208Y007042D02*
X015249Y007001D01*
X015166Y006918D01*
X015125Y006959D01*
X015208Y007042D01*
G37*
G36*
X014874Y007377D02*
X014915Y007336D01*
X014832Y007253D01*
X014791Y007294D01*
X014874Y007377D01*
G37*
G36*
X014208Y007042D02*
X014249Y007001D01*
X014166Y006918D01*
X014125Y006959D01*
X014208Y007042D01*
G37*
G36*
X013874Y007377D02*
X013915Y007336D01*
X013832Y007253D01*
X013791Y007294D01*
X013874Y007377D01*
G37*
G36*
X013208Y007042D02*
X013249Y007001D01*
X013166Y006918D01*
X013125Y006959D01*
X013208Y007042D01*
G37*
G36*
X012874Y007377D02*
X012915Y007336D01*
X012832Y007253D01*
X012791Y007294D01*
X012874Y007377D01*
G37*
G36*
X012208Y007042D02*
X012249Y007001D01*
X012166Y006918D01*
X012125Y006959D01*
X012208Y007042D01*
G37*
G36*
X011874Y007377D02*
X011915Y007336D01*
X011832Y007253D01*
X011791Y007294D01*
X011874Y007377D01*
G37*
G36*
X011208Y007042D02*
X011249Y007001D01*
X011166Y006918D01*
X011125Y006959D01*
X011208Y007042D01*
G37*
G36*
X010874Y007377D02*
X010915Y007336D01*
X010832Y007253D01*
X010791Y007294D01*
X010874Y007377D01*
G37*
G36*
X010208Y007042D02*
X010249Y007001D01*
X010166Y006918D01*
X010125Y006959D01*
X010208Y007042D01*
G37*
G36*
X009874Y007377D02*
X009915Y007336D01*
X009832Y007253D01*
X009791Y007294D01*
X009874Y007377D01*
G37*
G36*
X009208Y007042D02*
X009249Y007001D01*
X009166Y006918D01*
X009125Y006959D01*
X009208Y007042D01*
G37*
G36*
X008874Y007377D02*
X008915Y007336D01*
X008832Y007253D01*
X008791Y007294D01*
X008874Y007377D01*
G37*
G36*
X008208Y007042D02*
X008249Y007001D01*
X008166Y006918D01*
X008125Y006959D01*
X008208Y007042D01*
G37*
G36*
X007874Y007377D02*
X007915Y007336D01*
X007832Y007253D01*
X007791Y007294D01*
X007874Y007377D01*
G37*
G36*
X007208Y007042D02*
X007249Y007001D01*
X007166Y006918D01*
X007125Y006959D01*
X007208Y007042D01*
G37*
G36*
X006874Y007377D02*
X006915Y007336D01*
X006832Y007253D01*
X006791Y007294D01*
X006874Y007377D01*
G37*
G36*
X006208Y007042D02*
X006249Y007001D01*
X006166Y006918D01*
X006125Y006959D01*
X006208Y007042D01*
G37*
G36*
X005874Y007377D02*
X005915Y007336D01*
X005832Y007253D01*
X005791Y007294D01*
X005874Y007377D01*
G37*
G36*
X005208Y007042D02*
X005249Y007001D01*
X005166Y006918D01*
X005125Y006959D01*
X005208Y007042D01*
G37*
G36*
X004874Y007377D02*
X004915Y007336D01*
X004832Y007253D01*
X004791Y007294D01*
X004874Y007377D01*
G37*
G36*
X004208Y007042D02*
X004249Y007001D01*
X004166Y006918D01*
X004125Y006959D01*
X004208Y007042D01*
G37*
G36*
X003874Y007377D02*
X003915Y007336D01*
X003832Y007253D01*
X003791Y007294D01*
X003874Y007377D01*
G37*
G36*
X003208Y007042D02*
X003249Y007001D01*
X003166Y006918D01*
X003125Y006959D01*
X003208Y007042D01*
G37*
G36*
X002874Y007377D02*
X002915Y007336D01*
X002832Y007253D01*
X002791Y007294D01*
X002874Y007377D01*
G37*
G36*
X003208Y013042D02*
X003249Y013001D01*
X003166Y012918D01*
X003125Y012959D01*
X003208Y013042D01*
G37*
G36*
X002874Y013377D02*
X002915Y013336D01*
X002832Y013253D01*
X002791Y013294D01*
X002874Y013377D01*
G37*
G36*
X002208Y013042D02*
X002249Y013001D01*
X002166Y012918D01*
X002125Y012959D01*
X002208Y013042D01*
G37*
G36*
X001874Y013377D02*
X001915Y013336D01*
X001832Y013253D01*
X001791Y013294D01*
X001874Y013377D01*
G37*
G36*
X001208Y013042D02*
X001249Y013001D01*
X001166Y012918D01*
X001125Y012959D01*
X001208Y013042D01*
G37*
G36*
X000874Y013377D02*
X000915Y013336D01*
X000832Y013253D01*
X000791Y013294D01*
X000874Y013377D01*
G37*
G36*
X001208Y014042D02*
X001249Y014001D01*
X001166Y013918D01*
X001125Y013959D01*
X001208Y014042D01*
G37*
G36*
X000874Y014377D02*
X000915Y014336D01*
X000832Y014253D01*
X000791Y014294D01*
X000874Y014377D01*
G37*
G36*
X001208Y015042D02*
X001249Y015001D01*
X001166Y014918D01*
X001125Y014959D01*
X001208Y015042D01*
G37*
G36*
X000874Y015377D02*
X000915Y015336D01*
X000832Y015253D01*
X000791Y015294D01*
X000874Y015377D01*
G37*
G36*
X001208Y016042D02*
X001249Y016001D01*
X001166Y015918D01*
X001125Y015959D01*
X001208Y016042D01*
G37*
G36*
X000874Y016377D02*
X000915Y016336D01*
X000832Y016253D01*
X000791Y016294D01*
X000874Y016377D01*
G37*
G36*
X001874Y016377D02*
X001915Y016336D01*
X001832Y016253D01*
X001791Y016294D01*
X001874Y016377D01*
G37*
G36*
X002208Y016042D02*
X002249Y016001D01*
X002166Y015918D01*
X002125Y015959D01*
X002208Y016042D01*
G37*
G36*
X002874Y016377D02*
X002915Y016336D01*
X002832Y016253D01*
X002791Y016294D01*
X002874Y016377D01*
G37*
G36*
X003208Y016042D02*
X003249Y016001D01*
X003166Y015918D01*
X003125Y015959D01*
X003208Y016042D01*
G37*
G36*
X003874Y016377D02*
X003915Y016336D01*
X003832Y016253D01*
X003791Y016294D01*
X003874Y016377D01*
G37*
G36*
X004208Y016042D02*
X004249Y016001D01*
X004166Y015918D01*
X004125Y015959D01*
X004208Y016042D01*
G37*
G36*
X004874Y016377D02*
X004915Y016336D01*
X004832Y016253D01*
X004791Y016294D01*
X004874Y016377D01*
G37*
G36*
X005208Y016042D02*
X005249Y016001D01*
X005166Y015918D01*
X005125Y015959D01*
X005208Y016042D01*
G37*
G36*
X005874Y016377D02*
X005915Y016336D01*
X005832Y016253D01*
X005791Y016294D01*
X005874Y016377D01*
G37*
G36*
X006208Y016042D02*
X006249Y016001D01*
X006166Y015918D01*
X006125Y015959D01*
X006208Y016042D01*
G37*
G36*
X006874Y016377D02*
X006915Y016336D01*
X006832Y016253D01*
X006791Y016294D01*
X006874Y016377D01*
G37*
G36*
X007208Y016042D02*
X007249Y016001D01*
X007166Y015918D01*
X007125Y015959D01*
X007208Y016042D01*
G37*
G36*
X007874Y016377D02*
X007915Y016336D01*
X007832Y016253D01*
X007791Y016294D01*
X007874Y016377D01*
G37*
G36*
X008208Y016042D02*
X008249Y016001D01*
X008166Y015918D01*
X008125Y015959D01*
X008208Y016042D01*
G37*
G36*
X008874Y016377D02*
X008915Y016336D01*
X008832Y016253D01*
X008791Y016294D01*
X008874Y016377D01*
G37*
G36*
X009208Y016042D02*
X009249Y016001D01*
X009166Y015918D01*
X009125Y015959D01*
X009208Y016042D01*
G37*
G36*
X009874Y016377D02*
X009915Y016336D01*
X009832Y016253D01*
X009791Y016294D01*
X009874Y016377D01*
G37*
G36*
X010208Y016042D02*
X010249Y016001D01*
X010166Y015918D01*
X010125Y015959D01*
X010208Y016042D01*
G37*
G36*
X010874Y016377D02*
X010915Y016336D01*
X010832Y016253D01*
X010791Y016294D01*
X010874Y016377D01*
G37*
G36*
X011208Y016042D02*
X011249Y016001D01*
X011166Y015918D01*
X011125Y015959D01*
X011208Y016042D01*
G37*
G36*
X011874Y016377D02*
X011915Y016336D01*
X011832Y016253D01*
X011791Y016294D01*
X011874Y016377D01*
G37*
G36*
X012208Y016042D02*
X012249Y016001D01*
X012166Y015918D01*
X012125Y015959D01*
X012208Y016042D01*
G37*
G36*
X012874Y016377D02*
X012915Y016336D01*
X012832Y016253D01*
X012791Y016294D01*
X012874Y016377D01*
G37*
G36*
X013208Y016042D02*
X013249Y016001D01*
X013166Y015918D01*
X013125Y015959D01*
X013208Y016042D01*
G37*
G36*
X013874Y016377D02*
X013915Y016336D01*
X013832Y016253D01*
X013791Y016294D01*
X013874Y016377D01*
G37*
G36*
X014208Y016042D02*
X014249Y016001D01*
X014166Y015918D01*
X014125Y015959D01*
X014208Y016042D01*
G37*
G36*
X014874Y016377D02*
X014915Y016336D01*
X014832Y016253D01*
X014791Y016294D01*
X014874Y016377D01*
G37*
G36*
X015208Y016042D02*
X015249Y016001D01*
X015166Y015918D01*
X015125Y015959D01*
X015208Y016042D01*
G37*
G36*
X015874Y016377D02*
X015915Y016336D01*
X015832Y016253D01*
X015791Y016294D01*
X015874Y016377D01*
G37*
G36*
X016208Y016042D02*
X016249Y016001D01*
X016166Y015918D01*
X016125Y015959D01*
X016208Y016042D01*
G37*
G36*
X016874Y016377D02*
X016915Y016336D01*
X016832Y016253D01*
X016791Y016294D01*
X016874Y016377D01*
G37*
G36*
X017208Y016042D02*
X017249Y016001D01*
X017166Y015918D01*
X017125Y015959D01*
X017208Y016042D01*
G37*
G36*
X017874Y016377D02*
X017915Y016336D01*
X017832Y016253D01*
X017791Y016294D01*
X017874Y016377D01*
G37*
G36*
X018208Y016042D02*
X018249Y016001D01*
X018166Y015918D01*
X018125Y015959D01*
X018208Y016042D01*
G37*
G36*
X018874Y016377D02*
X018915Y016336D01*
X018832Y016253D01*
X018791Y016294D01*
X018874Y016377D01*
G37*
G36*
X019208Y016042D02*
X019249Y016001D01*
X019166Y015918D01*
X019125Y015959D01*
X019208Y016042D01*
G37*
G36*
X019874Y016377D02*
X019915Y016336D01*
X019832Y016253D01*
X019791Y016294D01*
X019874Y016377D01*
G37*
G36*
X020208Y016042D02*
X020249Y016001D01*
X020166Y015918D01*
X020125Y015959D01*
X020208Y016042D01*
G37*
G36*
X020874Y016377D02*
X020915Y016336D01*
X020832Y016253D01*
X020791Y016294D01*
X020874Y016377D01*
G37*
G36*
X021208Y016042D02*
X021249Y016001D01*
X021166Y015918D01*
X021125Y015959D01*
X021208Y016042D01*
G37*
G36*
X021874Y016377D02*
X021915Y016336D01*
X021832Y016253D01*
X021791Y016294D01*
X021874Y016377D01*
G37*
G36*
X022208Y016042D02*
X022249Y016001D01*
X022166Y015918D01*
X022125Y015959D01*
X022208Y016042D01*
G37*
G36*
X022874Y016377D02*
X022915Y016336D01*
X022832Y016253D01*
X022791Y016294D01*
X022874Y016377D01*
G37*
G36*
X023208Y016042D02*
X023249Y016001D01*
X023166Y015918D01*
X023125Y015959D01*
X023208Y016042D01*
G37*
G36*
X023874Y016377D02*
X023915Y016336D01*
X023832Y016253D01*
X023791Y016294D01*
X023874Y016377D01*
G37*
G36*
X024208Y016042D02*
X024249Y016001D01*
X024166Y015918D01*
X024125Y015959D01*
X024208Y016042D01*
G37*
G36*
X024874Y016377D02*
X024915Y016336D01*
X024832Y016253D01*
X024791Y016294D01*
X024874Y016377D01*
G37*
G36*
X025208Y016042D02*
X025249Y016001D01*
X025166Y015918D01*
X025125Y015959D01*
X025208Y016042D01*
G37*
G36*
X025874Y016377D02*
X025915Y016336D01*
X025832Y016253D01*
X025791Y016294D01*
X025874Y016377D01*
G37*
G36*
X026208Y016042D02*
X026249Y016001D01*
X026166Y015918D01*
X026125Y015959D01*
X026208Y016042D01*
G37*
G36*
X026874Y016377D02*
X026915Y016336D01*
X026832Y016253D01*
X026791Y016294D01*
X026874Y016377D01*
G37*
G36*
X027208Y016042D02*
X027249Y016001D01*
X027166Y015918D01*
X027125Y015959D01*
X027208Y016042D01*
G37*
G36*
X027874Y016377D02*
X027915Y016336D01*
X027832Y016253D01*
X027791Y016294D01*
X027874Y016377D01*
G37*
G36*
X028208Y016042D02*
X028249Y016001D01*
X028166Y015918D01*
X028125Y015959D01*
X028208Y016042D01*
G37*
G36*
X028874Y016377D02*
X028915Y016336D01*
X028832Y016253D01*
X028791Y016294D01*
X028874Y016377D01*
G37*
G36*
X029208Y016042D02*
X029249Y016001D01*
X029166Y015918D01*
X029125Y015959D01*
X029208Y016042D01*
G37*
G36*
X029874Y016377D02*
X029915Y016336D01*
X029832Y016253D01*
X029791Y016294D01*
X029874Y016377D01*
G37*
G36*
X030208Y016042D02*
X030249Y016001D01*
X030166Y015918D01*
X030125Y015959D01*
X030208Y016042D01*
G37*
G36*
X030874Y016377D02*
X030915Y016336D01*
X030832Y016253D01*
X030791Y016294D01*
X030874Y016377D01*
G37*
G36*
X031208Y016042D02*
X031249Y016001D01*
X031166Y015918D01*
X031125Y015959D01*
X031208Y016042D01*
G37*
G36*
X031874Y016377D02*
X031915Y016336D01*
X031832Y016253D01*
X031791Y016294D01*
X031874Y016377D01*
G37*
G36*
X032208Y016042D02*
X032249Y016001D01*
X032166Y015918D01*
X032125Y015959D01*
X032208Y016042D01*
G37*
G36*
X031874Y015377D02*
X031915Y015336D01*
X031832Y015253D01*
X031791Y015294D01*
X031874Y015377D01*
G37*
G36*
X032208Y015042D02*
X032249Y015001D01*
X032166Y014918D01*
X032125Y014959D01*
X032208Y015042D01*
G37*
G36*
X031208Y015042D02*
X031249Y015001D01*
X031166Y014918D01*
X031125Y014959D01*
X031208Y015042D01*
G37*
G36*
X030874Y015377D02*
X030915Y015336D01*
X030832Y015253D01*
X030791Y015294D01*
X030874Y015377D01*
G37*
G36*
X030208Y015042D02*
X030249Y015001D01*
X030166Y014918D01*
X030125Y014959D01*
X030208Y015042D01*
G37*
G36*
X029874Y015377D02*
X029915Y015336D01*
X029832Y015253D01*
X029791Y015294D01*
X029874Y015377D01*
G37*
G36*
X029208Y015042D02*
X029249Y015001D01*
X029166Y014918D01*
X029125Y014959D01*
X029208Y015042D01*
G37*
G36*
X028874Y015377D02*
X028915Y015336D01*
X028832Y015253D01*
X028791Y015294D01*
X028874Y015377D01*
G37*
G36*
X028208Y015042D02*
X028249Y015001D01*
X028166Y014918D01*
X028125Y014959D01*
X028208Y015042D01*
G37*
G36*
X027874Y015377D02*
X027915Y015336D01*
X027832Y015253D01*
X027791Y015294D01*
X027874Y015377D01*
G37*
G36*
X027208Y015042D02*
X027249Y015001D01*
X027166Y014918D01*
X027125Y014959D01*
X027208Y015042D01*
G37*
G36*
X026874Y015377D02*
X026915Y015336D01*
X026832Y015253D01*
X026791Y015294D01*
X026874Y015377D01*
G37*
G36*
X026208Y015042D02*
X026249Y015001D01*
X026166Y014918D01*
X026125Y014959D01*
X026208Y015042D01*
G37*
G36*
X025874Y015377D02*
X025915Y015336D01*
X025832Y015253D01*
X025791Y015294D01*
X025874Y015377D01*
G37*
G36*
X025208Y015042D02*
X025249Y015001D01*
X025166Y014918D01*
X025125Y014959D01*
X025208Y015042D01*
G37*
G36*
X024874Y015377D02*
X024915Y015336D01*
X024832Y015253D01*
X024791Y015294D01*
X024874Y015377D01*
G37*
G36*
X024208Y015042D02*
X024249Y015001D01*
X024166Y014918D01*
X024125Y014959D01*
X024208Y015042D01*
G37*
G36*
X023874Y015377D02*
X023915Y015336D01*
X023832Y015253D01*
X023791Y015294D01*
X023874Y015377D01*
G37*
G36*
X023208Y015042D02*
X023249Y015001D01*
X023166Y014918D01*
X023125Y014959D01*
X023208Y015042D01*
G37*
G36*
X022874Y015377D02*
X022915Y015336D01*
X022832Y015253D01*
X022791Y015294D01*
X022874Y015377D01*
G37*
G36*
X022208Y015042D02*
X022249Y015001D01*
X022166Y014918D01*
X022125Y014959D01*
X022208Y015042D01*
G37*
G36*
X021874Y015377D02*
X021915Y015336D01*
X021832Y015253D01*
X021791Y015294D01*
X021874Y015377D01*
G37*
G36*
X021208Y015042D02*
X021249Y015001D01*
X021166Y014918D01*
X021125Y014959D01*
X021208Y015042D01*
G37*
G36*
X020874Y015377D02*
X020915Y015336D01*
X020832Y015253D01*
X020791Y015294D01*
X020874Y015377D01*
G37*
G36*
X020208Y015042D02*
X020249Y015001D01*
X020166Y014918D01*
X020125Y014959D01*
X020208Y015042D01*
G37*
G36*
X019874Y015377D02*
X019915Y015336D01*
X019832Y015253D01*
X019791Y015294D01*
X019874Y015377D01*
G37*
G36*
X019208Y015042D02*
X019249Y015001D01*
X019166Y014918D01*
X019125Y014959D01*
X019208Y015042D01*
G37*
G36*
X018874Y015377D02*
X018915Y015336D01*
X018832Y015253D01*
X018791Y015294D01*
X018874Y015377D01*
G37*
G36*
X018208Y015042D02*
X018249Y015001D01*
X018166Y014918D01*
X018125Y014959D01*
X018208Y015042D01*
G37*
G36*
X017874Y015377D02*
X017915Y015336D01*
X017832Y015253D01*
X017791Y015294D01*
X017874Y015377D01*
G37*
G36*
X017208Y015042D02*
X017249Y015001D01*
X017166Y014918D01*
X017125Y014959D01*
X017208Y015042D01*
G37*
G36*
X016874Y015377D02*
X016915Y015336D01*
X016832Y015253D01*
X016791Y015294D01*
X016874Y015377D01*
G37*
G36*
X016208Y015042D02*
X016249Y015001D01*
X016166Y014918D01*
X016125Y014959D01*
X016208Y015042D01*
G37*
G36*
X015874Y015377D02*
X015915Y015336D01*
X015832Y015253D01*
X015791Y015294D01*
X015874Y015377D01*
G37*
G36*
X015208Y015042D02*
X015249Y015001D01*
X015166Y014918D01*
X015125Y014959D01*
X015208Y015042D01*
G37*
G36*
X014874Y015377D02*
X014915Y015336D01*
X014832Y015253D01*
X014791Y015294D01*
X014874Y015377D01*
G37*
G36*
X014208Y015042D02*
X014249Y015001D01*
X014166Y014918D01*
X014125Y014959D01*
X014208Y015042D01*
G37*
G36*
X013874Y015377D02*
X013915Y015336D01*
X013832Y015253D01*
X013791Y015294D01*
X013874Y015377D01*
G37*
G36*
X013208Y015042D02*
X013249Y015001D01*
X013166Y014918D01*
X013125Y014959D01*
X013208Y015042D01*
G37*
G36*
X012874Y015377D02*
X012915Y015336D01*
X012832Y015253D01*
X012791Y015294D01*
X012874Y015377D01*
G37*
G36*
X012208Y015042D02*
X012249Y015001D01*
X012166Y014918D01*
X012125Y014959D01*
X012208Y015042D01*
G37*
G36*
X011874Y015377D02*
X011915Y015336D01*
X011832Y015253D01*
X011791Y015294D01*
X011874Y015377D01*
G37*
G36*
X011208Y015042D02*
X011249Y015001D01*
X011166Y014918D01*
X011125Y014959D01*
X011208Y015042D01*
G37*
G36*
X010874Y015377D02*
X010915Y015336D01*
X010832Y015253D01*
X010791Y015294D01*
X010874Y015377D01*
G37*
G36*
X010208Y015042D02*
X010249Y015001D01*
X010166Y014918D01*
X010125Y014959D01*
X010208Y015042D01*
G37*
G36*
X009874Y015377D02*
X009915Y015336D01*
X009832Y015253D01*
X009791Y015294D01*
X009874Y015377D01*
G37*
G36*
X009208Y015042D02*
X009249Y015001D01*
X009166Y014918D01*
X009125Y014959D01*
X009208Y015042D01*
G37*
G36*
X008874Y015377D02*
X008915Y015336D01*
X008832Y015253D01*
X008791Y015294D01*
X008874Y015377D01*
G37*
G36*
X008208Y015042D02*
X008249Y015001D01*
X008166Y014918D01*
X008125Y014959D01*
X008208Y015042D01*
G37*
G36*
X007874Y015377D02*
X007915Y015336D01*
X007832Y015253D01*
X007791Y015294D01*
X007874Y015377D01*
G37*
G36*
X007208Y015042D02*
X007249Y015001D01*
X007166Y014918D01*
X007125Y014959D01*
X007208Y015042D01*
G37*
G36*
X006874Y015377D02*
X006915Y015336D01*
X006832Y015253D01*
X006791Y015294D01*
X006874Y015377D01*
G37*
G36*
X006208Y015042D02*
X006249Y015001D01*
X006166Y014918D01*
X006125Y014959D01*
X006208Y015042D01*
G37*
G36*
X005874Y015377D02*
X005915Y015336D01*
X005832Y015253D01*
X005791Y015294D01*
X005874Y015377D01*
G37*
G36*
X005208Y015042D02*
X005249Y015001D01*
X005166Y014918D01*
X005125Y014959D01*
X005208Y015042D01*
G37*
G36*
X004874Y015377D02*
X004915Y015336D01*
X004832Y015253D01*
X004791Y015294D01*
X004874Y015377D01*
G37*
G36*
X004208Y015042D02*
X004249Y015001D01*
X004166Y014918D01*
X004125Y014959D01*
X004208Y015042D01*
G37*
G36*
X003874Y015377D02*
X003915Y015336D01*
X003832Y015253D01*
X003791Y015294D01*
X003874Y015377D01*
G37*
G36*
X003208Y015042D02*
X003249Y015001D01*
X003166Y014918D01*
X003125Y014959D01*
X003208Y015042D01*
G37*
G36*
X002874Y015377D02*
X002915Y015336D01*
X002832Y015253D01*
X002791Y015294D01*
X002874Y015377D01*
G37*
G36*
X002208Y015042D02*
X002249Y015001D01*
X002166Y014918D01*
X002125Y014959D01*
X002208Y015042D01*
G37*
G36*
X001874Y015377D02*
X001915Y015336D01*
X001832Y015253D01*
X001791Y015294D01*
X001874Y015377D01*
G37*
G36*
X001874Y014377D02*
X001915Y014336D01*
X001832Y014253D01*
X001791Y014294D01*
X001874Y014377D01*
G37*
G36*
X002208Y014042D02*
X002249Y014001D01*
X002166Y013918D01*
X002125Y013959D01*
X002208Y014042D01*
G37*
G36*
X002874Y014377D02*
X002915Y014336D01*
X002832Y014253D01*
X002791Y014294D01*
X002874Y014377D01*
G37*
G36*
X003208Y014042D02*
X003249Y014001D01*
X003166Y013918D01*
X003125Y013959D01*
X003208Y014042D01*
G37*
G36*
X003874Y014377D02*
X003915Y014336D01*
X003832Y014253D01*
X003791Y014294D01*
X003874Y014377D01*
G37*
G36*
X004208Y014042D02*
X004249Y014001D01*
X004166Y013918D01*
X004125Y013959D01*
X004208Y014042D01*
G37*
G36*
X004874Y014377D02*
X004915Y014336D01*
X004832Y014253D01*
X004791Y014294D01*
X004874Y014377D01*
G37*
G36*
X005208Y014042D02*
X005249Y014001D01*
X005166Y013918D01*
X005125Y013959D01*
X005208Y014042D01*
G37*
G36*
X005874Y014377D02*
X005915Y014336D01*
X005832Y014253D01*
X005791Y014294D01*
X005874Y014377D01*
G37*
G36*
X006208Y014042D02*
X006249Y014001D01*
X006166Y013918D01*
X006125Y013959D01*
X006208Y014042D01*
G37*
G36*
X006874Y014377D02*
X006915Y014336D01*
X006832Y014253D01*
X006791Y014294D01*
X006874Y014377D01*
G37*
G36*
X007208Y014042D02*
X007249Y014001D01*
X007166Y013918D01*
X007125Y013959D01*
X007208Y014042D01*
G37*
G36*
X007874Y014377D02*
X007915Y014336D01*
X007832Y014253D01*
X007791Y014294D01*
X007874Y014377D01*
G37*
G36*
X008208Y014042D02*
X008249Y014001D01*
X008166Y013918D01*
X008125Y013959D01*
X008208Y014042D01*
G37*
G36*
X008874Y014377D02*
X008915Y014336D01*
X008832Y014253D01*
X008791Y014294D01*
X008874Y014377D01*
G37*
G36*
X009208Y014042D02*
X009249Y014001D01*
X009166Y013918D01*
X009125Y013959D01*
X009208Y014042D01*
G37*
G36*
X009874Y014377D02*
X009915Y014336D01*
X009832Y014253D01*
X009791Y014294D01*
X009874Y014377D01*
G37*
G36*
X010208Y014042D02*
X010249Y014001D01*
X010166Y013918D01*
X010125Y013959D01*
X010208Y014042D01*
G37*
G36*
X010874Y014377D02*
X010915Y014336D01*
X010832Y014253D01*
X010791Y014294D01*
X010874Y014377D01*
G37*
G36*
X011208Y014042D02*
X011249Y014001D01*
X011166Y013918D01*
X011125Y013959D01*
X011208Y014042D01*
G37*
G36*
X011874Y014377D02*
X011915Y014336D01*
X011832Y014253D01*
X011791Y014294D01*
X011874Y014377D01*
G37*
G36*
X012208Y014042D02*
X012249Y014001D01*
X012166Y013918D01*
X012125Y013959D01*
X012208Y014042D01*
G37*
G36*
X012874Y014377D02*
X012915Y014336D01*
X012832Y014253D01*
X012791Y014294D01*
X012874Y014377D01*
G37*
G36*
X013208Y014042D02*
X013249Y014001D01*
X013166Y013918D01*
X013125Y013959D01*
X013208Y014042D01*
G37*
G36*
X013874Y014377D02*
X013915Y014336D01*
X013832Y014253D01*
X013791Y014294D01*
X013874Y014377D01*
G37*
G36*
X014208Y014042D02*
X014249Y014001D01*
X014166Y013918D01*
X014125Y013959D01*
X014208Y014042D01*
G37*
G36*
X014874Y014377D02*
X014915Y014336D01*
X014832Y014253D01*
X014791Y014294D01*
X014874Y014377D01*
G37*
G36*
X015208Y014042D02*
X015249Y014001D01*
X015166Y013918D01*
X015125Y013959D01*
X015208Y014042D01*
G37*
G36*
X015874Y014377D02*
X015915Y014336D01*
X015832Y014253D01*
X015791Y014294D01*
X015874Y014377D01*
G37*
G36*
X016208Y014042D02*
X016249Y014001D01*
X016166Y013918D01*
X016125Y013959D01*
X016208Y014042D01*
G37*
G36*
X016874Y014377D02*
X016915Y014336D01*
X016832Y014253D01*
X016791Y014294D01*
X016874Y014377D01*
G37*
G36*
X017208Y014042D02*
X017249Y014001D01*
X017166Y013918D01*
X017125Y013959D01*
X017208Y014042D01*
G37*
G36*
X017874Y014377D02*
X017915Y014336D01*
X017832Y014253D01*
X017791Y014294D01*
X017874Y014377D01*
G37*
G36*
X018208Y014042D02*
X018249Y014001D01*
X018166Y013918D01*
X018125Y013959D01*
X018208Y014042D01*
G37*
G36*
X018874Y014377D02*
X018915Y014336D01*
X018832Y014253D01*
X018791Y014294D01*
X018874Y014377D01*
G37*
G36*
X019208Y014042D02*
X019249Y014001D01*
X019166Y013918D01*
X019125Y013959D01*
X019208Y014042D01*
G37*
G36*
X019874Y014377D02*
X019915Y014336D01*
X019832Y014253D01*
X019791Y014294D01*
X019874Y014377D01*
G37*
G36*
X020208Y014042D02*
X020249Y014001D01*
X020166Y013918D01*
X020125Y013959D01*
X020208Y014042D01*
G37*
G36*
X020874Y014377D02*
X020915Y014336D01*
X020832Y014253D01*
X020791Y014294D01*
X020874Y014377D01*
G37*
G36*
X021208Y014042D02*
X021249Y014001D01*
X021166Y013918D01*
X021125Y013959D01*
X021208Y014042D01*
G37*
G36*
X021874Y014377D02*
X021915Y014336D01*
X021832Y014253D01*
X021791Y014294D01*
X021874Y014377D01*
G37*
G36*
X022208Y014042D02*
X022249Y014001D01*
X022166Y013918D01*
X022125Y013959D01*
X022208Y014042D01*
G37*
G36*
X022874Y014377D02*
X022915Y014336D01*
X022832Y014253D01*
X022791Y014294D01*
X022874Y014377D01*
G37*
G36*
X023208Y014042D02*
X023249Y014001D01*
X023166Y013918D01*
X023125Y013959D01*
X023208Y014042D01*
G37*
G36*
X023874Y014377D02*
X023915Y014336D01*
X023832Y014253D01*
X023791Y014294D01*
X023874Y014377D01*
G37*
G36*
X024208Y014042D02*
X024249Y014001D01*
X024166Y013918D01*
X024125Y013959D01*
X024208Y014042D01*
G37*
G36*
X024874Y014377D02*
X024915Y014336D01*
X024832Y014253D01*
X024791Y014294D01*
X024874Y014377D01*
G37*
G36*
X025208Y014042D02*
X025249Y014001D01*
X025166Y013918D01*
X025125Y013959D01*
X025208Y014042D01*
G37*
G36*
X025874Y014377D02*
X025915Y014336D01*
X025832Y014253D01*
X025791Y014294D01*
X025874Y014377D01*
G37*
G36*
X026208Y014042D02*
X026249Y014001D01*
X026166Y013918D01*
X026125Y013959D01*
X026208Y014042D01*
G37*
G36*
X026874Y014377D02*
X026915Y014336D01*
X026832Y014253D01*
X026791Y014294D01*
X026874Y014377D01*
G37*
G36*
X027208Y014042D02*
X027249Y014001D01*
X027166Y013918D01*
X027125Y013959D01*
X027208Y014042D01*
G37*
G36*
X027874Y014377D02*
X027915Y014336D01*
X027832Y014253D01*
X027791Y014294D01*
X027874Y014377D01*
G37*
G36*
X028208Y014042D02*
X028249Y014001D01*
X028166Y013918D01*
X028125Y013959D01*
X028208Y014042D01*
G37*
G36*
X028874Y014377D02*
X028915Y014336D01*
X028832Y014253D01*
X028791Y014294D01*
X028874Y014377D01*
G37*
G36*
X029208Y014042D02*
X029249Y014001D01*
X029166Y013918D01*
X029125Y013959D01*
X029208Y014042D01*
G37*
G36*
X029874Y014377D02*
X029915Y014336D01*
X029832Y014253D01*
X029791Y014294D01*
X029874Y014377D01*
G37*
G36*
X030208Y014042D02*
X030249Y014001D01*
X030166Y013918D01*
X030125Y013959D01*
X030208Y014042D01*
G37*
G36*
X030874Y014377D02*
X030915Y014336D01*
X030832Y014253D01*
X030791Y014294D01*
X030874Y014377D01*
G37*
G36*
X031208Y014042D02*
X031249Y014001D01*
X031166Y013918D01*
X031125Y013959D01*
X031208Y014042D01*
G37*
G36*
X031874Y014377D02*
X031915Y014336D01*
X031832Y014253D01*
X031791Y014294D01*
X031874Y014377D01*
G37*
G36*
X032208Y014042D02*
X032249Y014001D01*
X032166Y013918D01*
X032125Y013959D01*
X032208Y014042D01*
G37*
G36*
X031874Y013377D02*
X031915Y013336D01*
X031832Y013253D01*
X031791Y013294D01*
X031874Y013377D01*
G37*
G36*
X032208Y013042D02*
X032249Y013001D01*
X032166Y012918D01*
X032125Y012959D01*
X032208Y013042D01*
G37*
G36*
X031208Y013042D02*
X031249Y013001D01*
X031166Y012918D01*
X031125Y012959D01*
X031208Y013042D01*
G37*
G36*
X030874Y013377D02*
X030915Y013336D01*
X030832Y013253D01*
X030791Y013294D01*
X030874Y013377D01*
G37*
G36*
X030208Y013042D02*
X030249Y013001D01*
X030166Y012918D01*
X030125Y012959D01*
X030208Y013042D01*
G37*
G36*
X029874Y013377D02*
X029915Y013336D01*
X029832Y013253D01*
X029791Y013294D01*
X029874Y013377D01*
G37*
G36*
X029208Y013042D02*
X029249Y013001D01*
X029166Y012918D01*
X029125Y012959D01*
X029208Y013042D01*
G37*
G36*
X028874Y013377D02*
X028915Y013336D01*
X028832Y013253D01*
X028791Y013294D01*
X028874Y013377D01*
G37*
G36*
X028208Y013042D02*
X028249Y013001D01*
X028166Y012918D01*
X028125Y012959D01*
X028208Y013042D01*
G37*
G36*
X027874Y013377D02*
X027915Y013336D01*
X027832Y013253D01*
X027791Y013294D01*
X027874Y013377D01*
G37*
G36*
X027208Y013042D02*
X027249Y013001D01*
X027166Y012918D01*
X027125Y012959D01*
X027208Y013042D01*
G37*
G36*
X026874Y013377D02*
X026915Y013336D01*
X026832Y013253D01*
X026791Y013294D01*
X026874Y013377D01*
G37*
G36*
X026208Y013042D02*
X026249Y013001D01*
X026166Y012918D01*
X026125Y012959D01*
X026208Y013042D01*
G37*
G36*
X025874Y013377D02*
X025915Y013336D01*
X025832Y013253D01*
X025791Y013294D01*
X025874Y013377D01*
G37*
G36*
X025208Y013042D02*
X025249Y013001D01*
X025166Y012918D01*
X025125Y012959D01*
X025208Y013042D01*
G37*
G36*
X024874Y013377D02*
X024915Y013336D01*
X024832Y013253D01*
X024791Y013294D01*
X024874Y013377D01*
G37*
G36*
X024208Y013042D02*
X024249Y013001D01*
X024166Y012918D01*
X024125Y012959D01*
X024208Y013042D01*
G37*
G36*
X023874Y013377D02*
X023915Y013336D01*
X023832Y013253D01*
X023791Y013294D01*
X023874Y013377D01*
G37*
G36*
X023208Y013042D02*
X023249Y013001D01*
X023166Y012918D01*
X023125Y012959D01*
X023208Y013042D01*
G37*
G36*
X022874Y013377D02*
X022915Y013336D01*
X022832Y013253D01*
X022791Y013294D01*
X022874Y013377D01*
G37*
G36*
X022208Y013042D02*
X022249Y013001D01*
X022166Y012918D01*
X022125Y012959D01*
X022208Y013042D01*
G37*
G36*
X021874Y013377D02*
X021915Y013336D01*
X021832Y013253D01*
X021791Y013294D01*
X021874Y013377D01*
G37*
G36*
X021208Y013042D02*
X021249Y013001D01*
X021166Y012918D01*
X021125Y012959D01*
X021208Y013042D01*
G37*
G36*
X020874Y013377D02*
X020915Y013336D01*
X020832Y013253D01*
X020791Y013294D01*
X020874Y013377D01*
G37*
G36*
X020208Y013042D02*
X020249Y013001D01*
X020166Y012918D01*
X020125Y012959D01*
X020208Y013042D01*
G37*
G36*
X019874Y013377D02*
X019915Y013336D01*
X019832Y013253D01*
X019791Y013294D01*
X019874Y013377D01*
G37*
G36*
X019208Y013042D02*
X019249Y013001D01*
X019166Y012918D01*
X019125Y012959D01*
X019208Y013042D01*
G37*
G36*
X018874Y013377D02*
X018915Y013336D01*
X018832Y013253D01*
X018791Y013294D01*
X018874Y013377D01*
G37*
G36*
X018208Y013042D02*
X018249Y013001D01*
X018166Y012918D01*
X018125Y012959D01*
X018208Y013042D01*
G37*
G36*
X017874Y013377D02*
X017915Y013336D01*
X017832Y013253D01*
X017791Y013294D01*
X017874Y013377D01*
G37*
G36*
X017208Y013042D02*
X017249Y013001D01*
X017166Y012918D01*
X017125Y012959D01*
X017208Y013042D01*
G37*
G36*
X016874Y013377D02*
X016915Y013336D01*
X016832Y013253D01*
X016791Y013294D01*
X016874Y013377D01*
G37*
G36*
X016208Y013042D02*
X016249Y013001D01*
X016166Y012918D01*
X016125Y012959D01*
X016208Y013042D01*
G37*
G36*
X015874Y013377D02*
X015915Y013336D01*
X015832Y013253D01*
X015791Y013294D01*
X015874Y013377D01*
G37*
G36*
X015208Y013042D02*
X015249Y013001D01*
X015166Y012918D01*
X015125Y012959D01*
X015208Y013042D01*
G37*
G36*
X014874Y013377D02*
X014915Y013336D01*
X014832Y013253D01*
X014791Y013294D01*
X014874Y013377D01*
G37*
G36*
X014208Y013042D02*
X014249Y013001D01*
X014166Y012918D01*
X014125Y012959D01*
X014208Y013042D01*
G37*
G36*
X013874Y013377D02*
X013915Y013336D01*
X013832Y013253D01*
X013791Y013294D01*
X013874Y013377D01*
G37*
G36*
X013208Y013042D02*
X013249Y013001D01*
X013166Y012918D01*
X013125Y012959D01*
X013208Y013042D01*
G37*
G36*
X012874Y013377D02*
X012915Y013336D01*
X012832Y013253D01*
X012791Y013294D01*
X012874Y013377D01*
G37*
G36*
X012208Y013042D02*
X012249Y013001D01*
X012166Y012918D01*
X012125Y012959D01*
X012208Y013042D01*
G37*
G36*
X011874Y013377D02*
X011915Y013336D01*
X011832Y013253D01*
X011791Y013294D01*
X011874Y013377D01*
G37*
G36*
X011208Y013042D02*
X011249Y013001D01*
X011166Y012918D01*
X011125Y012959D01*
X011208Y013042D01*
G37*
G36*
X010874Y013377D02*
X010915Y013336D01*
X010832Y013253D01*
X010791Y013294D01*
X010874Y013377D01*
G37*
G36*
X010208Y013042D02*
X010249Y013001D01*
X010166Y012918D01*
X010125Y012959D01*
X010208Y013042D01*
G37*
G36*
X009874Y013377D02*
X009915Y013336D01*
X009832Y013253D01*
X009791Y013294D01*
X009874Y013377D01*
G37*
G36*
X009208Y013042D02*
X009249Y013001D01*
X009166Y012918D01*
X009125Y012959D01*
X009208Y013042D01*
G37*
G36*
X008874Y013377D02*
X008915Y013336D01*
X008832Y013253D01*
X008791Y013294D01*
X008874Y013377D01*
G37*
G36*
X008208Y013042D02*
X008249Y013001D01*
X008166Y012918D01*
X008125Y012959D01*
X008208Y013042D01*
G37*
G36*
X007874Y013377D02*
X007915Y013336D01*
X007832Y013253D01*
X007791Y013294D01*
X007874Y013377D01*
G37*
G36*
X007208Y013042D02*
X007249Y013001D01*
X007166Y012918D01*
X007125Y012959D01*
X007208Y013042D01*
G37*
G36*
X006874Y013377D02*
X006915Y013336D01*
X006832Y013253D01*
X006791Y013294D01*
X006874Y013377D01*
G37*
G36*
X006208Y013042D02*
X006249Y013001D01*
X006166Y012918D01*
X006125Y012959D01*
X006208Y013042D01*
G37*
G36*
X005874Y013377D02*
X005915Y013336D01*
X005832Y013253D01*
X005791Y013294D01*
X005874Y013377D01*
G37*
G36*
X005208Y013042D02*
X005249Y013001D01*
X005166Y012918D01*
X005125Y012959D01*
X005208Y013042D01*
G37*
G36*
X004874Y013377D02*
X004915Y013336D01*
X004832Y013253D01*
X004791Y013294D01*
X004874Y013377D01*
G37*
G36*
X004208Y013042D02*
X004249Y013001D01*
X004166Y012918D01*
X004125Y012959D01*
X004208Y013042D01*
G37*
G36*
X003874Y013377D02*
X003915Y013336D01*
X003832Y013253D01*
X003791Y013294D01*
X003874Y013377D01*
G37*
D12*
G36*
X004020Y013231D02*
X004103Y013148D01*
X004020Y013065D01*
X003937Y013148D01*
X004020Y013231D01*
G37*
G36*
X003020Y013231D02*
X003103Y013148D01*
X003020Y013065D01*
X002937Y013148D01*
X003020Y013231D01*
G37*
G36*
X002020Y013231D02*
X002103Y013148D01*
X002020Y013065D01*
X001937Y013148D01*
X002020Y013231D01*
G37*
G36*
X001020Y013231D02*
X001103Y013148D01*
X001020Y013065D01*
X000937Y013148D01*
X001020Y013231D01*
G37*
G36*
X001020Y014231D02*
X001103Y014148D01*
X001020Y014065D01*
X000937Y014148D01*
X001020Y014231D01*
G37*
G36*
X002020Y014231D02*
X002103Y014148D01*
X002020Y014065D01*
X001937Y014148D01*
X002020Y014231D01*
G37*
G36*
X003020Y014231D02*
X003103Y014148D01*
X003020Y014065D01*
X002937Y014148D01*
X003020Y014231D01*
G37*
G36*
X004020Y014231D02*
X004103Y014148D01*
X004020Y014065D01*
X003937Y014148D01*
X004020Y014231D01*
G37*
G36*
X005020Y014231D02*
X005103Y014148D01*
X005020Y014065D01*
X004937Y014148D01*
X005020Y014231D01*
G37*
G36*
X006020Y014231D02*
X006103Y014148D01*
X006020Y014065D01*
X005937Y014148D01*
X006020Y014231D01*
G37*
G36*
X007020Y014231D02*
X007103Y014148D01*
X007020Y014065D01*
X006937Y014148D01*
X007020Y014231D01*
G37*
G36*
X008020Y014231D02*
X008103Y014148D01*
X008020Y014065D01*
X007937Y014148D01*
X008020Y014231D01*
G37*
G36*
X009020Y014231D02*
X009103Y014148D01*
X009020Y014065D01*
X008937Y014148D01*
X009020Y014231D01*
G37*
G36*
X010020Y014231D02*
X010103Y014148D01*
X010020Y014065D01*
X009937Y014148D01*
X010020Y014231D01*
G37*
G36*
X011020Y014231D02*
X011103Y014148D01*
X011020Y014065D01*
X010937Y014148D01*
X011020Y014231D01*
G37*
G36*
X012020Y014231D02*
X012103Y014148D01*
X012020Y014065D01*
X011937Y014148D01*
X012020Y014231D01*
G37*
G36*
X013020Y014231D02*
X013103Y014148D01*
X013020Y014065D01*
X012937Y014148D01*
X013020Y014231D01*
G37*
G36*
X014020Y014231D02*
X014103Y014148D01*
X014020Y014065D01*
X013937Y014148D01*
X014020Y014231D01*
G37*
G36*
X015020Y014231D02*
X015103Y014148D01*
X015020Y014065D01*
X014937Y014148D01*
X015020Y014231D01*
G37*
G36*
X016020Y014231D02*
X016103Y014148D01*
X016020Y014065D01*
X015937Y014148D01*
X016020Y014231D01*
G37*
G36*
X017020Y014231D02*
X017103Y014148D01*
X017020Y014065D01*
X016937Y014148D01*
X017020Y014231D01*
G37*
G36*
X018020Y014231D02*
X018103Y014148D01*
X018020Y014065D01*
X017937Y014148D01*
X018020Y014231D01*
G37*
G36*
X019020Y014231D02*
X019103Y014148D01*
X019020Y014065D01*
X018937Y014148D01*
X019020Y014231D01*
G37*
G36*
X020020Y014231D02*
X020103Y014148D01*
X020020Y014065D01*
X019937Y014148D01*
X020020Y014231D01*
G37*
G36*
X021020Y014231D02*
X021103Y014148D01*
X021020Y014065D01*
X020937Y014148D01*
X021020Y014231D01*
G37*
G36*
X022020Y014231D02*
X022103Y014148D01*
X022020Y014065D01*
X021937Y014148D01*
X022020Y014231D01*
G37*
G36*
X023020Y014231D02*
X023103Y014148D01*
X023020Y014065D01*
X022937Y014148D01*
X023020Y014231D01*
G37*
G36*
X024020Y014231D02*
X024103Y014148D01*
X024020Y014065D01*
X023937Y014148D01*
X024020Y014231D01*
G37*
G36*
X025020Y014231D02*
X025103Y014148D01*
X025020Y014065D01*
X024937Y014148D01*
X025020Y014231D01*
G37*
G36*
X026020Y014231D02*
X026103Y014148D01*
X026020Y014065D01*
X025937Y014148D01*
X026020Y014231D01*
G37*
G36*
X027020Y014231D02*
X027103Y014148D01*
X027020Y014065D01*
X026937Y014148D01*
X027020Y014231D01*
G37*
G36*
X028020Y014231D02*
X028103Y014148D01*
X028020Y014065D01*
X027937Y014148D01*
X028020Y014231D01*
G37*
G36*
X029020Y014231D02*
X029103Y014148D01*
X029020Y014065D01*
X028937Y014148D01*
X029020Y014231D01*
G37*
G36*
X030020Y014231D02*
X030103Y014148D01*
X030020Y014065D01*
X029937Y014148D01*
X030020Y014231D01*
G37*
G36*
X031020Y014231D02*
X031103Y014148D01*
X031020Y014065D01*
X030937Y014148D01*
X031020Y014231D01*
G37*
G36*
X032020Y014231D02*
X032103Y014148D01*
X032020Y014065D01*
X031937Y014148D01*
X032020Y014231D01*
G37*
G36*
X032020Y015231D02*
X032103Y015148D01*
X032020Y015065D01*
X031937Y015148D01*
X032020Y015231D01*
G37*
G36*
X031020Y015231D02*
X031103Y015148D01*
X031020Y015065D01*
X030937Y015148D01*
X031020Y015231D01*
G37*
G36*
X030020Y015231D02*
X030103Y015148D01*
X030020Y015065D01*
X029937Y015148D01*
X030020Y015231D01*
G37*
G36*
X029020Y015231D02*
X029103Y015148D01*
X029020Y015065D01*
X028937Y015148D01*
X029020Y015231D01*
G37*
G36*
X028020Y015231D02*
X028103Y015148D01*
X028020Y015065D01*
X027937Y015148D01*
X028020Y015231D01*
G37*
G36*
X027020Y015231D02*
X027103Y015148D01*
X027020Y015065D01*
X026937Y015148D01*
X027020Y015231D01*
G37*
G36*
X026020Y015231D02*
X026103Y015148D01*
X026020Y015065D01*
X025937Y015148D01*
X026020Y015231D01*
G37*
G36*
X025020Y015231D02*
X025103Y015148D01*
X025020Y015065D01*
X024937Y015148D01*
X025020Y015231D01*
G37*
G36*
X024020Y015231D02*
X024103Y015148D01*
X024020Y015065D01*
X023937Y015148D01*
X024020Y015231D01*
G37*
G36*
X023020Y015231D02*
X023103Y015148D01*
X023020Y015065D01*
X022937Y015148D01*
X023020Y015231D01*
G37*
G36*
X022020Y015231D02*
X022103Y015148D01*
X022020Y015065D01*
X021937Y015148D01*
X022020Y015231D01*
G37*
G36*
X021020Y015231D02*
X021103Y015148D01*
X021020Y015065D01*
X020937Y015148D01*
X021020Y015231D01*
G37*
G36*
X020020Y015231D02*
X020103Y015148D01*
X020020Y015065D01*
X019937Y015148D01*
X020020Y015231D01*
G37*
G36*
X019020Y015231D02*
X019103Y015148D01*
X019020Y015065D01*
X018937Y015148D01*
X019020Y015231D01*
G37*
G36*
X018020Y015231D02*
X018103Y015148D01*
X018020Y015065D01*
X017937Y015148D01*
X018020Y015231D01*
G37*
G36*
X017020Y015231D02*
X017103Y015148D01*
X017020Y015065D01*
X016937Y015148D01*
X017020Y015231D01*
G37*
G36*
X016020Y015231D02*
X016103Y015148D01*
X016020Y015065D01*
X015937Y015148D01*
X016020Y015231D01*
G37*
G36*
X015020Y015231D02*
X015103Y015148D01*
X015020Y015065D01*
X014937Y015148D01*
X015020Y015231D01*
G37*
G36*
X014020Y015231D02*
X014103Y015148D01*
X014020Y015065D01*
X013937Y015148D01*
X014020Y015231D01*
G37*
G36*
X013020Y015231D02*
X013103Y015148D01*
X013020Y015065D01*
X012937Y015148D01*
X013020Y015231D01*
G37*
G36*
X012020Y015231D02*
X012103Y015148D01*
X012020Y015065D01*
X011937Y015148D01*
X012020Y015231D01*
G37*
G36*
X011020Y015231D02*
X011103Y015148D01*
X011020Y015065D01*
X010937Y015148D01*
X011020Y015231D01*
G37*
G36*
X010020Y015231D02*
X010103Y015148D01*
X010020Y015065D01*
X009937Y015148D01*
X010020Y015231D01*
G37*
G36*
X009020Y015231D02*
X009103Y015148D01*
X009020Y015065D01*
X008937Y015148D01*
X009020Y015231D01*
G37*
G36*
X008020Y015231D02*
X008103Y015148D01*
X008020Y015065D01*
X007937Y015148D01*
X008020Y015231D01*
G37*
G36*
X007020Y015231D02*
X007103Y015148D01*
X007020Y015065D01*
X006937Y015148D01*
X007020Y015231D01*
G37*
G36*
X006020Y015231D02*
X006103Y015148D01*
X006020Y015065D01*
X005937Y015148D01*
X006020Y015231D01*
G37*
G36*
X005020Y015231D02*
X005103Y015148D01*
X005020Y015065D01*
X004937Y015148D01*
X005020Y015231D01*
G37*
G36*
X004020Y015231D02*
X004103Y015148D01*
X004020Y015065D01*
X003937Y015148D01*
X004020Y015231D01*
G37*
G36*
X003020Y015231D02*
X003103Y015148D01*
X003020Y015065D01*
X002937Y015148D01*
X003020Y015231D01*
G37*
G36*
X002020Y015231D02*
X002103Y015148D01*
X002020Y015065D01*
X001937Y015148D01*
X002020Y015231D01*
G37*
G36*
X001020Y015231D02*
X001103Y015148D01*
X001020Y015065D01*
X000937Y015148D01*
X001020Y015231D01*
G37*
G36*
X001020Y016231D02*
X001103Y016148D01*
X001020Y016065D01*
X000937Y016148D01*
X001020Y016231D01*
G37*
G36*
X002020Y016231D02*
X002103Y016148D01*
X002020Y016065D01*
X001937Y016148D01*
X002020Y016231D01*
G37*
G36*
X003020Y016231D02*
X003103Y016148D01*
X003020Y016065D01*
X002937Y016148D01*
X003020Y016231D01*
G37*
G36*
X004020Y016231D02*
X004103Y016148D01*
X004020Y016065D01*
X003937Y016148D01*
X004020Y016231D01*
G37*
G36*
X005020Y016231D02*
X005103Y016148D01*
X005020Y016065D01*
X004937Y016148D01*
X005020Y016231D01*
G37*
G36*
X006020Y016231D02*
X006103Y016148D01*
X006020Y016065D01*
X005937Y016148D01*
X006020Y016231D01*
G37*
G36*
X007020Y016231D02*
X007103Y016148D01*
X007020Y016065D01*
X006937Y016148D01*
X007020Y016231D01*
G37*
G36*
X008020Y016231D02*
X008103Y016148D01*
X008020Y016065D01*
X007937Y016148D01*
X008020Y016231D01*
G37*
G36*
X009020Y016231D02*
X009103Y016148D01*
X009020Y016065D01*
X008937Y016148D01*
X009020Y016231D01*
G37*
G36*
X010020Y016231D02*
X010103Y016148D01*
X010020Y016065D01*
X009937Y016148D01*
X010020Y016231D01*
G37*
G36*
X011020Y016231D02*
X011103Y016148D01*
X011020Y016065D01*
X010937Y016148D01*
X011020Y016231D01*
G37*
G36*
X012020Y016231D02*
X012103Y016148D01*
X012020Y016065D01*
X011937Y016148D01*
X012020Y016231D01*
G37*
G36*
X013020Y016231D02*
X013103Y016148D01*
X013020Y016065D01*
X012937Y016148D01*
X013020Y016231D01*
G37*
G36*
X014020Y016231D02*
X014103Y016148D01*
X014020Y016065D01*
X013937Y016148D01*
X014020Y016231D01*
G37*
G36*
X015020Y016231D02*
X015103Y016148D01*
X015020Y016065D01*
X014937Y016148D01*
X015020Y016231D01*
G37*
G36*
X016020Y016231D02*
X016103Y016148D01*
X016020Y016065D01*
X015937Y016148D01*
X016020Y016231D01*
G37*
G36*
X017020Y016231D02*
X017103Y016148D01*
X017020Y016065D01*
X016937Y016148D01*
X017020Y016231D01*
G37*
G36*
X018020Y016231D02*
X018103Y016148D01*
X018020Y016065D01*
X017937Y016148D01*
X018020Y016231D01*
G37*
G36*
X019020Y016231D02*
X019103Y016148D01*
X019020Y016065D01*
X018937Y016148D01*
X019020Y016231D01*
G37*
G36*
X020020Y016231D02*
X020103Y016148D01*
X020020Y016065D01*
X019937Y016148D01*
X020020Y016231D01*
G37*
G36*
X021020Y016231D02*
X021103Y016148D01*
X021020Y016065D01*
X020937Y016148D01*
X021020Y016231D01*
G37*
G36*
X022020Y016231D02*
X022103Y016148D01*
X022020Y016065D01*
X021937Y016148D01*
X022020Y016231D01*
G37*
G36*
X023020Y016231D02*
X023103Y016148D01*
X023020Y016065D01*
X022937Y016148D01*
X023020Y016231D01*
G37*
G36*
X024020Y016231D02*
X024103Y016148D01*
X024020Y016065D01*
X023937Y016148D01*
X024020Y016231D01*
G37*
G36*
X025020Y016231D02*
X025103Y016148D01*
X025020Y016065D01*
X024937Y016148D01*
X025020Y016231D01*
G37*
G36*
X026020Y016231D02*
X026103Y016148D01*
X026020Y016065D01*
X025937Y016148D01*
X026020Y016231D01*
G37*
G36*
X027020Y016231D02*
X027103Y016148D01*
X027020Y016065D01*
X026937Y016148D01*
X027020Y016231D01*
G37*
G36*
X028020Y016231D02*
X028103Y016148D01*
X028020Y016065D01*
X027937Y016148D01*
X028020Y016231D01*
G37*
G36*
X029020Y016231D02*
X029103Y016148D01*
X029020Y016065D01*
X028937Y016148D01*
X029020Y016231D01*
G37*
G36*
X030020Y016231D02*
X030103Y016148D01*
X030020Y016065D01*
X029937Y016148D01*
X030020Y016231D01*
G37*
G36*
X031020Y016231D02*
X031103Y016148D01*
X031020Y016065D01*
X030937Y016148D01*
X031020Y016231D01*
G37*
G36*
X032020Y016231D02*
X032103Y016148D01*
X032020Y016065D01*
X031937Y016148D01*
X032020Y016231D01*
G37*
G36*
X032020Y013231D02*
X032103Y013148D01*
X032020Y013065D01*
X031937Y013148D01*
X032020Y013231D01*
G37*
G36*
X031020Y013231D02*
X031103Y013148D01*
X031020Y013065D01*
X030937Y013148D01*
X031020Y013231D01*
G37*
G36*
X030020Y013231D02*
X030103Y013148D01*
X030020Y013065D01*
X029937Y013148D01*
X030020Y013231D01*
G37*
G36*
X029020Y013231D02*
X029103Y013148D01*
X029020Y013065D01*
X028937Y013148D01*
X029020Y013231D01*
G37*
G36*
X028020Y013231D02*
X028103Y013148D01*
X028020Y013065D01*
X027937Y013148D01*
X028020Y013231D01*
G37*
G36*
X027020Y013231D02*
X027103Y013148D01*
X027020Y013065D01*
X026937Y013148D01*
X027020Y013231D01*
G37*
G36*
X026020Y013231D02*
X026103Y013148D01*
X026020Y013065D01*
X025937Y013148D01*
X026020Y013231D01*
G37*
G36*
X025020Y013231D02*
X025103Y013148D01*
X025020Y013065D01*
X024937Y013148D01*
X025020Y013231D01*
G37*
G36*
X024020Y013231D02*
X024103Y013148D01*
X024020Y013065D01*
X023937Y013148D01*
X024020Y013231D01*
G37*
G36*
X023020Y013231D02*
X023103Y013148D01*
X023020Y013065D01*
X022937Y013148D01*
X023020Y013231D01*
G37*
G36*
X022020Y013231D02*
X022103Y013148D01*
X022020Y013065D01*
X021937Y013148D01*
X022020Y013231D01*
G37*
G36*
X021020Y013231D02*
X021103Y013148D01*
X021020Y013065D01*
X020937Y013148D01*
X021020Y013231D01*
G37*
G36*
X020020Y013231D02*
X020103Y013148D01*
X020020Y013065D01*
X019937Y013148D01*
X020020Y013231D01*
G37*
G36*
X019020Y013231D02*
X019103Y013148D01*
X019020Y013065D01*
X018937Y013148D01*
X019020Y013231D01*
G37*
G36*
X018020Y013231D02*
X018103Y013148D01*
X018020Y013065D01*
X017937Y013148D01*
X018020Y013231D01*
G37*
G36*
X017020Y013231D02*
X017103Y013148D01*
X017020Y013065D01*
X016937Y013148D01*
X017020Y013231D01*
G37*
G36*
X016020Y013231D02*
X016103Y013148D01*
X016020Y013065D01*
X015937Y013148D01*
X016020Y013231D01*
G37*
G36*
X015020Y013231D02*
X015103Y013148D01*
X015020Y013065D01*
X014937Y013148D01*
X015020Y013231D01*
G37*
G36*
X014020Y013231D02*
X014103Y013148D01*
X014020Y013065D01*
X013937Y013148D01*
X014020Y013231D01*
G37*
G36*
X013020Y013231D02*
X013103Y013148D01*
X013020Y013065D01*
X012937Y013148D01*
X013020Y013231D01*
G37*
G36*
X012020Y013231D02*
X012103Y013148D01*
X012020Y013065D01*
X011937Y013148D01*
X012020Y013231D01*
G37*
G36*
X011020Y013231D02*
X011103Y013148D01*
X011020Y013065D01*
X010937Y013148D01*
X011020Y013231D01*
G37*
G36*
X010020Y013231D02*
X010103Y013148D01*
X010020Y013065D01*
X009937Y013148D01*
X010020Y013231D01*
G37*
G36*
X009020Y013231D02*
X009103Y013148D01*
X009020Y013065D01*
X008937Y013148D01*
X009020Y013231D01*
G37*
G36*
X008020Y013231D02*
X008103Y013148D01*
X008020Y013065D01*
X007937Y013148D01*
X008020Y013231D01*
G37*
G36*
X007020Y013231D02*
X007103Y013148D01*
X007020Y013065D01*
X006937Y013148D01*
X007020Y013231D01*
G37*
G36*
X006020Y013231D02*
X006103Y013148D01*
X006020Y013065D01*
X005937Y013148D01*
X006020Y013231D01*
G37*
G36*
X005020Y013231D02*
X005103Y013148D01*
X005020Y013065D01*
X004937Y013148D01*
X005020Y013231D01*
G37*
G36*
X005020Y012231D02*
X005103Y012148D01*
X005020Y012065D01*
X004937Y012148D01*
X005020Y012231D01*
G37*
G36*
X004020Y012231D02*
X004103Y012148D01*
X004020Y012065D01*
X003937Y012148D01*
X004020Y012231D01*
G37*
G36*
X003020Y012231D02*
X003103Y012148D01*
X003020Y012065D01*
X002937Y012148D01*
X003020Y012231D01*
G37*
G36*
X002020Y012231D02*
X002103Y012148D01*
X002020Y012065D01*
X001937Y012148D01*
X002020Y012231D01*
G37*
G36*
X001020Y012231D02*
X001103Y012148D01*
X001020Y012065D01*
X000937Y012148D01*
X001020Y012231D01*
G37*
G36*
X001020Y011231D02*
X001103Y011148D01*
X001020Y011065D01*
X000937Y011148D01*
X001020Y011231D01*
G37*
G36*
X002020Y011231D02*
X002103Y011148D01*
X002020Y011065D01*
X001937Y011148D01*
X002020Y011231D01*
G37*
G36*
X003020Y011231D02*
X003103Y011148D01*
X003020Y011065D01*
X002937Y011148D01*
X003020Y011231D01*
G37*
G36*
X004020Y011231D02*
X004103Y011148D01*
X004020Y011065D01*
X003937Y011148D01*
X004020Y011231D01*
G37*
G36*
X005020Y011231D02*
X005103Y011148D01*
X005020Y011065D01*
X004937Y011148D01*
X005020Y011231D01*
G37*
G36*
X006020Y011231D02*
X006103Y011148D01*
X006020Y011065D01*
X005937Y011148D01*
X006020Y011231D01*
G37*
G36*
X007020Y011231D02*
X007103Y011148D01*
X007020Y011065D01*
X006937Y011148D01*
X007020Y011231D01*
G37*
G36*
X008020Y011231D02*
X008103Y011148D01*
X008020Y011065D01*
X007937Y011148D01*
X008020Y011231D01*
G37*
G36*
X009020Y011231D02*
X009103Y011148D01*
X009020Y011065D01*
X008937Y011148D01*
X009020Y011231D01*
G37*
G36*
X010020Y011231D02*
X010103Y011148D01*
X010020Y011065D01*
X009937Y011148D01*
X010020Y011231D01*
G37*
G36*
X011020Y011231D02*
X011103Y011148D01*
X011020Y011065D01*
X010937Y011148D01*
X011020Y011231D01*
G37*
G36*
X012020Y011231D02*
X012103Y011148D01*
X012020Y011065D01*
X011937Y011148D01*
X012020Y011231D01*
G37*
G36*
X013020Y011231D02*
X013103Y011148D01*
X013020Y011065D01*
X012937Y011148D01*
X013020Y011231D01*
G37*
G36*
X014020Y011231D02*
X014103Y011148D01*
X014020Y011065D01*
X013937Y011148D01*
X014020Y011231D01*
G37*
G36*
X015020Y011231D02*
X015103Y011148D01*
X015020Y011065D01*
X014937Y011148D01*
X015020Y011231D01*
G37*
G36*
X016020Y011231D02*
X016103Y011148D01*
X016020Y011065D01*
X015937Y011148D01*
X016020Y011231D01*
G37*
G36*
X017020Y011231D02*
X017103Y011148D01*
X017020Y011065D01*
X016937Y011148D01*
X017020Y011231D01*
G37*
G36*
X018020Y011231D02*
X018103Y011148D01*
X018020Y011065D01*
X017937Y011148D01*
X018020Y011231D01*
G37*
G36*
X019020Y011231D02*
X019103Y011148D01*
X019020Y011065D01*
X018937Y011148D01*
X019020Y011231D01*
G37*
G36*
X020020Y011231D02*
X020103Y011148D01*
X020020Y011065D01*
X019937Y011148D01*
X020020Y011231D01*
G37*
G36*
X021020Y011231D02*
X021103Y011148D01*
X021020Y011065D01*
X020937Y011148D01*
X021020Y011231D01*
G37*
G36*
X022020Y011231D02*
X022103Y011148D01*
X022020Y011065D01*
X021937Y011148D01*
X022020Y011231D01*
G37*
G36*
X023020Y011231D02*
X023103Y011148D01*
X023020Y011065D01*
X022937Y011148D01*
X023020Y011231D01*
G37*
G36*
X024020Y011231D02*
X024103Y011148D01*
X024020Y011065D01*
X023937Y011148D01*
X024020Y011231D01*
G37*
G36*
X025020Y011231D02*
X025103Y011148D01*
X025020Y011065D01*
X024937Y011148D01*
X025020Y011231D01*
G37*
G36*
X026020Y011231D02*
X026103Y011148D01*
X026020Y011065D01*
X025937Y011148D01*
X026020Y011231D01*
G37*
G36*
X027020Y011231D02*
X027103Y011148D01*
X027020Y011065D01*
X026937Y011148D01*
X027020Y011231D01*
G37*
G36*
X028020Y011231D02*
X028103Y011148D01*
X028020Y011065D01*
X027937Y011148D01*
X028020Y011231D01*
G37*
G36*
X029020Y011231D02*
X029103Y011148D01*
X029020Y011065D01*
X028937Y011148D01*
X029020Y011231D01*
G37*
G36*
X030020Y011231D02*
X030103Y011148D01*
X030020Y011065D01*
X029937Y011148D01*
X030020Y011231D01*
G37*
G36*
X031020Y011231D02*
X031103Y011148D01*
X031020Y011065D01*
X030937Y011148D01*
X031020Y011231D01*
G37*
G36*
X032020Y011231D02*
X032103Y011148D01*
X032020Y011065D01*
X031937Y011148D01*
X032020Y011231D01*
G37*
G36*
X032020Y012231D02*
X032103Y012148D01*
X032020Y012065D01*
X031937Y012148D01*
X032020Y012231D01*
G37*
G36*
X031020Y012231D02*
X031103Y012148D01*
X031020Y012065D01*
X030937Y012148D01*
X031020Y012231D01*
G37*
G36*
X030020Y012231D02*
X030103Y012148D01*
X030020Y012065D01*
X029937Y012148D01*
X030020Y012231D01*
G37*
G36*
X029020Y012231D02*
X029103Y012148D01*
X029020Y012065D01*
X028937Y012148D01*
X029020Y012231D01*
G37*
G36*
X028020Y012231D02*
X028103Y012148D01*
X028020Y012065D01*
X027937Y012148D01*
X028020Y012231D01*
G37*
G36*
X027020Y012231D02*
X027103Y012148D01*
X027020Y012065D01*
X026937Y012148D01*
X027020Y012231D01*
G37*
G36*
X026020Y012231D02*
X026103Y012148D01*
X026020Y012065D01*
X025937Y012148D01*
X026020Y012231D01*
G37*
G36*
X025020Y012231D02*
X025103Y012148D01*
X025020Y012065D01*
X024937Y012148D01*
X025020Y012231D01*
G37*
G36*
X024020Y012231D02*
X024103Y012148D01*
X024020Y012065D01*
X023937Y012148D01*
X024020Y012231D01*
G37*
G36*
X023020Y012231D02*
X023103Y012148D01*
X023020Y012065D01*
X022937Y012148D01*
X023020Y012231D01*
G37*
G36*
X022020Y012231D02*
X022103Y012148D01*
X022020Y012065D01*
X021937Y012148D01*
X022020Y012231D01*
G37*
G36*
X021020Y012231D02*
X021103Y012148D01*
X021020Y012065D01*
X020937Y012148D01*
X021020Y012231D01*
G37*
G36*
X020020Y012231D02*
X020103Y012148D01*
X020020Y012065D01*
X019937Y012148D01*
X020020Y012231D01*
G37*
G36*
X019020Y012231D02*
X019103Y012148D01*
X019020Y012065D01*
X018937Y012148D01*
X019020Y012231D01*
G37*
G36*
X018020Y012231D02*
X018103Y012148D01*
X018020Y012065D01*
X017937Y012148D01*
X018020Y012231D01*
G37*
G36*
X017020Y012231D02*
X017103Y012148D01*
X017020Y012065D01*
X016937Y012148D01*
X017020Y012231D01*
G37*
G36*
X016020Y012231D02*
X016103Y012148D01*
X016020Y012065D01*
X015937Y012148D01*
X016020Y012231D01*
G37*
G36*
X015020Y012231D02*
X015103Y012148D01*
X015020Y012065D01*
X014937Y012148D01*
X015020Y012231D01*
G37*
G36*
X014020Y012231D02*
X014103Y012148D01*
X014020Y012065D01*
X013937Y012148D01*
X014020Y012231D01*
G37*
G36*
X013020Y012231D02*
X013103Y012148D01*
X013020Y012065D01*
X012937Y012148D01*
X013020Y012231D01*
G37*
G36*
X012020Y012231D02*
X012103Y012148D01*
X012020Y012065D01*
X011937Y012148D01*
X012020Y012231D01*
G37*
G36*
X011020Y012231D02*
X011103Y012148D01*
X011020Y012065D01*
X010937Y012148D01*
X011020Y012231D01*
G37*
G36*
X010020Y012231D02*
X010103Y012148D01*
X010020Y012065D01*
X009937Y012148D01*
X010020Y012231D01*
G37*
G36*
X009020Y012231D02*
X009103Y012148D01*
X009020Y012065D01*
X008937Y012148D01*
X009020Y012231D01*
G37*
G36*
X008020Y012231D02*
X008103Y012148D01*
X008020Y012065D01*
X007937Y012148D01*
X008020Y012231D01*
G37*
G36*
X007020Y012231D02*
X007103Y012148D01*
X007020Y012065D01*
X006937Y012148D01*
X007020Y012231D01*
G37*
G36*
X006020Y012231D02*
X006103Y012148D01*
X006020Y012065D01*
X005937Y012148D01*
X006020Y012231D01*
G37*
G36*
X006020Y010231D02*
X006103Y010148D01*
X006020Y010065D01*
X005937Y010148D01*
X006020Y010231D01*
G37*
G36*
X005020Y010231D02*
X005103Y010148D01*
X005020Y010065D01*
X004937Y010148D01*
X005020Y010231D01*
G37*
G36*
X004020Y010231D02*
X004103Y010148D01*
X004020Y010065D01*
X003937Y010148D01*
X004020Y010231D01*
G37*
G36*
X003020Y010231D02*
X003103Y010148D01*
X003020Y010065D01*
X002937Y010148D01*
X003020Y010231D01*
G37*
G36*
X002020Y010231D02*
X002103Y010148D01*
X002020Y010065D01*
X001937Y010148D01*
X002020Y010231D01*
G37*
G36*
X001020Y010231D02*
X001103Y010148D01*
X001020Y010065D01*
X000937Y010148D01*
X001020Y010231D01*
G37*
G36*
X001020Y009231D02*
X001103Y009148D01*
X001020Y009065D01*
X000937Y009148D01*
X001020Y009231D01*
G37*
G36*
X002020Y009231D02*
X002103Y009148D01*
X002020Y009065D01*
X001937Y009148D01*
X002020Y009231D01*
G37*
G36*
X003020Y009231D02*
X003103Y009148D01*
X003020Y009065D01*
X002937Y009148D01*
X003020Y009231D01*
G37*
G36*
X004020Y009231D02*
X004103Y009148D01*
X004020Y009065D01*
X003937Y009148D01*
X004020Y009231D01*
G37*
G36*
X005020Y009231D02*
X005103Y009148D01*
X005020Y009065D01*
X004937Y009148D01*
X005020Y009231D01*
G37*
G36*
X006020Y009231D02*
X006103Y009148D01*
X006020Y009065D01*
X005937Y009148D01*
X006020Y009231D01*
G37*
G36*
X007020Y009231D02*
X007103Y009148D01*
X007020Y009065D01*
X006937Y009148D01*
X007020Y009231D01*
G37*
G36*
X008020Y009231D02*
X008103Y009148D01*
X008020Y009065D01*
X007937Y009148D01*
X008020Y009231D01*
G37*
G36*
X009020Y009231D02*
X009103Y009148D01*
X009020Y009065D01*
X008937Y009148D01*
X009020Y009231D01*
G37*
G36*
X010020Y009231D02*
X010103Y009148D01*
X010020Y009065D01*
X009937Y009148D01*
X010020Y009231D01*
G37*
G36*
X011020Y009231D02*
X011103Y009148D01*
X011020Y009065D01*
X010937Y009148D01*
X011020Y009231D01*
G37*
G36*
X012020Y009231D02*
X012103Y009148D01*
X012020Y009065D01*
X011937Y009148D01*
X012020Y009231D01*
G37*
G36*
X013020Y009231D02*
X013103Y009148D01*
X013020Y009065D01*
X012937Y009148D01*
X013020Y009231D01*
G37*
G36*
X014020Y009231D02*
X014103Y009148D01*
X014020Y009065D01*
X013937Y009148D01*
X014020Y009231D01*
G37*
G36*
X015020Y009231D02*
X015103Y009148D01*
X015020Y009065D01*
X014937Y009148D01*
X015020Y009231D01*
G37*
G36*
X016020Y009231D02*
X016103Y009148D01*
X016020Y009065D01*
X015937Y009148D01*
X016020Y009231D01*
G37*
G36*
X017020Y009231D02*
X017103Y009148D01*
X017020Y009065D01*
X016937Y009148D01*
X017020Y009231D01*
G37*
G36*
X018020Y009231D02*
X018103Y009148D01*
X018020Y009065D01*
X017937Y009148D01*
X018020Y009231D01*
G37*
G36*
X019020Y009231D02*
X019103Y009148D01*
X019020Y009065D01*
X018937Y009148D01*
X019020Y009231D01*
G37*
G36*
X020020Y009231D02*
X020103Y009148D01*
X020020Y009065D01*
X019937Y009148D01*
X020020Y009231D01*
G37*
G36*
X021020Y009231D02*
X021103Y009148D01*
X021020Y009065D01*
X020937Y009148D01*
X021020Y009231D01*
G37*
G36*
X022020Y009231D02*
X022103Y009148D01*
X022020Y009065D01*
X021937Y009148D01*
X022020Y009231D01*
G37*
G36*
X023020Y009231D02*
X023103Y009148D01*
X023020Y009065D01*
X022937Y009148D01*
X023020Y009231D01*
G37*
G36*
X024020Y009231D02*
X024103Y009148D01*
X024020Y009065D01*
X023937Y009148D01*
X024020Y009231D01*
G37*
G36*
X025020Y009231D02*
X025103Y009148D01*
X025020Y009065D01*
X024937Y009148D01*
X025020Y009231D01*
G37*
G36*
X026020Y009231D02*
X026103Y009148D01*
X026020Y009065D01*
X025937Y009148D01*
X026020Y009231D01*
G37*
G36*
X027020Y009231D02*
X027103Y009148D01*
X027020Y009065D01*
X026937Y009148D01*
X027020Y009231D01*
G37*
G36*
X028020Y009231D02*
X028103Y009148D01*
X028020Y009065D01*
X027937Y009148D01*
X028020Y009231D01*
G37*
G36*
X029020Y009231D02*
X029103Y009148D01*
X029020Y009065D01*
X028937Y009148D01*
X029020Y009231D01*
G37*
G36*
X030020Y009231D02*
X030103Y009148D01*
X030020Y009065D01*
X029937Y009148D01*
X030020Y009231D01*
G37*
G36*
X031020Y009231D02*
X031103Y009148D01*
X031020Y009065D01*
X030937Y009148D01*
X031020Y009231D01*
G37*
G36*
X032020Y009231D02*
X032103Y009148D01*
X032020Y009065D01*
X031937Y009148D01*
X032020Y009231D01*
G37*
G36*
X032020Y010231D02*
X032103Y010148D01*
X032020Y010065D01*
X031937Y010148D01*
X032020Y010231D01*
G37*
G36*
X031020Y010231D02*
X031103Y010148D01*
X031020Y010065D01*
X030937Y010148D01*
X031020Y010231D01*
G37*
G36*
X030020Y010231D02*
X030103Y010148D01*
X030020Y010065D01*
X029937Y010148D01*
X030020Y010231D01*
G37*
G36*
X029020Y010231D02*
X029103Y010148D01*
X029020Y010065D01*
X028937Y010148D01*
X029020Y010231D01*
G37*
G36*
X028020Y010231D02*
X028103Y010148D01*
X028020Y010065D01*
X027937Y010148D01*
X028020Y010231D01*
G37*
G36*
X027020Y010231D02*
X027103Y010148D01*
X027020Y010065D01*
X026937Y010148D01*
X027020Y010231D01*
G37*
G36*
X026020Y010231D02*
X026103Y010148D01*
X026020Y010065D01*
X025937Y010148D01*
X026020Y010231D01*
G37*
G36*
X025020Y010231D02*
X025103Y010148D01*
X025020Y010065D01*
X024937Y010148D01*
X025020Y010231D01*
G37*
G36*
X024020Y010231D02*
X024103Y010148D01*
X024020Y010065D01*
X023937Y010148D01*
X024020Y010231D01*
G37*
G36*
X023020Y010231D02*
X023103Y010148D01*
X023020Y010065D01*
X022937Y010148D01*
X023020Y010231D01*
G37*
G36*
X022020Y010231D02*
X022103Y010148D01*
X022020Y010065D01*
X021937Y010148D01*
X022020Y010231D01*
G37*
G36*
X021020Y010231D02*
X021103Y010148D01*
X021020Y010065D01*
X020937Y010148D01*
X021020Y010231D01*
G37*
G36*
X020020Y010231D02*
X020103Y010148D01*
X020020Y010065D01*
X019937Y010148D01*
X020020Y010231D01*
G37*
G36*
X019020Y010231D02*
X019103Y010148D01*
X019020Y010065D01*
X018937Y010148D01*
X019020Y010231D01*
G37*
G36*
X018020Y010231D02*
X018103Y010148D01*
X018020Y010065D01*
X017937Y010148D01*
X018020Y010231D01*
G37*
G36*
X017020Y010231D02*
X017103Y010148D01*
X017020Y010065D01*
X016937Y010148D01*
X017020Y010231D01*
G37*
G36*
X016020Y010231D02*
X016103Y010148D01*
X016020Y010065D01*
X015937Y010148D01*
X016020Y010231D01*
G37*
G36*
X015020Y010231D02*
X015103Y010148D01*
X015020Y010065D01*
X014937Y010148D01*
X015020Y010231D01*
G37*
G36*
X014020Y010231D02*
X014103Y010148D01*
X014020Y010065D01*
X013937Y010148D01*
X014020Y010231D01*
G37*
G36*
X013020Y010231D02*
X013103Y010148D01*
X013020Y010065D01*
X012937Y010148D01*
X013020Y010231D01*
G37*
G36*
X012020Y010231D02*
X012103Y010148D01*
X012020Y010065D01*
X011937Y010148D01*
X012020Y010231D01*
G37*
G36*
X011020Y010231D02*
X011103Y010148D01*
X011020Y010065D01*
X010937Y010148D01*
X011020Y010231D01*
G37*
G36*
X010020Y010231D02*
X010103Y010148D01*
X010020Y010065D01*
X009937Y010148D01*
X010020Y010231D01*
G37*
G36*
X009020Y010231D02*
X009103Y010148D01*
X009020Y010065D01*
X008937Y010148D01*
X009020Y010231D01*
G37*
G36*
X008020Y010231D02*
X008103Y010148D01*
X008020Y010065D01*
X007937Y010148D01*
X008020Y010231D01*
G37*
G36*
X007020Y010231D02*
X007103Y010148D01*
X007020Y010065D01*
X006937Y010148D01*
X007020Y010231D01*
G37*
G36*
X007020Y008231D02*
X007103Y008148D01*
X007020Y008065D01*
X006937Y008148D01*
X007020Y008231D01*
G37*
G36*
X006020Y008231D02*
X006103Y008148D01*
X006020Y008065D01*
X005937Y008148D01*
X006020Y008231D01*
G37*
G36*
X005020Y008231D02*
X005103Y008148D01*
X005020Y008065D01*
X004937Y008148D01*
X005020Y008231D01*
G37*
G36*
X004020Y008231D02*
X004103Y008148D01*
X004020Y008065D01*
X003937Y008148D01*
X004020Y008231D01*
G37*
G36*
X003020Y008231D02*
X003103Y008148D01*
X003020Y008065D01*
X002937Y008148D01*
X003020Y008231D01*
G37*
G36*
X002020Y008231D02*
X002103Y008148D01*
X002020Y008065D01*
X001937Y008148D01*
X002020Y008231D01*
G37*
G36*
X001020Y008231D02*
X001103Y008148D01*
X001020Y008065D01*
X000937Y008148D01*
X001020Y008231D01*
G37*
G36*
X001020Y007231D02*
X001103Y007148D01*
X001020Y007065D01*
X000937Y007148D01*
X001020Y007231D01*
G37*
G36*
X002020Y007231D02*
X002103Y007148D01*
X002020Y007065D01*
X001937Y007148D01*
X002020Y007231D01*
G37*
G36*
X003020Y007231D02*
X003103Y007148D01*
X003020Y007065D01*
X002937Y007148D01*
X003020Y007231D01*
G37*
G36*
X004020Y007231D02*
X004103Y007148D01*
X004020Y007065D01*
X003937Y007148D01*
X004020Y007231D01*
G37*
G36*
X005020Y007231D02*
X005103Y007148D01*
X005020Y007065D01*
X004937Y007148D01*
X005020Y007231D01*
G37*
G36*
X006020Y007231D02*
X006103Y007148D01*
X006020Y007065D01*
X005937Y007148D01*
X006020Y007231D01*
G37*
G36*
X007020Y007231D02*
X007103Y007148D01*
X007020Y007065D01*
X006937Y007148D01*
X007020Y007231D01*
G37*
G36*
X008020Y007231D02*
X008103Y007148D01*
X008020Y007065D01*
X007937Y007148D01*
X008020Y007231D01*
G37*
G36*
X009020Y007231D02*
X009103Y007148D01*
X009020Y007065D01*
X008937Y007148D01*
X009020Y007231D01*
G37*
G36*
X010020Y007231D02*
X010103Y007148D01*
X010020Y007065D01*
X009937Y007148D01*
X010020Y007231D01*
G37*
G36*
X011020Y007231D02*
X011103Y007148D01*
X011020Y007065D01*
X010937Y007148D01*
X011020Y007231D01*
G37*
G36*
X012020Y007231D02*
X012103Y007148D01*
X012020Y007065D01*
X011937Y007148D01*
X012020Y007231D01*
G37*
G36*
X013020Y007231D02*
X013103Y007148D01*
X013020Y007065D01*
X012937Y007148D01*
X013020Y007231D01*
G37*
G36*
X014020Y007231D02*
X014103Y007148D01*
X014020Y007065D01*
X013937Y007148D01*
X014020Y007231D01*
G37*
G36*
X015020Y007231D02*
X015103Y007148D01*
X015020Y007065D01*
X014937Y007148D01*
X015020Y007231D01*
G37*
G36*
X016020Y007231D02*
X016103Y007148D01*
X016020Y007065D01*
X015937Y007148D01*
X016020Y007231D01*
G37*
G36*
X017020Y007231D02*
X017103Y007148D01*
X017020Y007065D01*
X016937Y007148D01*
X017020Y007231D01*
G37*
G36*
X018020Y007231D02*
X018103Y007148D01*
X018020Y007065D01*
X017937Y007148D01*
X018020Y007231D01*
G37*
G36*
X019020Y007231D02*
X019103Y007148D01*
X019020Y007065D01*
X018937Y007148D01*
X019020Y007231D01*
G37*
G36*
X020020Y007231D02*
X020103Y007148D01*
X020020Y007065D01*
X019937Y007148D01*
X020020Y007231D01*
G37*
G36*
X021020Y007231D02*
X021103Y007148D01*
X021020Y007065D01*
X020937Y007148D01*
X021020Y007231D01*
G37*
G36*
X022020Y007231D02*
X022103Y007148D01*
X022020Y007065D01*
X021937Y007148D01*
X022020Y007231D01*
G37*
G36*
X023020Y007231D02*
X023103Y007148D01*
X023020Y007065D01*
X022937Y007148D01*
X023020Y007231D01*
G37*
G36*
X024020Y007231D02*
X024103Y007148D01*
X024020Y007065D01*
X023937Y007148D01*
X024020Y007231D01*
G37*
G36*
X025020Y007231D02*
X025103Y007148D01*
X025020Y007065D01*
X024937Y007148D01*
X025020Y007231D01*
G37*
G36*
X026020Y007231D02*
X026103Y007148D01*
X026020Y007065D01*
X025937Y007148D01*
X026020Y007231D01*
G37*
G36*
X027020Y007231D02*
X027103Y007148D01*
X027020Y007065D01*
X026937Y007148D01*
X027020Y007231D01*
G37*
G36*
X028020Y007231D02*
X028103Y007148D01*
X028020Y007065D01*
X027937Y007148D01*
X028020Y007231D01*
G37*
G36*
X029020Y007231D02*
X029103Y007148D01*
X029020Y007065D01*
X028937Y007148D01*
X029020Y007231D01*
G37*
G36*
X030020Y007231D02*
X030103Y007148D01*
X030020Y007065D01*
X029937Y007148D01*
X030020Y007231D01*
G37*
G36*
X031020Y007231D02*
X031103Y007148D01*
X031020Y007065D01*
X030937Y007148D01*
X031020Y007231D01*
G37*
G36*
X032020Y007231D02*
X032103Y007148D01*
X032020Y007065D01*
X031937Y007148D01*
X032020Y007231D01*
G37*
G36*
X032020Y008231D02*
X032103Y008148D01*
X032020Y008065D01*
X031937Y008148D01*
X032020Y008231D01*
G37*
G36*
X031020Y008231D02*
X031103Y008148D01*
X031020Y008065D01*
X030937Y008148D01*
X031020Y008231D01*
G37*
G36*
X030020Y008231D02*
X030103Y008148D01*
X030020Y008065D01*
X029937Y008148D01*
X030020Y008231D01*
G37*
G36*
X029020Y008231D02*
X029103Y008148D01*
X029020Y008065D01*
X028937Y008148D01*
X029020Y008231D01*
G37*
G36*
X028020Y008231D02*
X028103Y008148D01*
X028020Y008065D01*
X027937Y008148D01*
X028020Y008231D01*
G37*
G36*
X027020Y008231D02*
X027103Y008148D01*
X027020Y008065D01*
X026937Y008148D01*
X027020Y008231D01*
G37*
G36*
X026020Y008231D02*
X026103Y008148D01*
X026020Y008065D01*
X025937Y008148D01*
X026020Y008231D01*
G37*
G36*
X025020Y008231D02*
X025103Y008148D01*
X025020Y008065D01*
X024937Y008148D01*
X025020Y008231D01*
G37*
G36*
X024020Y008231D02*
X024103Y008148D01*
X024020Y008065D01*
X023937Y008148D01*
X024020Y008231D01*
G37*
G36*
X023020Y008231D02*
X023103Y008148D01*
X023020Y008065D01*
X022937Y008148D01*
X023020Y008231D01*
G37*
G36*
X022020Y008231D02*
X022103Y008148D01*
X022020Y008065D01*
X021937Y008148D01*
X022020Y008231D01*
G37*
G36*
X021020Y008231D02*
X021103Y008148D01*
X021020Y008065D01*
X020937Y008148D01*
X021020Y008231D01*
G37*
G36*
X020020Y008231D02*
X020103Y008148D01*
X020020Y008065D01*
X019937Y008148D01*
X020020Y008231D01*
G37*
G36*
X019020Y008231D02*
X019103Y008148D01*
X019020Y008065D01*
X018937Y008148D01*
X019020Y008231D01*
G37*
G36*
X018020Y008231D02*
X018103Y008148D01*
X018020Y008065D01*
X017937Y008148D01*
X018020Y008231D01*
G37*
G36*
X017020Y008231D02*
X017103Y008148D01*
X017020Y008065D01*
X016937Y008148D01*
X017020Y008231D01*
G37*
G36*
X016020Y008231D02*
X016103Y008148D01*
X016020Y008065D01*
X015937Y008148D01*
X016020Y008231D01*
G37*
G36*
X015020Y008231D02*
X015103Y008148D01*
X015020Y008065D01*
X014937Y008148D01*
X015020Y008231D01*
G37*
G36*
X014020Y008231D02*
X014103Y008148D01*
X014020Y008065D01*
X013937Y008148D01*
X014020Y008231D01*
G37*
G36*
X013020Y008231D02*
X013103Y008148D01*
X013020Y008065D01*
X012937Y008148D01*
X013020Y008231D01*
G37*
G36*
X012020Y008231D02*
X012103Y008148D01*
X012020Y008065D01*
X011937Y008148D01*
X012020Y008231D01*
G37*
G36*
X011020Y008231D02*
X011103Y008148D01*
X011020Y008065D01*
X010937Y008148D01*
X011020Y008231D01*
G37*
G36*
X010020Y008231D02*
X010103Y008148D01*
X010020Y008065D01*
X009937Y008148D01*
X010020Y008231D01*
G37*
G36*
X009020Y008231D02*
X009103Y008148D01*
X009020Y008065D01*
X008937Y008148D01*
X009020Y008231D01*
G37*
G36*
X008020Y008231D02*
X008103Y008148D01*
X008020Y008065D01*
X007937Y008148D01*
X008020Y008231D01*
G37*
G36*
X008020Y006231D02*
X008103Y006148D01*
X008020Y006065D01*
X007937Y006148D01*
X008020Y006231D01*
G37*
G36*
X007020Y006231D02*
X007103Y006148D01*
X007020Y006065D01*
X006937Y006148D01*
X007020Y006231D01*
G37*
G36*
X006020Y006231D02*
X006103Y006148D01*
X006020Y006065D01*
X005937Y006148D01*
X006020Y006231D01*
G37*
G36*
X005020Y006231D02*
X005103Y006148D01*
X005020Y006065D01*
X004937Y006148D01*
X005020Y006231D01*
G37*
G36*
X004020Y006231D02*
X004103Y006148D01*
X004020Y006065D01*
X003937Y006148D01*
X004020Y006231D01*
G37*
G36*
X003020Y006231D02*
X003103Y006148D01*
X003020Y006065D01*
X002937Y006148D01*
X003020Y006231D01*
G37*
G36*
X002020Y006231D02*
X002103Y006148D01*
X002020Y006065D01*
X001937Y006148D01*
X002020Y006231D01*
G37*
G36*
X001020Y006231D02*
X001103Y006148D01*
X001020Y006065D01*
X000937Y006148D01*
X001020Y006231D01*
G37*
G36*
X001020Y005231D02*
X001103Y005148D01*
X001020Y005065D01*
X000937Y005148D01*
X001020Y005231D01*
G37*
G36*
X002020Y005231D02*
X002103Y005148D01*
X002020Y005065D01*
X001937Y005148D01*
X002020Y005231D01*
G37*
G36*
X003020Y005231D02*
X003103Y005148D01*
X003020Y005065D01*
X002937Y005148D01*
X003020Y005231D01*
G37*
G36*
X004020Y005231D02*
X004103Y005148D01*
X004020Y005065D01*
X003937Y005148D01*
X004020Y005231D01*
G37*
G36*
X005020Y005231D02*
X005103Y005148D01*
X005020Y005065D01*
X004937Y005148D01*
X005020Y005231D01*
G37*
G36*
X006020Y005231D02*
X006103Y005148D01*
X006020Y005065D01*
X005937Y005148D01*
X006020Y005231D01*
G37*
G36*
X007020Y005231D02*
X007103Y005148D01*
X007020Y005065D01*
X006937Y005148D01*
X007020Y005231D01*
G37*
G36*
X008020Y005231D02*
X008103Y005148D01*
X008020Y005065D01*
X007937Y005148D01*
X008020Y005231D01*
G37*
G36*
X009020Y005231D02*
X009103Y005148D01*
X009020Y005065D01*
X008937Y005148D01*
X009020Y005231D01*
G37*
G36*
X010020Y005231D02*
X010103Y005148D01*
X010020Y005065D01*
X009937Y005148D01*
X010020Y005231D01*
G37*
G36*
X011020Y005231D02*
X011103Y005148D01*
X011020Y005065D01*
X010937Y005148D01*
X011020Y005231D01*
G37*
G36*
X012020Y005231D02*
X012103Y005148D01*
X012020Y005065D01*
X011937Y005148D01*
X012020Y005231D01*
G37*
G36*
X013020Y005231D02*
X013103Y005148D01*
X013020Y005065D01*
X012937Y005148D01*
X013020Y005231D01*
G37*
G36*
X014020Y005231D02*
X014103Y005148D01*
X014020Y005065D01*
X013937Y005148D01*
X014020Y005231D01*
G37*
G36*
X015020Y005231D02*
X015103Y005148D01*
X015020Y005065D01*
X014937Y005148D01*
X015020Y005231D01*
G37*
G36*
X016020Y005231D02*
X016103Y005148D01*
X016020Y005065D01*
X015937Y005148D01*
X016020Y005231D01*
G37*
G36*
X017020Y005231D02*
X017103Y005148D01*
X017020Y005065D01*
X016937Y005148D01*
X017020Y005231D01*
G37*
G36*
X018020Y005231D02*
X018103Y005148D01*
X018020Y005065D01*
X017937Y005148D01*
X018020Y005231D01*
G37*
G36*
X019020Y005231D02*
X019103Y005148D01*
X019020Y005065D01*
X018937Y005148D01*
X019020Y005231D01*
G37*
G36*
X020020Y005231D02*
X020103Y005148D01*
X020020Y005065D01*
X019937Y005148D01*
X020020Y005231D01*
G37*
G36*
X021020Y005231D02*
X021103Y005148D01*
X021020Y005065D01*
X020937Y005148D01*
X021020Y005231D01*
G37*
G36*
X022020Y005231D02*
X022103Y005148D01*
X022020Y005065D01*
X021937Y005148D01*
X022020Y005231D01*
G37*
G36*
X023020Y005231D02*
X023103Y005148D01*
X023020Y005065D01*
X022937Y005148D01*
X023020Y005231D01*
G37*
G36*
X024020Y005231D02*
X024103Y005148D01*
X024020Y005065D01*
X023937Y005148D01*
X024020Y005231D01*
G37*
G36*
X025020Y005231D02*
X025103Y005148D01*
X025020Y005065D01*
X024937Y005148D01*
X025020Y005231D01*
G37*
G36*
X026020Y005231D02*
X026103Y005148D01*
X026020Y005065D01*
X025937Y005148D01*
X026020Y005231D01*
G37*
G36*
X027020Y005231D02*
X027103Y005148D01*
X027020Y005065D01*
X026937Y005148D01*
X027020Y005231D01*
G37*
G36*
X028020Y005231D02*
X028103Y005148D01*
X028020Y005065D01*
X027937Y005148D01*
X028020Y005231D01*
G37*
G36*
X029020Y005231D02*
X029103Y005148D01*
X029020Y005065D01*
X028937Y005148D01*
X029020Y005231D01*
G37*
G36*
X030020Y005231D02*
X030103Y005148D01*
X030020Y005065D01*
X029937Y005148D01*
X030020Y005231D01*
G37*
G36*
X031020Y005231D02*
X031103Y005148D01*
X031020Y005065D01*
X030937Y005148D01*
X031020Y005231D01*
G37*
G36*
X032020Y005231D02*
X032103Y005148D01*
X032020Y005065D01*
X031937Y005148D01*
X032020Y005231D01*
G37*
G36*
X032020Y006231D02*
X032103Y006148D01*
X032020Y006065D01*
X031937Y006148D01*
X032020Y006231D01*
G37*
G36*
X031020Y006231D02*
X031103Y006148D01*
X031020Y006065D01*
X030937Y006148D01*
X031020Y006231D01*
G37*
G36*
X030020Y006231D02*
X030103Y006148D01*
X030020Y006065D01*
X029937Y006148D01*
X030020Y006231D01*
G37*
G36*
X029020Y006231D02*
X029103Y006148D01*
X029020Y006065D01*
X028937Y006148D01*
X029020Y006231D01*
G37*
G36*
X028020Y006231D02*
X028103Y006148D01*
X028020Y006065D01*
X027937Y006148D01*
X028020Y006231D01*
G37*
G36*
X027020Y006231D02*
X027103Y006148D01*
X027020Y006065D01*
X026937Y006148D01*
X027020Y006231D01*
G37*
G36*
X026020Y006231D02*
X026103Y006148D01*
X026020Y006065D01*
X025937Y006148D01*
X026020Y006231D01*
G37*
G36*
X025020Y006231D02*
X025103Y006148D01*
X025020Y006065D01*
X024937Y006148D01*
X025020Y006231D01*
G37*
G36*
X024020Y006231D02*
X024103Y006148D01*
X024020Y006065D01*
X023937Y006148D01*
X024020Y006231D01*
G37*
G36*
X023020Y006231D02*
X023103Y006148D01*
X023020Y006065D01*
X022937Y006148D01*
X023020Y006231D01*
G37*
G36*
X022020Y006231D02*
X022103Y006148D01*
X022020Y006065D01*
X021937Y006148D01*
X022020Y006231D01*
G37*
G36*
X021020Y006231D02*
X021103Y006148D01*
X021020Y006065D01*
X020937Y006148D01*
X021020Y006231D01*
G37*
G36*
X020020Y006231D02*
X020103Y006148D01*
X020020Y006065D01*
X019937Y006148D01*
X020020Y006231D01*
G37*
G36*
X019020Y006231D02*
X019103Y006148D01*
X019020Y006065D01*
X018937Y006148D01*
X019020Y006231D01*
G37*
G36*
X018020Y006231D02*
X018103Y006148D01*
X018020Y006065D01*
X017937Y006148D01*
X018020Y006231D01*
G37*
G36*
X017020Y006231D02*
X017103Y006148D01*
X017020Y006065D01*
X016937Y006148D01*
X017020Y006231D01*
G37*
G36*
X016020Y006231D02*
X016103Y006148D01*
X016020Y006065D01*
X015937Y006148D01*
X016020Y006231D01*
G37*
G36*
X015020Y006231D02*
X015103Y006148D01*
X015020Y006065D01*
X014937Y006148D01*
X015020Y006231D01*
G37*
G36*
X014020Y006231D02*
X014103Y006148D01*
X014020Y006065D01*
X013937Y006148D01*
X014020Y006231D01*
G37*
G36*
X013020Y006231D02*
X013103Y006148D01*
X013020Y006065D01*
X012937Y006148D01*
X013020Y006231D01*
G37*
G36*
X012020Y006231D02*
X012103Y006148D01*
X012020Y006065D01*
X011937Y006148D01*
X012020Y006231D01*
G37*
G36*
X011020Y006231D02*
X011103Y006148D01*
X011020Y006065D01*
X010937Y006148D01*
X011020Y006231D01*
G37*
G36*
X010020Y006231D02*
X010103Y006148D01*
X010020Y006065D01*
X009937Y006148D01*
X010020Y006231D01*
G37*
G36*
X009020Y006231D02*
X009103Y006148D01*
X009020Y006065D01*
X008937Y006148D01*
X009020Y006231D01*
G37*
G36*
X009020Y004231D02*
X009103Y004148D01*
X009020Y004065D01*
X008937Y004148D01*
X009020Y004231D01*
G37*
G36*
X008020Y004231D02*
X008103Y004148D01*
X008020Y004065D01*
X007937Y004148D01*
X008020Y004231D01*
G37*
G36*
X007020Y004231D02*
X007103Y004148D01*
X007020Y004065D01*
X006937Y004148D01*
X007020Y004231D01*
G37*
G36*
X006020Y004231D02*
X006103Y004148D01*
X006020Y004065D01*
X005937Y004148D01*
X006020Y004231D01*
G37*
G36*
X005020Y004231D02*
X005103Y004148D01*
X005020Y004065D01*
X004937Y004148D01*
X005020Y004231D01*
G37*
G36*
X004020Y004231D02*
X004103Y004148D01*
X004020Y004065D01*
X003937Y004148D01*
X004020Y004231D01*
G37*
G36*
X003020Y004231D02*
X003103Y004148D01*
X003020Y004065D01*
X002937Y004148D01*
X003020Y004231D01*
G37*
G36*
X002020Y004231D02*
X002103Y004148D01*
X002020Y004065D01*
X001937Y004148D01*
X002020Y004231D01*
G37*
G36*
X001020Y004231D02*
X001103Y004148D01*
X001020Y004065D01*
X000937Y004148D01*
X001020Y004231D01*
G37*
G36*
X001020Y003231D02*
X001103Y003148D01*
X001020Y003065D01*
X000937Y003148D01*
X001020Y003231D01*
G37*
G36*
X002020Y003231D02*
X002103Y003148D01*
X002020Y003065D01*
X001937Y003148D01*
X002020Y003231D01*
G37*
G36*
X003020Y003231D02*
X003103Y003148D01*
X003020Y003065D01*
X002937Y003148D01*
X003020Y003231D01*
G37*
G36*
X004020Y003231D02*
X004103Y003148D01*
X004020Y003065D01*
X003937Y003148D01*
X004020Y003231D01*
G37*
G36*
X005020Y003231D02*
X005103Y003148D01*
X005020Y003065D01*
X004937Y003148D01*
X005020Y003231D01*
G37*
G36*
X006020Y003231D02*
X006103Y003148D01*
X006020Y003065D01*
X005937Y003148D01*
X006020Y003231D01*
G37*
G36*
X007020Y003231D02*
X007103Y003148D01*
X007020Y003065D01*
X006937Y003148D01*
X007020Y003231D01*
G37*
G36*
X008020Y003231D02*
X008103Y003148D01*
X008020Y003065D01*
X007937Y003148D01*
X008020Y003231D01*
G37*
G36*
X009020Y003231D02*
X009103Y003148D01*
X009020Y003065D01*
X008937Y003148D01*
X009020Y003231D01*
G37*
G36*
X010020Y003231D02*
X010103Y003148D01*
X010020Y003065D01*
X009937Y003148D01*
X010020Y003231D01*
G37*
G36*
X011020Y003231D02*
X011103Y003148D01*
X011020Y003065D01*
X010937Y003148D01*
X011020Y003231D01*
G37*
G36*
X012020Y003231D02*
X012103Y003148D01*
X012020Y003065D01*
X011937Y003148D01*
X012020Y003231D01*
G37*
G36*
X013020Y003231D02*
X013103Y003148D01*
X013020Y003065D01*
X012937Y003148D01*
X013020Y003231D01*
G37*
G36*
X014020Y003231D02*
X014103Y003148D01*
X014020Y003065D01*
X013937Y003148D01*
X014020Y003231D01*
G37*
G36*
X015020Y003231D02*
X015103Y003148D01*
X015020Y003065D01*
X014937Y003148D01*
X015020Y003231D01*
G37*
G36*
X016020Y003231D02*
X016103Y003148D01*
X016020Y003065D01*
X015937Y003148D01*
X016020Y003231D01*
G37*
G36*
X017020Y003231D02*
X017103Y003148D01*
X017020Y003065D01*
X016937Y003148D01*
X017020Y003231D01*
G37*
G36*
X018020Y003231D02*
X018103Y003148D01*
X018020Y003065D01*
X017937Y003148D01*
X018020Y003231D01*
G37*
G36*
X019020Y003231D02*
X019103Y003148D01*
X019020Y003065D01*
X018937Y003148D01*
X019020Y003231D01*
G37*
G36*
X020020Y003231D02*
X020103Y003148D01*
X020020Y003065D01*
X019937Y003148D01*
X020020Y003231D01*
G37*
G36*
X021020Y003231D02*
X021103Y003148D01*
X021020Y003065D01*
X020937Y003148D01*
X021020Y003231D01*
G37*
G36*
X022020Y003231D02*
X022103Y003148D01*
X022020Y003065D01*
X021937Y003148D01*
X022020Y003231D01*
G37*
G36*
X023020Y003231D02*
X023103Y003148D01*
X023020Y003065D01*
X022937Y003148D01*
X023020Y003231D01*
G37*
G36*
X024020Y003231D02*
X024103Y003148D01*
X024020Y003065D01*
X023937Y003148D01*
X024020Y003231D01*
G37*
G36*
X025020Y003231D02*
X025103Y003148D01*
X025020Y003065D01*
X024937Y003148D01*
X025020Y003231D01*
G37*
G36*
X026020Y003231D02*
X026103Y003148D01*
X026020Y003065D01*
X025937Y003148D01*
X026020Y003231D01*
G37*
G36*
X027020Y003231D02*
X027103Y003148D01*
X027020Y003065D01*
X026937Y003148D01*
X027020Y003231D01*
G37*
G36*
X028020Y003231D02*
X028103Y003148D01*
X028020Y003065D01*
X027937Y003148D01*
X028020Y003231D01*
G37*
G36*
X029020Y003231D02*
X029103Y003148D01*
X029020Y003065D01*
X028937Y003148D01*
X029020Y003231D01*
G37*
G36*
X030020Y003231D02*
X030103Y003148D01*
X030020Y003065D01*
X029937Y003148D01*
X030020Y003231D01*
G37*
G36*
X031020Y003231D02*
X031103Y003148D01*
X031020Y003065D01*
X030937Y003148D01*
X031020Y003231D01*
G37*
G36*
X032020Y003231D02*
X032103Y003148D01*
X032020Y003065D01*
X031937Y003148D01*
X032020Y003231D01*
G37*
G36*
X032020Y004231D02*
X032103Y004148D01*
X032020Y004065D01*
X031937Y004148D01*
X032020Y004231D01*
G37*
G36*
X031020Y004231D02*
X031103Y004148D01*
X031020Y004065D01*
X030937Y004148D01*
X031020Y004231D01*
G37*
G36*
X030020Y004231D02*
X030103Y004148D01*
X030020Y004065D01*
X029937Y004148D01*
X030020Y004231D01*
G37*
G36*
X029020Y004231D02*
X029103Y004148D01*
X029020Y004065D01*
X028937Y004148D01*
X029020Y004231D01*
G37*
G36*
X028020Y004231D02*
X028103Y004148D01*
X028020Y004065D01*
X027937Y004148D01*
X028020Y004231D01*
G37*
G36*
X027020Y004231D02*
X027103Y004148D01*
X027020Y004065D01*
X026937Y004148D01*
X027020Y004231D01*
G37*
G36*
X026020Y004231D02*
X026103Y004148D01*
X026020Y004065D01*
X025937Y004148D01*
X026020Y004231D01*
G37*
G36*
X025020Y004231D02*
X025103Y004148D01*
X025020Y004065D01*
X024937Y004148D01*
X025020Y004231D01*
G37*
G36*
X024020Y004231D02*
X024103Y004148D01*
X024020Y004065D01*
X023937Y004148D01*
X024020Y004231D01*
G37*
G36*
X023020Y004231D02*
X023103Y004148D01*
X023020Y004065D01*
X022937Y004148D01*
X023020Y004231D01*
G37*
G36*
X022020Y004231D02*
X022103Y004148D01*
X022020Y004065D01*
X021937Y004148D01*
X022020Y004231D01*
G37*
G36*
X021020Y004231D02*
X021103Y004148D01*
X021020Y004065D01*
X020937Y004148D01*
X021020Y004231D01*
G37*
G36*
X020020Y004231D02*
X020103Y004148D01*
X020020Y004065D01*
X019937Y004148D01*
X020020Y004231D01*
G37*
G36*
X019020Y004231D02*
X019103Y004148D01*
X019020Y004065D01*
X018937Y004148D01*
X019020Y004231D01*
G37*
G36*
X018020Y004231D02*
X018103Y004148D01*
X018020Y004065D01*
X017937Y004148D01*
X018020Y004231D01*
G37*
G36*
X017020Y004231D02*
X017103Y004148D01*
X017020Y004065D01*
X016937Y004148D01*
X017020Y004231D01*
G37*
G36*
X016020Y004231D02*
X016103Y004148D01*
X016020Y004065D01*
X015937Y004148D01*
X016020Y004231D01*
G37*
G36*
X015020Y004231D02*
X015103Y004148D01*
X015020Y004065D01*
X014937Y004148D01*
X015020Y004231D01*
G37*
G36*
X014020Y004231D02*
X014103Y004148D01*
X014020Y004065D01*
X013937Y004148D01*
X014020Y004231D01*
G37*
G36*
X013020Y004231D02*
X013103Y004148D01*
X013020Y004065D01*
X012937Y004148D01*
X013020Y004231D01*
G37*
G36*
X012020Y004231D02*
X012103Y004148D01*
X012020Y004065D01*
X011937Y004148D01*
X012020Y004231D01*
G37*
G36*
X011020Y004231D02*
X011103Y004148D01*
X011020Y004065D01*
X010937Y004148D01*
X011020Y004231D01*
G37*
G36*
X010020Y004231D02*
X010103Y004148D01*
X010020Y004065D01*
X009937Y004148D01*
X010020Y004231D01*
G37*
G36*
X010020Y002231D02*
X010103Y002148D01*
X010020Y002065D01*
X009937Y002148D01*
X010020Y002231D01*
G37*
G36*
X009020Y002231D02*
X009103Y002148D01*
X009020Y002065D01*
X008937Y002148D01*
X009020Y002231D01*
G37*
G36*
X008020Y002231D02*
X008103Y002148D01*
X008020Y002065D01*
X007937Y002148D01*
X008020Y002231D01*
G37*
G36*
X007020Y002231D02*
X007103Y002148D01*
X007020Y002065D01*
X006937Y002148D01*
X007020Y002231D01*
G37*
G36*
X006020Y002231D02*
X006103Y002148D01*
X006020Y002065D01*
X005937Y002148D01*
X006020Y002231D01*
G37*
G36*
X005020Y002231D02*
X005103Y002148D01*
X005020Y002065D01*
X004937Y002148D01*
X005020Y002231D01*
G37*
G36*
X004020Y002231D02*
X004103Y002148D01*
X004020Y002065D01*
X003937Y002148D01*
X004020Y002231D01*
G37*
G36*
X003020Y002231D02*
X003103Y002148D01*
X003020Y002065D01*
X002937Y002148D01*
X003020Y002231D01*
G37*
G36*
X002020Y002231D02*
X002103Y002148D01*
X002020Y002065D01*
X001937Y002148D01*
X002020Y002231D01*
G37*
G36*
X001020Y002231D02*
X001103Y002148D01*
X001020Y002065D01*
X000937Y002148D01*
X001020Y002231D01*
G37*
G36*
X001020Y001231D02*
X001103Y001148D01*
X001020Y001065D01*
X000937Y001148D01*
X001020Y001231D01*
G37*
G36*
X002020Y001231D02*
X002103Y001148D01*
X002020Y001065D01*
X001937Y001148D01*
X002020Y001231D01*
G37*
G36*
X003020Y001231D02*
X003103Y001148D01*
X003020Y001065D01*
X002937Y001148D01*
X003020Y001231D01*
G37*
G36*
X004020Y001231D02*
X004103Y001148D01*
X004020Y001065D01*
X003937Y001148D01*
X004020Y001231D01*
G37*
G36*
X005020Y001231D02*
X005103Y001148D01*
X005020Y001065D01*
X004937Y001148D01*
X005020Y001231D01*
G37*
G36*
X006020Y001231D02*
X006103Y001148D01*
X006020Y001065D01*
X005937Y001148D01*
X006020Y001231D01*
G37*
G36*
X007020Y001231D02*
X007103Y001148D01*
X007020Y001065D01*
X006937Y001148D01*
X007020Y001231D01*
G37*
G36*
X008020Y001231D02*
X008103Y001148D01*
X008020Y001065D01*
X007937Y001148D01*
X008020Y001231D01*
G37*
G36*
X009020Y001231D02*
X009103Y001148D01*
X009020Y001065D01*
X008937Y001148D01*
X009020Y001231D01*
G37*
G36*
X010020Y001231D02*
X010103Y001148D01*
X010020Y001065D01*
X009937Y001148D01*
X010020Y001231D01*
G37*
G36*
X011020Y001231D02*
X011103Y001148D01*
X011020Y001065D01*
X010937Y001148D01*
X011020Y001231D01*
G37*
G36*
X012020Y001231D02*
X012103Y001148D01*
X012020Y001065D01*
X011937Y001148D01*
X012020Y001231D01*
G37*
G36*
X013020Y001231D02*
X013103Y001148D01*
X013020Y001065D01*
X012937Y001148D01*
X013020Y001231D01*
G37*
G36*
X014020Y001231D02*
X014103Y001148D01*
X014020Y001065D01*
X013937Y001148D01*
X014020Y001231D01*
G37*
G36*
X015020Y001231D02*
X015103Y001148D01*
X015020Y001065D01*
X014937Y001148D01*
X015020Y001231D01*
G37*
G36*
X016020Y001231D02*
X016103Y001148D01*
X016020Y001065D01*
X015937Y001148D01*
X016020Y001231D01*
G37*
G36*
X017020Y001231D02*
X017103Y001148D01*
X017020Y001065D01*
X016937Y001148D01*
X017020Y001231D01*
G37*
G36*
X018020Y001231D02*
X018103Y001148D01*
X018020Y001065D01*
X017937Y001148D01*
X018020Y001231D01*
G37*
G36*
X019020Y001231D02*
X019103Y001148D01*
X019020Y001065D01*
X018937Y001148D01*
X019020Y001231D01*
G37*
G36*
X020020Y001231D02*
X020103Y001148D01*
X020020Y001065D01*
X019937Y001148D01*
X020020Y001231D01*
G37*
G36*
X021020Y001231D02*
X021103Y001148D01*
X021020Y001065D01*
X020937Y001148D01*
X021020Y001231D01*
G37*
G36*
X022020Y001231D02*
X022103Y001148D01*
X022020Y001065D01*
X021937Y001148D01*
X022020Y001231D01*
G37*
G36*
X023020Y001231D02*
X023103Y001148D01*
X023020Y001065D01*
X022937Y001148D01*
X023020Y001231D01*
G37*
G36*
X024020Y001231D02*
X024103Y001148D01*
X024020Y001065D01*
X023937Y001148D01*
X024020Y001231D01*
G37*
G36*
X025020Y001231D02*
X025103Y001148D01*
X025020Y001065D01*
X024937Y001148D01*
X025020Y001231D01*
G37*
G36*
X026020Y001231D02*
X026103Y001148D01*
X026020Y001065D01*
X025937Y001148D01*
X026020Y001231D01*
G37*
G36*
X027020Y001231D02*
X027103Y001148D01*
X027020Y001065D01*
X026937Y001148D01*
X027020Y001231D01*
G37*
G36*
X028020Y001231D02*
X028103Y001148D01*
X028020Y001065D01*
X027937Y001148D01*
X028020Y001231D01*
G37*
G36*
X029020Y001231D02*
X029103Y001148D01*
X029020Y001065D01*
X028937Y001148D01*
X029020Y001231D01*
G37*
G36*
X030020Y001231D02*
X030103Y001148D01*
X030020Y001065D01*
X029937Y001148D01*
X030020Y001231D01*
G37*
G36*
X031020Y001231D02*
X031103Y001148D01*
X031020Y001065D01*
X030937Y001148D01*
X031020Y001231D01*
G37*
G36*
X032020Y001231D02*
X032103Y001148D01*
X032020Y001065D01*
X031937Y001148D01*
X032020Y001231D01*
G37*
G36*
X032020Y002231D02*
X032103Y002148D01*
X032020Y002065D01*
X031937Y002148D01*
X032020Y002231D01*
G37*
G36*
X031020Y002231D02*
X031103Y002148D01*
X031020Y002065D01*
X030937Y002148D01*
X031020Y002231D01*
G37*
G36*
X030020Y002231D02*
X030103Y002148D01*
X030020Y002065D01*
X029937Y002148D01*
X030020Y002231D01*
G37*
G36*
X029020Y002231D02*
X029103Y002148D01*
X029020Y002065D01*
X028937Y002148D01*
X029020Y002231D01*
G37*
G36*
X028020Y002231D02*
X028103Y002148D01*
X028020Y002065D01*
X027937Y002148D01*
X028020Y002231D01*
G37*
G36*
X027020Y002231D02*
X027103Y002148D01*
X027020Y002065D01*
X026937Y002148D01*
X027020Y002231D01*
G37*
G36*
X026020Y002231D02*
X026103Y002148D01*
X026020Y002065D01*
X025937Y002148D01*
X026020Y002231D01*
G37*
G36*
X025020Y002231D02*
X025103Y002148D01*
X025020Y002065D01*
X024937Y002148D01*
X025020Y002231D01*
G37*
G36*
X024020Y002231D02*
X024103Y002148D01*
X024020Y002065D01*
X023937Y002148D01*
X024020Y002231D01*
G37*
G36*
X023020Y002231D02*
X023103Y002148D01*
X023020Y002065D01*
X022937Y002148D01*
X023020Y002231D01*
G37*
G36*
X022020Y002231D02*
X022103Y002148D01*
X022020Y002065D01*
X021937Y002148D01*
X022020Y002231D01*
G37*
G36*
X021020Y002231D02*
X021103Y002148D01*
X021020Y002065D01*
X020937Y002148D01*
X021020Y002231D01*
G37*
G36*
X020020Y002231D02*
X020103Y002148D01*
X020020Y002065D01*
X019937Y002148D01*
X020020Y002231D01*
G37*
G36*
X019020Y002231D02*
X019103Y002148D01*
X019020Y002065D01*
X018937Y002148D01*
X019020Y002231D01*
G37*
G36*
X018020Y002231D02*
X018103Y002148D01*
X018020Y002065D01*
X017937Y002148D01*
X018020Y002231D01*
G37*
G36*
X017020Y002231D02*
X017103Y002148D01*
X017020Y002065D01*
X016937Y002148D01*
X017020Y002231D01*
G37*
G36*
X016020Y002231D02*
X016103Y002148D01*
X016020Y002065D01*
X015937Y002148D01*
X016020Y002231D01*
G37*
G36*
X015020Y002231D02*
X015103Y002148D01*
X015020Y002065D01*
X014937Y002148D01*
X015020Y002231D01*
G37*
G36*
X014020Y002231D02*
X014103Y002148D01*
X014020Y002065D01*
X013937Y002148D01*
X014020Y002231D01*
G37*
G36*
X013020Y002231D02*
X013103Y002148D01*
X013020Y002065D01*
X012937Y002148D01*
X013020Y002231D01*
G37*
G36*
X012020Y002231D02*
X012103Y002148D01*
X012020Y002065D01*
X011937Y002148D01*
X012020Y002231D01*
G37*
G36*
X011020Y002231D02*
X011103Y002148D01*
X011020Y002065D01*
X010937Y002148D01*
X011020Y002231D01*
G37*
M02*
