G75*
G70*
%OFA0B0*%
%FSLAX24Y24*%
%IPPOS*%
%LPD*%
%AMOC8*
5,1,8,0,0,1.08239X$1,22.5*
%
%ADD10C,0.0160*%
%ADD11R,0.0472X0.0472*%
%ADD12OC8,0.0560*%
%ADD13C,0.0120*%
%ADD14OC8,0.0277*%
D10*
X000187Y000189D02*
X000187Y019189D01*
X032937Y019189D01*
X032937Y000189D01*
X000187Y000189D01*
D11*
G36*
X000770Y001230D02*
X001103Y000897D01*
X000770Y000564D01*
X000437Y000897D01*
X000770Y001230D01*
G37*
G36*
X001354Y001815D02*
X001687Y001482D01*
X001354Y001149D01*
X001021Y001482D01*
X001354Y001815D01*
G37*
G36*
X001770Y002230D02*
X002103Y001897D01*
X001770Y001564D01*
X001437Y001897D01*
X001770Y002230D01*
G37*
G36*
X001354Y002815D02*
X001687Y002482D01*
X001354Y002149D01*
X001021Y002482D01*
X001354Y002815D01*
G37*
G36*
X001770Y003230D02*
X002103Y002897D01*
X001770Y002564D01*
X001437Y002897D01*
X001770Y003230D01*
G37*
G36*
X001354Y003815D02*
X001687Y003482D01*
X001354Y003149D01*
X001021Y003482D01*
X001354Y003815D01*
G37*
G36*
X001770Y004230D02*
X002103Y003897D01*
X001770Y003564D01*
X001437Y003897D01*
X001770Y004230D01*
G37*
G36*
X001354Y004815D02*
X001687Y004482D01*
X001354Y004149D01*
X001021Y004482D01*
X001354Y004815D01*
G37*
G36*
X001770Y005230D02*
X002103Y004897D01*
X001770Y004564D01*
X001437Y004897D01*
X001770Y005230D01*
G37*
G36*
X001354Y005815D02*
X001687Y005482D01*
X001354Y005149D01*
X001021Y005482D01*
X001354Y005815D01*
G37*
G36*
X001770Y006230D02*
X002103Y005897D01*
X001770Y005564D01*
X001437Y005897D01*
X001770Y006230D01*
G37*
G36*
X001354Y006815D02*
X001687Y006482D01*
X001354Y006149D01*
X001021Y006482D01*
X001354Y006815D01*
G37*
G36*
X001770Y007230D02*
X002103Y006897D01*
X001770Y006564D01*
X001437Y006897D01*
X001770Y007230D01*
G37*
G36*
X001354Y007815D02*
X001687Y007482D01*
X001354Y007149D01*
X001021Y007482D01*
X001354Y007815D01*
G37*
G36*
X001770Y008230D02*
X002103Y007897D01*
X001770Y007564D01*
X001437Y007897D01*
X001770Y008230D01*
G37*
G36*
X001354Y008815D02*
X001687Y008482D01*
X001354Y008149D01*
X001021Y008482D01*
X001354Y008815D01*
G37*
G36*
X001770Y009230D02*
X002103Y008897D01*
X001770Y008564D01*
X001437Y008897D01*
X001770Y009230D01*
G37*
G36*
X001354Y009815D02*
X001687Y009482D01*
X001354Y009149D01*
X001021Y009482D01*
X001354Y009815D01*
G37*
G36*
X001770Y010230D02*
X002103Y009897D01*
X001770Y009564D01*
X001437Y009897D01*
X001770Y010230D01*
G37*
G36*
X001354Y010815D02*
X001687Y010482D01*
X001354Y010149D01*
X001021Y010482D01*
X001354Y010815D01*
G37*
G36*
X001770Y011230D02*
X002103Y010897D01*
X001770Y010564D01*
X001437Y010897D01*
X001770Y011230D01*
G37*
G36*
X001354Y011815D02*
X001687Y011482D01*
X001354Y011149D01*
X001021Y011482D01*
X001354Y011815D01*
G37*
G36*
X001770Y012230D02*
X002103Y011897D01*
X001770Y011564D01*
X001437Y011897D01*
X001770Y012230D01*
G37*
G36*
X001354Y012815D02*
X001687Y012482D01*
X001354Y012149D01*
X001021Y012482D01*
X001354Y012815D01*
G37*
G36*
X001770Y013230D02*
X002103Y012897D01*
X001770Y012564D01*
X001437Y012897D01*
X001770Y013230D01*
G37*
G36*
X001354Y013815D02*
X001687Y013482D01*
X001354Y013149D01*
X001021Y013482D01*
X001354Y013815D01*
G37*
G36*
X001770Y014230D02*
X002103Y013897D01*
X001770Y013564D01*
X001437Y013897D01*
X001770Y014230D01*
G37*
G36*
X001354Y014815D02*
X001687Y014482D01*
X001354Y014149D01*
X001021Y014482D01*
X001354Y014815D01*
G37*
G36*
X001770Y015230D02*
X002103Y014897D01*
X001770Y014564D01*
X001437Y014897D01*
X001770Y015230D01*
G37*
G36*
X001354Y015815D02*
X001687Y015482D01*
X001354Y015149D01*
X001021Y015482D01*
X001354Y015815D01*
G37*
G36*
X001770Y016230D02*
X002103Y015897D01*
X001770Y015564D01*
X001437Y015897D01*
X001770Y016230D01*
G37*
G36*
X001354Y016815D02*
X001687Y016482D01*
X001354Y016149D01*
X001021Y016482D01*
X001354Y016815D01*
G37*
G36*
X002354Y016815D02*
X002687Y016482D01*
X002354Y016149D01*
X002021Y016482D01*
X002354Y016815D01*
G37*
G36*
X003354Y016815D02*
X003687Y016482D01*
X003354Y016149D01*
X003021Y016482D01*
X003354Y016815D01*
G37*
G36*
X004354Y016815D02*
X004687Y016482D01*
X004354Y016149D01*
X004021Y016482D01*
X004354Y016815D01*
G37*
G36*
X005354Y016815D02*
X005687Y016482D01*
X005354Y016149D01*
X005021Y016482D01*
X005354Y016815D01*
G37*
G36*
X006354Y016815D02*
X006687Y016482D01*
X006354Y016149D01*
X006021Y016482D01*
X006354Y016815D01*
G37*
G36*
X007354Y016815D02*
X007687Y016482D01*
X007354Y016149D01*
X007021Y016482D01*
X007354Y016815D01*
G37*
G36*
X008354Y016815D02*
X008687Y016482D01*
X008354Y016149D01*
X008021Y016482D01*
X008354Y016815D01*
G37*
G36*
X009354Y016815D02*
X009687Y016482D01*
X009354Y016149D01*
X009021Y016482D01*
X009354Y016815D01*
G37*
G36*
X010354Y016815D02*
X010687Y016482D01*
X010354Y016149D01*
X010021Y016482D01*
X010354Y016815D01*
G37*
G36*
X011354Y016815D02*
X011687Y016482D01*
X011354Y016149D01*
X011021Y016482D01*
X011354Y016815D01*
G37*
G36*
X012354Y016815D02*
X012687Y016482D01*
X012354Y016149D01*
X012021Y016482D01*
X012354Y016815D01*
G37*
G36*
X013354Y016815D02*
X013687Y016482D01*
X013354Y016149D01*
X013021Y016482D01*
X013354Y016815D01*
G37*
G36*
X014354Y016815D02*
X014687Y016482D01*
X014354Y016149D01*
X014021Y016482D01*
X014354Y016815D01*
G37*
G36*
X015354Y016815D02*
X015687Y016482D01*
X015354Y016149D01*
X015021Y016482D01*
X015354Y016815D01*
G37*
G36*
X016354Y016815D02*
X016687Y016482D01*
X016354Y016149D01*
X016021Y016482D01*
X016354Y016815D01*
G37*
G36*
X017354Y016815D02*
X017687Y016482D01*
X017354Y016149D01*
X017021Y016482D01*
X017354Y016815D01*
G37*
G36*
X018354Y016815D02*
X018687Y016482D01*
X018354Y016149D01*
X018021Y016482D01*
X018354Y016815D01*
G37*
G36*
X019354Y016815D02*
X019687Y016482D01*
X019354Y016149D01*
X019021Y016482D01*
X019354Y016815D01*
G37*
G36*
X020354Y016815D02*
X020687Y016482D01*
X020354Y016149D01*
X020021Y016482D01*
X020354Y016815D01*
G37*
G36*
X021354Y016815D02*
X021687Y016482D01*
X021354Y016149D01*
X021021Y016482D01*
X021354Y016815D01*
G37*
G36*
X022354Y016815D02*
X022687Y016482D01*
X022354Y016149D01*
X022021Y016482D01*
X022354Y016815D01*
G37*
G36*
X023354Y016815D02*
X023687Y016482D01*
X023354Y016149D01*
X023021Y016482D01*
X023354Y016815D01*
G37*
G36*
X024354Y016815D02*
X024687Y016482D01*
X024354Y016149D01*
X024021Y016482D01*
X024354Y016815D01*
G37*
G36*
X025354Y016815D02*
X025687Y016482D01*
X025354Y016149D01*
X025021Y016482D01*
X025354Y016815D01*
G37*
G36*
X026354Y016815D02*
X026687Y016482D01*
X026354Y016149D01*
X026021Y016482D01*
X026354Y016815D01*
G37*
G36*
X027354Y016815D02*
X027687Y016482D01*
X027354Y016149D01*
X027021Y016482D01*
X027354Y016815D01*
G37*
G36*
X028354Y016815D02*
X028687Y016482D01*
X028354Y016149D01*
X028021Y016482D01*
X028354Y016815D01*
G37*
G36*
X029354Y016815D02*
X029687Y016482D01*
X029354Y016149D01*
X029021Y016482D01*
X029354Y016815D01*
G37*
G36*
X030354Y016815D02*
X030687Y016482D01*
X030354Y016149D01*
X030021Y016482D01*
X030354Y016815D01*
G37*
G36*
X031354Y016815D02*
X031687Y016482D01*
X031354Y016149D01*
X031021Y016482D01*
X031354Y016815D01*
G37*
G36*
X032354Y016815D02*
X032687Y016482D01*
X032354Y016149D01*
X032021Y016482D01*
X032354Y016815D01*
G37*
G36*
X031770Y016230D02*
X032103Y015897D01*
X031770Y015564D01*
X031437Y015897D01*
X031770Y016230D01*
G37*
G36*
X030770Y016230D02*
X031103Y015897D01*
X030770Y015564D01*
X030437Y015897D01*
X030770Y016230D01*
G37*
G36*
X029770Y016230D02*
X030103Y015897D01*
X029770Y015564D01*
X029437Y015897D01*
X029770Y016230D01*
G37*
G36*
X028770Y016230D02*
X029103Y015897D01*
X028770Y015564D01*
X028437Y015897D01*
X028770Y016230D01*
G37*
G36*
X027770Y016230D02*
X028103Y015897D01*
X027770Y015564D01*
X027437Y015897D01*
X027770Y016230D01*
G37*
G36*
X026770Y016230D02*
X027103Y015897D01*
X026770Y015564D01*
X026437Y015897D01*
X026770Y016230D01*
G37*
G36*
X025770Y016230D02*
X026103Y015897D01*
X025770Y015564D01*
X025437Y015897D01*
X025770Y016230D01*
G37*
G36*
X024770Y016230D02*
X025103Y015897D01*
X024770Y015564D01*
X024437Y015897D01*
X024770Y016230D01*
G37*
G36*
X023770Y016230D02*
X024103Y015897D01*
X023770Y015564D01*
X023437Y015897D01*
X023770Y016230D01*
G37*
G36*
X022770Y016230D02*
X023103Y015897D01*
X022770Y015564D01*
X022437Y015897D01*
X022770Y016230D01*
G37*
G36*
X021770Y016230D02*
X022103Y015897D01*
X021770Y015564D01*
X021437Y015897D01*
X021770Y016230D01*
G37*
G36*
X020770Y016230D02*
X021103Y015897D01*
X020770Y015564D01*
X020437Y015897D01*
X020770Y016230D01*
G37*
G36*
X019770Y016230D02*
X020103Y015897D01*
X019770Y015564D01*
X019437Y015897D01*
X019770Y016230D01*
G37*
G36*
X018770Y016230D02*
X019103Y015897D01*
X018770Y015564D01*
X018437Y015897D01*
X018770Y016230D01*
G37*
G36*
X017770Y016230D02*
X018103Y015897D01*
X017770Y015564D01*
X017437Y015897D01*
X017770Y016230D01*
G37*
G36*
X016770Y016230D02*
X017103Y015897D01*
X016770Y015564D01*
X016437Y015897D01*
X016770Y016230D01*
G37*
G36*
X015770Y016230D02*
X016103Y015897D01*
X015770Y015564D01*
X015437Y015897D01*
X015770Y016230D01*
G37*
G36*
X014770Y016230D02*
X015103Y015897D01*
X014770Y015564D01*
X014437Y015897D01*
X014770Y016230D01*
G37*
G36*
X013770Y016230D02*
X014103Y015897D01*
X013770Y015564D01*
X013437Y015897D01*
X013770Y016230D01*
G37*
G36*
X012770Y016230D02*
X013103Y015897D01*
X012770Y015564D01*
X012437Y015897D01*
X012770Y016230D01*
G37*
G36*
X011770Y016230D02*
X012103Y015897D01*
X011770Y015564D01*
X011437Y015897D01*
X011770Y016230D01*
G37*
G36*
X010770Y016230D02*
X011103Y015897D01*
X010770Y015564D01*
X010437Y015897D01*
X010770Y016230D01*
G37*
G36*
X009770Y016230D02*
X010103Y015897D01*
X009770Y015564D01*
X009437Y015897D01*
X009770Y016230D01*
G37*
G36*
X008770Y016230D02*
X009103Y015897D01*
X008770Y015564D01*
X008437Y015897D01*
X008770Y016230D01*
G37*
G36*
X007770Y016230D02*
X008103Y015897D01*
X007770Y015564D01*
X007437Y015897D01*
X007770Y016230D01*
G37*
G36*
X006770Y016230D02*
X007103Y015897D01*
X006770Y015564D01*
X006437Y015897D01*
X006770Y016230D01*
G37*
G36*
X005770Y016230D02*
X006103Y015897D01*
X005770Y015564D01*
X005437Y015897D01*
X005770Y016230D01*
G37*
G36*
X004770Y016230D02*
X005103Y015897D01*
X004770Y015564D01*
X004437Y015897D01*
X004770Y016230D01*
G37*
G36*
X003770Y016230D02*
X004103Y015897D01*
X003770Y015564D01*
X003437Y015897D01*
X003770Y016230D01*
G37*
G36*
X002770Y016230D02*
X003103Y015897D01*
X002770Y015564D01*
X002437Y015897D01*
X002770Y016230D01*
G37*
G36*
X002354Y015815D02*
X002687Y015482D01*
X002354Y015149D01*
X002021Y015482D01*
X002354Y015815D01*
G37*
G36*
X003354Y015815D02*
X003687Y015482D01*
X003354Y015149D01*
X003021Y015482D01*
X003354Y015815D01*
G37*
G36*
X004354Y015815D02*
X004687Y015482D01*
X004354Y015149D01*
X004021Y015482D01*
X004354Y015815D01*
G37*
G36*
X005354Y015815D02*
X005687Y015482D01*
X005354Y015149D01*
X005021Y015482D01*
X005354Y015815D01*
G37*
G36*
X006354Y015815D02*
X006687Y015482D01*
X006354Y015149D01*
X006021Y015482D01*
X006354Y015815D01*
G37*
G36*
X007354Y015815D02*
X007687Y015482D01*
X007354Y015149D01*
X007021Y015482D01*
X007354Y015815D01*
G37*
G36*
X008354Y015815D02*
X008687Y015482D01*
X008354Y015149D01*
X008021Y015482D01*
X008354Y015815D01*
G37*
G36*
X009354Y015815D02*
X009687Y015482D01*
X009354Y015149D01*
X009021Y015482D01*
X009354Y015815D01*
G37*
G36*
X010354Y015815D02*
X010687Y015482D01*
X010354Y015149D01*
X010021Y015482D01*
X010354Y015815D01*
G37*
G36*
X011354Y015815D02*
X011687Y015482D01*
X011354Y015149D01*
X011021Y015482D01*
X011354Y015815D01*
G37*
G36*
X012354Y015815D02*
X012687Y015482D01*
X012354Y015149D01*
X012021Y015482D01*
X012354Y015815D01*
G37*
G36*
X013354Y015815D02*
X013687Y015482D01*
X013354Y015149D01*
X013021Y015482D01*
X013354Y015815D01*
G37*
G36*
X014354Y015815D02*
X014687Y015482D01*
X014354Y015149D01*
X014021Y015482D01*
X014354Y015815D01*
G37*
G36*
X015354Y015815D02*
X015687Y015482D01*
X015354Y015149D01*
X015021Y015482D01*
X015354Y015815D01*
G37*
G36*
X016354Y015815D02*
X016687Y015482D01*
X016354Y015149D01*
X016021Y015482D01*
X016354Y015815D01*
G37*
G36*
X017354Y015815D02*
X017687Y015482D01*
X017354Y015149D01*
X017021Y015482D01*
X017354Y015815D01*
G37*
G36*
X018354Y015815D02*
X018687Y015482D01*
X018354Y015149D01*
X018021Y015482D01*
X018354Y015815D01*
G37*
G36*
X019354Y015815D02*
X019687Y015482D01*
X019354Y015149D01*
X019021Y015482D01*
X019354Y015815D01*
G37*
G36*
X020354Y015815D02*
X020687Y015482D01*
X020354Y015149D01*
X020021Y015482D01*
X020354Y015815D01*
G37*
G36*
X021354Y015815D02*
X021687Y015482D01*
X021354Y015149D01*
X021021Y015482D01*
X021354Y015815D01*
G37*
G36*
X022354Y015815D02*
X022687Y015482D01*
X022354Y015149D01*
X022021Y015482D01*
X022354Y015815D01*
G37*
G36*
X023354Y015815D02*
X023687Y015482D01*
X023354Y015149D01*
X023021Y015482D01*
X023354Y015815D01*
G37*
G36*
X024354Y015815D02*
X024687Y015482D01*
X024354Y015149D01*
X024021Y015482D01*
X024354Y015815D01*
G37*
G36*
X025354Y015815D02*
X025687Y015482D01*
X025354Y015149D01*
X025021Y015482D01*
X025354Y015815D01*
G37*
G36*
X026354Y015815D02*
X026687Y015482D01*
X026354Y015149D01*
X026021Y015482D01*
X026354Y015815D01*
G37*
G36*
X027354Y015815D02*
X027687Y015482D01*
X027354Y015149D01*
X027021Y015482D01*
X027354Y015815D01*
G37*
G36*
X028354Y015815D02*
X028687Y015482D01*
X028354Y015149D01*
X028021Y015482D01*
X028354Y015815D01*
G37*
G36*
X029354Y015815D02*
X029687Y015482D01*
X029354Y015149D01*
X029021Y015482D01*
X029354Y015815D01*
G37*
G36*
X030354Y015815D02*
X030687Y015482D01*
X030354Y015149D01*
X030021Y015482D01*
X030354Y015815D01*
G37*
G36*
X031354Y015815D02*
X031687Y015482D01*
X031354Y015149D01*
X031021Y015482D01*
X031354Y015815D01*
G37*
G36*
X032354Y015815D02*
X032687Y015482D01*
X032354Y015149D01*
X032021Y015482D01*
X032354Y015815D01*
G37*
G36*
X031770Y015230D02*
X032103Y014897D01*
X031770Y014564D01*
X031437Y014897D01*
X031770Y015230D01*
G37*
G36*
X030770Y015230D02*
X031103Y014897D01*
X030770Y014564D01*
X030437Y014897D01*
X030770Y015230D01*
G37*
G36*
X029770Y015230D02*
X030103Y014897D01*
X029770Y014564D01*
X029437Y014897D01*
X029770Y015230D01*
G37*
G36*
X028770Y015230D02*
X029103Y014897D01*
X028770Y014564D01*
X028437Y014897D01*
X028770Y015230D01*
G37*
G36*
X027770Y015230D02*
X028103Y014897D01*
X027770Y014564D01*
X027437Y014897D01*
X027770Y015230D01*
G37*
G36*
X026770Y015230D02*
X027103Y014897D01*
X026770Y014564D01*
X026437Y014897D01*
X026770Y015230D01*
G37*
G36*
X025770Y015230D02*
X026103Y014897D01*
X025770Y014564D01*
X025437Y014897D01*
X025770Y015230D01*
G37*
G36*
X024770Y015230D02*
X025103Y014897D01*
X024770Y014564D01*
X024437Y014897D01*
X024770Y015230D01*
G37*
G36*
X023770Y015230D02*
X024103Y014897D01*
X023770Y014564D01*
X023437Y014897D01*
X023770Y015230D01*
G37*
G36*
X022770Y015230D02*
X023103Y014897D01*
X022770Y014564D01*
X022437Y014897D01*
X022770Y015230D01*
G37*
G36*
X021770Y015230D02*
X022103Y014897D01*
X021770Y014564D01*
X021437Y014897D01*
X021770Y015230D01*
G37*
G36*
X020770Y015230D02*
X021103Y014897D01*
X020770Y014564D01*
X020437Y014897D01*
X020770Y015230D01*
G37*
G36*
X019770Y015230D02*
X020103Y014897D01*
X019770Y014564D01*
X019437Y014897D01*
X019770Y015230D01*
G37*
G36*
X018770Y015230D02*
X019103Y014897D01*
X018770Y014564D01*
X018437Y014897D01*
X018770Y015230D01*
G37*
G36*
X017770Y015230D02*
X018103Y014897D01*
X017770Y014564D01*
X017437Y014897D01*
X017770Y015230D01*
G37*
G36*
X016770Y015230D02*
X017103Y014897D01*
X016770Y014564D01*
X016437Y014897D01*
X016770Y015230D01*
G37*
G36*
X015770Y015230D02*
X016103Y014897D01*
X015770Y014564D01*
X015437Y014897D01*
X015770Y015230D01*
G37*
G36*
X014770Y015230D02*
X015103Y014897D01*
X014770Y014564D01*
X014437Y014897D01*
X014770Y015230D01*
G37*
G36*
X013770Y015230D02*
X014103Y014897D01*
X013770Y014564D01*
X013437Y014897D01*
X013770Y015230D01*
G37*
G36*
X012770Y015230D02*
X013103Y014897D01*
X012770Y014564D01*
X012437Y014897D01*
X012770Y015230D01*
G37*
G36*
X011770Y015230D02*
X012103Y014897D01*
X011770Y014564D01*
X011437Y014897D01*
X011770Y015230D01*
G37*
G36*
X010770Y015230D02*
X011103Y014897D01*
X010770Y014564D01*
X010437Y014897D01*
X010770Y015230D01*
G37*
G36*
X009770Y015230D02*
X010103Y014897D01*
X009770Y014564D01*
X009437Y014897D01*
X009770Y015230D01*
G37*
G36*
X008770Y015230D02*
X009103Y014897D01*
X008770Y014564D01*
X008437Y014897D01*
X008770Y015230D01*
G37*
G36*
X007770Y015230D02*
X008103Y014897D01*
X007770Y014564D01*
X007437Y014897D01*
X007770Y015230D01*
G37*
G36*
X006770Y015230D02*
X007103Y014897D01*
X006770Y014564D01*
X006437Y014897D01*
X006770Y015230D01*
G37*
G36*
X005770Y015230D02*
X006103Y014897D01*
X005770Y014564D01*
X005437Y014897D01*
X005770Y015230D01*
G37*
G36*
X004770Y015230D02*
X005103Y014897D01*
X004770Y014564D01*
X004437Y014897D01*
X004770Y015230D01*
G37*
G36*
X003770Y015230D02*
X004103Y014897D01*
X003770Y014564D01*
X003437Y014897D01*
X003770Y015230D01*
G37*
G36*
X002770Y015230D02*
X003103Y014897D01*
X002770Y014564D01*
X002437Y014897D01*
X002770Y015230D01*
G37*
G36*
X002354Y014815D02*
X002687Y014482D01*
X002354Y014149D01*
X002021Y014482D01*
X002354Y014815D01*
G37*
G36*
X003354Y014815D02*
X003687Y014482D01*
X003354Y014149D01*
X003021Y014482D01*
X003354Y014815D01*
G37*
G36*
X004354Y014815D02*
X004687Y014482D01*
X004354Y014149D01*
X004021Y014482D01*
X004354Y014815D01*
G37*
G36*
X005354Y014815D02*
X005687Y014482D01*
X005354Y014149D01*
X005021Y014482D01*
X005354Y014815D01*
G37*
G36*
X006354Y014815D02*
X006687Y014482D01*
X006354Y014149D01*
X006021Y014482D01*
X006354Y014815D01*
G37*
G36*
X007354Y014815D02*
X007687Y014482D01*
X007354Y014149D01*
X007021Y014482D01*
X007354Y014815D01*
G37*
G36*
X008354Y014815D02*
X008687Y014482D01*
X008354Y014149D01*
X008021Y014482D01*
X008354Y014815D01*
G37*
G36*
X009354Y014815D02*
X009687Y014482D01*
X009354Y014149D01*
X009021Y014482D01*
X009354Y014815D01*
G37*
G36*
X010354Y014815D02*
X010687Y014482D01*
X010354Y014149D01*
X010021Y014482D01*
X010354Y014815D01*
G37*
G36*
X011354Y014815D02*
X011687Y014482D01*
X011354Y014149D01*
X011021Y014482D01*
X011354Y014815D01*
G37*
G36*
X012354Y014815D02*
X012687Y014482D01*
X012354Y014149D01*
X012021Y014482D01*
X012354Y014815D01*
G37*
G36*
X013354Y014815D02*
X013687Y014482D01*
X013354Y014149D01*
X013021Y014482D01*
X013354Y014815D01*
G37*
G36*
X014354Y014815D02*
X014687Y014482D01*
X014354Y014149D01*
X014021Y014482D01*
X014354Y014815D01*
G37*
G36*
X015354Y014815D02*
X015687Y014482D01*
X015354Y014149D01*
X015021Y014482D01*
X015354Y014815D01*
G37*
G36*
X016354Y014815D02*
X016687Y014482D01*
X016354Y014149D01*
X016021Y014482D01*
X016354Y014815D01*
G37*
G36*
X017354Y014815D02*
X017687Y014482D01*
X017354Y014149D01*
X017021Y014482D01*
X017354Y014815D01*
G37*
G36*
X018354Y014815D02*
X018687Y014482D01*
X018354Y014149D01*
X018021Y014482D01*
X018354Y014815D01*
G37*
G36*
X019354Y014815D02*
X019687Y014482D01*
X019354Y014149D01*
X019021Y014482D01*
X019354Y014815D01*
G37*
G36*
X020354Y014815D02*
X020687Y014482D01*
X020354Y014149D01*
X020021Y014482D01*
X020354Y014815D01*
G37*
G36*
X021354Y014815D02*
X021687Y014482D01*
X021354Y014149D01*
X021021Y014482D01*
X021354Y014815D01*
G37*
G36*
X022354Y014815D02*
X022687Y014482D01*
X022354Y014149D01*
X022021Y014482D01*
X022354Y014815D01*
G37*
G36*
X023354Y014815D02*
X023687Y014482D01*
X023354Y014149D01*
X023021Y014482D01*
X023354Y014815D01*
G37*
G36*
X024354Y014815D02*
X024687Y014482D01*
X024354Y014149D01*
X024021Y014482D01*
X024354Y014815D01*
G37*
G36*
X025354Y014815D02*
X025687Y014482D01*
X025354Y014149D01*
X025021Y014482D01*
X025354Y014815D01*
G37*
G36*
X026354Y014815D02*
X026687Y014482D01*
X026354Y014149D01*
X026021Y014482D01*
X026354Y014815D01*
G37*
G36*
X027354Y014815D02*
X027687Y014482D01*
X027354Y014149D01*
X027021Y014482D01*
X027354Y014815D01*
G37*
G36*
X028354Y014815D02*
X028687Y014482D01*
X028354Y014149D01*
X028021Y014482D01*
X028354Y014815D01*
G37*
G36*
X029354Y014815D02*
X029687Y014482D01*
X029354Y014149D01*
X029021Y014482D01*
X029354Y014815D01*
G37*
G36*
X030354Y014815D02*
X030687Y014482D01*
X030354Y014149D01*
X030021Y014482D01*
X030354Y014815D01*
G37*
G36*
X031354Y014815D02*
X031687Y014482D01*
X031354Y014149D01*
X031021Y014482D01*
X031354Y014815D01*
G37*
G36*
X032354Y014815D02*
X032687Y014482D01*
X032354Y014149D01*
X032021Y014482D01*
X032354Y014815D01*
G37*
G36*
X031770Y014230D02*
X032103Y013897D01*
X031770Y013564D01*
X031437Y013897D01*
X031770Y014230D01*
G37*
G36*
X030770Y014230D02*
X031103Y013897D01*
X030770Y013564D01*
X030437Y013897D01*
X030770Y014230D01*
G37*
G36*
X029770Y014230D02*
X030103Y013897D01*
X029770Y013564D01*
X029437Y013897D01*
X029770Y014230D01*
G37*
G36*
X028770Y014230D02*
X029103Y013897D01*
X028770Y013564D01*
X028437Y013897D01*
X028770Y014230D01*
G37*
G36*
X027770Y014230D02*
X028103Y013897D01*
X027770Y013564D01*
X027437Y013897D01*
X027770Y014230D01*
G37*
G36*
X026770Y014230D02*
X027103Y013897D01*
X026770Y013564D01*
X026437Y013897D01*
X026770Y014230D01*
G37*
G36*
X025770Y014230D02*
X026103Y013897D01*
X025770Y013564D01*
X025437Y013897D01*
X025770Y014230D01*
G37*
G36*
X024770Y014230D02*
X025103Y013897D01*
X024770Y013564D01*
X024437Y013897D01*
X024770Y014230D01*
G37*
G36*
X023770Y014230D02*
X024103Y013897D01*
X023770Y013564D01*
X023437Y013897D01*
X023770Y014230D01*
G37*
G36*
X022770Y014230D02*
X023103Y013897D01*
X022770Y013564D01*
X022437Y013897D01*
X022770Y014230D01*
G37*
G36*
X021770Y014230D02*
X022103Y013897D01*
X021770Y013564D01*
X021437Y013897D01*
X021770Y014230D01*
G37*
G36*
X020770Y014230D02*
X021103Y013897D01*
X020770Y013564D01*
X020437Y013897D01*
X020770Y014230D01*
G37*
G36*
X019770Y014230D02*
X020103Y013897D01*
X019770Y013564D01*
X019437Y013897D01*
X019770Y014230D01*
G37*
G36*
X018770Y014230D02*
X019103Y013897D01*
X018770Y013564D01*
X018437Y013897D01*
X018770Y014230D01*
G37*
G36*
X017770Y014230D02*
X018103Y013897D01*
X017770Y013564D01*
X017437Y013897D01*
X017770Y014230D01*
G37*
G36*
X016770Y014230D02*
X017103Y013897D01*
X016770Y013564D01*
X016437Y013897D01*
X016770Y014230D01*
G37*
G36*
X015770Y014230D02*
X016103Y013897D01*
X015770Y013564D01*
X015437Y013897D01*
X015770Y014230D01*
G37*
G36*
X014770Y014230D02*
X015103Y013897D01*
X014770Y013564D01*
X014437Y013897D01*
X014770Y014230D01*
G37*
G36*
X013770Y014230D02*
X014103Y013897D01*
X013770Y013564D01*
X013437Y013897D01*
X013770Y014230D01*
G37*
G36*
X012770Y014230D02*
X013103Y013897D01*
X012770Y013564D01*
X012437Y013897D01*
X012770Y014230D01*
G37*
G36*
X011770Y014230D02*
X012103Y013897D01*
X011770Y013564D01*
X011437Y013897D01*
X011770Y014230D01*
G37*
G36*
X010770Y014230D02*
X011103Y013897D01*
X010770Y013564D01*
X010437Y013897D01*
X010770Y014230D01*
G37*
G36*
X009770Y014230D02*
X010103Y013897D01*
X009770Y013564D01*
X009437Y013897D01*
X009770Y014230D01*
G37*
G36*
X008770Y014230D02*
X009103Y013897D01*
X008770Y013564D01*
X008437Y013897D01*
X008770Y014230D01*
G37*
G36*
X007770Y014230D02*
X008103Y013897D01*
X007770Y013564D01*
X007437Y013897D01*
X007770Y014230D01*
G37*
G36*
X006770Y014230D02*
X007103Y013897D01*
X006770Y013564D01*
X006437Y013897D01*
X006770Y014230D01*
G37*
G36*
X005770Y014230D02*
X006103Y013897D01*
X005770Y013564D01*
X005437Y013897D01*
X005770Y014230D01*
G37*
G36*
X004770Y014230D02*
X005103Y013897D01*
X004770Y013564D01*
X004437Y013897D01*
X004770Y014230D01*
G37*
G36*
X003770Y014230D02*
X004103Y013897D01*
X003770Y013564D01*
X003437Y013897D01*
X003770Y014230D01*
G37*
G36*
X002770Y014230D02*
X003103Y013897D01*
X002770Y013564D01*
X002437Y013897D01*
X002770Y014230D01*
G37*
G36*
X002354Y013815D02*
X002687Y013482D01*
X002354Y013149D01*
X002021Y013482D01*
X002354Y013815D01*
G37*
G36*
X003354Y013815D02*
X003687Y013482D01*
X003354Y013149D01*
X003021Y013482D01*
X003354Y013815D01*
G37*
G36*
X004354Y013815D02*
X004687Y013482D01*
X004354Y013149D01*
X004021Y013482D01*
X004354Y013815D01*
G37*
G36*
X005354Y013815D02*
X005687Y013482D01*
X005354Y013149D01*
X005021Y013482D01*
X005354Y013815D01*
G37*
G36*
X006354Y013815D02*
X006687Y013482D01*
X006354Y013149D01*
X006021Y013482D01*
X006354Y013815D01*
G37*
G36*
X007354Y013815D02*
X007687Y013482D01*
X007354Y013149D01*
X007021Y013482D01*
X007354Y013815D01*
G37*
G36*
X008354Y013815D02*
X008687Y013482D01*
X008354Y013149D01*
X008021Y013482D01*
X008354Y013815D01*
G37*
G36*
X009354Y013815D02*
X009687Y013482D01*
X009354Y013149D01*
X009021Y013482D01*
X009354Y013815D01*
G37*
G36*
X010354Y013815D02*
X010687Y013482D01*
X010354Y013149D01*
X010021Y013482D01*
X010354Y013815D01*
G37*
G36*
X011354Y013815D02*
X011687Y013482D01*
X011354Y013149D01*
X011021Y013482D01*
X011354Y013815D01*
G37*
G36*
X012354Y013815D02*
X012687Y013482D01*
X012354Y013149D01*
X012021Y013482D01*
X012354Y013815D01*
G37*
G36*
X013354Y013815D02*
X013687Y013482D01*
X013354Y013149D01*
X013021Y013482D01*
X013354Y013815D01*
G37*
G36*
X014354Y013815D02*
X014687Y013482D01*
X014354Y013149D01*
X014021Y013482D01*
X014354Y013815D01*
G37*
G36*
X015354Y013815D02*
X015687Y013482D01*
X015354Y013149D01*
X015021Y013482D01*
X015354Y013815D01*
G37*
G36*
X016354Y013815D02*
X016687Y013482D01*
X016354Y013149D01*
X016021Y013482D01*
X016354Y013815D01*
G37*
G36*
X017354Y013815D02*
X017687Y013482D01*
X017354Y013149D01*
X017021Y013482D01*
X017354Y013815D01*
G37*
G36*
X018354Y013815D02*
X018687Y013482D01*
X018354Y013149D01*
X018021Y013482D01*
X018354Y013815D01*
G37*
G36*
X019354Y013815D02*
X019687Y013482D01*
X019354Y013149D01*
X019021Y013482D01*
X019354Y013815D01*
G37*
G36*
X020354Y013815D02*
X020687Y013482D01*
X020354Y013149D01*
X020021Y013482D01*
X020354Y013815D01*
G37*
G36*
X021354Y013815D02*
X021687Y013482D01*
X021354Y013149D01*
X021021Y013482D01*
X021354Y013815D01*
G37*
G36*
X022354Y013815D02*
X022687Y013482D01*
X022354Y013149D01*
X022021Y013482D01*
X022354Y013815D01*
G37*
G36*
X023354Y013815D02*
X023687Y013482D01*
X023354Y013149D01*
X023021Y013482D01*
X023354Y013815D01*
G37*
G36*
X024354Y013815D02*
X024687Y013482D01*
X024354Y013149D01*
X024021Y013482D01*
X024354Y013815D01*
G37*
G36*
X025354Y013815D02*
X025687Y013482D01*
X025354Y013149D01*
X025021Y013482D01*
X025354Y013815D01*
G37*
G36*
X026354Y013815D02*
X026687Y013482D01*
X026354Y013149D01*
X026021Y013482D01*
X026354Y013815D01*
G37*
G36*
X027354Y013815D02*
X027687Y013482D01*
X027354Y013149D01*
X027021Y013482D01*
X027354Y013815D01*
G37*
G36*
X028354Y013815D02*
X028687Y013482D01*
X028354Y013149D01*
X028021Y013482D01*
X028354Y013815D01*
G37*
G36*
X029354Y013815D02*
X029687Y013482D01*
X029354Y013149D01*
X029021Y013482D01*
X029354Y013815D01*
G37*
G36*
X030354Y013815D02*
X030687Y013482D01*
X030354Y013149D01*
X030021Y013482D01*
X030354Y013815D01*
G37*
G36*
X031354Y013815D02*
X031687Y013482D01*
X031354Y013149D01*
X031021Y013482D01*
X031354Y013815D01*
G37*
G36*
X032354Y013815D02*
X032687Y013482D01*
X032354Y013149D01*
X032021Y013482D01*
X032354Y013815D01*
G37*
G36*
X031770Y013230D02*
X032103Y012897D01*
X031770Y012564D01*
X031437Y012897D01*
X031770Y013230D01*
G37*
G36*
X030770Y013230D02*
X031103Y012897D01*
X030770Y012564D01*
X030437Y012897D01*
X030770Y013230D01*
G37*
G36*
X029770Y013230D02*
X030103Y012897D01*
X029770Y012564D01*
X029437Y012897D01*
X029770Y013230D01*
G37*
G36*
X028770Y013230D02*
X029103Y012897D01*
X028770Y012564D01*
X028437Y012897D01*
X028770Y013230D01*
G37*
G36*
X027770Y013230D02*
X028103Y012897D01*
X027770Y012564D01*
X027437Y012897D01*
X027770Y013230D01*
G37*
G36*
X026770Y013230D02*
X027103Y012897D01*
X026770Y012564D01*
X026437Y012897D01*
X026770Y013230D01*
G37*
G36*
X025770Y013230D02*
X026103Y012897D01*
X025770Y012564D01*
X025437Y012897D01*
X025770Y013230D01*
G37*
G36*
X024770Y013230D02*
X025103Y012897D01*
X024770Y012564D01*
X024437Y012897D01*
X024770Y013230D01*
G37*
G36*
X023770Y013230D02*
X024103Y012897D01*
X023770Y012564D01*
X023437Y012897D01*
X023770Y013230D01*
G37*
G36*
X022770Y013230D02*
X023103Y012897D01*
X022770Y012564D01*
X022437Y012897D01*
X022770Y013230D01*
G37*
G36*
X021770Y013230D02*
X022103Y012897D01*
X021770Y012564D01*
X021437Y012897D01*
X021770Y013230D01*
G37*
G36*
X020770Y013230D02*
X021103Y012897D01*
X020770Y012564D01*
X020437Y012897D01*
X020770Y013230D01*
G37*
G36*
X019770Y013230D02*
X020103Y012897D01*
X019770Y012564D01*
X019437Y012897D01*
X019770Y013230D01*
G37*
G36*
X018770Y013230D02*
X019103Y012897D01*
X018770Y012564D01*
X018437Y012897D01*
X018770Y013230D01*
G37*
G36*
X017770Y013230D02*
X018103Y012897D01*
X017770Y012564D01*
X017437Y012897D01*
X017770Y013230D01*
G37*
G36*
X016770Y013230D02*
X017103Y012897D01*
X016770Y012564D01*
X016437Y012897D01*
X016770Y013230D01*
G37*
G36*
X015770Y013230D02*
X016103Y012897D01*
X015770Y012564D01*
X015437Y012897D01*
X015770Y013230D01*
G37*
G36*
X014770Y013230D02*
X015103Y012897D01*
X014770Y012564D01*
X014437Y012897D01*
X014770Y013230D01*
G37*
G36*
X013770Y013230D02*
X014103Y012897D01*
X013770Y012564D01*
X013437Y012897D01*
X013770Y013230D01*
G37*
G36*
X012770Y013230D02*
X013103Y012897D01*
X012770Y012564D01*
X012437Y012897D01*
X012770Y013230D01*
G37*
G36*
X011770Y013230D02*
X012103Y012897D01*
X011770Y012564D01*
X011437Y012897D01*
X011770Y013230D01*
G37*
G36*
X010770Y013230D02*
X011103Y012897D01*
X010770Y012564D01*
X010437Y012897D01*
X010770Y013230D01*
G37*
G36*
X009770Y013230D02*
X010103Y012897D01*
X009770Y012564D01*
X009437Y012897D01*
X009770Y013230D01*
G37*
G36*
X008770Y013230D02*
X009103Y012897D01*
X008770Y012564D01*
X008437Y012897D01*
X008770Y013230D01*
G37*
G36*
X007770Y013230D02*
X008103Y012897D01*
X007770Y012564D01*
X007437Y012897D01*
X007770Y013230D01*
G37*
G36*
X006770Y013230D02*
X007103Y012897D01*
X006770Y012564D01*
X006437Y012897D01*
X006770Y013230D01*
G37*
G36*
X005770Y013230D02*
X006103Y012897D01*
X005770Y012564D01*
X005437Y012897D01*
X005770Y013230D01*
G37*
G36*
X004770Y013230D02*
X005103Y012897D01*
X004770Y012564D01*
X004437Y012897D01*
X004770Y013230D01*
G37*
G36*
X003770Y013230D02*
X004103Y012897D01*
X003770Y012564D01*
X003437Y012897D01*
X003770Y013230D01*
G37*
G36*
X002770Y013230D02*
X003103Y012897D01*
X002770Y012564D01*
X002437Y012897D01*
X002770Y013230D01*
G37*
G36*
X002354Y012815D02*
X002687Y012482D01*
X002354Y012149D01*
X002021Y012482D01*
X002354Y012815D01*
G37*
G36*
X003354Y012815D02*
X003687Y012482D01*
X003354Y012149D01*
X003021Y012482D01*
X003354Y012815D01*
G37*
G36*
X004354Y012815D02*
X004687Y012482D01*
X004354Y012149D01*
X004021Y012482D01*
X004354Y012815D01*
G37*
G36*
X005354Y012815D02*
X005687Y012482D01*
X005354Y012149D01*
X005021Y012482D01*
X005354Y012815D01*
G37*
G36*
X006354Y012815D02*
X006687Y012482D01*
X006354Y012149D01*
X006021Y012482D01*
X006354Y012815D01*
G37*
G36*
X007354Y012815D02*
X007687Y012482D01*
X007354Y012149D01*
X007021Y012482D01*
X007354Y012815D01*
G37*
G36*
X008354Y012815D02*
X008687Y012482D01*
X008354Y012149D01*
X008021Y012482D01*
X008354Y012815D01*
G37*
G36*
X009354Y012815D02*
X009687Y012482D01*
X009354Y012149D01*
X009021Y012482D01*
X009354Y012815D01*
G37*
G36*
X010354Y012815D02*
X010687Y012482D01*
X010354Y012149D01*
X010021Y012482D01*
X010354Y012815D01*
G37*
G36*
X011354Y012815D02*
X011687Y012482D01*
X011354Y012149D01*
X011021Y012482D01*
X011354Y012815D01*
G37*
G36*
X012354Y012815D02*
X012687Y012482D01*
X012354Y012149D01*
X012021Y012482D01*
X012354Y012815D01*
G37*
G36*
X013354Y012815D02*
X013687Y012482D01*
X013354Y012149D01*
X013021Y012482D01*
X013354Y012815D01*
G37*
G36*
X014354Y012815D02*
X014687Y012482D01*
X014354Y012149D01*
X014021Y012482D01*
X014354Y012815D01*
G37*
G36*
X015354Y012815D02*
X015687Y012482D01*
X015354Y012149D01*
X015021Y012482D01*
X015354Y012815D01*
G37*
G36*
X016354Y012815D02*
X016687Y012482D01*
X016354Y012149D01*
X016021Y012482D01*
X016354Y012815D01*
G37*
G36*
X017354Y012815D02*
X017687Y012482D01*
X017354Y012149D01*
X017021Y012482D01*
X017354Y012815D01*
G37*
G36*
X018354Y012815D02*
X018687Y012482D01*
X018354Y012149D01*
X018021Y012482D01*
X018354Y012815D01*
G37*
G36*
X019354Y012815D02*
X019687Y012482D01*
X019354Y012149D01*
X019021Y012482D01*
X019354Y012815D01*
G37*
G36*
X020354Y012815D02*
X020687Y012482D01*
X020354Y012149D01*
X020021Y012482D01*
X020354Y012815D01*
G37*
G36*
X021354Y012815D02*
X021687Y012482D01*
X021354Y012149D01*
X021021Y012482D01*
X021354Y012815D01*
G37*
G36*
X022354Y012815D02*
X022687Y012482D01*
X022354Y012149D01*
X022021Y012482D01*
X022354Y012815D01*
G37*
G36*
X023354Y012815D02*
X023687Y012482D01*
X023354Y012149D01*
X023021Y012482D01*
X023354Y012815D01*
G37*
G36*
X024354Y012815D02*
X024687Y012482D01*
X024354Y012149D01*
X024021Y012482D01*
X024354Y012815D01*
G37*
G36*
X025354Y012815D02*
X025687Y012482D01*
X025354Y012149D01*
X025021Y012482D01*
X025354Y012815D01*
G37*
G36*
X026354Y012815D02*
X026687Y012482D01*
X026354Y012149D01*
X026021Y012482D01*
X026354Y012815D01*
G37*
G36*
X027354Y012815D02*
X027687Y012482D01*
X027354Y012149D01*
X027021Y012482D01*
X027354Y012815D01*
G37*
G36*
X028354Y012815D02*
X028687Y012482D01*
X028354Y012149D01*
X028021Y012482D01*
X028354Y012815D01*
G37*
G36*
X029354Y012815D02*
X029687Y012482D01*
X029354Y012149D01*
X029021Y012482D01*
X029354Y012815D01*
G37*
G36*
X030354Y012815D02*
X030687Y012482D01*
X030354Y012149D01*
X030021Y012482D01*
X030354Y012815D01*
G37*
G36*
X031354Y012815D02*
X031687Y012482D01*
X031354Y012149D01*
X031021Y012482D01*
X031354Y012815D01*
G37*
G36*
X032354Y012815D02*
X032687Y012482D01*
X032354Y012149D01*
X032021Y012482D01*
X032354Y012815D01*
G37*
G36*
X031770Y012230D02*
X032103Y011897D01*
X031770Y011564D01*
X031437Y011897D01*
X031770Y012230D01*
G37*
G36*
X030770Y012230D02*
X031103Y011897D01*
X030770Y011564D01*
X030437Y011897D01*
X030770Y012230D01*
G37*
G36*
X029770Y012230D02*
X030103Y011897D01*
X029770Y011564D01*
X029437Y011897D01*
X029770Y012230D01*
G37*
G36*
X028770Y012230D02*
X029103Y011897D01*
X028770Y011564D01*
X028437Y011897D01*
X028770Y012230D01*
G37*
G36*
X027770Y012230D02*
X028103Y011897D01*
X027770Y011564D01*
X027437Y011897D01*
X027770Y012230D01*
G37*
G36*
X026770Y012230D02*
X027103Y011897D01*
X026770Y011564D01*
X026437Y011897D01*
X026770Y012230D01*
G37*
G36*
X025770Y012230D02*
X026103Y011897D01*
X025770Y011564D01*
X025437Y011897D01*
X025770Y012230D01*
G37*
G36*
X024770Y012230D02*
X025103Y011897D01*
X024770Y011564D01*
X024437Y011897D01*
X024770Y012230D01*
G37*
G36*
X023770Y012230D02*
X024103Y011897D01*
X023770Y011564D01*
X023437Y011897D01*
X023770Y012230D01*
G37*
G36*
X022770Y012230D02*
X023103Y011897D01*
X022770Y011564D01*
X022437Y011897D01*
X022770Y012230D01*
G37*
G36*
X021770Y012230D02*
X022103Y011897D01*
X021770Y011564D01*
X021437Y011897D01*
X021770Y012230D01*
G37*
G36*
X020770Y012230D02*
X021103Y011897D01*
X020770Y011564D01*
X020437Y011897D01*
X020770Y012230D01*
G37*
G36*
X019770Y012230D02*
X020103Y011897D01*
X019770Y011564D01*
X019437Y011897D01*
X019770Y012230D01*
G37*
G36*
X018770Y012230D02*
X019103Y011897D01*
X018770Y011564D01*
X018437Y011897D01*
X018770Y012230D01*
G37*
G36*
X017770Y012230D02*
X018103Y011897D01*
X017770Y011564D01*
X017437Y011897D01*
X017770Y012230D01*
G37*
G36*
X016770Y012230D02*
X017103Y011897D01*
X016770Y011564D01*
X016437Y011897D01*
X016770Y012230D01*
G37*
G36*
X015770Y012230D02*
X016103Y011897D01*
X015770Y011564D01*
X015437Y011897D01*
X015770Y012230D01*
G37*
G36*
X014770Y012230D02*
X015103Y011897D01*
X014770Y011564D01*
X014437Y011897D01*
X014770Y012230D01*
G37*
G36*
X013770Y012230D02*
X014103Y011897D01*
X013770Y011564D01*
X013437Y011897D01*
X013770Y012230D01*
G37*
G36*
X012770Y012230D02*
X013103Y011897D01*
X012770Y011564D01*
X012437Y011897D01*
X012770Y012230D01*
G37*
G36*
X011770Y012230D02*
X012103Y011897D01*
X011770Y011564D01*
X011437Y011897D01*
X011770Y012230D01*
G37*
G36*
X010770Y012230D02*
X011103Y011897D01*
X010770Y011564D01*
X010437Y011897D01*
X010770Y012230D01*
G37*
G36*
X009770Y012230D02*
X010103Y011897D01*
X009770Y011564D01*
X009437Y011897D01*
X009770Y012230D01*
G37*
G36*
X008770Y012230D02*
X009103Y011897D01*
X008770Y011564D01*
X008437Y011897D01*
X008770Y012230D01*
G37*
G36*
X007770Y012230D02*
X008103Y011897D01*
X007770Y011564D01*
X007437Y011897D01*
X007770Y012230D01*
G37*
G36*
X006770Y012230D02*
X007103Y011897D01*
X006770Y011564D01*
X006437Y011897D01*
X006770Y012230D01*
G37*
G36*
X005770Y012230D02*
X006103Y011897D01*
X005770Y011564D01*
X005437Y011897D01*
X005770Y012230D01*
G37*
G36*
X004770Y012230D02*
X005103Y011897D01*
X004770Y011564D01*
X004437Y011897D01*
X004770Y012230D01*
G37*
G36*
X003770Y012230D02*
X004103Y011897D01*
X003770Y011564D01*
X003437Y011897D01*
X003770Y012230D01*
G37*
G36*
X002770Y012230D02*
X003103Y011897D01*
X002770Y011564D01*
X002437Y011897D01*
X002770Y012230D01*
G37*
G36*
X002354Y011815D02*
X002687Y011482D01*
X002354Y011149D01*
X002021Y011482D01*
X002354Y011815D01*
G37*
G36*
X003354Y011815D02*
X003687Y011482D01*
X003354Y011149D01*
X003021Y011482D01*
X003354Y011815D01*
G37*
G36*
X004354Y011815D02*
X004687Y011482D01*
X004354Y011149D01*
X004021Y011482D01*
X004354Y011815D01*
G37*
G36*
X005354Y011815D02*
X005687Y011482D01*
X005354Y011149D01*
X005021Y011482D01*
X005354Y011815D01*
G37*
G36*
X006354Y011815D02*
X006687Y011482D01*
X006354Y011149D01*
X006021Y011482D01*
X006354Y011815D01*
G37*
G36*
X007354Y011815D02*
X007687Y011482D01*
X007354Y011149D01*
X007021Y011482D01*
X007354Y011815D01*
G37*
G36*
X008354Y011815D02*
X008687Y011482D01*
X008354Y011149D01*
X008021Y011482D01*
X008354Y011815D01*
G37*
G36*
X009354Y011815D02*
X009687Y011482D01*
X009354Y011149D01*
X009021Y011482D01*
X009354Y011815D01*
G37*
G36*
X010354Y011815D02*
X010687Y011482D01*
X010354Y011149D01*
X010021Y011482D01*
X010354Y011815D01*
G37*
G36*
X011354Y011815D02*
X011687Y011482D01*
X011354Y011149D01*
X011021Y011482D01*
X011354Y011815D01*
G37*
G36*
X012354Y011815D02*
X012687Y011482D01*
X012354Y011149D01*
X012021Y011482D01*
X012354Y011815D01*
G37*
G36*
X013354Y011815D02*
X013687Y011482D01*
X013354Y011149D01*
X013021Y011482D01*
X013354Y011815D01*
G37*
G36*
X014354Y011815D02*
X014687Y011482D01*
X014354Y011149D01*
X014021Y011482D01*
X014354Y011815D01*
G37*
G36*
X015354Y011815D02*
X015687Y011482D01*
X015354Y011149D01*
X015021Y011482D01*
X015354Y011815D01*
G37*
G36*
X016354Y011815D02*
X016687Y011482D01*
X016354Y011149D01*
X016021Y011482D01*
X016354Y011815D01*
G37*
G36*
X017354Y011815D02*
X017687Y011482D01*
X017354Y011149D01*
X017021Y011482D01*
X017354Y011815D01*
G37*
G36*
X018354Y011815D02*
X018687Y011482D01*
X018354Y011149D01*
X018021Y011482D01*
X018354Y011815D01*
G37*
G36*
X019354Y011815D02*
X019687Y011482D01*
X019354Y011149D01*
X019021Y011482D01*
X019354Y011815D01*
G37*
G36*
X020354Y011815D02*
X020687Y011482D01*
X020354Y011149D01*
X020021Y011482D01*
X020354Y011815D01*
G37*
G36*
X021354Y011815D02*
X021687Y011482D01*
X021354Y011149D01*
X021021Y011482D01*
X021354Y011815D01*
G37*
G36*
X022354Y011815D02*
X022687Y011482D01*
X022354Y011149D01*
X022021Y011482D01*
X022354Y011815D01*
G37*
G36*
X023354Y011815D02*
X023687Y011482D01*
X023354Y011149D01*
X023021Y011482D01*
X023354Y011815D01*
G37*
G36*
X024354Y011815D02*
X024687Y011482D01*
X024354Y011149D01*
X024021Y011482D01*
X024354Y011815D01*
G37*
G36*
X025354Y011815D02*
X025687Y011482D01*
X025354Y011149D01*
X025021Y011482D01*
X025354Y011815D01*
G37*
G36*
X026354Y011815D02*
X026687Y011482D01*
X026354Y011149D01*
X026021Y011482D01*
X026354Y011815D01*
G37*
G36*
X027354Y011815D02*
X027687Y011482D01*
X027354Y011149D01*
X027021Y011482D01*
X027354Y011815D01*
G37*
G36*
X028354Y011815D02*
X028687Y011482D01*
X028354Y011149D01*
X028021Y011482D01*
X028354Y011815D01*
G37*
G36*
X029354Y011815D02*
X029687Y011482D01*
X029354Y011149D01*
X029021Y011482D01*
X029354Y011815D01*
G37*
G36*
X030354Y011815D02*
X030687Y011482D01*
X030354Y011149D01*
X030021Y011482D01*
X030354Y011815D01*
G37*
G36*
X031354Y011815D02*
X031687Y011482D01*
X031354Y011149D01*
X031021Y011482D01*
X031354Y011815D01*
G37*
G36*
X032354Y011815D02*
X032687Y011482D01*
X032354Y011149D01*
X032021Y011482D01*
X032354Y011815D01*
G37*
G36*
X031770Y011230D02*
X032103Y010897D01*
X031770Y010564D01*
X031437Y010897D01*
X031770Y011230D01*
G37*
G36*
X031354Y010815D02*
X031687Y010482D01*
X031354Y010149D01*
X031021Y010482D01*
X031354Y010815D01*
G37*
G36*
X030770Y011230D02*
X031103Y010897D01*
X030770Y010564D01*
X030437Y010897D01*
X030770Y011230D01*
G37*
G36*
X030354Y010815D02*
X030687Y010482D01*
X030354Y010149D01*
X030021Y010482D01*
X030354Y010815D01*
G37*
G36*
X029770Y011230D02*
X030103Y010897D01*
X029770Y010564D01*
X029437Y010897D01*
X029770Y011230D01*
G37*
G36*
X029354Y010815D02*
X029687Y010482D01*
X029354Y010149D01*
X029021Y010482D01*
X029354Y010815D01*
G37*
G36*
X028770Y011230D02*
X029103Y010897D01*
X028770Y010564D01*
X028437Y010897D01*
X028770Y011230D01*
G37*
G36*
X028354Y010815D02*
X028687Y010482D01*
X028354Y010149D01*
X028021Y010482D01*
X028354Y010815D01*
G37*
G36*
X027770Y011230D02*
X028103Y010897D01*
X027770Y010564D01*
X027437Y010897D01*
X027770Y011230D01*
G37*
G36*
X027354Y010815D02*
X027687Y010482D01*
X027354Y010149D01*
X027021Y010482D01*
X027354Y010815D01*
G37*
G36*
X026770Y011230D02*
X027103Y010897D01*
X026770Y010564D01*
X026437Y010897D01*
X026770Y011230D01*
G37*
G36*
X026354Y010815D02*
X026687Y010482D01*
X026354Y010149D01*
X026021Y010482D01*
X026354Y010815D01*
G37*
G36*
X025770Y011230D02*
X026103Y010897D01*
X025770Y010564D01*
X025437Y010897D01*
X025770Y011230D01*
G37*
G36*
X025354Y010815D02*
X025687Y010482D01*
X025354Y010149D01*
X025021Y010482D01*
X025354Y010815D01*
G37*
G36*
X024770Y011230D02*
X025103Y010897D01*
X024770Y010564D01*
X024437Y010897D01*
X024770Y011230D01*
G37*
G36*
X024354Y010815D02*
X024687Y010482D01*
X024354Y010149D01*
X024021Y010482D01*
X024354Y010815D01*
G37*
G36*
X023770Y011230D02*
X024103Y010897D01*
X023770Y010564D01*
X023437Y010897D01*
X023770Y011230D01*
G37*
G36*
X023354Y010815D02*
X023687Y010482D01*
X023354Y010149D01*
X023021Y010482D01*
X023354Y010815D01*
G37*
G36*
X022770Y011230D02*
X023103Y010897D01*
X022770Y010564D01*
X022437Y010897D01*
X022770Y011230D01*
G37*
G36*
X022354Y010815D02*
X022687Y010482D01*
X022354Y010149D01*
X022021Y010482D01*
X022354Y010815D01*
G37*
G36*
X021770Y011230D02*
X022103Y010897D01*
X021770Y010564D01*
X021437Y010897D01*
X021770Y011230D01*
G37*
G36*
X021354Y010815D02*
X021687Y010482D01*
X021354Y010149D01*
X021021Y010482D01*
X021354Y010815D01*
G37*
G36*
X020770Y011230D02*
X021103Y010897D01*
X020770Y010564D01*
X020437Y010897D01*
X020770Y011230D01*
G37*
G36*
X020354Y010815D02*
X020687Y010482D01*
X020354Y010149D01*
X020021Y010482D01*
X020354Y010815D01*
G37*
G36*
X019770Y011230D02*
X020103Y010897D01*
X019770Y010564D01*
X019437Y010897D01*
X019770Y011230D01*
G37*
G36*
X019354Y010815D02*
X019687Y010482D01*
X019354Y010149D01*
X019021Y010482D01*
X019354Y010815D01*
G37*
G36*
X018770Y011230D02*
X019103Y010897D01*
X018770Y010564D01*
X018437Y010897D01*
X018770Y011230D01*
G37*
G36*
X018354Y010815D02*
X018687Y010482D01*
X018354Y010149D01*
X018021Y010482D01*
X018354Y010815D01*
G37*
G36*
X017770Y011230D02*
X018103Y010897D01*
X017770Y010564D01*
X017437Y010897D01*
X017770Y011230D01*
G37*
G36*
X017354Y010815D02*
X017687Y010482D01*
X017354Y010149D01*
X017021Y010482D01*
X017354Y010815D01*
G37*
G36*
X016770Y011230D02*
X017103Y010897D01*
X016770Y010564D01*
X016437Y010897D01*
X016770Y011230D01*
G37*
G36*
X016354Y010815D02*
X016687Y010482D01*
X016354Y010149D01*
X016021Y010482D01*
X016354Y010815D01*
G37*
G36*
X015770Y011230D02*
X016103Y010897D01*
X015770Y010564D01*
X015437Y010897D01*
X015770Y011230D01*
G37*
G36*
X015354Y010815D02*
X015687Y010482D01*
X015354Y010149D01*
X015021Y010482D01*
X015354Y010815D01*
G37*
G36*
X014770Y011230D02*
X015103Y010897D01*
X014770Y010564D01*
X014437Y010897D01*
X014770Y011230D01*
G37*
G36*
X014354Y010815D02*
X014687Y010482D01*
X014354Y010149D01*
X014021Y010482D01*
X014354Y010815D01*
G37*
G36*
X013770Y011230D02*
X014103Y010897D01*
X013770Y010564D01*
X013437Y010897D01*
X013770Y011230D01*
G37*
G36*
X013354Y010815D02*
X013687Y010482D01*
X013354Y010149D01*
X013021Y010482D01*
X013354Y010815D01*
G37*
G36*
X012770Y011230D02*
X013103Y010897D01*
X012770Y010564D01*
X012437Y010897D01*
X012770Y011230D01*
G37*
G36*
X012354Y010815D02*
X012687Y010482D01*
X012354Y010149D01*
X012021Y010482D01*
X012354Y010815D01*
G37*
G36*
X011770Y011230D02*
X012103Y010897D01*
X011770Y010564D01*
X011437Y010897D01*
X011770Y011230D01*
G37*
G36*
X011354Y010815D02*
X011687Y010482D01*
X011354Y010149D01*
X011021Y010482D01*
X011354Y010815D01*
G37*
G36*
X010770Y011230D02*
X011103Y010897D01*
X010770Y010564D01*
X010437Y010897D01*
X010770Y011230D01*
G37*
G36*
X010354Y010815D02*
X010687Y010482D01*
X010354Y010149D01*
X010021Y010482D01*
X010354Y010815D01*
G37*
G36*
X009770Y011230D02*
X010103Y010897D01*
X009770Y010564D01*
X009437Y010897D01*
X009770Y011230D01*
G37*
G36*
X009354Y010815D02*
X009687Y010482D01*
X009354Y010149D01*
X009021Y010482D01*
X009354Y010815D01*
G37*
G36*
X008770Y011230D02*
X009103Y010897D01*
X008770Y010564D01*
X008437Y010897D01*
X008770Y011230D01*
G37*
G36*
X008354Y010815D02*
X008687Y010482D01*
X008354Y010149D01*
X008021Y010482D01*
X008354Y010815D01*
G37*
G36*
X007770Y011230D02*
X008103Y010897D01*
X007770Y010564D01*
X007437Y010897D01*
X007770Y011230D01*
G37*
G36*
X007354Y010815D02*
X007687Y010482D01*
X007354Y010149D01*
X007021Y010482D01*
X007354Y010815D01*
G37*
G36*
X006770Y011230D02*
X007103Y010897D01*
X006770Y010564D01*
X006437Y010897D01*
X006770Y011230D01*
G37*
G36*
X006354Y010815D02*
X006687Y010482D01*
X006354Y010149D01*
X006021Y010482D01*
X006354Y010815D01*
G37*
G36*
X005770Y011230D02*
X006103Y010897D01*
X005770Y010564D01*
X005437Y010897D01*
X005770Y011230D01*
G37*
G36*
X005354Y010815D02*
X005687Y010482D01*
X005354Y010149D01*
X005021Y010482D01*
X005354Y010815D01*
G37*
G36*
X004770Y011230D02*
X005103Y010897D01*
X004770Y010564D01*
X004437Y010897D01*
X004770Y011230D01*
G37*
G36*
X004354Y010815D02*
X004687Y010482D01*
X004354Y010149D01*
X004021Y010482D01*
X004354Y010815D01*
G37*
G36*
X003770Y011230D02*
X004103Y010897D01*
X003770Y010564D01*
X003437Y010897D01*
X003770Y011230D01*
G37*
G36*
X003354Y010815D02*
X003687Y010482D01*
X003354Y010149D01*
X003021Y010482D01*
X003354Y010815D01*
G37*
G36*
X002770Y011230D02*
X003103Y010897D01*
X002770Y010564D01*
X002437Y010897D01*
X002770Y011230D01*
G37*
G36*
X002354Y010815D02*
X002687Y010482D01*
X002354Y010149D01*
X002021Y010482D01*
X002354Y010815D01*
G37*
G36*
X002770Y010230D02*
X003103Y009897D01*
X002770Y009564D01*
X002437Y009897D01*
X002770Y010230D01*
G37*
G36*
X003770Y010230D02*
X004103Y009897D01*
X003770Y009564D01*
X003437Y009897D01*
X003770Y010230D01*
G37*
G36*
X004770Y010230D02*
X005103Y009897D01*
X004770Y009564D01*
X004437Y009897D01*
X004770Y010230D01*
G37*
G36*
X005770Y010230D02*
X006103Y009897D01*
X005770Y009564D01*
X005437Y009897D01*
X005770Y010230D01*
G37*
G36*
X006770Y010230D02*
X007103Y009897D01*
X006770Y009564D01*
X006437Y009897D01*
X006770Y010230D01*
G37*
G36*
X007770Y010230D02*
X008103Y009897D01*
X007770Y009564D01*
X007437Y009897D01*
X007770Y010230D01*
G37*
G36*
X008770Y010230D02*
X009103Y009897D01*
X008770Y009564D01*
X008437Y009897D01*
X008770Y010230D01*
G37*
G36*
X009770Y010230D02*
X010103Y009897D01*
X009770Y009564D01*
X009437Y009897D01*
X009770Y010230D01*
G37*
G36*
X010770Y010230D02*
X011103Y009897D01*
X010770Y009564D01*
X010437Y009897D01*
X010770Y010230D01*
G37*
G36*
X011770Y010230D02*
X012103Y009897D01*
X011770Y009564D01*
X011437Y009897D01*
X011770Y010230D01*
G37*
G36*
X012770Y010230D02*
X013103Y009897D01*
X012770Y009564D01*
X012437Y009897D01*
X012770Y010230D01*
G37*
G36*
X013770Y010230D02*
X014103Y009897D01*
X013770Y009564D01*
X013437Y009897D01*
X013770Y010230D01*
G37*
G36*
X014770Y010230D02*
X015103Y009897D01*
X014770Y009564D01*
X014437Y009897D01*
X014770Y010230D01*
G37*
G36*
X015770Y010230D02*
X016103Y009897D01*
X015770Y009564D01*
X015437Y009897D01*
X015770Y010230D01*
G37*
G36*
X016770Y010230D02*
X017103Y009897D01*
X016770Y009564D01*
X016437Y009897D01*
X016770Y010230D01*
G37*
G36*
X017770Y010230D02*
X018103Y009897D01*
X017770Y009564D01*
X017437Y009897D01*
X017770Y010230D01*
G37*
G36*
X018770Y010230D02*
X019103Y009897D01*
X018770Y009564D01*
X018437Y009897D01*
X018770Y010230D01*
G37*
G36*
X019770Y010230D02*
X020103Y009897D01*
X019770Y009564D01*
X019437Y009897D01*
X019770Y010230D01*
G37*
G36*
X020770Y010230D02*
X021103Y009897D01*
X020770Y009564D01*
X020437Y009897D01*
X020770Y010230D01*
G37*
G36*
X021770Y010230D02*
X022103Y009897D01*
X021770Y009564D01*
X021437Y009897D01*
X021770Y010230D01*
G37*
G36*
X022770Y010230D02*
X023103Y009897D01*
X022770Y009564D01*
X022437Y009897D01*
X022770Y010230D01*
G37*
G36*
X023770Y010230D02*
X024103Y009897D01*
X023770Y009564D01*
X023437Y009897D01*
X023770Y010230D01*
G37*
G36*
X024770Y010230D02*
X025103Y009897D01*
X024770Y009564D01*
X024437Y009897D01*
X024770Y010230D01*
G37*
G36*
X025770Y010230D02*
X026103Y009897D01*
X025770Y009564D01*
X025437Y009897D01*
X025770Y010230D01*
G37*
G36*
X026770Y010230D02*
X027103Y009897D01*
X026770Y009564D01*
X026437Y009897D01*
X026770Y010230D01*
G37*
G36*
X027770Y010230D02*
X028103Y009897D01*
X027770Y009564D01*
X027437Y009897D01*
X027770Y010230D01*
G37*
G36*
X028770Y010230D02*
X029103Y009897D01*
X028770Y009564D01*
X028437Y009897D01*
X028770Y010230D01*
G37*
G36*
X029770Y010230D02*
X030103Y009897D01*
X029770Y009564D01*
X029437Y009897D01*
X029770Y010230D01*
G37*
G36*
X030770Y010230D02*
X031103Y009897D01*
X030770Y009564D01*
X030437Y009897D01*
X030770Y010230D01*
G37*
G36*
X031770Y010230D02*
X032103Y009897D01*
X031770Y009564D01*
X031437Y009897D01*
X031770Y010230D01*
G37*
G36*
X032354Y010815D02*
X032687Y010482D01*
X032354Y010149D01*
X032021Y010482D01*
X032354Y010815D01*
G37*
G36*
X032354Y009815D02*
X032687Y009482D01*
X032354Y009149D01*
X032021Y009482D01*
X032354Y009815D01*
G37*
G36*
X031354Y009815D02*
X031687Y009482D01*
X031354Y009149D01*
X031021Y009482D01*
X031354Y009815D01*
G37*
G36*
X030354Y009815D02*
X030687Y009482D01*
X030354Y009149D01*
X030021Y009482D01*
X030354Y009815D01*
G37*
G36*
X029354Y009815D02*
X029687Y009482D01*
X029354Y009149D01*
X029021Y009482D01*
X029354Y009815D01*
G37*
G36*
X028354Y009815D02*
X028687Y009482D01*
X028354Y009149D01*
X028021Y009482D01*
X028354Y009815D01*
G37*
G36*
X027354Y009815D02*
X027687Y009482D01*
X027354Y009149D01*
X027021Y009482D01*
X027354Y009815D01*
G37*
G36*
X026354Y009815D02*
X026687Y009482D01*
X026354Y009149D01*
X026021Y009482D01*
X026354Y009815D01*
G37*
G36*
X025354Y009815D02*
X025687Y009482D01*
X025354Y009149D01*
X025021Y009482D01*
X025354Y009815D01*
G37*
G36*
X024354Y009815D02*
X024687Y009482D01*
X024354Y009149D01*
X024021Y009482D01*
X024354Y009815D01*
G37*
G36*
X023354Y009815D02*
X023687Y009482D01*
X023354Y009149D01*
X023021Y009482D01*
X023354Y009815D01*
G37*
G36*
X022354Y009815D02*
X022687Y009482D01*
X022354Y009149D01*
X022021Y009482D01*
X022354Y009815D01*
G37*
G36*
X021354Y009815D02*
X021687Y009482D01*
X021354Y009149D01*
X021021Y009482D01*
X021354Y009815D01*
G37*
G36*
X020354Y009815D02*
X020687Y009482D01*
X020354Y009149D01*
X020021Y009482D01*
X020354Y009815D01*
G37*
G36*
X019354Y009815D02*
X019687Y009482D01*
X019354Y009149D01*
X019021Y009482D01*
X019354Y009815D01*
G37*
G36*
X018354Y009815D02*
X018687Y009482D01*
X018354Y009149D01*
X018021Y009482D01*
X018354Y009815D01*
G37*
G36*
X017354Y009815D02*
X017687Y009482D01*
X017354Y009149D01*
X017021Y009482D01*
X017354Y009815D01*
G37*
G36*
X016354Y009815D02*
X016687Y009482D01*
X016354Y009149D01*
X016021Y009482D01*
X016354Y009815D01*
G37*
G36*
X015354Y009815D02*
X015687Y009482D01*
X015354Y009149D01*
X015021Y009482D01*
X015354Y009815D01*
G37*
G36*
X014354Y009815D02*
X014687Y009482D01*
X014354Y009149D01*
X014021Y009482D01*
X014354Y009815D01*
G37*
G36*
X013354Y009815D02*
X013687Y009482D01*
X013354Y009149D01*
X013021Y009482D01*
X013354Y009815D01*
G37*
G36*
X012354Y009815D02*
X012687Y009482D01*
X012354Y009149D01*
X012021Y009482D01*
X012354Y009815D01*
G37*
G36*
X011354Y009815D02*
X011687Y009482D01*
X011354Y009149D01*
X011021Y009482D01*
X011354Y009815D01*
G37*
G36*
X010354Y009815D02*
X010687Y009482D01*
X010354Y009149D01*
X010021Y009482D01*
X010354Y009815D01*
G37*
G36*
X009354Y009815D02*
X009687Y009482D01*
X009354Y009149D01*
X009021Y009482D01*
X009354Y009815D01*
G37*
G36*
X008354Y009815D02*
X008687Y009482D01*
X008354Y009149D01*
X008021Y009482D01*
X008354Y009815D01*
G37*
G36*
X007354Y009815D02*
X007687Y009482D01*
X007354Y009149D01*
X007021Y009482D01*
X007354Y009815D01*
G37*
G36*
X006354Y009815D02*
X006687Y009482D01*
X006354Y009149D01*
X006021Y009482D01*
X006354Y009815D01*
G37*
G36*
X005354Y009815D02*
X005687Y009482D01*
X005354Y009149D01*
X005021Y009482D01*
X005354Y009815D01*
G37*
G36*
X004354Y009815D02*
X004687Y009482D01*
X004354Y009149D01*
X004021Y009482D01*
X004354Y009815D01*
G37*
G36*
X003354Y009815D02*
X003687Y009482D01*
X003354Y009149D01*
X003021Y009482D01*
X003354Y009815D01*
G37*
G36*
X002354Y009815D02*
X002687Y009482D01*
X002354Y009149D01*
X002021Y009482D01*
X002354Y009815D01*
G37*
G36*
X002770Y009230D02*
X003103Y008897D01*
X002770Y008564D01*
X002437Y008897D01*
X002770Y009230D01*
G37*
G36*
X003770Y009230D02*
X004103Y008897D01*
X003770Y008564D01*
X003437Y008897D01*
X003770Y009230D01*
G37*
G36*
X004770Y009230D02*
X005103Y008897D01*
X004770Y008564D01*
X004437Y008897D01*
X004770Y009230D01*
G37*
G36*
X005770Y009230D02*
X006103Y008897D01*
X005770Y008564D01*
X005437Y008897D01*
X005770Y009230D01*
G37*
G36*
X006770Y009230D02*
X007103Y008897D01*
X006770Y008564D01*
X006437Y008897D01*
X006770Y009230D01*
G37*
G36*
X007770Y009230D02*
X008103Y008897D01*
X007770Y008564D01*
X007437Y008897D01*
X007770Y009230D01*
G37*
G36*
X008770Y009230D02*
X009103Y008897D01*
X008770Y008564D01*
X008437Y008897D01*
X008770Y009230D01*
G37*
G36*
X009770Y009230D02*
X010103Y008897D01*
X009770Y008564D01*
X009437Y008897D01*
X009770Y009230D01*
G37*
G36*
X010770Y009230D02*
X011103Y008897D01*
X010770Y008564D01*
X010437Y008897D01*
X010770Y009230D01*
G37*
G36*
X011770Y009230D02*
X012103Y008897D01*
X011770Y008564D01*
X011437Y008897D01*
X011770Y009230D01*
G37*
G36*
X012770Y009230D02*
X013103Y008897D01*
X012770Y008564D01*
X012437Y008897D01*
X012770Y009230D01*
G37*
G36*
X013770Y009230D02*
X014103Y008897D01*
X013770Y008564D01*
X013437Y008897D01*
X013770Y009230D01*
G37*
G36*
X014770Y009230D02*
X015103Y008897D01*
X014770Y008564D01*
X014437Y008897D01*
X014770Y009230D01*
G37*
G36*
X015770Y009230D02*
X016103Y008897D01*
X015770Y008564D01*
X015437Y008897D01*
X015770Y009230D01*
G37*
G36*
X016770Y009230D02*
X017103Y008897D01*
X016770Y008564D01*
X016437Y008897D01*
X016770Y009230D01*
G37*
G36*
X017770Y009230D02*
X018103Y008897D01*
X017770Y008564D01*
X017437Y008897D01*
X017770Y009230D01*
G37*
G36*
X018770Y009230D02*
X019103Y008897D01*
X018770Y008564D01*
X018437Y008897D01*
X018770Y009230D01*
G37*
G36*
X019770Y009230D02*
X020103Y008897D01*
X019770Y008564D01*
X019437Y008897D01*
X019770Y009230D01*
G37*
G36*
X020770Y009230D02*
X021103Y008897D01*
X020770Y008564D01*
X020437Y008897D01*
X020770Y009230D01*
G37*
G36*
X021770Y009230D02*
X022103Y008897D01*
X021770Y008564D01*
X021437Y008897D01*
X021770Y009230D01*
G37*
G36*
X022770Y009230D02*
X023103Y008897D01*
X022770Y008564D01*
X022437Y008897D01*
X022770Y009230D01*
G37*
G36*
X023770Y009230D02*
X024103Y008897D01*
X023770Y008564D01*
X023437Y008897D01*
X023770Y009230D01*
G37*
G36*
X024770Y009230D02*
X025103Y008897D01*
X024770Y008564D01*
X024437Y008897D01*
X024770Y009230D01*
G37*
G36*
X025770Y009230D02*
X026103Y008897D01*
X025770Y008564D01*
X025437Y008897D01*
X025770Y009230D01*
G37*
G36*
X026770Y009230D02*
X027103Y008897D01*
X026770Y008564D01*
X026437Y008897D01*
X026770Y009230D01*
G37*
G36*
X027770Y009230D02*
X028103Y008897D01*
X027770Y008564D01*
X027437Y008897D01*
X027770Y009230D01*
G37*
G36*
X028770Y009230D02*
X029103Y008897D01*
X028770Y008564D01*
X028437Y008897D01*
X028770Y009230D01*
G37*
G36*
X029770Y009230D02*
X030103Y008897D01*
X029770Y008564D01*
X029437Y008897D01*
X029770Y009230D01*
G37*
G36*
X030770Y009230D02*
X031103Y008897D01*
X030770Y008564D01*
X030437Y008897D01*
X030770Y009230D01*
G37*
G36*
X031770Y009230D02*
X032103Y008897D01*
X031770Y008564D01*
X031437Y008897D01*
X031770Y009230D01*
G37*
G36*
X031354Y008815D02*
X031687Y008482D01*
X031354Y008149D01*
X031021Y008482D01*
X031354Y008815D01*
G37*
G36*
X030354Y008815D02*
X030687Y008482D01*
X030354Y008149D01*
X030021Y008482D01*
X030354Y008815D01*
G37*
G36*
X029354Y008815D02*
X029687Y008482D01*
X029354Y008149D01*
X029021Y008482D01*
X029354Y008815D01*
G37*
G36*
X028354Y008815D02*
X028687Y008482D01*
X028354Y008149D01*
X028021Y008482D01*
X028354Y008815D01*
G37*
G36*
X027354Y008815D02*
X027687Y008482D01*
X027354Y008149D01*
X027021Y008482D01*
X027354Y008815D01*
G37*
G36*
X026354Y008815D02*
X026687Y008482D01*
X026354Y008149D01*
X026021Y008482D01*
X026354Y008815D01*
G37*
G36*
X025354Y008815D02*
X025687Y008482D01*
X025354Y008149D01*
X025021Y008482D01*
X025354Y008815D01*
G37*
G36*
X024354Y008815D02*
X024687Y008482D01*
X024354Y008149D01*
X024021Y008482D01*
X024354Y008815D01*
G37*
G36*
X023354Y008815D02*
X023687Y008482D01*
X023354Y008149D01*
X023021Y008482D01*
X023354Y008815D01*
G37*
G36*
X022354Y008815D02*
X022687Y008482D01*
X022354Y008149D01*
X022021Y008482D01*
X022354Y008815D01*
G37*
G36*
X021354Y008815D02*
X021687Y008482D01*
X021354Y008149D01*
X021021Y008482D01*
X021354Y008815D01*
G37*
G36*
X020354Y008815D02*
X020687Y008482D01*
X020354Y008149D01*
X020021Y008482D01*
X020354Y008815D01*
G37*
G36*
X019354Y008815D02*
X019687Y008482D01*
X019354Y008149D01*
X019021Y008482D01*
X019354Y008815D01*
G37*
G36*
X018354Y008815D02*
X018687Y008482D01*
X018354Y008149D01*
X018021Y008482D01*
X018354Y008815D01*
G37*
G36*
X017354Y008815D02*
X017687Y008482D01*
X017354Y008149D01*
X017021Y008482D01*
X017354Y008815D01*
G37*
G36*
X016354Y008815D02*
X016687Y008482D01*
X016354Y008149D01*
X016021Y008482D01*
X016354Y008815D01*
G37*
G36*
X015354Y008815D02*
X015687Y008482D01*
X015354Y008149D01*
X015021Y008482D01*
X015354Y008815D01*
G37*
G36*
X014354Y008815D02*
X014687Y008482D01*
X014354Y008149D01*
X014021Y008482D01*
X014354Y008815D01*
G37*
G36*
X013354Y008815D02*
X013687Y008482D01*
X013354Y008149D01*
X013021Y008482D01*
X013354Y008815D01*
G37*
G36*
X012354Y008815D02*
X012687Y008482D01*
X012354Y008149D01*
X012021Y008482D01*
X012354Y008815D01*
G37*
G36*
X011354Y008815D02*
X011687Y008482D01*
X011354Y008149D01*
X011021Y008482D01*
X011354Y008815D01*
G37*
G36*
X010354Y008815D02*
X010687Y008482D01*
X010354Y008149D01*
X010021Y008482D01*
X010354Y008815D01*
G37*
G36*
X009354Y008815D02*
X009687Y008482D01*
X009354Y008149D01*
X009021Y008482D01*
X009354Y008815D01*
G37*
G36*
X008354Y008815D02*
X008687Y008482D01*
X008354Y008149D01*
X008021Y008482D01*
X008354Y008815D01*
G37*
G36*
X007354Y008815D02*
X007687Y008482D01*
X007354Y008149D01*
X007021Y008482D01*
X007354Y008815D01*
G37*
G36*
X006354Y008815D02*
X006687Y008482D01*
X006354Y008149D01*
X006021Y008482D01*
X006354Y008815D01*
G37*
G36*
X005354Y008815D02*
X005687Y008482D01*
X005354Y008149D01*
X005021Y008482D01*
X005354Y008815D01*
G37*
G36*
X004354Y008815D02*
X004687Y008482D01*
X004354Y008149D01*
X004021Y008482D01*
X004354Y008815D01*
G37*
G36*
X003354Y008815D02*
X003687Y008482D01*
X003354Y008149D01*
X003021Y008482D01*
X003354Y008815D01*
G37*
G36*
X002354Y008815D02*
X002687Y008482D01*
X002354Y008149D01*
X002021Y008482D01*
X002354Y008815D01*
G37*
G36*
X002770Y008230D02*
X003103Y007897D01*
X002770Y007564D01*
X002437Y007897D01*
X002770Y008230D01*
G37*
G36*
X003770Y008230D02*
X004103Y007897D01*
X003770Y007564D01*
X003437Y007897D01*
X003770Y008230D01*
G37*
G36*
X004770Y008230D02*
X005103Y007897D01*
X004770Y007564D01*
X004437Y007897D01*
X004770Y008230D01*
G37*
G36*
X005770Y008230D02*
X006103Y007897D01*
X005770Y007564D01*
X005437Y007897D01*
X005770Y008230D01*
G37*
G36*
X006770Y008230D02*
X007103Y007897D01*
X006770Y007564D01*
X006437Y007897D01*
X006770Y008230D01*
G37*
G36*
X007770Y008230D02*
X008103Y007897D01*
X007770Y007564D01*
X007437Y007897D01*
X007770Y008230D01*
G37*
G36*
X008770Y008230D02*
X009103Y007897D01*
X008770Y007564D01*
X008437Y007897D01*
X008770Y008230D01*
G37*
G36*
X009770Y008230D02*
X010103Y007897D01*
X009770Y007564D01*
X009437Y007897D01*
X009770Y008230D01*
G37*
G36*
X010770Y008230D02*
X011103Y007897D01*
X010770Y007564D01*
X010437Y007897D01*
X010770Y008230D01*
G37*
G36*
X011770Y008230D02*
X012103Y007897D01*
X011770Y007564D01*
X011437Y007897D01*
X011770Y008230D01*
G37*
G36*
X012770Y008230D02*
X013103Y007897D01*
X012770Y007564D01*
X012437Y007897D01*
X012770Y008230D01*
G37*
G36*
X013770Y008230D02*
X014103Y007897D01*
X013770Y007564D01*
X013437Y007897D01*
X013770Y008230D01*
G37*
G36*
X014770Y008230D02*
X015103Y007897D01*
X014770Y007564D01*
X014437Y007897D01*
X014770Y008230D01*
G37*
G36*
X015770Y008230D02*
X016103Y007897D01*
X015770Y007564D01*
X015437Y007897D01*
X015770Y008230D01*
G37*
G36*
X016770Y008230D02*
X017103Y007897D01*
X016770Y007564D01*
X016437Y007897D01*
X016770Y008230D01*
G37*
G36*
X017770Y008230D02*
X018103Y007897D01*
X017770Y007564D01*
X017437Y007897D01*
X017770Y008230D01*
G37*
G36*
X018770Y008230D02*
X019103Y007897D01*
X018770Y007564D01*
X018437Y007897D01*
X018770Y008230D01*
G37*
G36*
X019770Y008230D02*
X020103Y007897D01*
X019770Y007564D01*
X019437Y007897D01*
X019770Y008230D01*
G37*
G36*
X020770Y008230D02*
X021103Y007897D01*
X020770Y007564D01*
X020437Y007897D01*
X020770Y008230D01*
G37*
G36*
X021770Y008230D02*
X022103Y007897D01*
X021770Y007564D01*
X021437Y007897D01*
X021770Y008230D01*
G37*
G36*
X022770Y008230D02*
X023103Y007897D01*
X022770Y007564D01*
X022437Y007897D01*
X022770Y008230D01*
G37*
G36*
X023770Y008230D02*
X024103Y007897D01*
X023770Y007564D01*
X023437Y007897D01*
X023770Y008230D01*
G37*
G36*
X024770Y008230D02*
X025103Y007897D01*
X024770Y007564D01*
X024437Y007897D01*
X024770Y008230D01*
G37*
G36*
X025770Y008230D02*
X026103Y007897D01*
X025770Y007564D01*
X025437Y007897D01*
X025770Y008230D01*
G37*
G36*
X026770Y008230D02*
X027103Y007897D01*
X026770Y007564D01*
X026437Y007897D01*
X026770Y008230D01*
G37*
G36*
X027770Y008230D02*
X028103Y007897D01*
X027770Y007564D01*
X027437Y007897D01*
X027770Y008230D01*
G37*
G36*
X028770Y008230D02*
X029103Y007897D01*
X028770Y007564D01*
X028437Y007897D01*
X028770Y008230D01*
G37*
G36*
X029770Y008230D02*
X030103Y007897D01*
X029770Y007564D01*
X029437Y007897D01*
X029770Y008230D01*
G37*
G36*
X030770Y008230D02*
X031103Y007897D01*
X030770Y007564D01*
X030437Y007897D01*
X030770Y008230D01*
G37*
G36*
X031770Y008230D02*
X032103Y007897D01*
X031770Y007564D01*
X031437Y007897D01*
X031770Y008230D01*
G37*
G36*
X032354Y008815D02*
X032687Y008482D01*
X032354Y008149D01*
X032021Y008482D01*
X032354Y008815D01*
G37*
G36*
X032354Y007815D02*
X032687Y007482D01*
X032354Y007149D01*
X032021Y007482D01*
X032354Y007815D01*
G37*
G36*
X031354Y007815D02*
X031687Y007482D01*
X031354Y007149D01*
X031021Y007482D01*
X031354Y007815D01*
G37*
G36*
X030354Y007815D02*
X030687Y007482D01*
X030354Y007149D01*
X030021Y007482D01*
X030354Y007815D01*
G37*
G36*
X029354Y007815D02*
X029687Y007482D01*
X029354Y007149D01*
X029021Y007482D01*
X029354Y007815D01*
G37*
G36*
X028354Y007815D02*
X028687Y007482D01*
X028354Y007149D01*
X028021Y007482D01*
X028354Y007815D01*
G37*
G36*
X027354Y007815D02*
X027687Y007482D01*
X027354Y007149D01*
X027021Y007482D01*
X027354Y007815D01*
G37*
G36*
X026354Y007815D02*
X026687Y007482D01*
X026354Y007149D01*
X026021Y007482D01*
X026354Y007815D01*
G37*
G36*
X025354Y007815D02*
X025687Y007482D01*
X025354Y007149D01*
X025021Y007482D01*
X025354Y007815D01*
G37*
G36*
X024354Y007815D02*
X024687Y007482D01*
X024354Y007149D01*
X024021Y007482D01*
X024354Y007815D01*
G37*
G36*
X023354Y007815D02*
X023687Y007482D01*
X023354Y007149D01*
X023021Y007482D01*
X023354Y007815D01*
G37*
G36*
X022354Y007815D02*
X022687Y007482D01*
X022354Y007149D01*
X022021Y007482D01*
X022354Y007815D01*
G37*
G36*
X021354Y007815D02*
X021687Y007482D01*
X021354Y007149D01*
X021021Y007482D01*
X021354Y007815D01*
G37*
G36*
X020354Y007815D02*
X020687Y007482D01*
X020354Y007149D01*
X020021Y007482D01*
X020354Y007815D01*
G37*
G36*
X019354Y007815D02*
X019687Y007482D01*
X019354Y007149D01*
X019021Y007482D01*
X019354Y007815D01*
G37*
G36*
X018354Y007815D02*
X018687Y007482D01*
X018354Y007149D01*
X018021Y007482D01*
X018354Y007815D01*
G37*
G36*
X017354Y007815D02*
X017687Y007482D01*
X017354Y007149D01*
X017021Y007482D01*
X017354Y007815D01*
G37*
G36*
X016354Y007815D02*
X016687Y007482D01*
X016354Y007149D01*
X016021Y007482D01*
X016354Y007815D01*
G37*
G36*
X015354Y007815D02*
X015687Y007482D01*
X015354Y007149D01*
X015021Y007482D01*
X015354Y007815D01*
G37*
G36*
X014354Y007815D02*
X014687Y007482D01*
X014354Y007149D01*
X014021Y007482D01*
X014354Y007815D01*
G37*
G36*
X013354Y007815D02*
X013687Y007482D01*
X013354Y007149D01*
X013021Y007482D01*
X013354Y007815D01*
G37*
G36*
X012354Y007815D02*
X012687Y007482D01*
X012354Y007149D01*
X012021Y007482D01*
X012354Y007815D01*
G37*
G36*
X011354Y007815D02*
X011687Y007482D01*
X011354Y007149D01*
X011021Y007482D01*
X011354Y007815D01*
G37*
G36*
X010354Y007815D02*
X010687Y007482D01*
X010354Y007149D01*
X010021Y007482D01*
X010354Y007815D01*
G37*
G36*
X009354Y007815D02*
X009687Y007482D01*
X009354Y007149D01*
X009021Y007482D01*
X009354Y007815D01*
G37*
G36*
X008354Y007815D02*
X008687Y007482D01*
X008354Y007149D01*
X008021Y007482D01*
X008354Y007815D01*
G37*
G36*
X007354Y007815D02*
X007687Y007482D01*
X007354Y007149D01*
X007021Y007482D01*
X007354Y007815D01*
G37*
G36*
X006354Y007815D02*
X006687Y007482D01*
X006354Y007149D01*
X006021Y007482D01*
X006354Y007815D01*
G37*
G36*
X005354Y007815D02*
X005687Y007482D01*
X005354Y007149D01*
X005021Y007482D01*
X005354Y007815D01*
G37*
G36*
X004354Y007815D02*
X004687Y007482D01*
X004354Y007149D01*
X004021Y007482D01*
X004354Y007815D01*
G37*
G36*
X003354Y007815D02*
X003687Y007482D01*
X003354Y007149D01*
X003021Y007482D01*
X003354Y007815D01*
G37*
G36*
X002354Y007815D02*
X002687Y007482D01*
X002354Y007149D01*
X002021Y007482D01*
X002354Y007815D01*
G37*
G36*
X002770Y007230D02*
X003103Y006897D01*
X002770Y006564D01*
X002437Y006897D01*
X002770Y007230D01*
G37*
G36*
X003770Y007230D02*
X004103Y006897D01*
X003770Y006564D01*
X003437Y006897D01*
X003770Y007230D01*
G37*
G36*
X004770Y007230D02*
X005103Y006897D01*
X004770Y006564D01*
X004437Y006897D01*
X004770Y007230D01*
G37*
G36*
X005770Y007230D02*
X006103Y006897D01*
X005770Y006564D01*
X005437Y006897D01*
X005770Y007230D01*
G37*
G36*
X006770Y007230D02*
X007103Y006897D01*
X006770Y006564D01*
X006437Y006897D01*
X006770Y007230D01*
G37*
G36*
X007770Y007230D02*
X008103Y006897D01*
X007770Y006564D01*
X007437Y006897D01*
X007770Y007230D01*
G37*
G36*
X008770Y007230D02*
X009103Y006897D01*
X008770Y006564D01*
X008437Y006897D01*
X008770Y007230D01*
G37*
G36*
X009770Y007230D02*
X010103Y006897D01*
X009770Y006564D01*
X009437Y006897D01*
X009770Y007230D01*
G37*
G36*
X010770Y007230D02*
X011103Y006897D01*
X010770Y006564D01*
X010437Y006897D01*
X010770Y007230D01*
G37*
G36*
X011770Y007230D02*
X012103Y006897D01*
X011770Y006564D01*
X011437Y006897D01*
X011770Y007230D01*
G37*
G36*
X012770Y007230D02*
X013103Y006897D01*
X012770Y006564D01*
X012437Y006897D01*
X012770Y007230D01*
G37*
G36*
X013770Y007230D02*
X014103Y006897D01*
X013770Y006564D01*
X013437Y006897D01*
X013770Y007230D01*
G37*
G36*
X014770Y007230D02*
X015103Y006897D01*
X014770Y006564D01*
X014437Y006897D01*
X014770Y007230D01*
G37*
G36*
X015770Y007230D02*
X016103Y006897D01*
X015770Y006564D01*
X015437Y006897D01*
X015770Y007230D01*
G37*
G36*
X016770Y007230D02*
X017103Y006897D01*
X016770Y006564D01*
X016437Y006897D01*
X016770Y007230D01*
G37*
G36*
X017770Y007230D02*
X018103Y006897D01*
X017770Y006564D01*
X017437Y006897D01*
X017770Y007230D01*
G37*
G36*
X018770Y007230D02*
X019103Y006897D01*
X018770Y006564D01*
X018437Y006897D01*
X018770Y007230D01*
G37*
G36*
X019770Y007230D02*
X020103Y006897D01*
X019770Y006564D01*
X019437Y006897D01*
X019770Y007230D01*
G37*
G36*
X020770Y007230D02*
X021103Y006897D01*
X020770Y006564D01*
X020437Y006897D01*
X020770Y007230D01*
G37*
G36*
X021770Y007230D02*
X022103Y006897D01*
X021770Y006564D01*
X021437Y006897D01*
X021770Y007230D01*
G37*
G36*
X022770Y007230D02*
X023103Y006897D01*
X022770Y006564D01*
X022437Y006897D01*
X022770Y007230D01*
G37*
G36*
X023770Y007230D02*
X024103Y006897D01*
X023770Y006564D01*
X023437Y006897D01*
X023770Y007230D01*
G37*
G36*
X024770Y007230D02*
X025103Y006897D01*
X024770Y006564D01*
X024437Y006897D01*
X024770Y007230D01*
G37*
G36*
X025770Y007230D02*
X026103Y006897D01*
X025770Y006564D01*
X025437Y006897D01*
X025770Y007230D01*
G37*
G36*
X026770Y007230D02*
X027103Y006897D01*
X026770Y006564D01*
X026437Y006897D01*
X026770Y007230D01*
G37*
G36*
X027770Y007230D02*
X028103Y006897D01*
X027770Y006564D01*
X027437Y006897D01*
X027770Y007230D01*
G37*
G36*
X028770Y007230D02*
X029103Y006897D01*
X028770Y006564D01*
X028437Y006897D01*
X028770Y007230D01*
G37*
G36*
X029770Y007230D02*
X030103Y006897D01*
X029770Y006564D01*
X029437Y006897D01*
X029770Y007230D01*
G37*
G36*
X030770Y007230D02*
X031103Y006897D01*
X030770Y006564D01*
X030437Y006897D01*
X030770Y007230D01*
G37*
G36*
X031770Y007230D02*
X032103Y006897D01*
X031770Y006564D01*
X031437Y006897D01*
X031770Y007230D01*
G37*
G36*
X031354Y006815D02*
X031687Y006482D01*
X031354Y006149D01*
X031021Y006482D01*
X031354Y006815D01*
G37*
G36*
X030354Y006815D02*
X030687Y006482D01*
X030354Y006149D01*
X030021Y006482D01*
X030354Y006815D01*
G37*
G36*
X029354Y006815D02*
X029687Y006482D01*
X029354Y006149D01*
X029021Y006482D01*
X029354Y006815D01*
G37*
G36*
X028354Y006815D02*
X028687Y006482D01*
X028354Y006149D01*
X028021Y006482D01*
X028354Y006815D01*
G37*
G36*
X027354Y006815D02*
X027687Y006482D01*
X027354Y006149D01*
X027021Y006482D01*
X027354Y006815D01*
G37*
G36*
X026354Y006815D02*
X026687Y006482D01*
X026354Y006149D01*
X026021Y006482D01*
X026354Y006815D01*
G37*
G36*
X025354Y006815D02*
X025687Y006482D01*
X025354Y006149D01*
X025021Y006482D01*
X025354Y006815D01*
G37*
G36*
X024354Y006815D02*
X024687Y006482D01*
X024354Y006149D01*
X024021Y006482D01*
X024354Y006815D01*
G37*
G36*
X023354Y006815D02*
X023687Y006482D01*
X023354Y006149D01*
X023021Y006482D01*
X023354Y006815D01*
G37*
G36*
X022354Y006815D02*
X022687Y006482D01*
X022354Y006149D01*
X022021Y006482D01*
X022354Y006815D01*
G37*
G36*
X021354Y006815D02*
X021687Y006482D01*
X021354Y006149D01*
X021021Y006482D01*
X021354Y006815D01*
G37*
G36*
X020354Y006815D02*
X020687Y006482D01*
X020354Y006149D01*
X020021Y006482D01*
X020354Y006815D01*
G37*
G36*
X019354Y006815D02*
X019687Y006482D01*
X019354Y006149D01*
X019021Y006482D01*
X019354Y006815D01*
G37*
G36*
X018354Y006815D02*
X018687Y006482D01*
X018354Y006149D01*
X018021Y006482D01*
X018354Y006815D01*
G37*
G36*
X017354Y006815D02*
X017687Y006482D01*
X017354Y006149D01*
X017021Y006482D01*
X017354Y006815D01*
G37*
G36*
X016354Y006815D02*
X016687Y006482D01*
X016354Y006149D01*
X016021Y006482D01*
X016354Y006815D01*
G37*
G36*
X015354Y006815D02*
X015687Y006482D01*
X015354Y006149D01*
X015021Y006482D01*
X015354Y006815D01*
G37*
G36*
X014354Y006815D02*
X014687Y006482D01*
X014354Y006149D01*
X014021Y006482D01*
X014354Y006815D01*
G37*
G36*
X013354Y006815D02*
X013687Y006482D01*
X013354Y006149D01*
X013021Y006482D01*
X013354Y006815D01*
G37*
G36*
X012354Y006815D02*
X012687Y006482D01*
X012354Y006149D01*
X012021Y006482D01*
X012354Y006815D01*
G37*
G36*
X011354Y006815D02*
X011687Y006482D01*
X011354Y006149D01*
X011021Y006482D01*
X011354Y006815D01*
G37*
G36*
X010354Y006815D02*
X010687Y006482D01*
X010354Y006149D01*
X010021Y006482D01*
X010354Y006815D01*
G37*
G36*
X009354Y006815D02*
X009687Y006482D01*
X009354Y006149D01*
X009021Y006482D01*
X009354Y006815D01*
G37*
G36*
X008354Y006815D02*
X008687Y006482D01*
X008354Y006149D01*
X008021Y006482D01*
X008354Y006815D01*
G37*
G36*
X007354Y006815D02*
X007687Y006482D01*
X007354Y006149D01*
X007021Y006482D01*
X007354Y006815D01*
G37*
G36*
X006354Y006815D02*
X006687Y006482D01*
X006354Y006149D01*
X006021Y006482D01*
X006354Y006815D01*
G37*
G36*
X005354Y006815D02*
X005687Y006482D01*
X005354Y006149D01*
X005021Y006482D01*
X005354Y006815D01*
G37*
G36*
X004354Y006815D02*
X004687Y006482D01*
X004354Y006149D01*
X004021Y006482D01*
X004354Y006815D01*
G37*
G36*
X003354Y006815D02*
X003687Y006482D01*
X003354Y006149D01*
X003021Y006482D01*
X003354Y006815D01*
G37*
G36*
X002354Y006815D02*
X002687Y006482D01*
X002354Y006149D01*
X002021Y006482D01*
X002354Y006815D01*
G37*
G36*
X002770Y006230D02*
X003103Y005897D01*
X002770Y005564D01*
X002437Y005897D01*
X002770Y006230D01*
G37*
G36*
X003770Y006230D02*
X004103Y005897D01*
X003770Y005564D01*
X003437Y005897D01*
X003770Y006230D01*
G37*
G36*
X004770Y006230D02*
X005103Y005897D01*
X004770Y005564D01*
X004437Y005897D01*
X004770Y006230D01*
G37*
G36*
X005770Y006230D02*
X006103Y005897D01*
X005770Y005564D01*
X005437Y005897D01*
X005770Y006230D01*
G37*
G36*
X006770Y006230D02*
X007103Y005897D01*
X006770Y005564D01*
X006437Y005897D01*
X006770Y006230D01*
G37*
G36*
X007770Y006230D02*
X008103Y005897D01*
X007770Y005564D01*
X007437Y005897D01*
X007770Y006230D01*
G37*
G36*
X008770Y006230D02*
X009103Y005897D01*
X008770Y005564D01*
X008437Y005897D01*
X008770Y006230D01*
G37*
G36*
X009770Y006230D02*
X010103Y005897D01*
X009770Y005564D01*
X009437Y005897D01*
X009770Y006230D01*
G37*
G36*
X010770Y006230D02*
X011103Y005897D01*
X010770Y005564D01*
X010437Y005897D01*
X010770Y006230D01*
G37*
G36*
X011770Y006230D02*
X012103Y005897D01*
X011770Y005564D01*
X011437Y005897D01*
X011770Y006230D01*
G37*
G36*
X012770Y006230D02*
X013103Y005897D01*
X012770Y005564D01*
X012437Y005897D01*
X012770Y006230D01*
G37*
G36*
X013770Y006230D02*
X014103Y005897D01*
X013770Y005564D01*
X013437Y005897D01*
X013770Y006230D01*
G37*
G36*
X014770Y006230D02*
X015103Y005897D01*
X014770Y005564D01*
X014437Y005897D01*
X014770Y006230D01*
G37*
G36*
X015770Y006230D02*
X016103Y005897D01*
X015770Y005564D01*
X015437Y005897D01*
X015770Y006230D01*
G37*
G36*
X016770Y006230D02*
X017103Y005897D01*
X016770Y005564D01*
X016437Y005897D01*
X016770Y006230D01*
G37*
G36*
X017770Y006230D02*
X018103Y005897D01*
X017770Y005564D01*
X017437Y005897D01*
X017770Y006230D01*
G37*
G36*
X018770Y006230D02*
X019103Y005897D01*
X018770Y005564D01*
X018437Y005897D01*
X018770Y006230D01*
G37*
G36*
X019770Y006230D02*
X020103Y005897D01*
X019770Y005564D01*
X019437Y005897D01*
X019770Y006230D01*
G37*
G36*
X020770Y006230D02*
X021103Y005897D01*
X020770Y005564D01*
X020437Y005897D01*
X020770Y006230D01*
G37*
G36*
X021770Y006230D02*
X022103Y005897D01*
X021770Y005564D01*
X021437Y005897D01*
X021770Y006230D01*
G37*
G36*
X022770Y006230D02*
X023103Y005897D01*
X022770Y005564D01*
X022437Y005897D01*
X022770Y006230D01*
G37*
G36*
X023770Y006230D02*
X024103Y005897D01*
X023770Y005564D01*
X023437Y005897D01*
X023770Y006230D01*
G37*
G36*
X024770Y006230D02*
X025103Y005897D01*
X024770Y005564D01*
X024437Y005897D01*
X024770Y006230D01*
G37*
G36*
X025770Y006230D02*
X026103Y005897D01*
X025770Y005564D01*
X025437Y005897D01*
X025770Y006230D01*
G37*
G36*
X026770Y006230D02*
X027103Y005897D01*
X026770Y005564D01*
X026437Y005897D01*
X026770Y006230D01*
G37*
G36*
X027770Y006230D02*
X028103Y005897D01*
X027770Y005564D01*
X027437Y005897D01*
X027770Y006230D01*
G37*
G36*
X028770Y006230D02*
X029103Y005897D01*
X028770Y005564D01*
X028437Y005897D01*
X028770Y006230D01*
G37*
G36*
X029770Y006230D02*
X030103Y005897D01*
X029770Y005564D01*
X029437Y005897D01*
X029770Y006230D01*
G37*
G36*
X030770Y006230D02*
X031103Y005897D01*
X030770Y005564D01*
X030437Y005897D01*
X030770Y006230D01*
G37*
G36*
X031770Y006230D02*
X032103Y005897D01*
X031770Y005564D01*
X031437Y005897D01*
X031770Y006230D01*
G37*
G36*
X032354Y006815D02*
X032687Y006482D01*
X032354Y006149D01*
X032021Y006482D01*
X032354Y006815D01*
G37*
G36*
X032354Y005815D02*
X032687Y005482D01*
X032354Y005149D01*
X032021Y005482D01*
X032354Y005815D01*
G37*
G36*
X031354Y005815D02*
X031687Y005482D01*
X031354Y005149D01*
X031021Y005482D01*
X031354Y005815D01*
G37*
G36*
X030354Y005815D02*
X030687Y005482D01*
X030354Y005149D01*
X030021Y005482D01*
X030354Y005815D01*
G37*
G36*
X029354Y005815D02*
X029687Y005482D01*
X029354Y005149D01*
X029021Y005482D01*
X029354Y005815D01*
G37*
G36*
X028354Y005815D02*
X028687Y005482D01*
X028354Y005149D01*
X028021Y005482D01*
X028354Y005815D01*
G37*
G36*
X027354Y005815D02*
X027687Y005482D01*
X027354Y005149D01*
X027021Y005482D01*
X027354Y005815D01*
G37*
G36*
X026354Y005815D02*
X026687Y005482D01*
X026354Y005149D01*
X026021Y005482D01*
X026354Y005815D01*
G37*
G36*
X025354Y005815D02*
X025687Y005482D01*
X025354Y005149D01*
X025021Y005482D01*
X025354Y005815D01*
G37*
G36*
X024354Y005815D02*
X024687Y005482D01*
X024354Y005149D01*
X024021Y005482D01*
X024354Y005815D01*
G37*
G36*
X023354Y005815D02*
X023687Y005482D01*
X023354Y005149D01*
X023021Y005482D01*
X023354Y005815D01*
G37*
G36*
X022354Y005815D02*
X022687Y005482D01*
X022354Y005149D01*
X022021Y005482D01*
X022354Y005815D01*
G37*
G36*
X021354Y005815D02*
X021687Y005482D01*
X021354Y005149D01*
X021021Y005482D01*
X021354Y005815D01*
G37*
G36*
X020354Y005815D02*
X020687Y005482D01*
X020354Y005149D01*
X020021Y005482D01*
X020354Y005815D01*
G37*
G36*
X019354Y005815D02*
X019687Y005482D01*
X019354Y005149D01*
X019021Y005482D01*
X019354Y005815D01*
G37*
G36*
X018354Y005815D02*
X018687Y005482D01*
X018354Y005149D01*
X018021Y005482D01*
X018354Y005815D01*
G37*
G36*
X017354Y005815D02*
X017687Y005482D01*
X017354Y005149D01*
X017021Y005482D01*
X017354Y005815D01*
G37*
G36*
X016354Y005815D02*
X016687Y005482D01*
X016354Y005149D01*
X016021Y005482D01*
X016354Y005815D01*
G37*
G36*
X015354Y005815D02*
X015687Y005482D01*
X015354Y005149D01*
X015021Y005482D01*
X015354Y005815D01*
G37*
G36*
X014354Y005815D02*
X014687Y005482D01*
X014354Y005149D01*
X014021Y005482D01*
X014354Y005815D01*
G37*
G36*
X013354Y005815D02*
X013687Y005482D01*
X013354Y005149D01*
X013021Y005482D01*
X013354Y005815D01*
G37*
G36*
X012354Y005815D02*
X012687Y005482D01*
X012354Y005149D01*
X012021Y005482D01*
X012354Y005815D01*
G37*
G36*
X011354Y005815D02*
X011687Y005482D01*
X011354Y005149D01*
X011021Y005482D01*
X011354Y005815D01*
G37*
G36*
X010354Y005815D02*
X010687Y005482D01*
X010354Y005149D01*
X010021Y005482D01*
X010354Y005815D01*
G37*
G36*
X009354Y005815D02*
X009687Y005482D01*
X009354Y005149D01*
X009021Y005482D01*
X009354Y005815D01*
G37*
G36*
X008354Y005815D02*
X008687Y005482D01*
X008354Y005149D01*
X008021Y005482D01*
X008354Y005815D01*
G37*
G36*
X007354Y005815D02*
X007687Y005482D01*
X007354Y005149D01*
X007021Y005482D01*
X007354Y005815D01*
G37*
G36*
X006354Y005815D02*
X006687Y005482D01*
X006354Y005149D01*
X006021Y005482D01*
X006354Y005815D01*
G37*
G36*
X005354Y005815D02*
X005687Y005482D01*
X005354Y005149D01*
X005021Y005482D01*
X005354Y005815D01*
G37*
G36*
X004354Y005815D02*
X004687Y005482D01*
X004354Y005149D01*
X004021Y005482D01*
X004354Y005815D01*
G37*
G36*
X003354Y005815D02*
X003687Y005482D01*
X003354Y005149D01*
X003021Y005482D01*
X003354Y005815D01*
G37*
G36*
X002354Y005815D02*
X002687Y005482D01*
X002354Y005149D01*
X002021Y005482D01*
X002354Y005815D01*
G37*
G36*
X002770Y005230D02*
X003103Y004897D01*
X002770Y004564D01*
X002437Y004897D01*
X002770Y005230D01*
G37*
G36*
X003770Y005230D02*
X004103Y004897D01*
X003770Y004564D01*
X003437Y004897D01*
X003770Y005230D01*
G37*
G36*
X004770Y005230D02*
X005103Y004897D01*
X004770Y004564D01*
X004437Y004897D01*
X004770Y005230D01*
G37*
G36*
X005770Y005230D02*
X006103Y004897D01*
X005770Y004564D01*
X005437Y004897D01*
X005770Y005230D01*
G37*
G36*
X006770Y005230D02*
X007103Y004897D01*
X006770Y004564D01*
X006437Y004897D01*
X006770Y005230D01*
G37*
G36*
X007770Y005230D02*
X008103Y004897D01*
X007770Y004564D01*
X007437Y004897D01*
X007770Y005230D01*
G37*
G36*
X008770Y005230D02*
X009103Y004897D01*
X008770Y004564D01*
X008437Y004897D01*
X008770Y005230D01*
G37*
G36*
X009770Y005230D02*
X010103Y004897D01*
X009770Y004564D01*
X009437Y004897D01*
X009770Y005230D01*
G37*
G36*
X010770Y005230D02*
X011103Y004897D01*
X010770Y004564D01*
X010437Y004897D01*
X010770Y005230D01*
G37*
G36*
X011770Y005230D02*
X012103Y004897D01*
X011770Y004564D01*
X011437Y004897D01*
X011770Y005230D01*
G37*
G36*
X012770Y005230D02*
X013103Y004897D01*
X012770Y004564D01*
X012437Y004897D01*
X012770Y005230D01*
G37*
G36*
X013770Y005230D02*
X014103Y004897D01*
X013770Y004564D01*
X013437Y004897D01*
X013770Y005230D01*
G37*
G36*
X014770Y005230D02*
X015103Y004897D01*
X014770Y004564D01*
X014437Y004897D01*
X014770Y005230D01*
G37*
G36*
X015770Y005230D02*
X016103Y004897D01*
X015770Y004564D01*
X015437Y004897D01*
X015770Y005230D01*
G37*
G36*
X016770Y005230D02*
X017103Y004897D01*
X016770Y004564D01*
X016437Y004897D01*
X016770Y005230D01*
G37*
G36*
X017770Y005230D02*
X018103Y004897D01*
X017770Y004564D01*
X017437Y004897D01*
X017770Y005230D01*
G37*
G36*
X018770Y005230D02*
X019103Y004897D01*
X018770Y004564D01*
X018437Y004897D01*
X018770Y005230D01*
G37*
G36*
X019770Y005230D02*
X020103Y004897D01*
X019770Y004564D01*
X019437Y004897D01*
X019770Y005230D01*
G37*
G36*
X020770Y005230D02*
X021103Y004897D01*
X020770Y004564D01*
X020437Y004897D01*
X020770Y005230D01*
G37*
G36*
X021770Y005230D02*
X022103Y004897D01*
X021770Y004564D01*
X021437Y004897D01*
X021770Y005230D01*
G37*
G36*
X022770Y005230D02*
X023103Y004897D01*
X022770Y004564D01*
X022437Y004897D01*
X022770Y005230D01*
G37*
G36*
X023770Y005230D02*
X024103Y004897D01*
X023770Y004564D01*
X023437Y004897D01*
X023770Y005230D01*
G37*
G36*
X024770Y005230D02*
X025103Y004897D01*
X024770Y004564D01*
X024437Y004897D01*
X024770Y005230D01*
G37*
G36*
X025770Y005230D02*
X026103Y004897D01*
X025770Y004564D01*
X025437Y004897D01*
X025770Y005230D01*
G37*
G36*
X026770Y005230D02*
X027103Y004897D01*
X026770Y004564D01*
X026437Y004897D01*
X026770Y005230D01*
G37*
G36*
X027770Y005230D02*
X028103Y004897D01*
X027770Y004564D01*
X027437Y004897D01*
X027770Y005230D01*
G37*
G36*
X028770Y005230D02*
X029103Y004897D01*
X028770Y004564D01*
X028437Y004897D01*
X028770Y005230D01*
G37*
G36*
X029770Y005230D02*
X030103Y004897D01*
X029770Y004564D01*
X029437Y004897D01*
X029770Y005230D01*
G37*
G36*
X030770Y005230D02*
X031103Y004897D01*
X030770Y004564D01*
X030437Y004897D01*
X030770Y005230D01*
G37*
G36*
X031770Y005230D02*
X032103Y004897D01*
X031770Y004564D01*
X031437Y004897D01*
X031770Y005230D01*
G37*
G36*
X031354Y004815D02*
X031687Y004482D01*
X031354Y004149D01*
X031021Y004482D01*
X031354Y004815D01*
G37*
G36*
X030354Y004815D02*
X030687Y004482D01*
X030354Y004149D01*
X030021Y004482D01*
X030354Y004815D01*
G37*
G36*
X029354Y004815D02*
X029687Y004482D01*
X029354Y004149D01*
X029021Y004482D01*
X029354Y004815D01*
G37*
G36*
X028354Y004815D02*
X028687Y004482D01*
X028354Y004149D01*
X028021Y004482D01*
X028354Y004815D01*
G37*
G36*
X027354Y004815D02*
X027687Y004482D01*
X027354Y004149D01*
X027021Y004482D01*
X027354Y004815D01*
G37*
G36*
X026354Y004815D02*
X026687Y004482D01*
X026354Y004149D01*
X026021Y004482D01*
X026354Y004815D01*
G37*
G36*
X025354Y004815D02*
X025687Y004482D01*
X025354Y004149D01*
X025021Y004482D01*
X025354Y004815D01*
G37*
G36*
X024354Y004815D02*
X024687Y004482D01*
X024354Y004149D01*
X024021Y004482D01*
X024354Y004815D01*
G37*
G36*
X023354Y004815D02*
X023687Y004482D01*
X023354Y004149D01*
X023021Y004482D01*
X023354Y004815D01*
G37*
G36*
X022354Y004815D02*
X022687Y004482D01*
X022354Y004149D01*
X022021Y004482D01*
X022354Y004815D01*
G37*
G36*
X021354Y004815D02*
X021687Y004482D01*
X021354Y004149D01*
X021021Y004482D01*
X021354Y004815D01*
G37*
G36*
X020354Y004815D02*
X020687Y004482D01*
X020354Y004149D01*
X020021Y004482D01*
X020354Y004815D01*
G37*
G36*
X019354Y004815D02*
X019687Y004482D01*
X019354Y004149D01*
X019021Y004482D01*
X019354Y004815D01*
G37*
G36*
X018354Y004815D02*
X018687Y004482D01*
X018354Y004149D01*
X018021Y004482D01*
X018354Y004815D01*
G37*
G36*
X017354Y004815D02*
X017687Y004482D01*
X017354Y004149D01*
X017021Y004482D01*
X017354Y004815D01*
G37*
G36*
X016354Y004815D02*
X016687Y004482D01*
X016354Y004149D01*
X016021Y004482D01*
X016354Y004815D01*
G37*
G36*
X015354Y004815D02*
X015687Y004482D01*
X015354Y004149D01*
X015021Y004482D01*
X015354Y004815D01*
G37*
G36*
X014354Y004815D02*
X014687Y004482D01*
X014354Y004149D01*
X014021Y004482D01*
X014354Y004815D01*
G37*
G36*
X013354Y004815D02*
X013687Y004482D01*
X013354Y004149D01*
X013021Y004482D01*
X013354Y004815D01*
G37*
G36*
X012354Y004815D02*
X012687Y004482D01*
X012354Y004149D01*
X012021Y004482D01*
X012354Y004815D01*
G37*
G36*
X011354Y004815D02*
X011687Y004482D01*
X011354Y004149D01*
X011021Y004482D01*
X011354Y004815D01*
G37*
G36*
X010354Y004815D02*
X010687Y004482D01*
X010354Y004149D01*
X010021Y004482D01*
X010354Y004815D01*
G37*
G36*
X009354Y004815D02*
X009687Y004482D01*
X009354Y004149D01*
X009021Y004482D01*
X009354Y004815D01*
G37*
G36*
X008354Y004815D02*
X008687Y004482D01*
X008354Y004149D01*
X008021Y004482D01*
X008354Y004815D01*
G37*
G36*
X007354Y004815D02*
X007687Y004482D01*
X007354Y004149D01*
X007021Y004482D01*
X007354Y004815D01*
G37*
G36*
X006354Y004815D02*
X006687Y004482D01*
X006354Y004149D01*
X006021Y004482D01*
X006354Y004815D01*
G37*
G36*
X005354Y004815D02*
X005687Y004482D01*
X005354Y004149D01*
X005021Y004482D01*
X005354Y004815D01*
G37*
G36*
X004354Y004815D02*
X004687Y004482D01*
X004354Y004149D01*
X004021Y004482D01*
X004354Y004815D01*
G37*
G36*
X003354Y004815D02*
X003687Y004482D01*
X003354Y004149D01*
X003021Y004482D01*
X003354Y004815D01*
G37*
G36*
X002354Y004815D02*
X002687Y004482D01*
X002354Y004149D01*
X002021Y004482D01*
X002354Y004815D01*
G37*
G36*
X002770Y004230D02*
X003103Y003897D01*
X002770Y003564D01*
X002437Y003897D01*
X002770Y004230D01*
G37*
G36*
X003770Y004230D02*
X004103Y003897D01*
X003770Y003564D01*
X003437Y003897D01*
X003770Y004230D01*
G37*
G36*
X004770Y004230D02*
X005103Y003897D01*
X004770Y003564D01*
X004437Y003897D01*
X004770Y004230D01*
G37*
G36*
X005770Y004230D02*
X006103Y003897D01*
X005770Y003564D01*
X005437Y003897D01*
X005770Y004230D01*
G37*
G36*
X006770Y004230D02*
X007103Y003897D01*
X006770Y003564D01*
X006437Y003897D01*
X006770Y004230D01*
G37*
G36*
X007770Y004230D02*
X008103Y003897D01*
X007770Y003564D01*
X007437Y003897D01*
X007770Y004230D01*
G37*
G36*
X008770Y004230D02*
X009103Y003897D01*
X008770Y003564D01*
X008437Y003897D01*
X008770Y004230D01*
G37*
G36*
X009770Y004230D02*
X010103Y003897D01*
X009770Y003564D01*
X009437Y003897D01*
X009770Y004230D01*
G37*
G36*
X010770Y004230D02*
X011103Y003897D01*
X010770Y003564D01*
X010437Y003897D01*
X010770Y004230D01*
G37*
G36*
X011770Y004230D02*
X012103Y003897D01*
X011770Y003564D01*
X011437Y003897D01*
X011770Y004230D01*
G37*
G36*
X012770Y004230D02*
X013103Y003897D01*
X012770Y003564D01*
X012437Y003897D01*
X012770Y004230D01*
G37*
G36*
X013770Y004230D02*
X014103Y003897D01*
X013770Y003564D01*
X013437Y003897D01*
X013770Y004230D01*
G37*
G36*
X014770Y004230D02*
X015103Y003897D01*
X014770Y003564D01*
X014437Y003897D01*
X014770Y004230D01*
G37*
G36*
X015770Y004230D02*
X016103Y003897D01*
X015770Y003564D01*
X015437Y003897D01*
X015770Y004230D01*
G37*
G36*
X016770Y004230D02*
X017103Y003897D01*
X016770Y003564D01*
X016437Y003897D01*
X016770Y004230D01*
G37*
G36*
X017770Y004230D02*
X018103Y003897D01*
X017770Y003564D01*
X017437Y003897D01*
X017770Y004230D01*
G37*
G36*
X018770Y004230D02*
X019103Y003897D01*
X018770Y003564D01*
X018437Y003897D01*
X018770Y004230D01*
G37*
G36*
X019770Y004230D02*
X020103Y003897D01*
X019770Y003564D01*
X019437Y003897D01*
X019770Y004230D01*
G37*
G36*
X020770Y004230D02*
X021103Y003897D01*
X020770Y003564D01*
X020437Y003897D01*
X020770Y004230D01*
G37*
G36*
X021770Y004230D02*
X022103Y003897D01*
X021770Y003564D01*
X021437Y003897D01*
X021770Y004230D01*
G37*
G36*
X022770Y004230D02*
X023103Y003897D01*
X022770Y003564D01*
X022437Y003897D01*
X022770Y004230D01*
G37*
G36*
X023770Y004230D02*
X024103Y003897D01*
X023770Y003564D01*
X023437Y003897D01*
X023770Y004230D01*
G37*
G36*
X024770Y004230D02*
X025103Y003897D01*
X024770Y003564D01*
X024437Y003897D01*
X024770Y004230D01*
G37*
G36*
X025770Y004230D02*
X026103Y003897D01*
X025770Y003564D01*
X025437Y003897D01*
X025770Y004230D01*
G37*
G36*
X026770Y004230D02*
X027103Y003897D01*
X026770Y003564D01*
X026437Y003897D01*
X026770Y004230D01*
G37*
G36*
X027770Y004230D02*
X028103Y003897D01*
X027770Y003564D01*
X027437Y003897D01*
X027770Y004230D01*
G37*
G36*
X028770Y004230D02*
X029103Y003897D01*
X028770Y003564D01*
X028437Y003897D01*
X028770Y004230D01*
G37*
G36*
X029770Y004230D02*
X030103Y003897D01*
X029770Y003564D01*
X029437Y003897D01*
X029770Y004230D01*
G37*
G36*
X030770Y004230D02*
X031103Y003897D01*
X030770Y003564D01*
X030437Y003897D01*
X030770Y004230D01*
G37*
G36*
X031770Y004230D02*
X032103Y003897D01*
X031770Y003564D01*
X031437Y003897D01*
X031770Y004230D01*
G37*
G36*
X032354Y004815D02*
X032687Y004482D01*
X032354Y004149D01*
X032021Y004482D01*
X032354Y004815D01*
G37*
G36*
X032354Y003815D02*
X032687Y003482D01*
X032354Y003149D01*
X032021Y003482D01*
X032354Y003815D01*
G37*
G36*
X031354Y003815D02*
X031687Y003482D01*
X031354Y003149D01*
X031021Y003482D01*
X031354Y003815D01*
G37*
G36*
X030354Y003815D02*
X030687Y003482D01*
X030354Y003149D01*
X030021Y003482D01*
X030354Y003815D01*
G37*
G36*
X029354Y003815D02*
X029687Y003482D01*
X029354Y003149D01*
X029021Y003482D01*
X029354Y003815D01*
G37*
G36*
X028354Y003815D02*
X028687Y003482D01*
X028354Y003149D01*
X028021Y003482D01*
X028354Y003815D01*
G37*
G36*
X027354Y003815D02*
X027687Y003482D01*
X027354Y003149D01*
X027021Y003482D01*
X027354Y003815D01*
G37*
G36*
X026354Y003815D02*
X026687Y003482D01*
X026354Y003149D01*
X026021Y003482D01*
X026354Y003815D01*
G37*
G36*
X025354Y003815D02*
X025687Y003482D01*
X025354Y003149D01*
X025021Y003482D01*
X025354Y003815D01*
G37*
G36*
X024354Y003815D02*
X024687Y003482D01*
X024354Y003149D01*
X024021Y003482D01*
X024354Y003815D01*
G37*
G36*
X023354Y003815D02*
X023687Y003482D01*
X023354Y003149D01*
X023021Y003482D01*
X023354Y003815D01*
G37*
G36*
X022354Y003815D02*
X022687Y003482D01*
X022354Y003149D01*
X022021Y003482D01*
X022354Y003815D01*
G37*
G36*
X021354Y003815D02*
X021687Y003482D01*
X021354Y003149D01*
X021021Y003482D01*
X021354Y003815D01*
G37*
G36*
X020354Y003815D02*
X020687Y003482D01*
X020354Y003149D01*
X020021Y003482D01*
X020354Y003815D01*
G37*
G36*
X019354Y003815D02*
X019687Y003482D01*
X019354Y003149D01*
X019021Y003482D01*
X019354Y003815D01*
G37*
G36*
X018354Y003815D02*
X018687Y003482D01*
X018354Y003149D01*
X018021Y003482D01*
X018354Y003815D01*
G37*
G36*
X017354Y003815D02*
X017687Y003482D01*
X017354Y003149D01*
X017021Y003482D01*
X017354Y003815D01*
G37*
G36*
X016354Y003815D02*
X016687Y003482D01*
X016354Y003149D01*
X016021Y003482D01*
X016354Y003815D01*
G37*
G36*
X015354Y003815D02*
X015687Y003482D01*
X015354Y003149D01*
X015021Y003482D01*
X015354Y003815D01*
G37*
G36*
X014354Y003815D02*
X014687Y003482D01*
X014354Y003149D01*
X014021Y003482D01*
X014354Y003815D01*
G37*
G36*
X013354Y003815D02*
X013687Y003482D01*
X013354Y003149D01*
X013021Y003482D01*
X013354Y003815D01*
G37*
G36*
X012354Y003815D02*
X012687Y003482D01*
X012354Y003149D01*
X012021Y003482D01*
X012354Y003815D01*
G37*
G36*
X011354Y003815D02*
X011687Y003482D01*
X011354Y003149D01*
X011021Y003482D01*
X011354Y003815D01*
G37*
G36*
X010354Y003815D02*
X010687Y003482D01*
X010354Y003149D01*
X010021Y003482D01*
X010354Y003815D01*
G37*
G36*
X009354Y003815D02*
X009687Y003482D01*
X009354Y003149D01*
X009021Y003482D01*
X009354Y003815D01*
G37*
G36*
X008354Y003815D02*
X008687Y003482D01*
X008354Y003149D01*
X008021Y003482D01*
X008354Y003815D01*
G37*
G36*
X007354Y003815D02*
X007687Y003482D01*
X007354Y003149D01*
X007021Y003482D01*
X007354Y003815D01*
G37*
G36*
X006354Y003815D02*
X006687Y003482D01*
X006354Y003149D01*
X006021Y003482D01*
X006354Y003815D01*
G37*
G36*
X005354Y003815D02*
X005687Y003482D01*
X005354Y003149D01*
X005021Y003482D01*
X005354Y003815D01*
G37*
G36*
X004354Y003815D02*
X004687Y003482D01*
X004354Y003149D01*
X004021Y003482D01*
X004354Y003815D01*
G37*
G36*
X003354Y003815D02*
X003687Y003482D01*
X003354Y003149D01*
X003021Y003482D01*
X003354Y003815D01*
G37*
G36*
X002354Y003815D02*
X002687Y003482D01*
X002354Y003149D01*
X002021Y003482D01*
X002354Y003815D01*
G37*
G36*
X002770Y003230D02*
X003103Y002897D01*
X002770Y002564D01*
X002437Y002897D01*
X002770Y003230D01*
G37*
G36*
X003770Y003230D02*
X004103Y002897D01*
X003770Y002564D01*
X003437Y002897D01*
X003770Y003230D01*
G37*
G36*
X004770Y003230D02*
X005103Y002897D01*
X004770Y002564D01*
X004437Y002897D01*
X004770Y003230D01*
G37*
G36*
X005770Y003230D02*
X006103Y002897D01*
X005770Y002564D01*
X005437Y002897D01*
X005770Y003230D01*
G37*
G36*
X006770Y003230D02*
X007103Y002897D01*
X006770Y002564D01*
X006437Y002897D01*
X006770Y003230D01*
G37*
G36*
X007770Y003230D02*
X008103Y002897D01*
X007770Y002564D01*
X007437Y002897D01*
X007770Y003230D01*
G37*
G36*
X008770Y003230D02*
X009103Y002897D01*
X008770Y002564D01*
X008437Y002897D01*
X008770Y003230D01*
G37*
G36*
X009770Y003230D02*
X010103Y002897D01*
X009770Y002564D01*
X009437Y002897D01*
X009770Y003230D01*
G37*
G36*
X010770Y003230D02*
X011103Y002897D01*
X010770Y002564D01*
X010437Y002897D01*
X010770Y003230D01*
G37*
G36*
X011770Y003230D02*
X012103Y002897D01*
X011770Y002564D01*
X011437Y002897D01*
X011770Y003230D01*
G37*
G36*
X012770Y003230D02*
X013103Y002897D01*
X012770Y002564D01*
X012437Y002897D01*
X012770Y003230D01*
G37*
G36*
X013770Y003230D02*
X014103Y002897D01*
X013770Y002564D01*
X013437Y002897D01*
X013770Y003230D01*
G37*
G36*
X014770Y003230D02*
X015103Y002897D01*
X014770Y002564D01*
X014437Y002897D01*
X014770Y003230D01*
G37*
G36*
X015770Y003230D02*
X016103Y002897D01*
X015770Y002564D01*
X015437Y002897D01*
X015770Y003230D01*
G37*
G36*
X016770Y003230D02*
X017103Y002897D01*
X016770Y002564D01*
X016437Y002897D01*
X016770Y003230D01*
G37*
G36*
X017770Y003230D02*
X018103Y002897D01*
X017770Y002564D01*
X017437Y002897D01*
X017770Y003230D01*
G37*
G36*
X018770Y003230D02*
X019103Y002897D01*
X018770Y002564D01*
X018437Y002897D01*
X018770Y003230D01*
G37*
G36*
X019770Y003230D02*
X020103Y002897D01*
X019770Y002564D01*
X019437Y002897D01*
X019770Y003230D01*
G37*
G36*
X020770Y003230D02*
X021103Y002897D01*
X020770Y002564D01*
X020437Y002897D01*
X020770Y003230D01*
G37*
G36*
X021770Y003230D02*
X022103Y002897D01*
X021770Y002564D01*
X021437Y002897D01*
X021770Y003230D01*
G37*
G36*
X022770Y003230D02*
X023103Y002897D01*
X022770Y002564D01*
X022437Y002897D01*
X022770Y003230D01*
G37*
G36*
X023770Y003230D02*
X024103Y002897D01*
X023770Y002564D01*
X023437Y002897D01*
X023770Y003230D01*
G37*
G36*
X024770Y003230D02*
X025103Y002897D01*
X024770Y002564D01*
X024437Y002897D01*
X024770Y003230D01*
G37*
G36*
X025770Y003230D02*
X026103Y002897D01*
X025770Y002564D01*
X025437Y002897D01*
X025770Y003230D01*
G37*
G36*
X026770Y003230D02*
X027103Y002897D01*
X026770Y002564D01*
X026437Y002897D01*
X026770Y003230D01*
G37*
G36*
X027770Y003230D02*
X028103Y002897D01*
X027770Y002564D01*
X027437Y002897D01*
X027770Y003230D01*
G37*
G36*
X028770Y003230D02*
X029103Y002897D01*
X028770Y002564D01*
X028437Y002897D01*
X028770Y003230D01*
G37*
G36*
X029770Y003230D02*
X030103Y002897D01*
X029770Y002564D01*
X029437Y002897D01*
X029770Y003230D01*
G37*
G36*
X030770Y003230D02*
X031103Y002897D01*
X030770Y002564D01*
X030437Y002897D01*
X030770Y003230D01*
G37*
G36*
X031770Y003230D02*
X032103Y002897D01*
X031770Y002564D01*
X031437Y002897D01*
X031770Y003230D01*
G37*
G36*
X031354Y002815D02*
X031687Y002482D01*
X031354Y002149D01*
X031021Y002482D01*
X031354Y002815D01*
G37*
G36*
X030354Y002815D02*
X030687Y002482D01*
X030354Y002149D01*
X030021Y002482D01*
X030354Y002815D01*
G37*
G36*
X029354Y002815D02*
X029687Y002482D01*
X029354Y002149D01*
X029021Y002482D01*
X029354Y002815D01*
G37*
G36*
X028354Y002815D02*
X028687Y002482D01*
X028354Y002149D01*
X028021Y002482D01*
X028354Y002815D01*
G37*
G36*
X027354Y002815D02*
X027687Y002482D01*
X027354Y002149D01*
X027021Y002482D01*
X027354Y002815D01*
G37*
G36*
X026354Y002815D02*
X026687Y002482D01*
X026354Y002149D01*
X026021Y002482D01*
X026354Y002815D01*
G37*
G36*
X025354Y002815D02*
X025687Y002482D01*
X025354Y002149D01*
X025021Y002482D01*
X025354Y002815D01*
G37*
G36*
X024354Y002815D02*
X024687Y002482D01*
X024354Y002149D01*
X024021Y002482D01*
X024354Y002815D01*
G37*
G36*
X023354Y002815D02*
X023687Y002482D01*
X023354Y002149D01*
X023021Y002482D01*
X023354Y002815D01*
G37*
G36*
X022354Y002815D02*
X022687Y002482D01*
X022354Y002149D01*
X022021Y002482D01*
X022354Y002815D01*
G37*
G36*
X021354Y002815D02*
X021687Y002482D01*
X021354Y002149D01*
X021021Y002482D01*
X021354Y002815D01*
G37*
G36*
X020354Y002815D02*
X020687Y002482D01*
X020354Y002149D01*
X020021Y002482D01*
X020354Y002815D01*
G37*
G36*
X019354Y002815D02*
X019687Y002482D01*
X019354Y002149D01*
X019021Y002482D01*
X019354Y002815D01*
G37*
G36*
X018354Y002815D02*
X018687Y002482D01*
X018354Y002149D01*
X018021Y002482D01*
X018354Y002815D01*
G37*
G36*
X017354Y002815D02*
X017687Y002482D01*
X017354Y002149D01*
X017021Y002482D01*
X017354Y002815D01*
G37*
G36*
X016354Y002815D02*
X016687Y002482D01*
X016354Y002149D01*
X016021Y002482D01*
X016354Y002815D01*
G37*
G36*
X015354Y002815D02*
X015687Y002482D01*
X015354Y002149D01*
X015021Y002482D01*
X015354Y002815D01*
G37*
G36*
X014354Y002815D02*
X014687Y002482D01*
X014354Y002149D01*
X014021Y002482D01*
X014354Y002815D01*
G37*
G36*
X013354Y002815D02*
X013687Y002482D01*
X013354Y002149D01*
X013021Y002482D01*
X013354Y002815D01*
G37*
G36*
X012354Y002815D02*
X012687Y002482D01*
X012354Y002149D01*
X012021Y002482D01*
X012354Y002815D01*
G37*
G36*
X011354Y002815D02*
X011687Y002482D01*
X011354Y002149D01*
X011021Y002482D01*
X011354Y002815D01*
G37*
G36*
X010354Y002815D02*
X010687Y002482D01*
X010354Y002149D01*
X010021Y002482D01*
X010354Y002815D01*
G37*
G36*
X009354Y002815D02*
X009687Y002482D01*
X009354Y002149D01*
X009021Y002482D01*
X009354Y002815D01*
G37*
G36*
X008354Y002815D02*
X008687Y002482D01*
X008354Y002149D01*
X008021Y002482D01*
X008354Y002815D01*
G37*
G36*
X007354Y002815D02*
X007687Y002482D01*
X007354Y002149D01*
X007021Y002482D01*
X007354Y002815D01*
G37*
G36*
X006354Y002815D02*
X006687Y002482D01*
X006354Y002149D01*
X006021Y002482D01*
X006354Y002815D01*
G37*
G36*
X005354Y002815D02*
X005687Y002482D01*
X005354Y002149D01*
X005021Y002482D01*
X005354Y002815D01*
G37*
G36*
X004354Y002815D02*
X004687Y002482D01*
X004354Y002149D01*
X004021Y002482D01*
X004354Y002815D01*
G37*
G36*
X003354Y002815D02*
X003687Y002482D01*
X003354Y002149D01*
X003021Y002482D01*
X003354Y002815D01*
G37*
G36*
X002354Y002815D02*
X002687Y002482D01*
X002354Y002149D01*
X002021Y002482D01*
X002354Y002815D01*
G37*
G36*
X002770Y002230D02*
X003103Y001897D01*
X002770Y001564D01*
X002437Y001897D01*
X002770Y002230D01*
G37*
G36*
X003770Y002230D02*
X004103Y001897D01*
X003770Y001564D01*
X003437Y001897D01*
X003770Y002230D01*
G37*
G36*
X004770Y002230D02*
X005103Y001897D01*
X004770Y001564D01*
X004437Y001897D01*
X004770Y002230D01*
G37*
G36*
X005770Y002230D02*
X006103Y001897D01*
X005770Y001564D01*
X005437Y001897D01*
X005770Y002230D01*
G37*
G36*
X006770Y002230D02*
X007103Y001897D01*
X006770Y001564D01*
X006437Y001897D01*
X006770Y002230D01*
G37*
G36*
X007770Y002230D02*
X008103Y001897D01*
X007770Y001564D01*
X007437Y001897D01*
X007770Y002230D01*
G37*
G36*
X008770Y002230D02*
X009103Y001897D01*
X008770Y001564D01*
X008437Y001897D01*
X008770Y002230D01*
G37*
G36*
X009770Y002230D02*
X010103Y001897D01*
X009770Y001564D01*
X009437Y001897D01*
X009770Y002230D01*
G37*
G36*
X010770Y002230D02*
X011103Y001897D01*
X010770Y001564D01*
X010437Y001897D01*
X010770Y002230D01*
G37*
G36*
X011770Y002230D02*
X012103Y001897D01*
X011770Y001564D01*
X011437Y001897D01*
X011770Y002230D01*
G37*
G36*
X012770Y002230D02*
X013103Y001897D01*
X012770Y001564D01*
X012437Y001897D01*
X012770Y002230D01*
G37*
G36*
X013770Y002230D02*
X014103Y001897D01*
X013770Y001564D01*
X013437Y001897D01*
X013770Y002230D01*
G37*
G36*
X014770Y002230D02*
X015103Y001897D01*
X014770Y001564D01*
X014437Y001897D01*
X014770Y002230D01*
G37*
G36*
X015770Y002230D02*
X016103Y001897D01*
X015770Y001564D01*
X015437Y001897D01*
X015770Y002230D01*
G37*
G36*
X016770Y002230D02*
X017103Y001897D01*
X016770Y001564D01*
X016437Y001897D01*
X016770Y002230D01*
G37*
G36*
X017770Y002230D02*
X018103Y001897D01*
X017770Y001564D01*
X017437Y001897D01*
X017770Y002230D01*
G37*
G36*
X018770Y002230D02*
X019103Y001897D01*
X018770Y001564D01*
X018437Y001897D01*
X018770Y002230D01*
G37*
G36*
X019770Y002230D02*
X020103Y001897D01*
X019770Y001564D01*
X019437Y001897D01*
X019770Y002230D01*
G37*
G36*
X020770Y002230D02*
X021103Y001897D01*
X020770Y001564D01*
X020437Y001897D01*
X020770Y002230D01*
G37*
G36*
X021770Y002230D02*
X022103Y001897D01*
X021770Y001564D01*
X021437Y001897D01*
X021770Y002230D01*
G37*
G36*
X022770Y002230D02*
X023103Y001897D01*
X022770Y001564D01*
X022437Y001897D01*
X022770Y002230D01*
G37*
G36*
X023770Y002230D02*
X024103Y001897D01*
X023770Y001564D01*
X023437Y001897D01*
X023770Y002230D01*
G37*
G36*
X024770Y002230D02*
X025103Y001897D01*
X024770Y001564D01*
X024437Y001897D01*
X024770Y002230D01*
G37*
G36*
X025770Y002230D02*
X026103Y001897D01*
X025770Y001564D01*
X025437Y001897D01*
X025770Y002230D01*
G37*
G36*
X026770Y002230D02*
X027103Y001897D01*
X026770Y001564D01*
X026437Y001897D01*
X026770Y002230D01*
G37*
G36*
X027770Y002230D02*
X028103Y001897D01*
X027770Y001564D01*
X027437Y001897D01*
X027770Y002230D01*
G37*
G36*
X028770Y002230D02*
X029103Y001897D01*
X028770Y001564D01*
X028437Y001897D01*
X028770Y002230D01*
G37*
G36*
X029770Y002230D02*
X030103Y001897D01*
X029770Y001564D01*
X029437Y001897D01*
X029770Y002230D01*
G37*
G36*
X030770Y002230D02*
X031103Y001897D01*
X030770Y001564D01*
X030437Y001897D01*
X030770Y002230D01*
G37*
G36*
X031770Y002230D02*
X032103Y001897D01*
X031770Y001564D01*
X031437Y001897D01*
X031770Y002230D01*
G37*
G36*
X032354Y002815D02*
X032687Y002482D01*
X032354Y002149D01*
X032021Y002482D01*
X032354Y002815D01*
G37*
G36*
X032354Y001815D02*
X032687Y001482D01*
X032354Y001149D01*
X032021Y001482D01*
X032354Y001815D01*
G37*
G36*
X031354Y001815D02*
X031687Y001482D01*
X031354Y001149D01*
X031021Y001482D01*
X031354Y001815D01*
G37*
G36*
X030354Y001815D02*
X030687Y001482D01*
X030354Y001149D01*
X030021Y001482D01*
X030354Y001815D01*
G37*
G36*
X029354Y001815D02*
X029687Y001482D01*
X029354Y001149D01*
X029021Y001482D01*
X029354Y001815D01*
G37*
G36*
X028354Y001815D02*
X028687Y001482D01*
X028354Y001149D01*
X028021Y001482D01*
X028354Y001815D01*
G37*
G36*
X027354Y001815D02*
X027687Y001482D01*
X027354Y001149D01*
X027021Y001482D01*
X027354Y001815D01*
G37*
G36*
X026354Y001815D02*
X026687Y001482D01*
X026354Y001149D01*
X026021Y001482D01*
X026354Y001815D01*
G37*
G36*
X025354Y001815D02*
X025687Y001482D01*
X025354Y001149D01*
X025021Y001482D01*
X025354Y001815D01*
G37*
G36*
X024354Y001815D02*
X024687Y001482D01*
X024354Y001149D01*
X024021Y001482D01*
X024354Y001815D01*
G37*
G36*
X023354Y001815D02*
X023687Y001482D01*
X023354Y001149D01*
X023021Y001482D01*
X023354Y001815D01*
G37*
G36*
X022354Y001815D02*
X022687Y001482D01*
X022354Y001149D01*
X022021Y001482D01*
X022354Y001815D01*
G37*
G36*
X021354Y001815D02*
X021687Y001482D01*
X021354Y001149D01*
X021021Y001482D01*
X021354Y001815D01*
G37*
G36*
X020354Y001815D02*
X020687Y001482D01*
X020354Y001149D01*
X020021Y001482D01*
X020354Y001815D01*
G37*
G36*
X019354Y001815D02*
X019687Y001482D01*
X019354Y001149D01*
X019021Y001482D01*
X019354Y001815D01*
G37*
G36*
X018354Y001815D02*
X018687Y001482D01*
X018354Y001149D01*
X018021Y001482D01*
X018354Y001815D01*
G37*
G36*
X017354Y001815D02*
X017687Y001482D01*
X017354Y001149D01*
X017021Y001482D01*
X017354Y001815D01*
G37*
G36*
X016354Y001815D02*
X016687Y001482D01*
X016354Y001149D01*
X016021Y001482D01*
X016354Y001815D01*
G37*
G36*
X015354Y001815D02*
X015687Y001482D01*
X015354Y001149D01*
X015021Y001482D01*
X015354Y001815D01*
G37*
G36*
X014354Y001815D02*
X014687Y001482D01*
X014354Y001149D01*
X014021Y001482D01*
X014354Y001815D01*
G37*
G36*
X013354Y001815D02*
X013687Y001482D01*
X013354Y001149D01*
X013021Y001482D01*
X013354Y001815D01*
G37*
G36*
X012354Y001815D02*
X012687Y001482D01*
X012354Y001149D01*
X012021Y001482D01*
X012354Y001815D01*
G37*
G36*
X011354Y001815D02*
X011687Y001482D01*
X011354Y001149D01*
X011021Y001482D01*
X011354Y001815D01*
G37*
G36*
X010354Y001815D02*
X010687Y001482D01*
X010354Y001149D01*
X010021Y001482D01*
X010354Y001815D01*
G37*
G36*
X009354Y001815D02*
X009687Y001482D01*
X009354Y001149D01*
X009021Y001482D01*
X009354Y001815D01*
G37*
G36*
X008354Y001815D02*
X008687Y001482D01*
X008354Y001149D01*
X008021Y001482D01*
X008354Y001815D01*
G37*
G36*
X007354Y001815D02*
X007687Y001482D01*
X007354Y001149D01*
X007021Y001482D01*
X007354Y001815D01*
G37*
G36*
X006354Y001815D02*
X006687Y001482D01*
X006354Y001149D01*
X006021Y001482D01*
X006354Y001815D01*
G37*
G36*
X005354Y001815D02*
X005687Y001482D01*
X005354Y001149D01*
X005021Y001482D01*
X005354Y001815D01*
G37*
G36*
X004354Y001815D02*
X004687Y001482D01*
X004354Y001149D01*
X004021Y001482D01*
X004354Y001815D01*
G37*
G36*
X003354Y001815D02*
X003687Y001482D01*
X003354Y001149D01*
X003021Y001482D01*
X003354Y001815D01*
G37*
G36*
X002354Y001815D02*
X002687Y001482D01*
X002354Y001149D01*
X002021Y001482D01*
X002354Y001815D01*
G37*
G36*
X002770Y001230D02*
X003103Y000897D01*
X002770Y000564D01*
X002437Y000897D01*
X002770Y001230D01*
G37*
G36*
X003770Y001230D02*
X004103Y000897D01*
X003770Y000564D01*
X003437Y000897D01*
X003770Y001230D01*
G37*
G36*
X004770Y001230D02*
X005103Y000897D01*
X004770Y000564D01*
X004437Y000897D01*
X004770Y001230D01*
G37*
G36*
X005770Y001230D02*
X006103Y000897D01*
X005770Y000564D01*
X005437Y000897D01*
X005770Y001230D01*
G37*
G36*
X006770Y001230D02*
X007103Y000897D01*
X006770Y000564D01*
X006437Y000897D01*
X006770Y001230D01*
G37*
G36*
X007770Y001230D02*
X008103Y000897D01*
X007770Y000564D01*
X007437Y000897D01*
X007770Y001230D01*
G37*
G36*
X008770Y001230D02*
X009103Y000897D01*
X008770Y000564D01*
X008437Y000897D01*
X008770Y001230D01*
G37*
G36*
X009770Y001230D02*
X010103Y000897D01*
X009770Y000564D01*
X009437Y000897D01*
X009770Y001230D01*
G37*
G36*
X010770Y001230D02*
X011103Y000897D01*
X010770Y000564D01*
X010437Y000897D01*
X010770Y001230D01*
G37*
G36*
X011770Y001230D02*
X012103Y000897D01*
X011770Y000564D01*
X011437Y000897D01*
X011770Y001230D01*
G37*
G36*
X012770Y001230D02*
X013103Y000897D01*
X012770Y000564D01*
X012437Y000897D01*
X012770Y001230D01*
G37*
G36*
X013770Y001230D02*
X014103Y000897D01*
X013770Y000564D01*
X013437Y000897D01*
X013770Y001230D01*
G37*
G36*
X014770Y001230D02*
X015103Y000897D01*
X014770Y000564D01*
X014437Y000897D01*
X014770Y001230D01*
G37*
G36*
X015770Y001230D02*
X016103Y000897D01*
X015770Y000564D01*
X015437Y000897D01*
X015770Y001230D01*
G37*
G36*
X016770Y001230D02*
X017103Y000897D01*
X016770Y000564D01*
X016437Y000897D01*
X016770Y001230D01*
G37*
G36*
X017770Y001230D02*
X018103Y000897D01*
X017770Y000564D01*
X017437Y000897D01*
X017770Y001230D01*
G37*
G36*
X018770Y001230D02*
X019103Y000897D01*
X018770Y000564D01*
X018437Y000897D01*
X018770Y001230D01*
G37*
G36*
X019770Y001230D02*
X020103Y000897D01*
X019770Y000564D01*
X019437Y000897D01*
X019770Y001230D01*
G37*
G36*
X020770Y001230D02*
X021103Y000897D01*
X020770Y000564D01*
X020437Y000897D01*
X020770Y001230D01*
G37*
G36*
X021770Y001230D02*
X022103Y000897D01*
X021770Y000564D01*
X021437Y000897D01*
X021770Y001230D01*
G37*
G36*
X022770Y001230D02*
X023103Y000897D01*
X022770Y000564D01*
X022437Y000897D01*
X022770Y001230D01*
G37*
G36*
X023770Y001230D02*
X024103Y000897D01*
X023770Y000564D01*
X023437Y000897D01*
X023770Y001230D01*
G37*
G36*
X024770Y001230D02*
X025103Y000897D01*
X024770Y000564D01*
X024437Y000897D01*
X024770Y001230D01*
G37*
G36*
X025770Y001230D02*
X026103Y000897D01*
X025770Y000564D01*
X025437Y000897D01*
X025770Y001230D01*
G37*
G36*
X026770Y001230D02*
X027103Y000897D01*
X026770Y000564D01*
X026437Y000897D01*
X026770Y001230D01*
G37*
G36*
X027770Y001230D02*
X028103Y000897D01*
X027770Y000564D01*
X027437Y000897D01*
X027770Y001230D01*
G37*
G36*
X028770Y001230D02*
X029103Y000897D01*
X028770Y000564D01*
X028437Y000897D01*
X028770Y001230D01*
G37*
G36*
X029770Y001230D02*
X030103Y000897D01*
X029770Y000564D01*
X029437Y000897D01*
X029770Y001230D01*
G37*
G36*
X030770Y001230D02*
X031103Y000897D01*
X030770Y000564D01*
X030437Y000897D01*
X030770Y001230D01*
G37*
G36*
X031770Y001230D02*
X032103Y000897D01*
X031770Y000564D01*
X031437Y000897D01*
X031770Y001230D01*
G37*
G36*
X001770Y001230D02*
X002103Y000897D01*
X001770Y000564D01*
X001437Y000897D01*
X001770Y001230D01*
G37*
G36*
X000770Y002230D02*
X001103Y001897D01*
X000770Y001564D01*
X000437Y001897D01*
X000770Y002230D01*
G37*
G36*
X000770Y003230D02*
X001103Y002897D01*
X000770Y002564D01*
X000437Y002897D01*
X000770Y003230D01*
G37*
G36*
X000770Y004230D02*
X001103Y003897D01*
X000770Y003564D01*
X000437Y003897D01*
X000770Y004230D01*
G37*
G36*
X000770Y005230D02*
X001103Y004897D01*
X000770Y004564D01*
X000437Y004897D01*
X000770Y005230D01*
G37*
G36*
X000770Y006230D02*
X001103Y005897D01*
X000770Y005564D01*
X000437Y005897D01*
X000770Y006230D01*
G37*
G36*
X000770Y007230D02*
X001103Y006897D01*
X000770Y006564D01*
X000437Y006897D01*
X000770Y007230D01*
G37*
G36*
X000770Y008230D02*
X001103Y007897D01*
X000770Y007564D01*
X000437Y007897D01*
X000770Y008230D01*
G37*
G36*
X000770Y009230D02*
X001103Y008897D01*
X000770Y008564D01*
X000437Y008897D01*
X000770Y009230D01*
G37*
G36*
X000770Y010230D02*
X001103Y009897D01*
X000770Y009564D01*
X000437Y009897D01*
X000770Y010230D01*
G37*
G36*
X000770Y011230D02*
X001103Y010897D01*
X000770Y010564D01*
X000437Y010897D01*
X000770Y011230D01*
G37*
G36*
X000770Y012230D02*
X001103Y011897D01*
X000770Y011564D01*
X000437Y011897D01*
X000770Y012230D01*
G37*
G36*
X000770Y013230D02*
X001103Y012897D01*
X000770Y012564D01*
X000437Y012897D01*
X000770Y013230D01*
G37*
G36*
X000770Y014230D02*
X001103Y013897D01*
X000770Y013564D01*
X000437Y013897D01*
X000770Y014230D01*
G37*
G36*
X000770Y015230D02*
X001103Y014897D01*
X000770Y014564D01*
X000437Y014897D01*
X000770Y015230D01*
G37*
G36*
X000770Y016230D02*
X001103Y015897D01*
X000770Y015564D01*
X000437Y015897D01*
X000770Y016230D01*
G37*
D12*
X001062Y017564D03*
X002062Y017564D03*
X003062Y017564D03*
X004062Y017564D03*
X005062Y017564D03*
X006062Y017564D03*
X007062Y017564D03*
X008062Y017564D03*
X009062Y017564D03*
X010062Y017564D03*
X011062Y017564D03*
X012062Y017564D03*
X013062Y017564D03*
X014062Y017564D03*
X015062Y017564D03*
X016062Y017564D03*
X017062Y017564D03*
X018062Y017564D03*
X019062Y017564D03*
X020062Y017564D03*
X021062Y017564D03*
X022062Y017564D03*
X023062Y017564D03*
X024062Y017564D03*
X025062Y017564D03*
X026062Y017564D03*
X027062Y017564D03*
X028062Y017564D03*
X029062Y017564D03*
X030062Y017564D03*
X031062Y017564D03*
X032062Y017564D03*
X032062Y018564D03*
X031062Y018564D03*
X030062Y018564D03*
X029062Y018564D03*
X028062Y018564D03*
X027062Y018564D03*
X026062Y018564D03*
X025062Y018564D03*
X024062Y018564D03*
X023062Y018564D03*
X022062Y018564D03*
X021062Y018564D03*
X020062Y018564D03*
X019062Y018564D03*
X018062Y018564D03*
X017062Y018564D03*
X016062Y018564D03*
X015062Y018564D03*
X014062Y018564D03*
X013062Y018564D03*
X012062Y018564D03*
X011062Y018564D03*
X010062Y018564D03*
X009062Y018564D03*
X008062Y018564D03*
X007062Y018564D03*
X006062Y018564D03*
X005062Y018564D03*
X004062Y018564D03*
X003062Y018564D03*
X002062Y018564D03*
X001062Y018564D03*
D13*
X001562Y018064D01*
X001562Y017314D01*
X001354Y017107D01*
X001354Y016482D01*
X001187Y016314D01*
X000812Y015939D02*
X000770Y015897D01*
X000770Y015939D01*
X000770Y017272D01*
X001062Y017564D01*
X002354Y017107D02*
X002562Y017314D01*
X002562Y018064D01*
X002062Y018564D01*
X003062Y018564D02*
X003562Y018064D01*
X003562Y017189D01*
X003354Y016982D01*
X003354Y016482D01*
X003187Y016314D01*
X002812Y015939D02*
X002812Y015689D01*
X002354Y015482D02*
X002187Y015314D01*
X001812Y015189D02*
X001812Y014939D01*
X001937Y014939D01*
X001937Y014897D01*
X001770Y014897D01*
X001812Y014939D02*
X000812Y014939D01*
X000812Y014897D01*
X000770Y014897D01*
X001187Y014314D02*
X001354Y014482D01*
X002187Y014314D02*
X002354Y014482D01*
X002812Y014189D02*
X002812Y013939D01*
X002812Y013897D01*
X002770Y013897D01*
X002812Y013939D02*
X003812Y013939D01*
X003812Y013897D01*
X003770Y013897D01*
X003812Y013939D02*
X004812Y013939D01*
X004812Y013897D01*
X004770Y013897D01*
X004812Y013939D02*
X005812Y013939D01*
X005812Y013897D01*
X005770Y013897D01*
X005812Y013939D02*
X006812Y013939D01*
X006812Y013897D01*
X006770Y013897D01*
X006812Y013939D02*
X007812Y013939D01*
X007812Y013897D01*
X007770Y013897D01*
X007812Y013939D02*
X008812Y013939D01*
X008812Y013897D01*
X008770Y013897D01*
X008812Y013939D02*
X009687Y013939D01*
X009687Y013897D01*
X009770Y013897D01*
X009687Y013939D02*
X010687Y013939D01*
X010687Y013897D01*
X010770Y013897D01*
X010687Y013939D02*
X011812Y013939D01*
X011812Y013897D01*
X011770Y013897D01*
X011812Y013939D02*
X012812Y013939D01*
X012812Y013897D01*
X012770Y013897D01*
X012812Y013939D02*
X013812Y013939D01*
X013812Y013897D01*
X013770Y013897D01*
X013812Y013939D02*
X014687Y013939D01*
X014687Y013897D01*
X014770Y013897D01*
X014687Y013939D02*
X015812Y013939D01*
X015812Y013897D01*
X015895Y013897D01*
X015937Y013939D01*
X016727Y013939D01*
X016770Y013897D01*
X016770Y013939D01*
X017812Y013939D01*
X017812Y013897D01*
X017770Y013897D01*
X017812Y013939D02*
X018812Y013939D01*
X018812Y013897D01*
X018770Y013897D01*
X018812Y013939D02*
X019812Y013939D01*
X019812Y013897D01*
X019770Y013897D01*
X019812Y013939D02*
X020812Y013939D01*
X020812Y013897D01*
X020770Y013897D01*
X020812Y013939D02*
X021812Y013939D01*
X021812Y013897D01*
X021770Y013897D01*
X021812Y013939D02*
X022812Y013939D01*
X022812Y013897D01*
X022770Y013897D01*
X022812Y013939D02*
X023812Y013939D01*
X023812Y013897D01*
X023770Y013897D01*
X023812Y013939D02*
X024812Y013939D01*
X024812Y013897D01*
X024770Y013897D01*
X024812Y013939D02*
X025687Y013939D01*
X025687Y013897D01*
X025770Y013897D01*
X025687Y013939D02*
X026687Y013939D01*
X026687Y013897D01*
X026770Y013897D01*
X026687Y013939D02*
X027812Y013939D01*
X027812Y013897D01*
X027770Y013897D01*
X027812Y013939D02*
X028812Y013939D01*
X028812Y013897D01*
X028770Y013897D01*
X028812Y013939D02*
X029812Y013939D01*
X029812Y014189D01*
X030187Y014314D02*
X030354Y014482D01*
X030687Y014897D02*
X030687Y014939D01*
X030687Y015064D01*
X030812Y015189D01*
X030687Y014939D02*
X031770Y014939D01*
X031770Y014897D01*
X031354Y014482D02*
X031187Y014314D01*
X030770Y013897D02*
X030687Y013897D01*
X030687Y013939D01*
X031812Y013939D01*
X031812Y013897D01*
X031770Y013897D01*
X031354Y013482D02*
X031187Y013314D01*
X030812Y012939D02*
X030812Y012897D01*
X030770Y012897D01*
X030812Y012939D02*
X031770Y012939D01*
X031770Y012897D01*
X031354Y012482D02*
X031187Y012314D01*
X030770Y011897D02*
X030687Y011897D01*
X030687Y011939D01*
X031770Y011939D01*
X031770Y011897D01*
X031354Y011482D02*
X031187Y011314D01*
X030770Y010897D02*
X030687Y010897D01*
X030687Y010939D01*
X031770Y010939D01*
X031770Y010897D01*
X031354Y010482D02*
X031187Y010314D01*
X030770Y009897D02*
X030687Y009897D01*
X030687Y009939D01*
X031770Y009939D01*
X031770Y009897D01*
X032187Y010314D02*
X032354Y010482D01*
X032187Y011314D02*
X032354Y011482D01*
X032187Y012314D02*
X032354Y012482D01*
X032187Y013314D02*
X032354Y013482D01*
X032187Y014314D02*
X032354Y014482D01*
X032187Y015314D02*
X032354Y015482D01*
X031812Y015897D02*
X031770Y015897D01*
X031812Y015939D01*
X031812Y016189D01*
X031812Y015939D02*
X030812Y015939D01*
X030812Y016064D01*
X030812Y015939D02*
X030812Y015897D01*
X030770Y015897D01*
X030812Y015939D01*
X029812Y015939D01*
X029812Y015897D01*
X029770Y015897D01*
X029812Y015939D01*
X028812Y015939D01*
X028812Y015897D01*
X028770Y015897D01*
X028812Y015939D01*
X027812Y015939D01*
X026812Y015939D01*
X025812Y015939D01*
X024812Y015939D01*
X023687Y015939D01*
X023687Y015897D01*
X023770Y015897D01*
X023812Y015939D01*
X023687Y015939D02*
X022812Y015939D01*
X021812Y015939D01*
X020812Y015939D01*
X020812Y015897D01*
X020770Y015897D01*
X020812Y015939D01*
X019812Y015939D01*
X019812Y015814D01*
X019687Y015814D01*
X019687Y015939D01*
X019812Y015939D01*
X019770Y015897D01*
X019687Y015939D02*
X018812Y015939D01*
X018812Y015689D01*
X018354Y015482D02*
X018187Y015314D01*
X017937Y014939D02*
X017937Y014897D01*
X017770Y014897D01*
X017937Y014939D02*
X018812Y014939D01*
X018812Y014897D01*
X018770Y014897D01*
X018812Y014939D02*
X019812Y014939D01*
X019812Y014897D01*
X019770Y014897D01*
X019812Y014939D02*
X020812Y014939D01*
X020812Y014897D01*
X020770Y014897D01*
X020812Y014939D02*
X021812Y014939D01*
X021812Y014897D01*
X021770Y014897D01*
X021812Y014939D02*
X022812Y014939D01*
X022812Y014897D01*
X022770Y014897D01*
X022812Y014939D02*
X023812Y014939D01*
X023812Y014897D01*
X023770Y014897D01*
X023812Y014939D02*
X024812Y014939D01*
X024812Y014897D01*
X024770Y014897D01*
X024812Y014939D02*
X025687Y014939D01*
X025687Y014897D01*
X025770Y014897D01*
X025687Y014939D02*
X026812Y014939D01*
X026812Y014897D01*
X026770Y014897D01*
X026812Y014939D02*
X027812Y014939D01*
X027812Y014897D01*
X027770Y014897D01*
X027812Y014939D02*
X028812Y014939D01*
X028812Y014897D01*
X028770Y014897D01*
X028812Y014939D02*
X029812Y014939D01*
X029812Y014897D01*
X029770Y014897D01*
X029812Y014939D02*
X030687Y014939D01*
X030687Y014897D02*
X030770Y014897D01*
X031187Y015314D02*
X031354Y015482D01*
X031812Y015897D02*
X031812Y015939D01*
X032187Y016314D02*
X032354Y016482D01*
X032354Y016982D01*
X032562Y017189D01*
X032562Y018064D01*
X032062Y018564D01*
X031562Y018064D02*
X031062Y018564D01*
X030562Y018064D02*
X030062Y018564D01*
X029562Y018064D02*
X029062Y018564D01*
X028562Y018064D02*
X028062Y018564D01*
X027562Y018064D02*
X027062Y018564D01*
X026562Y018064D02*
X026062Y018564D01*
X025562Y018064D02*
X025062Y018564D01*
X024562Y018064D02*
X024062Y018564D01*
X023562Y018064D02*
X023062Y018564D01*
X022562Y018064D02*
X022062Y018564D01*
X021562Y018064D02*
X021062Y018564D01*
X020562Y018064D02*
X020062Y018564D01*
X019562Y018064D02*
X019062Y018564D01*
X018562Y018064D02*
X018062Y018564D01*
X017562Y018064D02*
X017062Y018564D01*
X016562Y018064D02*
X016062Y018564D01*
X015562Y018064D02*
X015062Y018564D01*
X014562Y018064D02*
X014062Y018564D01*
X013562Y018064D02*
X013062Y018564D01*
X012562Y018064D02*
X012062Y018564D01*
X011562Y018064D02*
X011062Y018564D01*
X010562Y018064D02*
X010062Y018564D01*
X009562Y018064D02*
X009062Y018564D01*
X008562Y018064D02*
X008062Y018564D01*
X007562Y018064D02*
X007062Y018564D01*
X006562Y018064D02*
X006062Y018564D01*
X005562Y018064D02*
X005062Y018564D01*
X004562Y018064D02*
X004062Y018564D01*
X004562Y018064D02*
X004562Y017189D01*
X004354Y016982D01*
X004354Y016482D01*
X004187Y016314D01*
X003812Y015939D02*
X003812Y015814D01*
X003687Y015814D01*
X003687Y015939D01*
X003812Y015939D01*
X004812Y015939D01*
X005812Y015939D01*
X006812Y015939D01*
X007687Y015939D01*
X008812Y015939D01*
X009812Y015939D01*
X010812Y015939D01*
X011812Y015939D01*
X012812Y015939D01*
X012812Y015897D01*
X012770Y015897D01*
X012812Y015939D01*
X013812Y015939D01*
X013812Y015897D01*
X013770Y015897D01*
X013812Y015939D01*
X014812Y015939D01*
X014812Y016064D01*
X014812Y015939D02*
X014812Y015897D01*
X014770Y015897D01*
X014812Y015939D01*
X015812Y015939D01*
X015812Y015897D01*
X015895Y015897D01*
X015937Y015939D01*
X016727Y015939D01*
X016770Y015897D01*
X016770Y015939D01*
X017812Y015939D01*
X017812Y015897D01*
X017770Y015897D01*
X017812Y015939D01*
X018812Y015939D01*
X018770Y015897D01*
X019187Y016314D02*
X019354Y016482D01*
X019354Y016982D01*
X019562Y017189D01*
X019562Y018064D01*
X018562Y018064D02*
X018562Y017189D01*
X018354Y016982D01*
X018354Y016482D01*
X018187Y016314D01*
X017354Y016482D02*
X017354Y016982D01*
X017562Y017189D01*
X017562Y018064D01*
X016562Y018064D02*
X016562Y017189D01*
X016354Y016982D01*
X016354Y016482D01*
X016187Y016314D01*
X015812Y015939D02*
X015770Y015897D01*
X015812Y015897D01*
X015354Y016482D02*
X015187Y016314D01*
X015354Y016482D02*
X015354Y016982D01*
X015562Y017189D01*
X015562Y018064D01*
X014562Y018064D02*
X014562Y017189D01*
X014354Y016982D01*
X014354Y016482D01*
X014187Y016314D01*
X013354Y016482D02*
X013354Y016857D01*
X013562Y017064D01*
X013562Y018064D01*
X012562Y018064D02*
X012562Y017064D01*
X012354Y016857D01*
X012354Y016482D01*
X012187Y016314D01*
X011812Y015939D02*
X011770Y015897D01*
X011187Y016314D02*
X011354Y016482D01*
X011354Y016857D01*
X011562Y017064D01*
X011562Y018064D01*
X010562Y018064D02*
X010562Y017064D01*
X010354Y016857D01*
X010354Y016482D01*
X010187Y016314D01*
X009812Y015939D02*
X009770Y015897D01*
X009187Y016314D02*
X009354Y016482D01*
X009354Y016857D01*
X009562Y017064D01*
X009562Y018064D01*
X008562Y018064D02*
X008562Y017064D01*
X008354Y016857D01*
X008354Y016482D01*
X008187Y016314D01*
X007812Y015939D02*
X007770Y015897D01*
X007687Y015897D01*
X007687Y015939D01*
X007187Y016314D02*
X007354Y016482D01*
X007354Y016857D01*
X007562Y017064D01*
X007562Y018064D01*
X006562Y018064D02*
X006562Y017189D01*
X006354Y016982D01*
X006354Y016482D01*
X006187Y016314D01*
X005812Y015939D02*
X005770Y015897D01*
X005187Y016314D02*
X005354Y016482D01*
X005354Y017107D01*
X005562Y017314D01*
X005562Y018064D01*
X002354Y017107D02*
X002354Y016482D01*
X002187Y016314D01*
X001812Y015939D02*
X001812Y015897D01*
X001770Y015897D01*
X001812Y015939D01*
X002812Y015939D01*
X003687Y015939D01*
X003770Y015897D02*
X003812Y015939D01*
X003354Y015482D02*
X003187Y015314D01*
X002812Y014939D02*
X002812Y014897D01*
X002770Y014897D01*
X002812Y014939D02*
X003812Y014939D01*
X003812Y014897D01*
X003770Y014897D01*
X003812Y014939D02*
X004812Y014939D01*
X004812Y014897D01*
X004770Y014897D01*
X004812Y014939D02*
X005812Y014939D01*
X005812Y014897D01*
X005770Y014897D01*
X005812Y014939D02*
X006812Y014939D01*
X006812Y014897D01*
X006770Y014897D01*
X006812Y014939D02*
X007812Y014939D01*
X007812Y014897D01*
X007770Y014897D01*
X007812Y014939D02*
X008812Y014939D01*
X008812Y014897D01*
X008770Y014897D01*
X008812Y014939D02*
X009687Y014939D01*
X009687Y014897D01*
X009770Y014897D01*
X009687Y014939D02*
X010812Y014939D01*
X010812Y014897D01*
X010770Y014897D01*
X010812Y014939D02*
X011812Y014939D01*
X011812Y014897D01*
X011770Y014897D01*
X011812Y014939D02*
X012812Y014939D01*
X012812Y014897D01*
X012770Y014897D01*
X012812Y014939D02*
X013812Y014939D01*
X013812Y014897D01*
X013770Y014897D01*
X013812Y014939D02*
X014687Y014939D01*
X014687Y014897D01*
X014770Y014897D01*
X014687Y014939D02*
X015770Y014939D01*
X015770Y014897D01*
X015812Y014939D01*
X016727Y014939D01*
X016770Y014897D01*
X016812Y014897D01*
X016812Y014939D01*
X017937Y014939D01*
X017354Y015482D02*
X017187Y015314D01*
X016354Y015482D02*
X016187Y015314D01*
X015354Y015482D02*
X015187Y015314D01*
X014354Y015482D02*
X014187Y015314D01*
X013354Y015482D02*
X013187Y015314D01*
X012354Y015482D02*
X012187Y015314D01*
X011354Y015482D02*
X011187Y015314D01*
X010354Y015482D02*
X010187Y015314D01*
X009354Y015482D02*
X009187Y015314D01*
X008354Y015482D02*
X008187Y015314D01*
X007354Y015482D02*
X007187Y015314D01*
X006354Y015482D02*
X006187Y015314D01*
X005354Y015482D02*
X005187Y015314D01*
X004354Y015482D02*
X004187Y015314D01*
X004770Y015897D02*
X004812Y015897D01*
X004812Y015939D01*
X004770Y015897D01*
X002812Y015939D02*
X002770Y015897D01*
X001812Y015939D02*
X000770Y015939D01*
X001354Y015482D02*
X001187Y015314D01*
X001937Y014939D02*
X002812Y014939D01*
X003354Y014482D02*
X003187Y014314D01*
X002812Y013939D02*
X001812Y013939D01*
X001812Y013897D01*
X001770Y013897D01*
X001812Y013939D02*
X000770Y013939D01*
X000770Y013897D01*
X001187Y013314D02*
X001354Y013482D01*
X002187Y013314D02*
X002354Y013482D01*
X003187Y013314D02*
X003354Y013482D01*
X003687Y013064D02*
X003812Y013189D01*
X003687Y013064D02*
X003687Y012939D01*
X003687Y012897D01*
X003770Y012897D01*
X003687Y012939D02*
X004812Y012939D01*
X004812Y012897D01*
X004770Y012897D01*
X004812Y012939D02*
X005812Y012939D01*
X005812Y012897D01*
X005770Y012897D01*
X005812Y012939D02*
X006812Y012939D01*
X006812Y012897D01*
X006770Y012897D01*
X006812Y012939D02*
X007812Y012939D01*
X007812Y012897D01*
X007770Y012897D01*
X007812Y012939D02*
X008687Y012939D01*
X008687Y012897D01*
X008770Y012897D01*
X008687Y012939D02*
X009812Y012939D01*
X009812Y012897D01*
X009770Y012897D01*
X009812Y012939D02*
X010687Y012939D01*
X010687Y012897D01*
X010770Y012897D01*
X010687Y012939D02*
X011687Y012939D01*
X011687Y012897D01*
X011770Y012897D01*
X011687Y012939D02*
X012812Y012939D01*
X012812Y012897D01*
X012770Y012897D01*
X012812Y012939D02*
X013812Y012939D01*
X013812Y012897D01*
X013770Y012897D01*
X013812Y012939D02*
X014812Y012939D01*
X014812Y012897D01*
X014770Y012897D01*
X014812Y012939D02*
X015770Y012939D01*
X015770Y012897D01*
X015895Y012897D01*
X015937Y012939D01*
X016727Y012939D01*
X016770Y012897D01*
X016812Y012897D01*
X016812Y012939D01*
X017812Y012939D01*
X017812Y012897D01*
X017770Y012897D01*
X017812Y012939D02*
X018687Y012939D01*
X018687Y012897D01*
X018770Y012897D01*
X018687Y012939D02*
X019687Y012939D01*
X019687Y012897D01*
X019770Y012897D01*
X019687Y012939D02*
X020812Y012939D01*
X020812Y012897D01*
X020770Y012897D01*
X020812Y012939D02*
X021812Y012939D01*
X021812Y012897D01*
X021770Y012897D01*
X021812Y012939D02*
X022812Y012939D01*
X022812Y012897D01*
X022770Y012897D01*
X022812Y012939D02*
X023812Y012939D01*
X023812Y012897D01*
X023770Y012897D01*
X023812Y012939D02*
X024687Y012939D01*
X024687Y012897D01*
X024770Y012897D01*
X024687Y012939D02*
X025812Y012939D01*
X025812Y012897D01*
X025770Y012897D01*
X025812Y012939D02*
X026687Y012939D01*
X026687Y012897D01*
X026770Y012897D01*
X026687Y012939D02*
X027687Y012939D01*
X027687Y012897D01*
X027770Y012897D01*
X027687Y012939D02*
X028812Y012939D01*
X028812Y013189D01*
X028354Y013482D02*
X028187Y013314D01*
X028770Y012897D02*
X028812Y012897D01*
X028812Y012939D01*
X029812Y012939D01*
X029812Y012897D01*
X029770Y012897D01*
X029812Y012939D02*
X030812Y012939D01*
X030354Y012482D02*
X030187Y012314D01*
X029812Y011939D02*
X029812Y011897D01*
X029770Y011897D01*
X029812Y011939D02*
X030687Y011939D01*
X030354Y011482D02*
X030187Y011314D01*
X029770Y010897D02*
X029687Y010897D01*
X029687Y010939D01*
X030687Y010939D01*
X030354Y010482D02*
X030187Y010314D01*
X029812Y009939D02*
X029812Y009897D01*
X029770Y009897D01*
X029812Y009939D02*
X030687Y009939D01*
X029812Y009939D02*
X028687Y009939D01*
X028687Y009897D01*
X028770Y009897D01*
X028687Y009939D02*
X027812Y009939D01*
X027812Y009897D01*
X027770Y009897D01*
X027812Y009939D02*
X026687Y009939D01*
X026687Y009897D01*
X026770Y009897D01*
X026687Y009939D02*
X025812Y009939D01*
X025812Y010189D01*
X025812Y009939D02*
X025812Y009897D01*
X025770Y009897D01*
X025812Y009939D02*
X024812Y009939D01*
X024812Y009897D01*
X024770Y009897D01*
X024812Y009939D02*
X023812Y009939D01*
X023812Y009897D01*
X023770Y009897D01*
X023812Y009939D02*
X022812Y009939D01*
X022812Y009897D01*
X022770Y009897D01*
X022812Y009939D02*
X021812Y009939D01*
X021812Y009897D01*
X021770Y009897D01*
X021812Y009939D02*
X020812Y009939D01*
X020812Y009897D01*
X020770Y009897D01*
X020812Y009939D02*
X019937Y009939D01*
X019937Y009897D01*
X019770Y009897D01*
X019937Y009939D02*
X018937Y009939D01*
X018937Y009897D01*
X018770Y009897D01*
X018937Y009939D02*
X017812Y009939D01*
X017812Y009897D01*
X017770Y009897D01*
X017812Y009939D02*
X016812Y009939D01*
X016812Y009897D01*
X016770Y009897D01*
X016727Y009939D01*
X015937Y009939D01*
X015895Y009897D01*
X015770Y009897D01*
X015770Y009939D01*
X014687Y009939D01*
X014687Y009897D01*
X014770Y009897D01*
X014687Y009939D02*
X013812Y009939D01*
X013812Y009897D01*
X013770Y009897D01*
X013812Y009939D02*
X012687Y009939D01*
X012687Y009897D01*
X012770Y009897D01*
X012687Y009939D02*
X011812Y009939D01*
X011812Y009897D01*
X011770Y009897D01*
X011812Y009939D02*
X010687Y009939D01*
X010687Y009897D01*
X010770Y009897D01*
X010687Y009939D02*
X009812Y009939D01*
X009812Y009897D01*
X009770Y009897D01*
X009812Y009939D02*
X008812Y009939D01*
X008812Y009897D01*
X008770Y009897D01*
X008812Y009939D02*
X007812Y009939D01*
X007812Y009897D01*
X007770Y009897D01*
X007812Y009939D02*
X006812Y009939D01*
X006812Y010189D01*
X006812Y009939D02*
X006812Y009897D01*
X006770Y009897D01*
X006812Y009939D02*
X005812Y009939D01*
X005812Y009897D01*
X005770Y009897D01*
X005812Y009939D02*
X004812Y009939D01*
X004812Y009897D01*
X004770Y009897D01*
X004812Y009939D02*
X003937Y009939D01*
X003937Y009897D01*
X003770Y009897D01*
X003937Y009939D02*
X002937Y009939D01*
X002937Y009897D01*
X002770Y009897D01*
X002937Y009939D02*
X001812Y009939D01*
X001812Y009897D01*
X001770Y009897D01*
X001812Y009939D02*
X000812Y009939D01*
X000812Y009897D01*
X000770Y009897D01*
X001187Y010314D02*
X001354Y010482D01*
X001770Y010897D02*
X001812Y010897D01*
X001812Y010939D01*
X002937Y010939D01*
X002937Y010897D01*
X002770Y010897D01*
X002937Y010939D02*
X003812Y010939D01*
X003812Y010897D01*
X003770Y010897D01*
X003812Y010939D02*
X004812Y010939D01*
X004812Y010897D01*
X004770Y010897D01*
X004812Y010939D02*
X005812Y010939D01*
X005812Y011189D01*
X005812Y010939D02*
X005812Y010897D01*
X005770Y010897D01*
X005812Y010939D02*
X006812Y010939D01*
X006812Y010897D01*
X006770Y010897D01*
X006812Y010939D02*
X007812Y010939D01*
X007812Y010897D01*
X007770Y010897D01*
X007812Y010939D02*
X008812Y010939D01*
X008812Y010897D01*
X008770Y010897D01*
X008812Y010939D02*
X009687Y010939D01*
X009687Y010897D01*
X009770Y010897D01*
X009687Y010939D02*
X010687Y010939D01*
X010687Y010897D01*
X010770Y010897D01*
X010687Y010939D02*
X011812Y010939D01*
X011812Y010897D01*
X011770Y010897D01*
X011812Y010939D02*
X012687Y010939D01*
X012687Y010897D01*
X012770Y010897D01*
X012687Y010939D02*
X013687Y010939D01*
X013687Y010897D01*
X013770Y010897D01*
X013687Y010939D02*
X014687Y010939D01*
X014687Y010897D01*
X014770Y010897D01*
X014687Y010939D02*
X015770Y010939D01*
X015770Y010897D01*
X015812Y010939D01*
X016727Y010939D01*
X016770Y010897D01*
X016812Y010897D01*
X016812Y010939D01*
X017812Y010939D01*
X017812Y010897D01*
X017770Y010897D01*
X017812Y010939D02*
X018937Y010939D01*
X018937Y010897D01*
X018770Y010897D01*
X018937Y010939D02*
X019812Y010939D01*
X019812Y010897D01*
X019770Y010897D01*
X019812Y010939D02*
X020812Y010939D01*
X020812Y010897D01*
X020770Y010897D01*
X020812Y010939D02*
X021812Y010939D01*
X021812Y010897D01*
X021770Y010897D01*
X021812Y010939D02*
X022812Y010939D01*
X022812Y010897D01*
X022770Y010897D01*
X022812Y010939D02*
X023812Y010939D01*
X023812Y010897D01*
X023770Y010897D01*
X023812Y010939D02*
X024812Y010939D01*
X024812Y010897D01*
X024770Y010897D01*
X024812Y010939D02*
X025687Y010939D01*
X025687Y010897D01*
X025770Y010897D01*
X025687Y010939D02*
X026687Y010939D01*
X026687Y011064D01*
X026812Y011189D01*
X026687Y010939D02*
X026687Y010897D01*
X026770Y010897D01*
X026687Y010939D02*
X027812Y010939D01*
X027812Y010897D01*
X027770Y010897D01*
X027812Y010939D02*
X028687Y010939D01*
X028687Y010897D01*
X028770Y010897D01*
X028687Y010939D02*
X029687Y010939D01*
X029354Y010482D02*
X029187Y010314D01*
X028354Y010482D02*
X028187Y010314D01*
X027354Y010482D02*
X027187Y010314D01*
X026354Y010482D02*
X026187Y010314D01*
X025354Y010482D02*
X025187Y010314D01*
X024354Y010482D02*
X024187Y010314D01*
X023354Y010482D02*
X023187Y010314D01*
X022354Y010482D02*
X022187Y010314D01*
X021354Y010482D02*
X021187Y010314D01*
X020354Y010482D02*
X020187Y010314D01*
X019354Y010482D02*
X019187Y010314D01*
X018354Y010482D02*
X018187Y010314D01*
X017354Y010482D02*
X017187Y010314D01*
X016354Y010482D02*
X016187Y010314D01*
X015354Y010482D02*
X015187Y010314D01*
X014354Y010482D02*
X014187Y010314D01*
X013354Y010482D02*
X013187Y010314D01*
X012354Y010482D02*
X012187Y010314D01*
X011354Y010482D02*
X011187Y010314D01*
X010354Y010482D02*
X010187Y010314D01*
X009354Y010482D02*
X009187Y010314D01*
X008354Y010482D02*
X008187Y010314D01*
X007354Y010482D02*
X007187Y010314D01*
X006354Y010482D02*
X006187Y010314D01*
X005354Y010482D02*
X005187Y010314D01*
X004354Y010482D02*
X004187Y010314D01*
X003354Y010482D02*
X003187Y010314D01*
X002354Y010482D02*
X002187Y010314D01*
X001812Y010939D02*
X000812Y010939D01*
X000812Y010897D01*
X000770Y010897D01*
X001187Y011314D02*
X001354Y011482D01*
X001770Y011897D02*
X001812Y011897D01*
X001812Y011939D01*
X002812Y011939D01*
X002812Y011897D01*
X002770Y011897D01*
X002812Y011939D02*
X003812Y011939D01*
X003812Y011897D01*
X003770Y011897D01*
X003812Y011939D02*
X004812Y011939D01*
X004812Y012189D01*
X004812Y011939D02*
X004812Y011897D01*
X004770Y011897D01*
X004812Y011939D02*
X005812Y011939D01*
X005812Y011897D01*
X005770Y011897D01*
X005812Y011939D02*
X006812Y011939D01*
X006812Y011897D01*
X006770Y011897D01*
X006812Y011939D02*
X007812Y011939D01*
X007812Y011897D01*
X007770Y011897D01*
X007812Y011939D02*
X008812Y011939D01*
X008812Y011897D01*
X008770Y011897D01*
X008812Y011939D02*
X009687Y011939D01*
X009687Y011897D01*
X009770Y011897D01*
X009687Y011939D02*
X010812Y011939D01*
X010812Y011897D01*
X010770Y011897D01*
X010812Y011939D02*
X011812Y011939D01*
X011812Y011897D01*
X011770Y011897D01*
X011812Y011939D02*
X012687Y011939D01*
X012687Y011897D01*
X012770Y011897D01*
X012687Y011939D02*
X013812Y011939D01*
X013812Y011897D01*
X013770Y011897D01*
X013812Y011939D02*
X014687Y011939D01*
X014687Y011897D01*
X014770Y011897D01*
X014687Y011939D02*
X015770Y011939D01*
X015770Y011897D01*
X015895Y011897D01*
X015937Y011939D01*
X016727Y011939D01*
X016770Y011897D01*
X016937Y011897D01*
X016937Y011939D01*
X017812Y011939D01*
X017812Y011897D01*
X017770Y011897D01*
X017812Y011939D02*
X018812Y011939D01*
X018812Y011897D01*
X018770Y011897D01*
X018812Y011939D02*
X019812Y011939D01*
X019812Y011897D01*
X019770Y011897D01*
X019812Y011939D02*
X020812Y011939D01*
X020812Y011897D01*
X020770Y011897D01*
X020812Y011939D02*
X021812Y011939D01*
X021812Y011897D01*
X021770Y011897D01*
X021812Y011939D02*
X022812Y011939D01*
X022812Y011897D01*
X022770Y011897D01*
X022812Y011939D02*
X023812Y011939D01*
X023812Y011897D01*
X023770Y011897D01*
X023812Y011939D02*
X024812Y011939D01*
X024812Y011897D01*
X024770Y011897D01*
X024812Y011939D02*
X025687Y011939D01*
X025687Y011897D01*
X025770Y011897D01*
X025687Y011939D02*
X026812Y011939D01*
X026812Y011897D01*
X026770Y011897D01*
X026812Y011939D02*
X027812Y011939D01*
X027812Y012189D01*
X027812Y011939D02*
X027812Y011897D01*
X027770Y011897D01*
X027812Y011939D02*
X028687Y011939D01*
X028687Y011897D01*
X028770Y011897D01*
X028687Y011939D02*
X029812Y011939D01*
X029354Y011482D02*
X029187Y011314D01*
X028354Y011482D02*
X028187Y011314D01*
X027354Y011482D02*
X027187Y011314D01*
X026354Y011482D02*
X026187Y011314D01*
X025354Y011482D02*
X025187Y011314D01*
X024354Y011482D02*
X024187Y011314D01*
X023354Y011482D02*
X023187Y011314D01*
X022354Y011482D02*
X022187Y011314D01*
X021354Y011482D02*
X021187Y011314D01*
X020354Y011482D02*
X020187Y011314D01*
X019354Y011482D02*
X019187Y011314D01*
X018354Y011482D02*
X018187Y011314D01*
X017354Y011482D02*
X017187Y011314D01*
X016354Y011482D02*
X016187Y011314D01*
X015354Y011482D02*
X015187Y011314D01*
X014354Y011482D02*
X014187Y011314D01*
X013354Y011482D02*
X013187Y011314D01*
X012354Y011482D02*
X012187Y011314D01*
X011354Y011482D02*
X011187Y011314D01*
X010354Y011482D02*
X010187Y011314D01*
X009354Y011482D02*
X009187Y011314D01*
X008354Y011482D02*
X008187Y011314D01*
X007354Y011482D02*
X007187Y011314D01*
X006354Y011482D02*
X006187Y011314D01*
X005354Y011482D02*
X005187Y011314D01*
X004354Y011482D02*
X004187Y011314D01*
X003354Y011482D02*
X003187Y011314D01*
X002354Y011482D02*
X002187Y011314D01*
X001812Y011939D02*
X000937Y011939D01*
X000937Y011897D01*
X000770Y011897D01*
X001187Y012314D02*
X001354Y012482D01*
X001770Y012897D02*
X001812Y012897D01*
X001812Y012939D01*
X002687Y012939D01*
X002687Y012897D01*
X002770Y012897D01*
X002687Y012939D02*
X003687Y012939D01*
X003354Y012482D02*
X003187Y012314D01*
X002354Y012482D02*
X002187Y012314D01*
X001812Y012939D02*
X000812Y012939D01*
X000812Y012897D01*
X000770Y012897D01*
X004187Y013314D02*
X004354Y013482D01*
X005187Y013314D02*
X005354Y013482D01*
X006187Y013314D02*
X006354Y013482D01*
X007187Y013314D02*
X007354Y013482D01*
X008187Y013314D02*
X008354Y013482D01*
X009187Y013314D02*
X009354Y013482D01*
X010187Y013314D02*
X010354Y013482D01*
X011187Y013314D02*
X011354Y013482D01*
X012187Y013314D02*
X012354Y013482D01*
X013187Y013314D02*
X013354Y013482D01*
X014187Y013314D02*
X014354Y013482D01*
X015187Y013314D02*
X015354Y013482D01*
X015770Y013897D02*
X015812Y013897D01*
X016187Y014314D02*
X016354Y014482D01*
X017187Y014314D02*
X017354Y014482D01*
X018187Y014314D02*
X018354Y014482D01*
X019187Y014314D02*
X019354Y014482D01*
X020187Y014314D02*
X020354Y014482D01*
X021187Y014314D02*
X021354Y014482D01*
X022187Y014314D02*
X022354Y014482D01*
X023187Y014314D02*
X023354Y014482D01*
X024187Y014314D02*
X024354Y014482D01*
X025187Y014314D02*
X025354Y014482D01*
X026187Y014314D02*
X026354Y014482D01*
X027187Y014314D02*
X027354Y014482D01*
X028187Y014314D02*
X028354Y014482D01*
X029187Y014314D02*
X029354Y014482D01*
X029812Y013939D02*
X029812Y013897D01*
X029770Y013897D01*
X029812Y013939D02*
X030687Y013939D01*
X030354Y013482D02*
X030187Y013314D01*
X029354Y013482D02*
X029187Y013314D01*
X029354Y012482D02*
X029187Y012314D01*
X028354Y012482D02*
X028187Y012314D01*
X027354Y012482D02*
X027187Y012314D01*
X026354Y012482D02*
X026187Y012314D01*
X025354Y012482D02*
X025187Y012314D01*
X024354Y012482D02*
X024187Y012314D01*
X023354Y012482D02*
X023187Y012314D01*
X022354Y012482D02*
X022187Y012314D01*
X021354Y012482D02*
X021187Y012314D01*
X020354Y012482D02*
X020187Y012314D01*
X019354Y012482D02*
X019187Y012314D01*
X018354Y012482D02*
X018187Y012314D01*
X017354Y012482D02*
X017187Y012314D01*
X016354Y012482D02*
X016187Y012314D01*
X015354Y012482D02*
X015187Y012314D01*
X014354Y012482D02*
X014187Y012314D01*
X013354Y012482D02*
X013187Y012314D01*
X012354Y012482D02*
X012187Y012314D01*
X011354Y012482D02*
X011187Y012314D01*
X010354Y012482D02*
X010187Y012314D01*
X009354Y012482D02*
X009187Y012314D01*
X008354Y012482D02*
X008187Y012314D01*
X007354Y012482D02*
X007187Y012314D01*
X006354Y012482D02*
X006187Y012314D01*
X005354Y012482D02*
X005187Y012314D01*
X004354Y012482D02*
X004187Y012314D01*
X004187Y014314D02*
X004354Y014482D01*
X005187Y014314D02*
X005354Y014482D01*
X006187Y014314D02*
X006354Y014482D01*
X007187Y014314D02*
X007354Y014482D01*
X008187Y014314D02*
X008354Y014482D01*
X009187Y014314D02*
X009354Y014482D01*
X010187Y014314D02*
X010354Y014482D01*
X011187Y014314D02*
X011354Y014482D01*
X012187Y014314D02*
X012354Y014482D01*
X013187Y014314D02*
X013354Y014482D01*
X014187Y014314D02*
X014354Y014482D01*
X015187Y014314D02*
X015354Y014482D01*
X016354Y013482D02*
X016187Y013314D01*
X017187Y013314D02*
X017354Y013482D01*
X018187Y013314D02*
X018354Y013482D01*
X019187Y013314D02*
X019354Y013482D01*
X020187Y013314D02*
X020354Y013482D01*
X021187Y013314D02*
X021354Y013482D01*
X022187Y013314D02*
X022354Y013482D01*
X023187Y013314D02*
X023354Y013482D01*
X024187Y013314D02*
X024354Y013482D01*
X025187Y013314D02*
X025354Y013482D01*
X026187Y013314D02*
X026354Y013482D01*
X027187Y013314D02*
X027354Y013482D01*
X027187Y015314D02*
X027354Y015482D01*
X027770Y015897D02*
X027812Y015939D01*
X028187Y016314D02*
X028354Y016482D01*
X028354Y016982D01*
X028562Y017189D01*
X028562Y018064D01*
X027562Y018064D02*
X027562Y017189D01*
X027354Y016982D01*
X027354Y016482D01*
X027187Y016314D01*
X026812Y015939D02*
X026770Y015897D01*
X026187Y016314D02*
X026354Y016482D01*
X026354Y016982D01*
X026562Y017189D01*
X026562Y018064D01*
X025562Y018064D02*
X025562Y017189D01*
X025354Y016982D01*
X025354Y016482D01*
X025187Y016314D01*
X024812Y015939D02*
X024770Y015897D01*
X024187Y016314D02*
X024354Y016482D01*
X024354Y016982D01*
X024562Y017189D01*
X024562Y018064D01*
X023562Y018064D02*
X023562Y017189D01*
X023354Y016982D01*
X023354Y016482D01*
X023187Y016314D01*
X022812Y015939D02*
X022770Y015897D01*
X022187Y016314D02*
X022354Y016482D01*
X022354Y016982D01*
X022562Y017189D01*
X022562Y018064D01*
X021562Y018064D02*
X021562Y017189D01*
X021354Y016982D01*
X021354Y016482D01*
X021187Y016314D01*
X021770Y015897D02*
X021812Y015939D01*
X021354Y015482D02*
X021187Y015314D01*
X020354Y015482D02*
X020187Y015314D01*
X019354Y015482D02*
X019187Y015314D01*
X020187Y016314D02*
X020354Y016482D01*
X020354Y016982D01*
X020562Y017189D01*
X020562Y018064D01*
X017354Y016482D02*
X017187Y016314D01*
X016812Y015939D02*
X016770Y015897D01*
X013354Y016482D02*
X013187Y016314D01*
X010812Y015939D02*
X010770Y015897D01*
X008812Y015939D02*
X008770Y015897D01*
X006812Y015939D02*
X006770Y015897D01*
X006354Y009482D02*
X006187Y009314D01*
X005812Y008939D02*
X005812Y008897D01*
X005770Y008897D01*
X005812Y008939D02*
X006687Y008939D01*
X006687Y008897D01*
X006770Y008897D01*
X006687Y008939D02*
X007687Y008939D01*
X007687Y009064D01*
X007812Y009189D01*
X007687Y008939D02*
X007687Y008897D01*
X007770Y008897D01*
X007687Y008939D02*
X008812Y008939D01*
X008812Y008897D01*
X008770Y008897D01*
X008812Y008939D02*
X009687Y008939D01*
X009687Y008897D01*
X009770Y008897D01*
X009687Y008939D02*
X010812Y008939D01*
X010812Y008897D01*
X010770Y008897D01*
X010812Y008939D02*
X011687Y008939D01*
X011687Y008897D01*
X011770Y008897D01*
X011687Y008939D02*
X012812Y008939D01*
X012812Y008897D01*
X012770Y008897D01*
X012812Y008939D02*
X013687Y008939D01*
X013687Y008897D01*
X013770Y008897D01*
X013687Y008939D02*
X014812Y008939D01*
X014812Y008897D01*
X014770Y008897D01*
X014812Y008939D02*
X015770Y008939D01*
X015770Y008897D01*
X015895Y008897D01*
X015937Y008939D01*
X016727Y008939D01*
X016770Y008897D01*
X016812Y008897D01*
X016812Y008939D01*
X017812Y008939D01*
X017812Y008897D01*
X017770Y008897D01*
X017812Y008939D02*
X018687Y008939D01*
X018687Y008897D01*
X018770Y008897D01*
X018687Y008939D02*
X019812Y008939D01*
X019812Y008897D01*
X019770Y008897D01*
X019812Y008939D02*
X020812Y008939D01*
X020812Y008897D01*
X020770Y008897D01*
X020812Y008939D02*
X021812Y008939D01*
X021812Y008897D01*
X021770Y008897D01*
X021812Y008939D02*
X022687Y008939D01*
X022687Y008897D01*
X022770Y008897D01*
X022687Y008939D02*
X023687Y008939D01*
X023687Y008897D01*
X023770Y008897D01*
X023687Y008939D02*
X024812Y008939D01*
X024812Y009189D01*
X024812Y008939D02*
X024812Y008897D01*
X024770Y008897D01*
X024812Y008939D02*
X025687Y008939D01*
X025687Y008897D01*
X025770Y008897D01*
X025687Y008939D02*
X026812Y008939D01*
X026812Y008897D01*
X026770Y008897D01*
X026812Y008939D02*
X027687Y008939D01*
X027687Y008897D01*
X027770Y008897D01*
X027687Y008939D02*
X028812Y008939D01*
X028812Y008897D01*
X028770Y008897D01*
X028812Y008939D02*
X029687Y008939D01*
X029687Y008897D01*
X029770Y008897D01*
X029687Y008939D02*
X030812Y008939D01*
X030812Y008897D01*
X030770Y008897D01*
X030812Y008939D02*
X031770Y008939D01*
X031770Y008897D01*
X031354Y008482D02*
X031187Y008314D01*
X030770Y007897D02*
X030687Y007897D01*
X030687Y007939D01*
X031770Y007939D01*
X031770Y007897D01*
X031354Y007482D02*
X031187Y007314D01*
X030770Y006897D02*
X030687Y006897D01*
X030687Y006939D01*
X031770Y006939D01*
X031770Y006897D01*
X031354Y006482D02*
X031187Y006314D01*
X030812Y005939D02*
X030812Y005897D01*
X030770Y005897D01*
X030812Y005939D02*
X031770Y005939D01*
X031770Y005897D01*
X031354Y005482D02*
X031187Y005314D01*
X030812Y004939D02*
X031727Y004939D01*
X031738Y004938D01*
X031748Y004933D01*
X031757Y004927D01*
X031763Y004918D01*
X031768Y004908D01*
X031769Y004897D01*
X031354Y004482D02*
X031187Y004314D01*
X030770Y003897D02*
X030729Y003897D01*
X030718Y003898D01*
X030708Y003903D01*
X030699Y003909D01*
X030693Y003918D01*
X030688Y003928D01*
X030687Y003939D01*
X031727Y003939D01*
X031738Y003938D01*
X031748Y003933D01*
X031757Y003927D01*
X031763Y003918D01*
X031768Y003908D01*
X031769Y003897D01*
X032187Y004314D02*
X032354Y004482D01*
X032187Y005314D02*
X032354Y005482D01*
X032187Y006314D02*
X032354Y006482D01*
X032187Y007314D02*
X032354Y007482D01*
X032187Y008314D02*
X032354Y008482D01*
X032187Y009314D02*
X032354Y009482D01*
X031354Y009482D02*
X031187Y009314D01*
X030354Y009482D02*
X030187Y009314D01*
X029354Y009482D02*
X029187Y009314D01*
X028354Y009482D02*
X028187Y009314D01*
X027354Y009482D02*
X027187Y009314D01*
X026354Y009482D02*
X026187Y009314D01*
X025354Y009482D02*
X025187Y009314D01*
X024354Y009482D02*
X024187Y009314D01*
X023354Y009482D02*
X023187Y009314D01*
X022354Y009482D02*
X022187Y009314D01*
X021354Y009482D02*
X021187Y009314D01*
X020354Y009482D02*
X020187Y009314D01*
X019354Y009482D02*
X019187Y009314D01*
X018354Y009482D02*
X018187Y009314D01*
X017354Y009482D02*
X017187Y009314D01*
X016354Y009482D02*
X016187Y009314D01*
X015354Y009482D02*
X015187Y009314D01*
X014354Y009482D02*
X014187Y009314D01*
X013354Y009482D02*
X013187Y009314D01*
X012354Y009482D02*
X012187Y009314D01*
X011354Y009482D02*
X011187Y009314D01*
X010354Y009482D02*
X010187Y009314D01*
X009354Y009482D02*
X009187Y009314D01*
X008354Y009482D02*
X008187Y009314D01*
X007354Y009482D02*
X007187Y009314D01*
X005812Y008939D02*
X004812Y008939D01*
X004812Y008897D01*
X004770Y008897D01*
X004812Y008939D02*
X003812Y008939D01*
X003812Y008897D01*
X003770Y008897D01*
X003812Y008939D02*
X002687Y008939D01*
X002687Y008897D01*
X002770Y008897D01*
X002687Y008939D02*
X001812Y008939D01*
X001812Y008897D01*
X001770Y008897D01*
X001812Y008939D02*
X000812Y008939D01*
X000812Y008897D01*
X000770Y008897D01*
X001187Y008314D02*
X001354Y008482D01*
X002187Y008314D02*
X002354Y008482D01*
X003187Y008314D02*
X003354Y008482D01*
X004187Y008314D02*
X004354Y008482D01*
X005187Y008314D02*
X005354Y008482D01*
X006187Y008314D02*
X006354Y008482D01*
X007187Y008314D02*
X007354Y008482D01*
X008187Y008314D02*
X008354Y008482D01*
X008687Y008064D02*
X008812Y008189D01*
X008687Y008064D02*
X008687Y007939D01*
X008687Y007897D01*
X008770Y007897D01*
X008687Y007939D02*
X009812Y007939D01*
X009812Y007897D01*
X009770Y007897D01*
X009812Y007939D02*
X010812Y007939D01*
X010812Y007897D01*
X010770Y007897D01*
X010812Y007939D02*
X011687Y007939D01*
X011687Y007897D01*
X011770Y007897D01*
X011687Y007939D02*
X012812Y007939D01*
X012812Y007897D01*
X012770Y007897D01*
X012812Y007939D02*
X013812Y007939D01*
X013812Y007897D01*
X013770Y007897D01*
X013812Y007939D02*
X014687Y007939D01*
X014687Y007897D01*
X014770Y007897D01*
X014687Y007939D02*
X015770Y007939D01*
X015770Y007897D01*
X015812Y007939D01*
X016727Y007939D01*
X016770Y007897D01*
X016812Y007897D01*
X016812Y007939D01*
X017687Y007939D01*
X017687Y007897D01*
X017770Y007897D01*
X017687Y007939D02*
X018812Y007939D01*
X018812Y007897D01*
X018770Y007897D01*
X018812Y007939D02*
X019812Y007939D01*
X019812Y007897D01*
X019770Y007897D01*
X019812Y007939D02*
X020812Y007939D01*
X020812Y007897D01*
X020770Y007897D01*
X020812Y007939D02*
X021812Y007939D01*
X021812Y007897D01*
X021770Y007897D01*
X021812Y007939D02*
X022687Y007939D01*
X022687Y007897D01*
X022770Y007897D01*
X022687Y007939D02*
X023687Y007939D01*
X023687Y008064D01*
X023812Y008189D01*
X023354Y008482D02*
X023187Y008314D01*
X023687Y007939D02*
X023687Y007897D01*
X023770Y007897D01*
X023687Y007939D02*
X024687Y007939D01*
X024687Y007897D01*
X024770Y007897D01*
X024687Y007939D02*
X025812Y007939D01*
X025812Y007897D01*
X025770Y007897D01*
X025812Y007939D02*
X026812Y007939D01*
X026812Y007897D01*
X026770Y007897D01*
X026812Y007939D02*
X027687Y007939D01*
X027687Y007897D01*
X027770Y007897D01*
X027687Y007939D02*
X028812Y007939D01*
X028812Y007897D01*
X028770Y007897D01*
X028812Y007939D02*
X029812Y007939D01*
X029812Y007897D01*
X029770Y007897D01*
X029812Y007939D02*
X030687Y007939D01*
X030354Y007482D02*
X030187Y007314D01*
X029812Y006939D02*
X029812Y006897D01*
X029770Y006897D01*
X029812Y006939D02*
X030687Y006939D01*
X030354Y006482D02*
X030187Y006314D01*
X029937Y005939D02*
X029937Y005897D01*
X029770Y005897D01*
X029937Y005939D02*
X030812Y005939D01*
X030354Y005482D02*
X030187Y005314D01*
X029812Y004939D02*
X030812Y004939D01*
X030801Y004938D01*
X030791Y004933D01*
X030782Y004927D01*
X030776Y004918D01*
X030771Y004908D01*
X030770Y004897D01*
X030354Y004482D02*
X030187Y004314D01*
X029812Y003939D02*
X030687Y003939D01*
X029812Y003939D02*
X028812Y003939D01*
X027687Y003939D01*
X026812Y003939D01*
X025687Y003939D01*
X024687Y003939D01*
X023687Y003939D01*
X022687Y003939D01*
X021687Y003939D01*
X020812Y003939D01*
X019687Y003939D01*
X018687Y003939D01*
X017687Y003939D01*
X016812Y003939D01*
X016801Y003938D01*
X016791Y003933D01*
X016782Y003927D01*
X016776Y003918D01*
X016771Y003908D01*
X016770Y003897D01*
X016727Y003939D01*
X015937Y003939D01*
X015895Y003897D01*
X015770Y003897D01*
X015769Y003897D02*
X015768Y003908D01*
X015763Y003918D01*
X015757Y003927D01*
X015748Y003933D01*
X015738Y003938D01*
X015727Y003939D01*
X014687Y003939D01*
X013812Y003939D01*
X012812Y003939D01*
X012770Y003897D01*
X012771Y003908D01*
X012776Y003918D01*
X012782Y003927D01*
X012791Y003933D01*
X012801Y003938D01*
X012812Y003939D01*
X012812Y004189D01*
X012812Y003939D02*
X011687Y003939D01*
X010812Y003939D01*
X009687Y003939D01*
X008687Y003939D01*
X007687Y003939D01*
X006687Y003939D01*
X005687Y003939D01*
X004812Y003939D01*
X003687Y003939D01*
X002687Y003939D01*
X001687Y003939D01*
X000812Y003939D01*
X000801Y003938D01*
X000791Y003933D01*
X000782Y003927D01*
X000776Y003918D01*
X000771Y003908D01*
X000770Y003897D01*
X001187Y004314D02*
X001354Y004482D01*
X001770Y004897D02*
X001895Y004897D01*
X001906Y004898D01*
X001916Y004903D01*
X001925Y004909D01*
X001931Y004918D01*
X001936Y004928D01*
X001937Y004939D01*
X002937Y004939D01*
X004062Y004939D01*
X004937Y004939D01*
X005937Y004939D01*
X006937Y004939D01*
X007687Y004939D01*
X008937Y004939D01*
X009812Y004939D01*
X010687Y004939D01*
X011687Y004939D01*
X012687Y004939D01*
X013812Y004939D01*
X014812Y004939D01*
X015727Y004939D01*
X015738Y004938D01*
X015748Y004933D01*
X015757Y004927D01*
X015763Y004918D01*
X015768Y004908D01*
X015769Y004897D01*
X015770Y004897D02*
X015895Y004897D01*
X015937Y004939D01*
X016727Y004939D01*
X016770Y004897D01*
X016771Y004908D01*
X016776Y004918D01*
X016782Y004927D01*
X016791Y004933D01*
X016801Y004938D01*
X016812Y004939D01*
X017937Y004939D01*
X018937Y004939D01*
X020062Y004939D01*
X020937Y004939D01*
X021937Y004939D01*
X022937Y004939D01*
X023687Y004939D01*
X024937Y004939D01*
X025812Y004939D01*
X026687Y004939D01*
X027687Y004939D01*
X028687Y004939D01*
X029812Y004939D01*
X029801Y004938D01*
X029791Y004933D01*
X029782Y004927D01*
X029776Y004918D01*
X029771Y004908D01*
X029770Y004897D01*
X029354Y004482D02*
X029187Y004314D01*
X028812Y003939D02*
X028801Y003938D01*
X028791Y003933D01*
X028782Y003927D01*
X028776Y003918D01*
X028771Y003908D01*
X028770Y003897D01*
X028187Y004314D02*
X028354Y004482D01*
X028729Y004897D02*
X028770Y004897D01*
X028729Y004897D02*
X028718Y004898D01*
X028708Y004903D01*
X028699Y004909D01*
X028693Y004918D01*
X028688Y004928D01*
X028687Y004939D01*
X028187Y005314D02*
X028354Y005482D01*
X028770Y005897D02*
X028812Y005897D01*
X028812Y005939D01*
X029937Y005939D01*
X029354Y005482D02*
X029187Y005314D01*
X028812Y005939D02*
X027937Y005939D01*
X027937Y005897D01*
X027770Y005897D01*
X027937Y005939D02*
X026812Y005939D01*
X026812Y005897D01*
X026770Y005897D01*
X026812Y005939D02*
X025687Y005939D01*
X025687Y005897D01*
X025770Y005897D01*
X025687Y005939D02*
X024812Y005939D01*
X024812Y005897D01*
X024770Y005897D01*
X024812Y005939D02*
X023937Y005939D01*
X023937Y005897D01*
X023770Y005897D01*
X023937Y005939D02*
X022812Y005939D01*
X022812Y005897D01*
X022770Y005897D01*
X022812Y005939D02*
X021937Y005939D01*
X021937Y005897D01*
X021770Y005897D01*
X021812Y005939D01*
X021812Y006189D01*
X021937Y005939D02*
X020937Y005939D01*
X020937Y005897D01*
X020770Y005897D01*
X020937Y005939D02*
X019937Y005939D01*
X019937Y005897D01*
X019770Y005897D01*
X019937Y005939D02*
X018937Y005939D01*
X018937Y005897D01*
X018770Y005897D01*
X018937Y005939D02*
X017937Y005939D01*
X017937Y005897D01*
X017770Y005897D01*
X017937Y005939D02*
X016937Y005939D01*
X016936Y005928D01*
X016931Y005918D01*
X016925Y005909D01*
X016916Y005903D01*
X016906Y005898D01*
X016895Y005897D01*
X016770Y005897D01*
X016727Y005939D01*
X015812Y005939D01*
X015770Y005897D01*
X015770Y005939D01*
X014812Y005939D01*
X014812Y005897D01*
X014770Y005897D01*
X014812Y005939D02*
X013937Y005939D01*
X013937Y005897D01*
X013770Y005897D01*
X013937Y005939D02*
X012812Y005939D01*
X012812Y005897D01*
X012770Y005897D01*
X012812Y005939D02*
X011937Y005939D01*
X011937Y005897D01*
X011770Y005897D01*
X011937Y005939D02*
X010812Y005939D01*
X010770Y005897D01*
X010812Y005897D01*
X010812Y005939D01*
X010812Y006189D01*
X010812Y005939D02*
X009687Y005939D01*
X009687Y005897D01*
X009770Y005897D01*
X009687Y005939D02*
X008812Y005939D01*
X008812Y005897D01*
X008770Y005897D01*
X008812Y005939D02*
X007937Y005939D01*
X007937Y005897D01*
X007770Y005897D01*
X007937Y005939D02*
X006812Y005939D01*
X006812Y005897D01*
X006770Y005897D01*
X006812Y005939D02*
X005937Y005939D01*
X005937Y005897D01*
X005770Y005897D01*
X005937Y005939D02*
X004937Y005939D01*
X004937Y005897D01*
X004770Y005897D01*
X004937Y005939D02*
X003937Y005939D01*
X003937Y005897D01*
X003770Y005897D01*
X003937Y005939D02*
X002937Y005939D01*
X002937Y005897D01*
X002770Y005897D01*
X002937Y005939D02*
X001937Y005939D01*
X001937Y005897D01*
X001770Y005897D01*
X001937Y005939D02*
X000937Y005939D01*
X000936Y005928D01*
X000931Y005918D01*
X000925Y005909D01*
X000916Y005903D01*
X000906Y005898D01*
X000895Y005897D01*
X000770Y005897D01*
X001187Y006314D02*
X001354Y006482D01*
X001770Y006897D02*
X001812Y006897D01*
X001812Y006939D01*
X002812Y006939D01*
X002812Y006897D01*
X002770Y006897D01*
X002812Y006939D02*
X003687Y006939D01*
X003687Y006897D01*
X003770Y006897D01*
X003687Y006939D02*
X004812Y006939D01*
X004812Y006897D01*
X004770Y006897D01*
X004812Y006939D02*
X005687Y006939D01*
X005687Y006897D01*
X005770Y006897D01*
X005687Y006939D02*
X006812Y006939D01*
X006812Y006897D01*
X006770Y006897D01*
X006812Y006939D02*
X007812Y006939D01*
X007812Y006897D01*
X007770Y006897D01*
X007812Y006939D02*
X008687Y006939D01*
X008687Y006897D01*
X008770Y006897D01*
X008687Y006939D02*
X009812Y006939D01*
X009812Y007189D01*
X010187Y007314D02*
X010354Y007482D01*
X011187Y007314D02*
X011354Y007482D01*
X012187Y007314D02*
X012354Y007482D01*
X013187Y007314D02*
X013354Y007482D01*
X014187Y007314D02*
X014354Y007482D01*
X015187Y007314D02*
X015354Y007482D01*
X016187Y007314D02*
X016354Y007482D01*
X017187Y007314D02*
X017354Y007482D01*
X018187Y007314D02*
X018354Y007482D01*
X019187Y007314D02*
X019354Y007482D01*
X020187Y007314D02*
X020354Y007482D01*
X021187Y007314D02*
X021354Y007482D01*
X022187Y007314D02*
X022354Y007482D01*
X022812Y007189D02*
X022812Y006939D01*
X022812Y006897D01*
X022770Y006897D01*
X022812Y006939D02*
X023812Y006939D01*
X023812Y006897D01*
X023770Y006897D01*
X023812Y006939D02*
X024687Y006939D01*
X024687Y006897D01*
X024770Y006897D01*
X024687Y006939D02*
X025812Y006939D01*
X025812Y006897D01*
X025770Y006897D01*
X025812Y006939D02*
X026812Y006939D01*
X026812Y006897D01*
X026770Y006897D01*
X026812Y006939D02*
X027812Y006939D01*
X027812Y006897D01*
X027770Y006897D01*
X027812Y006939D02*
X028687Y006939D01*
X028687Y006897D01*
X028770Y006897D01*
X028687Y006939D02*
X029812Y006939D01*
X029354Y006482D02*
X029187Y006314D01*
X028354Y006482D02*
X028187Y006314D01*
X027354Y006482D02*
X027187Y006314D01*
X026354Y006482D02*
X026187Y006314D01*
X025354Y006482D02*
X025187Y006314D01*
X024354Y006482D02*
X024187Y006314D01*
X023354Y006482D02*
X023187Y006314D01*
X022812Y006939D02*
X021687Y006939D01*
X021687Y006897D01*
X021770Y006897D01*
X021687Y006939D02*
X020812Y006939D01*
X020812Y006897D01*
X020770Y006897D01*
X020812Y006939D02*
X019687Y006939D01*
X019687Y006897D01*
X019770Y006897D01*
X019687Y006939D02*
X018812Y006939D01*
X018812Y006897D01*
X018770Y006897D01*
X018812Y006939D02*
X017812Y006939D01*
X017812Y006897D01*
X017770Y006897D01*
X017812Y006939D02*
X016812Y006939D01*
X016812Y006897D01*
X016770Y006897D01*
X016727Y006939D01*
X015937Y006939D01*
X015895Y006897D01*
X015770Y006897D01*
X015770Y006939D01*
X014687Y006939D01*
X014687Y006897D01*
X014770Y006897D01*
X014687Y006939D02*
X013812Y006939D01*
X013812Y006897D01*
X013770Y006897D01*
X013812Y006939D02*
X012687Y006939D01*
X012687Y006897D01*
X012770Y006897D01*
X012687Y006939D02*
X011812Y006939D01*
X011812Y006897D01*
X011770Y006897D01*
X011812Y006939D02*
X010812Y006939D01*
X010812Y006897D01*
X010770Y006897D01*
X010812Y006939D02*
X009812Y006939D01*
X009812Y006897D01*
X009770Y006897D01*
X009354Y006482D02*
X009187Y006314D01*
X008354Y006482D02*
X008187Y006314D01*
X007354Y006482D02*
X007187Y006314D01*
X006354Y006482D02*
X006187Y006314D01*
X005354Y006482D02*
X005187Y006314D01*
X004354Y006482D02*
X004187Y006314D01*
X003354Y006482D02*
X003187Y006314D01*
X002354Y006482D02*
X002187Y006314D01*
X001812Y006939D02*
X000812Y006939D01*
X000812Y006897D01*
X000770Y006897D01*
X001187Y007314D02*
X001354Y007482D01*
X001687Y007897D02*
X001687Y007939D01*
X002812Y007939D01*
X002812Y007897D01*
X002770Y007897D01*
X002812Y007939D02*
X003812Y007939D01*
X003812Y007897D01*
X003770Y007897D01*
X003812Y007939D02*
X004812Y007939D01*
X004812Y007897D01*
X004770Y007897D01*
X004812Y007939D02*
X005812Y007939D01*
X005812Y007897D01*
X005770Y007897D01*
X005812Y007939D02*
X006687Y007939D01*
X006687Y007897D01*
X006770Y007897D01*
X006687Y007939D02*
X007687Y007939D01*
X007687Y007897D01*
X007770Y007897D01*
X007687Y007939D02*
X008687Y007939D01*
X008354Y007482D02*
X008187Y007314D01*
X007354Y007482D02*
X007187Y007314D01*
X006354Y007482D02*
X006187Y007314D01*
X005354Y007482D02*
X005187Y007314D01*
X004354Y007482D02*
X004187Y007314D01*
X003354Y007482D02*
X003187Y007314D01*
X002354Y007482D02*
X002187Y007314D01*
X001770Y007897D02*
X001687Y007897D01*
X001687Y007939D02*
X000812Y007939D01*
X000812Y007897D01*
X000770Y007897D01*
X001187Y009314D02*
X001354Y009482D01*
X002187Y009314D02*
X002354Y009482D01*
X003187Y009314D02*
X003354Y009482D01*
X004187Y009314D02*
X004354Y009482D01*
X005187Y009314D02*
X005354Y009482D01*
X009187Y008314D02*
X009354Y008482D01*
X010187Y008314D02*
X010354Y008482D01*
X011187Y008314D02*
X011354Y008482D01*
X012187Y008314D02*
X012354Y008482D01*
X013187Y008314D02*
X013354Y008482D01*
X014187Y008314D02*
X014354Y008482D01*
X015187Y008314D02*
X015354Y008482D01*
X016187Y008314D02*
X016354Y008482D01*
X017187Y008314D02*
X017354Y008482D01*
X018187Y008314D02*
X018354Y008482D01*
X019187Y008314D02*
X019354Y008482D01*
X020187Y008314D02*
X020354Y008482D01*
X021187Y008314D02*
X021354Y008482D01*
X022187Y008314D02*
X022354Y008482D01*
X023354Y007482D02*
X023187Y007314D01*
X024187Y007314D02*
X024354Y007482D01*
X025187Y007314D02*
X025354Y007482D01*
X026187Y007314D02*
X026354Y007482D01*
X027187Y007314D02*
X027354Y007482D01*
X028187Y007314D02*
X028354Y007482D01*
X029187Y007314D02*
X029354Y007482D01*
X029187Y008314D02*
X029354Y008482D01*
X030187Y008314D02*
X030354Y008482D01*
X028354Y008482D02*
X028187Y008314D01*
X027354Y008482D02*
X027187Y008314D01*
X026354Y008482D02*
X026187Y008314D01*
X025354Y008482D02*
X025187Y008314D01*
X024354Y008482D02*
X024187Y008314D01*
X022354Y006482D02*
X022187Y006314D01*
X021354Y006482D02*
X021187Y006314D01*
X020354Y006482D02*
X020187Y006314D01*
X019354Y006482D02*
X019187Y006314D01*
X018354Y006482D02*
X018187Y006314D01*
X017354Y006482D02*
X017187Y006314D01*
X016354Y006482D02*
X016187Y006314D01*
X015354Y006482D02*
X015187Y006314D01*
X014354Y006482D02*
X014187Y006314D01*
X013354Y006482D02*
X013187Y006314D01*
X012354Y006482D02*
X012187Y006314D01*
X011354Y006482D02*
X011187Y006314D01*
X010354Y006482D02*
X010187Y006314D01*
X010354Y005482D02*
X010187Y005314D01*
X009812Y004939D02*
X009801Y004938D01*
X009791Y004933D01*
X009782Y004927D01*
X009776Y004918D01*
X009771Y004908D01*
X009770Y004897D01*
X009354Y004482D02*
X009187Y004314D01*
X008770Y003897D02*
X008729Y003897D01*
X008718Y003898D01*
X008708Y003903D01*
X008699Y003909D01*
X008693Y003918D01*
X008688Y003928D01*
X008687Y003939D01*
X008187Y004314D02*
X008354Y004482D01*
X008770Y004897D02*
X008895Y004897D01*
X008906Y004898D01*
X008916Y004903D01*
X008925Y004909D01*
X008931Y004918D01*
X008936Y004928D01*
X008937Y004939D01*
X009187Y005314D02*
X009354Y005482D01*
X008354Y005482D02*
X008187Y005314D01*
X007770Y004897D02*
X007729Y004897D01*
X007718Y004898D01*
X007708Y004903D01*
X007699Y004909D01*
X007693Y004918D01*
X007688Y004928D01*
X007687Y004939D01*
X007354Y004482D02*
X007187Y004314D01*
X006770Y003897D02*
X006729Y003897D01*
X006718Y003898D01*
X006708Y003903D01*
X006699Y003909D01*
X006693Y003918D01*
X006688Y003928D01*
X006687Y003939D01*
X006187Y004314D02*
X006354Y004482D01*
X006770Y004897D02*
X006895Y004897D01*
X006906Y004898D01*
X006916Y004903D01*
X006925Y004909D01*
X006931Y004918D01*
X006936Y004928D01*
X006937Y004939D01*
X007187Y005314D02*
X007354Y005482D01*
X006354Y005482D02*
X006187Y005314D01*
X005937Y004939D02*
X005936Y004928D01*
X005931Y004918D01*
X005925Y004909D01*
X005916Y004903D01*
X005906Y004898D01*
X005895Y004897D01*
X005770Y004897D01*
X005354Y004482D02*
X005187Y004314D01*
X004812Y003939D02*
X004801Y003938D01*
X004791Y003933D01*
X004782Y003927D01*
X004776Y003918D01*
X004771Y003908D01*
X004770Y003897D01*
X004187Y004314D02*
X004354Y004482D01*
X004020Y004897D02*
X003770Y004897D01*
X004020Y004897D02*
X004031Y004898D01*
X004041Y004903D01*
X004050Y004909D01*
X004056Y004918D01*
X004061Y004928D01*
X004062Y004939D01*
X004187Y005314D02*
X004354Y005482D01*
X005187Y005314D02*
X005354Y005482D01*
X004937Y004939D02*
X004936Y004928D01*
X004931Y004918D01*
X004925Y004909D01*
X004916Y004903D01*
X004906Y004898D01*
X004895Y004897D01*
X004770Y004897D01*
X003354Y004482D02*
X003187Y004314D01*
X002770Y003897D02*
X002729Y003897D01*
X002718Y003898D01*
X002708Y003903D01*
X002699Y003909D01*
X002693Y003918D01*
X002688Y003928D01*
X002687Y003939D01*
X002187Y004314D02*
X002354Y004482D01*
X002770Y004897D02*
X002895Y004897D01*
X002906Y004898D01*
X002916Y004903D01*
X002925Y004909D01*
X002931Y004918D01*
X002936Y004928D01*
X002937Y004939D01*
X003187Y005314D02*
X003354Y005482D01*
X002354Y005482D02*
X002187Y005314D01*
X001937Y004939D02*
X000812Y004939D01*
X000801Y004938D01*
X000791Y004933D01*
X000782Y004927D01*
X000776Y004918D01*
X000771Y004908D01*
X000770Y004897D01*
X001187Y005314D02*
X001354Y005482D01*
X001687Y003939D02*
X001688Y003928D01*
X001693Y003918D01*
X001699Y003909D01*
X001708Y003903D01*
X001718Y003898D01*
X001729Y003897D01*
X001770Y003897D01*
X001354Y003482D02*
X001187Y003314D01*
X000937Y002939D02*
X001727Y002939D01*
X001770Y002897D01*
X001812Y002939D01*
X001812Y002939D01*
X002727Y002939D01*
X002738Y002938D01*
X002748Y002933D01*
X002757Y002927D01*
X002763Y002918D01*
X002768Y002908D01*
X002769Y002897D01*
X002770Y002897D02*
X002812Y002939D01*
X003727Y002939D01*
X003738Y002938D01*
X003748Y002933D01*
X003757Y002927D01*
X003763Y002918D01*
X003768Y002908D01*
X003769Y002897D01*
X003770Y002897D02*
X003771Y002908D01*
X003776Y002918D01*
X003782Y002927D01*
X003791Y002933D01*
X003801Y002938D01*
X003812Y002939D01*
X004727Y002939D01*
X004738Y002938D01*
X004748Y002933D01*
X004757Y002927D01*
X004763Y002918D01*
X004768Y002908D01*
X004769Y002897D01*
X004770Y002897D02*
X004895Y002897D01*
X004906Y002898D01*
X004916Y002903D01*
X004925Y002909D01*
X004931Y002918D01*
X004936Y002928D01*
X004937Y002939D01*
X005727Y002939D01*
X005738Y002938D01*
X005748Y002933D01*
X005757Y002927D01*
X005763Y002918D01*
X005768Y002908D01*
X005769Y002897D01*
X005770Y002897D02*
X005771Y002908D01*
X005776Y002918D01*
X005782Y002927D01*
X005791Y002933D01*
X005801Y002938D01*
X005812Y002939D01*
X006727Y002939D01*
X006738Y002938D01*
X006748Y002933D01*
X006757Y002927D01*
X006763Y002918D01*
X006768Y002908D01*
X006769Y002897D01*
X006770Y002897D02*
X006771Y002908D01*
X006776Y002918D01*
X006782Y002927D01*
X006791Y002933D01*
X006801Y002938D01*
X006812Y002939D01*
X007727Y002939D01*
X007738Y002938D01*
X007748Y002933D01*
X007757Y002927D01*
X007763Y002918D01*
X007768Y002908D01*
X007769Y002897D01*
X007770Y002897D02*
X007771Y002908D01*
X007776Y002918D01*
X007782Y002927D01*
X007791Y002933D01*
X007801Y002938D01*
X007812Y002939D01*
X008727Y002939D01*
X008738Y002938D01*
X008748Y002933D01*
X008757Y002927D01*
X008763Y002918D01*
X008768Y002908D01*
X008769Y002897D01*
X008770Y002897D02*
X008771Y002908D01*
X008776Y002918D01*
X008782Y002927D01*
X008791Y002933D01*
X008801Y002938D01*
X008812Y002939D01*
X009727Y002939D01*
X009738Y002938D01*
X009748Y002933D01*
X009757Y002927D01*
X009763Y002918D01*
X009768Y002908D01*
X009769Y002897D01*
X009770Y002897D02*
X009771Y002908D01*
X009776Y002918D01*
X009782Y002927D01*
X009791Y002933D01*
X009801Y002938D01*
X009812Y002939D01*
X010727Y002939D01*
X010738Y002938D01*
X010748Y002933D01*
X010757Y002927D01*
X010763Y002918D01*
X010768Y002908D01*
X010769Y002897D01*
X010770Y002897D02*
X010771Y002908D01*
X010776Y002918D01*
X010782Y002927D01*
X010791Y002933D01*
X010801Y002938D01*
X010812Y002939D01*
X011727Y002939D01*
X011738Y002938D01*
X011748Y002933D01*
X011757Y002927D01*
X011763Y002918D01*
X011768Y002908D01*
X011769Y002897D01*
X011770Y002897D02*
X011771Y002908D01*
X011776Y002918D01*
X011782Y002927D01*
X011791Y002933D01*
X011801Y002938D01*
X011812Y002939D01*
X012727Y002939D01*
X012738Y002938D01*
X012748Y002933D01*
X012757Y002927D01*
X012763Y002918D01*
X012768Y002908D01*
X012769Y002897D01*
X012770Y002897D02*
X012771Y002908D01*
X012776Y002918D01*
X012782Y002927D01*
X012791Y002933D01*
X012801Y002938D01*
X012812Y002939D01*
X013687Y002939D01*
X013727Y002939D01*
X014687Y002939D01*
X014727Y002939D01*
X015727Y002939D01*
X015738Y002938D01*
X015748Y002933D01*
X015757Y002927D01*
X015763Y002918D01*
X015768Y002908D01*
X015769Y002897D01*
X015770Y002897D02*
X015812Y002939D01*
X016727Y002939D01*
X016770Y002897D01*
X016895Y002897D01*
X016937Y002939D01*
X017727Y002939D01*
X017770Y002897D01*
X017812Y002939D01*
X017812Y002939D01*
X018727Y002939D01*
X018738Y002938D01*
X018748Y002933D01*
X018757Y002927D01*
X018763Y002918D01*
X018768Y002908D01*
X018769Y002897D01*
X018770Y002897D02*
X018812Y002939D01*
X018812Y003189D01*
X018812Y002939D02*
X019727Y002939D01*
X019738Y002938D01*
X019748Y002933D01*
X019757Y002927D01*
X019763Y002918D01*
X019768Y002908D01*
X019769Y002897D01*
X019770Y002897D02*
X019771Y002908D01*
X019776Y002918D01*
X019782Y002927D01*
X019791Y002933D01*
X019801Y002938D01*
X019812Y002939D01*
X020727Y002939D01*
X020738Y002938D01*
X020748Y002933D01*
X020757Y002927D01*
X020763Y002918D01*
X020768Y002908D01*
X020769Y002897D01*
X020770Y002897D02*
X020895Y002897D01*
X020906Y002898D01*
X020916Y002903D01*
X020925Y002909D01*
X020931Y002918D01*
X020936Y002928D01*
X020937Y002939D01*
X021727Y002939D01*
X021738Y002938D01*
X021748Y002933D01*
X021757Y002927D01*
X021763Y002918D01*
X021768Y002908D01*
X021769Y002897D01*
X021770Y002897D02*
X021771Y002908D01*
X021776Y002918D01*
X021782Y002927D01*
X021791Y002933D01*
X021801Y002938D01*
X021812Y002939D01*
X022727Y002939D01*
X022738Y002938D01*
X022748Y002933D01*
X022757Y002927D01*
X022763Y002918D01*
X022768Y002908D01*
X022769Y002897D01*
X022770Y002897D02*
X022771Y002908D01*
X022776Y002918D01*
X022782Y002927D01*
X022791Y002933D01*
X022801Y002938D01*
X022812Y002939D01*
X023727Y002939D01*
X023738Y002938D01*
X023748Y002933D01*
X023757Y002927D01*
X023763Y002918D01*
X023768Y002908D01*
X023769Y002897D01*
X023770Y002897D02*
X023771Y002908D01*
X023776Y002918D01*
X023782Y002927D01*
X023791Y002933D01*
X023801Y002938D01*
X023812Y002939D01*
X024727Y002939D01*
X024738Y002938D01*
X024748Y002933D01*
X024757Y002927D01*
X024763Y002918D01*
X024768Y002908D01*
X024769Y002897D01*
X024770Y002897D02*
X024771Y002908D01*
X024776Y002918D01*
X024782Y002927D01*
X024791Y002933D01*
X024801Y002938D01*
X024812Y002939D01*
X025727Y002939D01*
X025738Y002938D01*
X025748Y002933D01*
X025757Y002927D01*
X025763Y002918D01*
X025768Y002908D01*
X025769Y002897D01*
X025770Y002897D02*
X025771Y002908D01*
X025776Y002918D01*
X025782Y002927D01*
X025791Y002933D01*
X025801Y002938D01*
X025812Y002939D01*
X026727Y002939D01*
X026738Y002938D01*
X026748Y002933D01*
X026757Y002927D01*
X026763Y002918D01*
X026768Y002908D01*
X026769Y002897D01*
X026770Y002897D02*
X026771Y002908D01*
X026776Y002918D01*
X026782Y002927D01*
X026791Y002933D01*
X026801Y002938D01*
X026812Y002939D01*
X027727Y002939D01*
X027738Y002938D01*
X027748Y002933D01*
X027757Y002927D01*
X027763Y002918D01*
X027768Y002908D01*
X027769Y002897D01*
X027770Y002897D02*
X027771Y002908D01*
X027776Y002918D01*
X027782Y002927D01*
X027791Y002933D01*
X027801Y002938D01*
X027812Y002939D01*
X028727Y002939D01*
X028738Y002938D01*
X028748Y002933D01*
X028757Y002927D01*
X028763Y002918D01*
X028768Y002908D01*
X028769Y002897D01*
X028770Y002897D02*
X028771Y002908D01*
X028776Y002918D01*
X028782Y002927D01*
X028791Y002933D01*
X028801Y002938D01*
X028812Y002939D01*
X029687Y002939D01*
X029727Y002939D01*
X030687Y002939D01*
X030727Y002939D01*
X031727Y002939D01*
X031738Y002938D01*
X031748Y002933D01*
X031757Y002927D01*
X031763Y002918D01*
X031768Y002908D01*
X031769Y002897D01*
X031354Y002482D02*
X031187Y002314D01*
X030812Y001939D02*
X031770Y001939D01*
X031770Y001897D01*
X031812Y001939D01*
X032187Y002314D02*
X032354Y002482D01*
X030812Y001939D02*
X030770Y001897D01*
X030770Y001939D01*
X029812Y001939D01*
X029770Y001897D01*
X029770Y001939D01*
X028812Y001939D01*
X028770Y001897D01*
X028770Y001939D01*
X027812Y001939D01*
X027770Y001897D01*
X027770Y001939D01*
X026812Y001939D01*
X026770Y001897D01*
X026770Y001939D01*
X025812Y001939D01*
X025770Y001897D01*
X025770Y001939D01*
X024812Y001939D01*
X024770Y001897D01*
X024770Y001939D01*
X023812Y001939D01*
X023770Y001897D01*
X023770Y001939D01*
X022812Y001939D01*
X022770Y001897D01*
X022770Y001939D01*
X021812Y001939D01*
X021770Y001897D01*
X021770Y001939D01*
X020812Y001939D01*
X020770Y001897D01*
X020770Y001939D01*
X019812Y001939D01*
X019770Y001897D01*
X019770Y001939D01*
X018812Y001939D01*
X018770Y001897D01*
X018770Y001939D01*
X017812Y001939D01*
X017770Y001897D01*
X017770Y001939D01*
X016812Y001939D01*
X016770Y001897D01*
X016727Y001939D01*
X015812Y001939D01*
X015770Y001897D01*
X015770Y001939D01*
X014812Y001939D01*
X014770Y001897D01*
X014770Y001939D01*
X013812Y001939D01*
X013770Y001897D01*
X013770Y001939D01*
X012812Y001939D01*
X012770Y001897D01*
X012770Y001939D01*
X011812Y001939D01*
X011770Y001897D01*
X011770Y001939D01*
X010812Y001939D01*
X010770Y001897D01*
X010770Y001939D01*
X009812Y001939D01*
X009770Y001897D01*
X009770Y001939D01*
X008812Y001939D01*
X008770Y001897D01*
X008770Y001939D01*
X007812Y001939D01*
X007770Y001897D01*
X007770Y001939D01*
X006812Y001939D01*
X006770Y001897D01*
X006770Y001939D01*
X005812Y001939D01*
X005770Y001897D01*
X005770Y001939D01*
X004812Y001939D01*
X004770Y001897D01*
X004770Y001939D01*
X003812Y001939D01*
X003770Y001897D01*
X003770Y001939D01*
X002812Y001939D01*
X002770Y001897D01*
X002770Y001939D01*
X001812Y001939D01*
X001770Y001897D01*
X001770Y001939D01*
X000812Y001939D01*
X000770Y001897D01*
X001187Y002314D02*
X001354Y002482D01*
X000895Y002897D02*
X000937Y002939D01*
X000895Y002897D02*
X000770Y002897D01*
X002187Y003314D02*
X002354Y003482D01*
X003187Y003314D02*
X003354Y003482D01*
X004187Y003314D02*
X004354Y003482D01*
X005187Y003314D02*
X005354Y003482D01*
X006187Y003314D02*
X006354Y003482D01*
X007187Y003314D02*
X007354Y003482D01*
X008187Y003314D02*
X008354Y003482D01*
X009187Y003314D02*
X009354Y003482D01*
X010187Y003314D02*
X010354Y003482D01*
X011187Y003314D02*
X011354Y003482D01*
X012187Y003314D02*
X012354Y003482D01*
X013187Y003314D02*
X013354Y003482D01*
X013812Y003189D02*
X013812Y002939D01*
X013770Y002897D01*
X013729Y002897D01*
X013769Y002897D02*
X013768Y002908D01*
X013763Y002918D01*
X013757Y002927D01*
X013748Y002933D01*
X013738Y002938D01*
X013727Y002939D01*
X013687Y002939D02*
X013688Y002928D01*
X013693Y002918D01*
X013699Y002909D01*
X013708Y002903D01*
X013718Y002898D01*
X013729Y002897D01*
X013354Y002482D02*
X013187Y002314D01*
X012354Y002482D02*
X012187Y002314D01*
X011354Y002482D02*
X011187Y002314D01*
X010354Y002482D02*
X010187Y002314D01*
X009354Y002482D02*
X009187Y002314D01*
X008354Y002482D02*
X008187Y002314D01*
X007354Y002482D02*
X007187Y002314D01*
X006354Y002482D02*
X006187Y002314D01*
X005354Y002482D02*
X005187Y002314D01*
X004354Y002482D02*
X004187Y002314D01*
X003354Y002482D02*
X003187Y002314D01*
X002354Y002482D02*
X002187Y002314D01*
X002354Y001482D02*
X002187Y001314D01*
X001770Y000897D02*
X002770Y000897D01*
X003770Y000897D01*
X004770Y000897D01*
X005770Y000897D01*
X006770Y000897D01*
X007770Y000897D01*
X008770Y000897D01*
X009770Y000897D01*
X010770Y000897D01*
X011770Y000897D01*
X012770Y000897D01*
X013770Y000897D01*
X014770Y000897D01*
X015770Y000897D01*
X016770Y000897D01*
X016770Y001147D01*
X016812Y001189D01*
X017187Y001314D02*
X017354Y001482D01*
X018187Y001314D02*
X018354Y001482D01*
X019187Y001314D02*
X019354Y001482D01*
X020187Y001314D02*
X020354Y001482D01*
X021187Y001314D02*
X021354Y001482D01*
X022187Y001314D02*
X022354Y001482D01*
X022770Y000897D02*
X021770Y000897D01*
X020770Y000897D01*
X019770Y000897D01*
X018770Y000897D01*
X017770Y000897D01*
X016770Y000897D01*
X016187Y001314D02*
X016354Y001482D01*
X015354Y001482D02*
X015187Y001314D01*
X014354Y001482D02*
X014187Y001314D01*
X013354Y001482D02*
X013187Y001314D01*
X012354Y001482D02*
X012187Y001314D01*
X011354Y001482D02*
X011187Y001314D01*
X010354Y001482D02*
X010187Y001314D01*
X009354Y001482D02*
X009187Y001314D01*
X008354Y001482D02*
X008187Y001314D01*
X007354Y001482D02*
X007187Y001314D01*
X006354Y001482D02*
X006187Y001314D01*
X005354Y001482D02*
X005187Y001314D01*
X004354Y001482D02*
X004187Y001314D01*
X003354Y001482D02*
X003187Y001314D01*
X001770Y000897D02*
X000770Y000897D01*
X001187Y001314D02*
X001354Y001482D01*
X003729Y003897D02*
X003770Y003897D01*
X003729Y003897D02*
X003718Y003898D01*
X003708Y003903D01*
X003699Y003909D01*
X003693Y003918D01*
X003688Y003928D01*
X003687Y003939D01*
X005687Y003939D02*
X005688Y003928D01*
X005693Y003918D01*
X005699Y003909D01*
X005708Y003903D01*
X005718Y003898D01*
X005729Y003897D01*
X005770Y003897D01*
X007729Y003897D02*
X007770Y003897D01*
X007729Y003897D02*
X007718Y003898D01*
X007708Y003903D01*
X007699Y003909D01*
X007693Y003918D01*
X007688Y003928D01*
X007687Y003939D01*
X009687Y003939D02*
X009688Y003928D01*
X009693Y003918D01*
X009699Y003909D01*
X009708Y003903D01*
X009718Y003898D01*
X009729Y003897D01*
X009770Y003897D01*
X010187Y004314D02*
X010354Y004482D01*
X010729Y004897D02*
X010770Y004897D01*
X010729Y004897D02*
X010718Y004898D01*
X010708Y004903D01*
X010699Y004909D01*
X010693Y004918D01*
X010688Y004928D01*
X010687Y004939D01*
X011187Y005314D02*
X011354Y005482D01*
X011812Y005189D02*
X011812Y004939D01*
X011770Y004897D01*
X011729Y004897D01*
X011718Y004898D01*
X011708Y004903D01*
X011699Y004909D01*
X011693Y004918D01*
X011688Y004928D01*
X011687Y004939D01*
X011354Y004482D02*
X011187Y004314D01*
X010812Y003939D02*
X010801Y003938D01*
X010791Y003933D01*
X010782Y003927D01*
X010776Y003918D01*
X010771Y003908D01*
X010770Y003897D01*
X011729Y003897D02*
X011770Y003897D01*
X011729Y003897D02*
X011718Y003898D01*
X011708Y003903D01*
X011699Y003909D01*
X011693Y003918D01*
X011688Y003928D01*
X011687Y003939D01*
X012187Y004314D02*
X012354Y004482D01*
X012729Y004897D02*
X012770Y004897D01*
X012729Y004897D02*
X012718Y004898D01*
X012708Y004903D01*
X012699Y004909D01*
X012693Y004918D01*
X012688Y004928D01*
X012687Y004939D01*
X012187Y005314D02*
X012354Y005482D01*
X013187Y005314D02*
X013354Y005482D01*
X014187Y005314D02*
X014354Y005482D01*
X015187Y005314D02*
X015354Y005482D01*
X016187Y005314D02*
X016354Y005482D01*
X017187Y005314D02*
X017354Y005482D01*
X018187Y005314D02*
X018354Y005482D01*
X019187Y005314D02*
X019354Y005482D01*
X020187Y005314D02*
X020354Y005482D01*
X020812Y005189D02*
X020812Y004939D01*
X020770Y004897D01*
X020895Y004897D01*
X020906Y004898D01*
X020916Y004903D01*
X020925Y004909D01*
X020931Y004918D01*
X020936Y004928D01*
X020937Y004939D01*
X021187Y005314D02*
X021354Y005482D01*
X022187Y005314D02*
X022354Y005482D01*
X021937Y004939D02*
X021936Y004928D01*
X021931Y004918D01*
X021925Y004909D01*
X021916Y004903D01*
X021906Y004898D01*
X021895Y004897D01*
X021770Y004897D01*
X021354Y004482D02*
X021187Y004314D01*
X020812Y003939D02*
X020801Y003938D01*
X020791Y003933D01*
X020782Y003927D01*
X020776Y003918D01*
X020771Y003908D01*
X020770Y003897D01*
X020187Y004314D02*
X020354Y004482D01*
X020020Y004897D02*
X019770Y004897D01*
X020020Y004897D02*
X020031Y004898D01*
X020041Y004903D01*
X020050Y004909D01*
X020056Y004918D01*
X020061Y004928D01*
X020062Y004939D01*
X019354Y004482D02*
X019187Y004314D01*
X018770Y003897D02*
X018729Y003897D01*
X018718Y003898D01*
X018708Y003903D01*
X018699Y003909D01*
X018693Y003918D01*
X018688Y003928D01*
X018687Y003939D01*
X018187Y004314D02*
X018354Y004482D01*
X018770Y004897D02*
X018895Y004897D01*
X018906Y004898D01*
X018916Y004903D01*
X018925Y004909D01*
X018931Y004918D01*
X018936Y004928D01*
X018937Y004939D01*
X017937Y004939D02*
X017936Y004928D01*
X017931Y004918D01*
X017925Y004909D01*
X017916Y004903D01*
X017906Y004898D01*
X017895Y004897D01*
X017770Y004897D01*
X017354Y004482D02*
X017187Y004314D01*
X017687Y003939D02*
X017688Y003928D01*
X017693Y003918D01*
X017699Y003909D01*
X017708Y003903D01*
X017718Y003898D01*
X017729Y003897D01*
X017770Y003897D01*
X017354Y003482D02*
X017187Y003314D01*
X016354Y003482D02*
X016187Y003314D01*
X015354Y003482D02*
X015187Y003314D01*
X014729Y002897D02*
X014718Y002898D01*
X014708Y002903D01*
X014699Y002909D01*
X014693Y002918D01*
X014688Y002928D01*
X014687Y002939D01*
X014727Y002939D02*
X014738Y002938D01*
X014748Y002933D01*
X014757Y002927D01*
X014763Y002918D01*
X014768Y002908D01*
X014769Y002897D01*
X014770Y002897D02*
X014729Y002897D01*
X014354Y002482D02*
X014187Y002314D01*
X015187Y002314D02*
X015354Y002482D01*
X016187Y002314D02*
X016354Y002482D01*
X017187Y002314D02*
X017354Y002482D01*
X017812Y002189D02*
X017812Y001939D01*
X018187Y002314D02*
X018354Y002482D01*
X019187Y002314D02*
X019354Y002482D01*
X020187Y002314D02*
X020354Y002482D01*
X021187Y002314D02*
X021354Y002482D01*
X022187Y002314D02*
X022354Y002482D01*
X023187Y002314D02*
X023354Y002482D01*
X024187Y002314D02*
X024354Y002482D01*
X025187Y002314D02*
X025354Y002482D01*
X026187Y002314D02*
X026354Y002482D01*
X027187Y002314D02*
X027354Y002482D01*
X028187Y002314D02*
X028354Y002482D01*
X029187Y002314D02*
X029354Y002482D01*
X029769Y002897D02*
X029768Y002908D01*
X029763Y002918D01*
X029757Y002927D01*
X029748Y002933D01*
X029738Y002938D01*
X029727Y002939D01*
X029687Y002939D02*
X029688Y002928D01*
X029693Y002918D01*
X029699Y002909D01*
X029708Y002903D01*
X029718Y002898D01*
X029729Y002897D01*
X029770Y002897D01*
X030187Y002314D02*
X030354Y002482D01*
X030769Y002897D02*
X030768Y002908D01*
X030763Y002918D01*
X030757Y002927D01*
X030748Y002933D01*
X030738Y002938D01*
X030727Y002939D01*
X030687Y002939D02*
X030688Y002928D01*
X030693Y002918D01*
X030699Y002909D01*
X030708Y002903D01*
X030718Y002898D01*
X030729Y002897D01*
X030770Y002897D01*
X031187Y003314D02*
X031354Y003482D01*
X032187Y003314D02*
X032354Y003482D01*
X030354Y003482D02*
X030187Y003314D01*
X029770Y003897D02*
X029771Y003908D01*
X029776Y003918D01*
X029782Y003927D01*
X029791Y003933D01*
X029801Y003938D01*
X029812Y003939D01*
X029354Y003482D02*
X029187Y003314D01*
X028354Y003482D02*
X028187Y003314D01*
X027770Y003897D02*
X027729Y003897D01*
X027718Y003898D01*
X027708Y003903D01*
X027699Y003909D01*
X027693Y003918D01*
X027688Y003928D01*
X027687Y003939D01*
X027187Y004314D02*
X027354Y004482D01*
X027729Y004897D02*
X027770Y004897D01*
X027729Y004897D02*
X027718Y004898D01*
X027708Y004903D01*
X027699Y004909D01*
X027693Y004918D01*
X027688Y004928D01*
X027687Y004939D01*
X027187Y005314D02*
X027354Y005482D01*
X026770Y004897D02*
X026729Y004897D01*
X026718Y004898D01*
X026708Y004903D01*
X026699Y004909D01*
X026693Y004918D01*
X026688Y004928D01*
X026687Y004939D01*
X026354Y004482D02*
X026187Y004314D01*
X025770Y003897D02*
X025729Y003897D01*
X025718Y003898D01*
X025708Y003903D01*
X025699Y003909D01*
X025693Y003918D01*
X025688Y003928D01*
X025687Y003939D01*
X025187Y004314D02*
X025354Y004482D01*
X025770Y004897D02*
X025771Y004908D01*
X025776Y004918D01*
X025782Y004927D01*
X025791Y004933D01*
X025801Y004938D01*
X025812Y004939D01*
X026187Y005314D02*
X026354Y005482D01*
X025354Y005482D02*
X025187Y005314D01*
X024937Y004939D02*
X024936Y004928D01*
X024931Y004918D01*
X024925Y004909D01*
X024916Y004903D01*
X024906Y004898D01*
X024895Y004897D01*
X024770Y004897D01*
X024354Y004482D02*
X024187Y004314D01*
X023770Y003897D02*
X023729Y003897D01*
X023718Y003898D01*
X023708Y003903D01*
X023699Y003909D01*
X023693Y003918D01*
X023688Y003928D01*
X023687Y003939D01*
X023187Y004314D02*
X023354Y004482D01*
X023729Y004897D02*
X023770Y004897D01*
X023729Y004897D02*
X023718Y004898D01*
X023708Y004903D01*
X023699Y004909D01*
X023693Y004918D01*
X023688Y004928D01*
X023687Y004939D01*
X023187Y005314D02*
X023354Y005482D01*
X022937Y004939D02*
X022936Y004928D01*
X022931Y004918D01*
X022925Y004909D01*
X022916Y004903D01*
X022906Y004898D01*
X022895Y004897D01*
X022770Y004897D01*
X022354Y004482D02*
X022187Y004314D01*
X021770Y003897D02*
X021729Y003897D01*
X021718Y003898D01*
X021708Y003903D01*
X021699Y003909D01*
X021693Y003918D01*
X021688Y003928D01*
X021687Y003939D01*
X021354Y003482D02*
X021187Y003314D01*
X020354Y003482D02*
X020187Y003314D01*
X019354Y003482D02*
X019187Y003314D01*
X018354Y003482D02*
X018187Y003314D01*
X019729Y003897D02*
X019770Y003897D01*
X019812Y003939D01*
X019812Y004189D01*
X019687Y003939D02*
X019688Y003928D01*
X019693Y003918D01*
X019699Y003909D01*
X019708Y003903D01*
X019718Y003898D01*
X019729Y003897D01*
X022187Y003314D02*
X022354Y003482D01*
X022729Y003897D02*
X022770Y003897D01*
X022729Y003897D02*
X022718Y003898D01*
X022708Y003903D01*
X022699Y003909D01*
X022693Y003918D01*
X022688Y003928D01*
X022687Y003939D01*
X023187Y003314D02*
X023354Y003482D01*
X024187Y003314D02*
X024354Y003482D01*
X024729Y003897D02*
X024770Y003897D01*
X024729Y003897D02*
X024718Y003898D01*
X024708Y003903D01*
X024699Y003909D01*
X024693Y003918D01*
X024688Y003928D01*
X024687Y003939D01*
X025187Y003314D02*
X025354Y003482D01*
X026187Y003314D02*
X026354Y003482D01*
X026770Y003897D02*
X026771Y003908D01*
X026776Y003918D01*
X026782Y003927D01*
X026791Y003933D01*
X026801Y003938D01*
X026812Y003939D01*
X027354Y003482D02*
X027187Y003314D01*
X027354Y001482D02*
X027187Y001314D01*
X026770Y000897D02*
X027770Y000897D01*
X028770Y000897D01*
X029770Y000897D01*
X030770Y000897D01*
X031770Y000897D01*
X032187Y001314D02*
X032354Y001482D01*
X031354Y001482D02*
X031187Y001314D01*
X030354Y001482D02*
X030187Y001314D01*
X029354Y001482D02*
X029187Y001314D01*
X028354Y001482D02*
X028187Y001314D01*
X026770Y000897D02*
X025770Y000897D01*
X024770Y000897D01*
X023770Y000897D01*
X022770Y000897D01*
X023187Y001314D02*
X023354Y001482D01*
X024187Y001314D02*
X024354Y001482D01*
X025187Y001314D02*
X025354Y001482D01*
X026187Y001314D02*
X026354Y001482D01*
X024187Y005314D02*
X024354Y005482D01*
X016354Y004482D02*
X016187Y004314D01*
X015354Y004482D02*
X015187Y004314D01*
X014770Y003897D02*
X014729Y003897D01*
X014718Y003898D01*
X014708Y003903D01*
X014699Y003909D01*
X014693Y003918D01*
X014688Y003928D01*
X014687Y003939D01*
X014187Y004314D02*
X014354Y004482D01*
X014770Y004897D02*
X014771Y004908D01*
X014776Y004918D01*
X014782Y004927D01*
X014791Y004933D01*
X014801Y004938D01*
X014812Y004939D01*
X013812Y004939D02*
X013801Y004938D01*
X013791Y004933D01*
X013782Y004927D01*
X013776Y004918D01*
X013771Y004908D01*
X013770Y004897D01*
X013354Y004482D02*
X013187Y004314D01*
X013770Y003897D02*
X013771Y003908D01*
X013776Y003918D01*
X013782Y003927D01*
X013791Y003933D01*
X013801Y003938D01*
X013812Y003939D01*
X014354Y003482D02*
X014187Y003314D01*
X009354Y007482D02*
X009187Y007314D01*
X022187Y015314D02*
X022354Y015482D01*
X023187Y015314D02*
X023354Y015482D01*
X024187Y015314D02*
X024354Y015482D01*
X025187Y015314D02*
X025354Y015482D01*
X025770Y015897D02*
X025812Y015939D01*
X026354Y015482D02*
X026187Y015314D01*
X028187Y015314D02*
X028354Y015482D01*
X029187Y015314D02*
X029354Y015482D01*
X030187Y015314D02*
X030354Y015482D01*
X030187Y016314D02*
X030354Y016482D01*
X030354Y016982D01*
X030562Y017189D01*
X030562Y018064D01*
X029562Y018064D02*
X029562Y017189D01*
X029354Y016982D01*
X029354Y016482D01*
X029187Y016314D01*
X031187Y016314D02*
X031354Y016482D01*
X031354Y016982D01*
X031562Y017189D01*
X031562Y018064D01*
D14*
X031187Y016314D03*
X031812Y016189D03*
X032187Y016314D03*
X032187Y015314D03*
X031187Y015314D03*
X030812Y015189D03*
X030187Y015314D03*
X029187Y015314D03*
X028187Y015314D03*
X027187Y015314D03*
X026187Y015314D03*
X025187Y015314D03*
X024187Y015314D03*
X023187Y015314D03*
X022187Y015314D03*
X021187Y015314D03*
X020187Y015314D03*
X019187Y015314D03*
X018187Y015314D03*
X017187Y015314D03*
X016187Y015314D03*
X015187Y015314D03*
X014187Y015314D03*
X013187Y015314D03*
X012187Y015314D03*
X011187Y015314D03*
X010187Y015314D03*
X009187Y015314D03*
X008187Y015314D03*
X007187Y015314D03*
X006187Y015314D03*
X005187Y015314D03*
X004187Y015314D03*
X003187Y015314D03*
X002187Y015314D03*
X001812Y015189D03*
X001187Y015314D03*
X001187Y016314D03*
X002187Y016314D03*
X003187Y016314D03*
X004187Y016314D03*
X005187Y016314D03*
X006187Y016314D03*
X007187Y016314D03*
X008187Y016314D03*
X009187Y016314D03*
X010187Y016314D03*
X011187Y016314D03*
X012187Y016314D03*
X013187Y016314D03*
X014187Y016314D03*
X015187Y016314D03*
X016187Y016314D03*
X017187Y016314D03*
X018187Y016314D03*
X019187Y016314D03*
X020187Y016314D03*
X021187Y016314D03*
X022187Y016314D03*
X023187Y016314D03*
X024187Y016314D03*
X025187Y016314D03*
X026187Y016314D03*
X027187Y016314D03*
X028187Y016314D03*
X029187Y016314D03*
X030187Y016314D03*
X030187Y014314D03*
X029812Y014189D03*
X029187Y014314D03*
X028187Y014314D03*
X027187Y014314D03*
X026187Y014314D03*
X025187Y014314D03*
X024187Y014314D03*
X023187Y014314D03*
X022187Y014314D03*
X021187Y014314D03*
X020187Y014314D03*
X019187Y014314D03*
X018187Y014314D03*
X017187Y014314D03*
X016187Y014314D03*
X015187Y014314D03*
X014187Y014314D03*
X013187Y014314D03*
X012187Y014314D03*
X011187Y014314D03*
X010187Y014314D03*
X009187Y014314D03*
X008187Y014314D03*
X007187Y014314D03*
X006187Y014314D03*
X005187Y014314D03*
X004187Y014314D03*
X003187Y014314D03*
X002812Y014189D03*
X002187Y014314D03*
X001187Y014314D03*
X001187Y013314D03*
X002187Y013314D03*
X003187Y013314D03*
X003812Y013189D03*
X004187Y013314D03*
X005187Y013314D03*
X006187Y013314D03*
X007187Y013314D03*
X008187Y013314D03*
X009187Y013314D03*
X010187Y013314D03*
X011187Y013314D03*
X012187Y013314D03*
X013187Y013314D03*
X014187Y013314D03*
X015187Y013314D03*
X016187Y013314D03*
X017187Y013314D03*
X018187Y013314D03*
X019187Y013314D03*
X020187Y013314D03*
X021187Y013314D03*
X022187Y013314D03*
X023187Y013314D03*
X024187Y013314D03*
X025187Y013314D03*
X026187Y013314D03*
X027187Y013314D03*
X028187Y013314D03*
X028812Y013189D03*
X029187Y013314D03*
X030187Y013314D03*
X031187Y013314D03*
X032187Y013314D03*
X032187Y012314D03*
X031187Y012314D03*
X030187Y012314D03*
X029187Y012314D03*
X028187Y012314D03*
X027812Y012189D03*
X027187Y012314D03*
X026187Y012314D03*
X025187Y012314D03*
X024187Y012314D03*
X023187Y012314D03*
X022187Y012314D03*
X021187Y012314D03*
X020187Y012314D03*
X019187Y012314D03*
X018187Y012314D03*
X017187Y012314D03*
X016187Y012314D03*
X015187Y012314D03*
X014187Y012314D03*
X013187Y012314D03*
X012187Y012314D03*
X011187Y012314D03*
X010187Y012314D03*
X009187Y012314D03*
X008187Y012314D03*
X007187Y012314D03*
X006187Y012314D03*
X005187Y012314D03*
X004812Y012189D03*
X004187Y012314D03*
X003187Y012314D03*
X002187Y012314D03*
X001187Y012314D03*
X001187Y011314D03*
X002187Y011314D03*
X003187Y011314D03*
X004187Y011314D03*
X005187Y011314D03*
X005812Y011189D03*
X006187Y011314D03*
X007187Y011314D03*
X008187Y011314D03*
X009187Y011314D03*
X010187Y011314D03*
X011187Y011314D03*
X012187Y011314D03*
X013187Y011314D03*
X014187Y011314D03*
X015187Y011314D03*
X016187Y011314D03*
X017187Y011314D03*
X018187Y011314D03*
X019187Y011314D03*
X020187Y011314D03*
X021187Y011314D03*
X022187Y011314D03*
X023187Y011314D03*
X024187Y011314D03*
X025187Y011314D03*
X026187Y011314D03*
X026812Y011189D03*
X027187Y011314D03*
X028187Y011314D03*
X029187Y011314D03*
X030187Y011314D03*
X031187Y011314D03*
X032187Y011314D03*
X032187Y010314D03*
X031187Y010314D03*
X030187Y010314D03*
X029187Y010314D03*
X028187Y010314D03*
X027187Y010314D03*
X026187Y010314D03*
X025812Y010189D03*
X025187Y010314D03*
X024187Y010314D03*
X023187Y010314D03*
X022187Y010314D03*
X021187Y010314D03*
X020187Y010314D03*
X019187Y010314D03*
X018187Y010314D03*
X017187Y010314D03*
X016187Y010314D03*
X015187Y010314D03*
X014187Y010314D03*
X013187Y010314D03*
X012187Y010314D03*
X011187Y010314D03*
X010187Y010314D03*
X009187Y010314D03*
X008187Y010314D03*
X007187Y010314D03*
X006812Y010189D03*
X006187Y010314D03*
X005187Y010314D03*
X004187Y010314D03*
X003187Y010314D03*
X002187Y010314D03*
X001187Y010314D03*
X001187Y009314D03*
X002187Y009314D03*
X003187Y009314D03*
X004187Y009314D03*
X005187Y009314D03*
X006187Y009314D03*
X007187Y009314D03*
X007812Y009189D03*
X008187Y009314D03*
X009187Y009314D03*
X010187Y009314D03*
X011187Y009314D03*
X012187Y009314D03*
X013187Y009314D03*
X014187Y009314D03*
X015187Y009314D03*
X016187Y009314D03*
X017187Y009314D03*
X018187Y009314D03*
X019187Y009314D03*
X020187Y009314D03*
X021187Y009314D03*
X022187Y009314D03*
X023187Y009314D03*
X024187Y009314D03*
X024812Y009189D03*
X025187Y009314D03*
X026187Y009314D03*
X027187Y009314D03*
X028187Y009314D03*
X029187Y009314D03*
X030187Y009314D03*
X031187Y009314D03*
X032187Y009314D03*
X032187Y008314D03*
X031187Y008314D03*
X030187Y008314D03*
X029187Y008314D03*
X028187Y008314D03*
X027187Y008314D03*
X026187Y008314D03*
X025187Y008314D03*
X024187Y008314D03*
X023812Y008189D03*
X023187Y008314D03*
X022187Y008314D03*
X021187Y008314D03*
X020187Y008314D03*
X019187Y008314D03*
X018187Y008314D03*
X017187Y008314D03*
X016187Y008314D03*
X015187Y008314D03*
X014187Y008314D03*
X013187Y008314D03*
X012187Y008314D03*
X011187Y008314D03*
X010187Y008314D03*
X009187Y008314D03*
X008812Y008189D03*
X008187Y008314D03*
X007187Y008314D03*
X006187Y008314D03*
X005187Y008314D03*
X004187Y008314D03*
X003187Y008314D03*
X002187Y008314D03*
X001187Y008314D03*
X001187Y007314D03*
X002187Y007314D03*
X003187Y007314D03*
X004187Y007314D03*
X005187Y007314D03*
X006187Y007314D03*
X007187Y007314D03*
X008187Y007314D03*
X009187Y007314D03*
X009812Y007189D03*
X010187Y007314D03*
X011187Y007314D03*
X012187Y007314D03*
X013187Y007314D03*
X014187Y007314D03*
X015187Y007314D03*
X016187Y007314D03*
X017187Y007314D03*
X018187Y007314D03*
X019187Y007314D03*
X020187Y007314D03*
X021187Y007314D03*
X022187Y007314D03*
X022812Y007189D03*
X023187Y007314D03*
X024187Y007314D03*
X025187Y007314D03*
X026187Y007314D03*
X027187Y007314D03*
X028187Y007314D03*
X029187Y007314D03*
X030187Y007314D03*
X031187Y007314D03*
X032187Y007314D03*
X032187Y006314D03*
X031187Y006314D03*
X030187Y006314D03*
X029187Y006314D03*
X028187Y006314D03*
X027187Y006314D03*
X026187Y006314D03*
X025187Y006314D03*
X024187Y006314D03*
X023187Y006314D03*
X022187Y006314D03*
X021812Y006189D03*
X021187Y006314D03*
X020187Y006314D03*
X019187Y006314D03*
X018187Y006314D03*
X017187Y006314D03*
X016187Y006314D03*
X015187Y006314D03*
X014187Y006314D03*
X013187Y006314D03*
X012187Y006314D03*
X011187Y006314D03*
X010812Y006189D03*
X010187Y006314D03*
X009187Y006314D03*
X008187Y006314D03*
X007187Y006314D03*
X006187Y006314D03*
X005187Y006314D03*
X004187Y006314D03*
X003187Y006314D03*
X002187Y006314D03*
X001187Y006314D03*
X001187Y005314D03*
X002187Y005314D03*
X003187Y005314D03*
X004187Y005314D03*
X005187Y005314D03*
X006187Y005314D03*
X007187Y005314D03*
X008187Y005314D03*
X009187Y005314D03*
X010187Y005314D03*
X011187Y005314D03*
X011812Y005189D03*
X012187Y005314D03*
X013187Y005314D03*
X014187Y005314D03*
X015187Y005314D03*
X016187Y005314D03*
X017187Y005314D03*
X018187Y005314D03*
X019187Y005314D03*
X020187Y005314D03*
X020812Y005189D03*
X021187Y005314D03*
X022187Y005314D03*
X023187Y005314D03*
X024187Y005314D03*
X025187Y005314D03*
X026187Y005314D03*
X027187Y005314D03*
X028187Y005314D03*
X029187Y005314D03*
X030187Y005314D03*
X031187Y005314D03*
X032187Y005314D03*
X032187Y004314D03*
X031187Y004314D03*
X030187Y004314D03*
X029187Y004314D03*
X028187Y004314D03*
X027187Y004314D03*
X026187Y004314D03*
X025187Y004314D03*
X024187Y004314D03*
X023187Y004314D03*
X022187Y004314D03*
X021187Y004314D03*
X020187Y004314D03*
X019812Y004189D03*
X019187Y004314D03*
X018187Y004314D03*
X017187Y004314D03*
X016187Y004314D03*
X015187Y004314D03*
X014187Y004314D03*
X013187Y004314D03*
X012812Y004189D03*
X012187Y004314D03*
X011187Y004314D03*
X010187Y004314D03*
X009187Y004314D03*
X008187Y004314D03*
X007187Y004314D03*
X006187Y004314D03*
X005187Y004314D03*
X004187Y004314D03*
X003187Y004314D03*
X002187Y004314D03*
X001187Y004314D03*
X001187Y003314D03*
X002187Y003314D03*
X003187Y003314D03*
X004187Y003314D03*
X005187Y003314D03*
X006187Y003314D03*
X007187Y003314D03*
X008187Y003314D03*
X009187Y003314D03*
X010187Y003314D03*
X011187Y003314D03*
X012187Y003314D03*
X013187Y003314D03*
X013812Y003189D03*
X014187Y003314D03*
X015187Y003314D03*
X016187Y003314D03*
X017187Y003314D03*
X018187Y003314D03*
X018812Y003189D03*
X019187Y003314D03*
X020187Y003314D03*
X021187Y003314D03*
X022187Y003314D03*
X023187Y003314D03*
X024187Y003314D03*
X025187Y003314D03*
X026187Y003314D03*
X027187Y003314D03*
X028187Y003314D03*
X029187Y003314D03*
X030187Y003314D03*
X031187Y003314D03*
X032187Y003314D03*
X032187Y002314D03*
X031187Y002314D03*
X030187Y002314D03*
X029187Y002314D03*
X028187Y002314D03*
X027187Y002314D03*
X026187Y002314D03*
X025187Y002314D03*
X024187Y002314D03*
X023187Y002314D03*
X022187Y002314D03*
X021187Y002314D03*
X020187Y002314D03*
X019187Y002314D03*
X018187Y002314D03*
X017812Y002189D03*
X017187Y002314D03*
X016187Y002314D03*
X015187Y002314D03*
X014187Y002314D03*
X013187Y002314D03*
X012187Y002314D03*
X011187Y002314D03*
X010187Y002314D03*
X009187Y002314D03*
X008187Y002314D03*
X007187Y002314D03*
X006187Y002314D03*
X005187Y002314D03*
X004187Y002314D03*
X003187Y002314D03*
X002187Y002314D03*
X001187Y002314D03*
X001187Y001314D03*
X002187Y001314D03*
X003187Y001314D03*
X004187Y001314D03*
X005187Y001314D03*
X006187Y001314D03*
X007187Y001314D03*
X008187Y001314D03*
X009187Y001314D03*
X010187Y001314D03*
X011187Y001314D03*
X012187Y001314D03*
X013187Y001314D03*
X014187Y001314D03*
X015187Y001314D03*
X016187Y001314D03*
X016812Y001189D03*
X017187Y001314D03*
X018187Y001314D03*
X019187Y001314D03*
X020187Y001314D03*
X021187Y001314D03*
X022187Y001314D03*
X023187Y001314D03*
X024187Y001314D03*
X025187Y001314D03*
X026187Y001314D03*
X027187Y001314D03*
X028187Y001314D03*
X029187Y001314D03*
X030187Y001314D03*
X031187Y001314D03*
X032187Y001314D03*
X032187Y014314D03*
X031187Y014314D03*
M02*
